<?xml version="1.0" encoding="utf-8"?>
<!-- Generator: Adobe Illustrator 15.0.0, SVG Export Plug-In . SVG Version: 6.00 Build 0)  -->
<!DOCTYPE svg PUBLIC "-//W3C//DTD SVG 1.1//EN" "http://www.w3.org/Graphics/SVG/1.1/DTD/svg11.dtd">
<svg version="1.1" id="Layer_1" xmlns="http://www.w3.org/2000/svg" xmlns:xlink="http://www.w3.org/1999/xlink" x="0px" y="0px"
	 width="50px" height="50px" viewBox="0 0 50 50" enable-background="new 0 0 50 50" xml:space="preserve">
<g>
	<g>
		<path fill-rule="evenodd" clip-rule="evenodd" fill="#F79431" d="M42.376,4.549l5.917-1.585l0.959,1.202l-5.917,1.585
			L42.376,4.549L42.376,4.549L42.376,4.549z M42.813,6.352l-1.496-0.65l0,0l0.01-0.053l0.012-0.052l0.011-0.049l0.015-0.052
			l0.017-0.048l0.018-0.047l0.02-0.047l0.021-0.046l0.021-0.044l0.023-0.044l0.025-0.042l0.027-0.042l0.028-0.042l0.029-0.038
			l0.032-0.04l0.031-0.037l0.034-0.036l0.035-0.036l0.037-0.033l0.037-0.033l0.041-0.033l0.04-0.03l0.044-0.029l0.044-0.028
			l0.046-0.026l0.048-0.025l0.046-0.023l0.05-0.022l0.054-0.021l0.052-0.019l0.054-0.018l0.057-0.017l0.96,1.203l-0.022,0.006
			L43.29,5.766l-0.022,0.008l-0.021,0.009l-0.023,0.01L43.2,5.804l-0.022,0.011l-0.022,0.013l-0.019,0.013l-0.022,0.015
			l-0.021,0.015l-0.019,0.016l-0.02,0.017l-0.02,0.018l-0.02,0.019l-0.018,0.02l-0.019,0.02L42.963,6l-0.016,0.022l-0.015,0.022
			l-0.015,0.022L42.902,6.09l-0.012,0.024l-0.012,0.024l-0.012,0.024l-0.011,0.025l-0.009,0.026l-0.01,0.027L42.83,6.268
			l-0.007,0.028l-0.006,0.028L42.813,6.352L42.813,6.352L42.813,6.352z M37.033,32.302l4.284-26.601l1.496,0.65l-4.286,26.601l0,0
			L37.033,32.302L37.033,32.302z M37.027,34.162l-0.639-1.242l0,0l0.019-0.002l0.021-0.001l0.021-0.001l0.021-0.005l0.023-0.004
			l0.023-0.007l0.025-0.006l0.025-0.01l0.025-0.01l0.026-0.011l0.027-0.014l0.025-0.016l0.026-0.016l0.025-0.018l0.025-0.02
			l0.024-0.021l0.024-0.021l0.024-0.022l0.022-0.024l0.021-0.024l0.021-0.027l0.021-0.025l0.019-0.029l0.018-0.03l0.016-0.029
			l0.015-0.029l0.014-0.032l0.012-0.031l0.011-0.032l0.009-0.033l0.009-0.034l0.007-0.034l1.494,0.65l-0.012,0.066l-0.015,0.063
			l-0.018,0.061l-0.02,0.062l-0.022,0.058l-0.024,0.058l-0.026,0.057l-0.029,0.054l-0.031,0.053l-0.033,0.052l-0.036,0.049
			l-0.038,0.047l-0.038,0.047l-0.043,0.044l-0.043,0.043l-0.047,0.04l-0.047,0.039l-0.051,0.037l-0.052,0.033l-0.054,0.035
			l-0.056,0.031l-0.058,0.029l-0.062,0.027l-0.061,0.023l-0.064,0.021l-0.068,0.021l-0.069,0.019l-0.071,0.014l-0.074,0.011
			l-0.077,0.009l-0.079,0.007L37.027,34.162L37.027,34.162L37.027,34.162z M7.711,32.92h28.677l0.639,1.242H8.35l0,0L7.711,32.92
			L7.711,32.92z M6.248,32.6l1.469,0.272l0,0l0.007,0.021l0.006,0.021l0.007,0.016l0.005,0.014l0.006,0.014l0.006,0.009l0.005,0.009
			l0.002,0.005l0.001,0.001l0.002,0.001l0,0L7.76,32.979l-0.002-0.005L7.75,32.97l-0.006-0.007l-0.008-0.006L7.726,32.95
			l-0.011-0.009l-0.011-0.007L7.694,32.93l-0.011-0.007l-0.005-0.001l-0.01-0.004l-0.004-0.002H7.66l-0.001-0.001l0.003,0.001
			l0.006,0.001h0.006l0.009,0.001h0.013l0.016,0.002l0.639,1.242L8.271,34.16l-0.078-0.005l-0.083-0.008l-0.084-0.014L7.945,34.12
			L7.861,34.1l-0.088-0.022L7.687,34.05l-0.089-0.033l-0.09-0.037L7.423,33.94l-0.089-0.044l-0.087-0.049l-0.084-0.052L7.081,33.74
			l-0.08-0.058l-0.076-0.062l-0.072-0.063l-0.071-0.065l-0.063-0.066l-0.062-0.07L6.601,33.29l-0.052-0.068l-0.05-0.071
			l-0.044-0.071l-0.04-0.066l-0.037-0.069l-0.032-0.069l-0.031-0.069L6.29,32.736l-0.022-0.067L6.248,32.6L6.248,32.6L6.248,32.6z
			 M3.542,17.292l4.175,15.581L6.248,32.6L2.072,17.02L3.542,17.292L3.542,17.292L3.542,17.292z M2.252,15.821l1.396,0.908l0,0
			l-0.011,0.019l-0.012,0.019l-0.011,0.019l-0.009,0.019l-0.01,0.019l-0.01,0.019l-0.008,0.02l-0.008,0.018l-0.007,0.018
			l-0.006,0.019l-0.007,0.02l-0.004,0.018L3.54,16.972l-0.005,0.018l-0.003,0.019l-0.003,0.018l-0.002,0.016L3.523,17.06
			l-0.002,0.019l0,0.016l0,0.018v0.018v0.015l0.001,0.017v0.018l0.002,0.016l0.002,0.015l0.002,0.018l0.003,0.017l0.003,0.015
			l0.003,0.015l0.003,0.016L2.072,17.02l-0.011-0.042l-0.01-0.044l-0.008-0.043l-0.007-0.041L2.029,16.81l-0.005-0.042l-0.004-0.042
			l-0.003-0.04l-0.002-0.039l0-0.042l0-0.039l0.002-0.038l0.002-0.04l0.003-0.038l0.005-0.038l0.006-0.039l0.006-0.037l0.008-0.037
			l0.008-0.037l0.009-0.038l0.011-0.036l0.011-0.034L2.1,16.121l0.013-0.036l0.014-0.035l0.016-0.034l0.016-0.033l0.017-0.033
			l0.018-0.033l0.019-0.033l0.02-0.032L2.252,15.821L2.252,15.821L2.252,15.821z M3.294,15.185l0.824,1.229l0,0l-0.016,0.002
			l-0.015,0.002l-0.016,0.003l-0.017,0.004l-0.015,0.004l-0.015,0.004l-0.015,0.004l-0.014,0.005L3.98,16.45l-0.015,0.006
			l-0.016,0.007L3.934,16.47l-0.015,0.008l-0.015,0.008l-0.015,0.008l-0.015,0.009l-0.016,0.01l-0.016,0.01l-0.014,0.011
			l-0.014,0.011L3.8,16.558l-0.016,0.013l-0.013,0.012l-0.014,0.014l-0.014,0.015l-0.015,0.015l-0.014,0.015l-0.013,0.016
			l-0.014,0.018l-0.013,0.017L3.662,16.71l-0.013,0.019l-1.396-0.908l0.022-0.031l0.021-0.03l0.022-0.03l0.023-0.029l0.024-0.029
			l0.026-0.029l0.024-0.026l0.025-0.027l0.027-0.026l0.028-0.025l0.028-0.023l0.028-0.024l0.03-0.023l0.031-0.023l0.032-0.021
			l0.031-0.021l0.033-0.02l0.034-0.02l0.035-0.018l0.034-0.018l0.037-0.017l0.036-0.016l0.037-0.015l0.038-0.014L3,15.252
			l0.041-0.013l0.041-0.012l0.042-0.01l0.042-0.01l0.042-0.009l0.043-0.007L3.294,15.185L3.294,15.185L3.294,15.185z M11.93,15.331
			l-7.812,1.084l-0.824-1.229l7.813-1.085L11.93,15.331L11.93,15.331z M41.785,11.186L11.93,15.331l-0.823-1.23l29.854-4.144
			L41.785,11.186L41.785,11.186z M31.11,32.928l-1.835-20.604l1.501,0.448l1.836,20.603L31.11,32.928L31.11,32.928z M23.938,32.929
			l-1.836-19.571l1.501,0.444l1.836,19.571L23.938,32.929L23.938,32.929z M18.026,32.93L16.19,14.221l1.5,0.44l1.837,18.711
			L18.026,32.93L18.026,32.93z M11.566,32.935L9.729,15.084l1.5,0.435l1.836,17.848L11.566,32.935z"/>
	</g>
	<g>
		<rect x="7.707" y="35.985" fill-rule="evenodd" clip-rule="evenodd" fill="#F79431" width="28.501" height="6.253"/>
		<path fill-rule="evenodd" clip-rule="evenodd" fill="#F79431" d="M7.541,35.985h5.566c1.429,0,2.597,1.17,2.597,2.598v5.565
			c0,1.429-1.168,2.598-2.597,2.598H7.541c-1.428,0-2.597-1.169-2.597-2.598v-5.565C4.944,37.155,6.113,35.985,7.541,35.985z"/>
		<path fill-rule="evenodd" clip-rule="evenodd" fill="#F79431" d="M31.389,35.985h5.565c1.429,0,2.599,1.17,2.599,2.598v5.565
			c0,1.429-1.17,2.598-2.599,2.598h-5.565c-1.429,0-2.597-1.169-2.597-2.598v-5.565C28.792,37.155,29.96,35.985,31.389,35.985z"/>
		<path fill-rule="evenodd" clip-rule="evenodd" fill="#F79431" d="M15.704,44.148v-1.91H7.707v-6.253H7.541
			c-1.428,0-2.597,1.17-2.597,2.598v5.565c0,1.429,1.169,2.598,2.597,2.598h5.566C14.536,46.746,15.704,45.577,15.704,44.148z"/>
		<path fill-rule="evenodd" clip-rule="evenodd" fill="#F79431" d="M7.707,42.238h7.997v-3.655c0-1.428-1.168-2.598-2.597-2.598
			h-5.4V42.238z"/>
		<path fill-rule="evenodd" clip-rule="evenodd" fill="#F79431" d="M28.792,42.238v1.91c0,1.429,1.168,2.598,2.598,2.598h5.564
			c1.429,0,2.599-1.169,2.599-2.598v-5.565c0-1.428-1.17-2.598-2.599-2.598h-0.746v6.253H28.792z"/>
		<path fill-rule="evenodd" clip-rule="evenodd" fill="#F79431" d="M28.792,42.238h7.416v-6.253H31.39
			c-1.43,0-2.598,1.17-2.598,2.598V42.238z"/>
		<path fill-rule="evenodd" clip-rule="evenodd" fill="#F79431" d="M28.792,42.238v-3.655c0-1.428,1.168-2.598,2.598-2.598H13.107
			c1.429,0,2.597,1.17,2.597,2.598v3.655H28.792z"/>
	</g>
</g>
</svg>
