<?xml version="1.0" encoding="utf-8"?>
<!-- Generator: Adobe Illustrator 15.0.0, SVG Export Plug-In . SVG Version: 6.00 Build 0)  -->
<!DOCTYPE svg PUBLIC "-//W3C//DTD SVG 1.1//EN" "http://www.w3.org/Graphics/SVG/1.1/DTD/svg11.dtd">
<svg version="1.1" id="Layer_1" xmlns="http://www.w3.org/2000/svg" xmlns:xlink="http://www.w3.org/1999/xlink" x="0px" y="0px"
	 width="841.89px" height="595.275px" viewBox="0 0 841.89 595.275" enable-background="new 0 0 841.89 595.275"
	 xml:space="preserve">
<g>
	<path fill="#F39220" d="M413.52,48.264c0.013,1.323-0.541,2.597-1.517,3.495c-0.855,0.789-1.97,1.229-3.136,1.239l-2.725,0.026
		c-1.254,0.01-2.437-0.467-3.33-1.346c-0.896-0.878-1.396-2.053-1.406-3.307l-0.016-1.784l0,0c-0.007-0.857,0.219-1.697,0.651-2.429
		l0.193-0.327c0.122-0.206,0.146-0.455,0.067-0.681s-0.253-0.406-0.477-0.492l-0.355-0.136c-5.558-2.121-11.672-2.11-17.22,0.03
		l-0.315,0.122c-0.208,0.08-0.373,0.243-0.458,0.448c-0.084,0.206-0.081,0.438,0.011,0.641l0.137,0.306
		c0.264,0.593,0.4,1.222,0.406,1.871l0.017,1.785c0.011,1.325-0.541,2.6-1.515,3.497c-0.856,0.788-1.971,1.228-3.138,1.239
		l-2.725,0.024c-2.587,0.023-4.711-2.063-4.735-4.651l-0.016-1.786c-0.005-0.488,0.068-0.979,0.224-1.479
		c0.367-1.296,1.264-2.543,2.526-3.511c10.537-8.091,25.356-8.224,36.038-0.323c2.243,1.653,2.872,3.806,2.747,4.85
		c-0.004,0.034-0.005,0.068-0.005,0.103v0.083c0,0.036,0.003,0.071,0.008,0.106c0.028,0.2,0.043,0.402,0.045,0.603L413.52,48.264
		L413.52,48.264z M415.127,46.463c-0.002-0.249-0.02-0.501-0.052-0.75c0.18-1.758-0.796-4.364-3.401-6.284
		c-11.261-8.33-26.883-8.189-37.992,0.34c-0.238,0.184-0.468,0.376-0.686,0.577c-1.179,1.086-2.023,2.4-2.408,3.76
		c-0.2,0.641-0.298,1.3-0.291,1.957l0.017,1.786c0.031,3.483,2.892,6.291,6.374,6.26l2.726-0.024
		c1.57-0.014,3.069-0.606,4.222-1.668c1.311-1.207,2.055-2.922,2.038-4.705l-0.016-1.785c-0.006-0.698-0.125-1.379-0.354-2.032
		c4.873-1.758,10.184-1.773,15.068-0.046c-0.404,0.856-0.611,1.797-0.604,2.753l0.017,1.784c0.015,1.688,0.687,3.269,1.891,4.451
		c1.203,1.183,2.795,1.826,4.484,1.811l2.723-0.026c1.569-0.014,3.069-0.606,4.222-1.668c1.313-1.208,2.057-2.923,2.04-4.704
		L415.127,46.463z"/>
	<path fill="none" stroke="#F39220" stroke-width="1.0001" stroke-miterlimit="2.6131" d="M371.542,58.107h42.446
		c2.918,0,5.306,2.388,5.306,5.305v17.509c0,2.918-2.388,5.306-5.306,5.306h-42.446c-2.917,0-5.305-2.388-5.305-5.306V63.412
		C366.238,60.495,368.625,58.107,371.542,58.107z"/>
	<circle fill="#F39220" stroke="#F39220" stroke-width="1.0001" stroke-miterlimit="2.6131" cx="379.104" cy="85.298" r="4.775"/>
	<circle fill="#ECECED" stroke="#F39220" stroke-width="1.0001" stroke-miterlimit="2.6131" cx="379.104" cy="85.298" r="2.801"/>
	<circle fill="#F39220" stroke="#F39220" stroke-width="1.0001" stroke-miterlimit="2.6131" cx="404.04" cy="85.298" r="4.775"/>
	<path fill="none" stroke="#F39220" stroke-width="1.0001" stroke-miterlimit="2.6131" d="M373.005,63.015h6.097
		c0.68,0,1.234,0.555,1.234,1.234v5.225c0,0.679-0.555,1.234-1.234,1.234h-6.097c-0.679,0-1.233-0.555-1.233-1.234v-5.225
		C371.771,63.569,372.326,63.015,373.005,63.015z"/>
	<path fill="none" stroke="#F39220" stroke-width="1.0001" stroke-miterlimit="2.6131" d="M383.483,63.015h6.097
		c0.679,0,1.234,0.555,1.234,1.234v5.225c0,0.679-0.556,1.234-1.234,1.234h-6.097c-0.68,0-1.234-0.555-1.234-1.234v-5.225
		C382.25,63.569,382.805,63.015,383.483,63.015z"/>
	<path fill="none" stroke="#F39220" stroke-width="1.0001" stroke-miterlimit="2.6131" d="M393.564,63.015h6.097
		c0.679,0,1.233,0.555,1.233,1.234v5.225c0,0.679-0.555,1.234-1.233,1.234h-6.097c-0.68,0-1.234-0.555-1.234-1.234v-5.225
		C392.331,63.569,392.886,63.015,393.564,63.015z"/>
	<path fill="none" stroke="#F39220" stroke-width="1.0001" stroke-miterlimit="2.6131" d="M406.438,61.41h5.817
		c0.755,0,1.374,0.618,1.374,1.374v14.762c0,0.756-0.618,1.374-1.374,1.374h-5.817c-0.755,0-1.373-0.618-1.373-1.374V62.784
		C405.064,62.028,405.682,61.41,406.438,61.41z"/>
	<circle fill="#ECECED" stroke="#F39220" stroke-width="1.0001" stroke-miterlimit="2.6131" cx="404.04" cy="85.298" r="2.801"/>
</g>
<g>
	<path fill="none" stroke="#F39220" stroke-width="1.0001" stroke-miterlimit="2.6131" d="M561.175,40.357
		c0,0,14.705-6.787,31.445-4.75l-0.006,5.712l-0.051,43.437c0,0-19.23-0.904-31.674,5.317c0,0-9.049-5.43-32.578-5.204
		l-0.137-50.995 M597.488,89.961l-0.338-48.98l-4.535-0.005 M597.488,89.961h-73.754V40.754l4.479-0.01 M527.541,34.473
		c0,0,18.984-0.621,33.635,5.884"/>
	<g>
		
			<rect x="539.442" y="59.392" transform="matrix(0.6092 0.793 -0.793 0.6092 268.0197 -417.2393)" fill="#F39220" width="35.823" height="7.86"/>
		<path fill="#F39220" d="M543.212,51.328l4.264,5.548c1.094,1.424,3.152,1.694,4.576,0.6l5.549-4.262
			c1.426-1.094,1.693-3.153,0.602-4.578l-4.262-5.548c-1.096-1.424-3.154-1.694-4.578-0.6l-5.549,4.262
			C542.39,47.844,542.119,49.904,543.212,51.328z"/>
		<path fill="#F39220" d="M561.474,75.1l4.262,5.548c1.094,1.424,3.154,1.694,4.578,0.6l5.549-4.262
			c1.424-1.094,1.693-3.154,0.6-4.578l-4.262-5.548c-1.096-1.424-3.154-1.694-4.578-0.601l-5.549,4.262
			C560.65,71.616,560.38,73.676,561.474,75.1z"/>
		<path fill="#F39220" d="M557.601,53.214l-1.902,1.463l-6.125-7.973l-6.232,4.788l-0.127-0.165
			c-1.094-1.424-0.824-3.484,0.602-4.578l5.547-4.262c1.426-1.094,3.484-0.824,4.578,0.6l4.262,5.548
			C559.294,50.061,559.025,52.121,557.601,53.214z"/>
		<path fill="#F39220" d="M549.574,46.705l6.123,7.973l-3.645,2.799c-1.424,1.094-3.482,0.824-4.578-0.6l-4.135-5.383
			L549.574,46.705z"/>
		<path fill="#F39220" d="M565.718,67.723l1.904-1.463c1.424-1.094,3.482-0.824,4.578,0.601l4.262,5.548
			c1.094,1.424,0.822,3.484-0.602,4.578l-5.547,4.262c-1.426,1.094-3.484,0.824-4.578-0.601l-0.572-0.745l6.232-4.788
			L565.718,67.723z"/>
		<path fill="#F39220" d="M565.718,67.723l5.68,7.393l-6.234,4.788l-3.689-4.803c-1.094-1.424-0.822-3.484,0.602-4.578
			L565.718,67.723z"/>
		<path fill="#F39220" d="M565.718,67.723l-3.645,2.799c-1.424,1.094-1.693,3.154-0.602,4.578l-13.998-18.223
			c1.096,1.424,3.154,1.694,4.578,0.6l3.645-2.799L565.718,67.723z"/>
	</g>
	<g>
		<path fill="none" stroke="#F39220" stroke-width="1.0001" stroke-miterlimit="2.6131" d="M567.859,43.161
			c0,0,14.42-1.006,14.084,18.108"/>
		<path fill="none" stroke="#F39220" stroke-width="1.0001" stroke-miterlimit="2.6131" d="M566.47,47.362
			c0,0,10.92-0.762,10.666,13.712"/>
		<path fill="none" stroke="#F39220" stroke-width="1.0001" stroke-miterlimit="2.6131" d="M565.281,51.776
			c0,0,7.369-0.515,7.197,9.252"/>
	</g>
</g>
<g>
	
		<rect x="724.914" y="35.199" fill="#F39220" stroke="#FFFFFF" stroke-width="0.5" stroke-miterlimit="2.6131" width="19.127" height="35.96"/>
	
		<rect x="728.395" y="37.544" transform="matrix(0.979 0.2037 -0.2037 0.979 26.7898 -149.1827)" fill="#F39220" stroke="#FFFFFF" stroke-width="0.5" stroke-miterlimit="2.6131" width="19.128" height="35.959"/>
	
		<rect x="731.945" y="41.397" transform="matrix(0.8947 0.4466 -0.4466 0.8947 104.5827 -324.9223)" fill="#F39220" stroke="#FFFFFF" stroke-width="0.5" stroke-miterlimit="2.6131" width="19.127" height="35.96"/>
	<path fill="#F39220" stroke="#FFFFFF" stroke-width="0.5" stroke-miterlimit="2.6131" d="M728.66,88.436l-3.623-4.393l-1.637-1.985
		l0,0l-0.012-0.012l0,0l-17.791-21.572l-0.004-0.006l-0.004-0.003l0,0l-4.693-5.691l0,0l-0.729-0.883l-0.063-0.079l-0.063-0.081
		l-0.059-0.083l-0.059-0.083l-0.055-0.084l-0.053-0.085l-0.051-0.086l-0.047-0.087l-0.045-0.088l-0.043-0.088l-0.039-0.089
		l-0.039-0.09l-0.035-0.091l-0.033-0.091l-0.031-0.092l-0.027-0.092l-0.025-0.093l-0.023-0.093h-0.002l-0.021-0.094l0,0l-0.02-0.094
		l-0.018-0.095l0,0l-0.016-0.095l-0.012-0.096l-0.012-0.095l-0.008-0.096l-0.006-0.096l0,0l-0.002-0.095h-0.002v-0.096l0.002-0.096
		l0.002-0.095l0,0l0.008-0.096l0,0l0.008-0.095l0,0l0.01-0.095l0.012-0.095h0.002l0.014-0.094h0.002l0.016-0.094l0,0l0.021-0.094
		l0,0l0.02-0.093c0.021-0.093,0.049-0.185,0.078-0.276l0,0l0.029-0.091h0.002l0.031-0.09l0,0l0.033-0.09h0.002l0.035-0.088
		l0.039-0.088h0.002l0.039-0.087h0.002l0.043-0.086l0,0l0.045-0.085l0,0l0.049-0.084l0,0l0.051-0.083l0,0l0.053-0.083l0,0
		c0.088-0.136,0.188-0.268,0.293-0.394l0,0l0.064-0.075l0,0c0.133-0.148,0.279-0.289,0.438-0.42l6.574-5.421l0,0
		c0.053-0.044,0.105-0.085,0.16-0.125l0,0l0.082-0.059l0,0l0.082-0.056l0,0l0.086-0.054l0,0l0.084-0.052l0,0l0.086-0.049l0,0
		l0.088-0.047l0,0l0.088-0.045l0,0l0.088-0.042l0,0c0.061-0.027,0.121-0.053,0.18-0.078l0,0l0.092-0.035l0,0l0.092-0.033l0,0
		l0.092-0.031l0,0l0.094-0.029l0,0c0.063-0.019,0.123-0.035,0.186-0.05l0,0l0.096-0.021l0,0l0.094-0.02l0,0l0.096-0.017l0,0
		c0.063-0.011,0.125-0.02,0.189-0.027v-0.001c0.063-0.007,0.127-0.013,0.189-0.018l0,0l0.098-0.005l0,0l0.096-0.003l0,0l0.096-0.001
		l0.096,0.001l0,0L710,41.97l0,0l0.096,0.005l0,0l0.098,0.008l0,0l0.094,0.01l0,0l0.096,0.012l0,0l0.094,0.014l0,0l0.096,0.017l0,0
		l0.094,0.019l0,0l0.092,0.021l0,0l0.094,0.023l0,0l0.094,0.025l0,0l0.092,0.028l0,0l0.09,0.03l0,0l0.09,0.033l0,0l0.09,0.034v0.001
		l0.09,0.036l0,0l0.088,0.039l0,0l0.088,0.041l0,0l0.086,0.043l0,0c0.059,0.03,0.113,0.061,0.17,0.093l0,0l0.084,0.05l0,0
		l0.082,0.052l0,0c0.164,0.107,0.32,0.226,0.471,0.359l0,0c0.148,0.132,0.289,0.278,0.418,0.436l5.422,6.574l0,0
		c0.045,0.052,0.086,0.106,0.127,0.16l0,0l0.061,0.083l0,0l0.057,0.083l0,0l0.055,0.084l0,0l0.053,0.085l0,0l0.049,0.086l0,0
		l0.047,0.087h0.002l0.045,0.088l0,0l0.041,0.088h0.002c0.027,0.06,0.053,0.12,0.076,0.18h0.002l0.035,0.091l0,0l0.031,0.091l0,0
		c0.021,0.062,0.041,0.123,0.061,0.185h0.002c0.018,0.062,0.033,0.124,0.049,0.187l0,0l0.021,0.094l0,0l0.02,0.094l0,0l0.018,0.095
		l0,0c0.027,0.158,0.045,0.317,0.051,0.477h0.002c0.002,0.064,0.004,0.127,0.004,0.191l-0.002,0.095l0,0l-0.004,0.095l0,0
		l-0.004,0.095h-0.002l-0.008,0.095l0,0l-0.01,0.095l0,0l-0.014,0.095l0,0l-0.016,0.094l0,0l-0.018,0.094l0,0l-0.018,0.093l0,0
		c-0.016,0.063-0.029,0.124-0.047,0.186l0,0l-0.025,0.092l0,0l-0.027,0.091l0,0l-0.031,0.091l0,0l-0.031,0.09l0,0l-0.035,0.089l0,0
		c-0.023,0.06-0.049,0.118-0.076,0.177l0,0c-0.027,0.059-0.055,0.117-0.084,0.173l0,0c-0.031,0.058-0.063,0.114-0.094,0.17l0,0
		l-0.051,0.083l0,0c-0.053,0.083-0.105,0.164-0.164,0.244l0,0c-0.059,0.079-0.117,0.157-0.182,0.232h-0.002l-0.064,0.074l0,0
		l-0.066,0.073l0,0l-0.07,0.072v0.001c-0.047,0.047-0.096,0.094-0.145,0.139h-0.002l-0.074,0.067l0,0l-0.078,0.066l0,0l-2.256,1.861
		l12.748,15.458l2.256-1.861l0,0l0.08-0.063l0,0l0.08-0.062l0,0l0.082-0.059l0,0l0.084-0.057l0,0l0.084-0.055l0,0l0.086-0.052l0,0
		l0.084-0.049l0,0l0.088-0.047l0,0l0.09-0.045l0,0l0.088-0.042l0,0l0.09-0.041l0,0l0.09-0.038l0,0l0.09-0.036l0.092-0.033l0,0
		l0.094-0.031l0.092-0.028l0,0l0.094-0.026l0,0l0.094-0.023l0,0l0.094-0.021l0,0l0.096-0.019l0,0l0.094-0.017l0,0l0.096-0.015l0,0
		l0.096-0.012l0.096-0.01l0,0l0.096-0.008l0,0l0.096-0.005l0,0l0.096-0.003l0.096-0.001l0.096,0.001l0,0l0.096,0.003l0,0
		l0.096,0.005l0.096,0.008v0.001c0.064,0.006,0.127,0.013,0.189,0.022l0,0l0.096,0.014l0.094,0.017l0,0l0.094,0.019l0,0L734,70.234
		l0,0l0.092,0.023l0,0l0.094,0.026l0,0l0.092,0.028l0.092,0.03l0,0c0.15,0.053,0.299,0.114,0.443,0.185l0,0l0.086,0.043l0,0
		l0.086,0.045l0,0l0.084,0.048l0,0c0.111,0.065,0.221,0.136,0.326,0.213l0,0c0.055,0.038,0.105,0.078,0.158,0.119l0,0
		c0.205,0.166,0.396,0.354,0.57,0.564l5.422,6.574c0.262,0.316,0.465,0.662,0.611,1.024l0,0c0.098,0.242,0.172,0.49,0.221,0.741l0,0
		c0.012,0.063,0.021,0.126,0.031,0.189l0,0c0.025,0.19,0.041,0.382,0.041,0.573l-0.002,0.095l0,0l-0.004,0.095l0,0l-0.006,0.095l0,0
		l-0.008,0.095l0,0l-0.01,0.095l0,0l-0.014,0.094l0,0l-0.016,0.094l0,0l-0.016,0.094h-0.002l-0.02,0.093l0,0l-0.02,0.093v0.001
		l-0.025,0.092l0,0l-0.023,0.092v0.001l-0.029,0.091v0.001l-0.029,0.09l0,0l-0.031,0.09h-0.002l-0.033,0.089l0,0l-0.037,0.088l0,0
		l-0.039,0.088l0,0l-0.041,0.087l0,0l-0.045,0.086l0,0l-0.045,0.085l0,0l-0.049,0.084l0,0l-0.051,0.083l0,0l-0.053,0.082l0,0
		l-0.055,0.081l0,0l-0.057,0.08l0,0l-0.059,0.078l0,0l-0.061,0.077l0,0l-0.064,0.076l0,0l-0.064,0.075l0,0l-0.066,0.074l0,0
		l-0.07,0.072l0,0l-0.07,0.07l0,0l-0.074,0.068l0,0l-0.074,0.067l0,0l-0.078,0.065l0,0l-6.576,5.422l-0.078,0.064l-0.08,0.062
		l-0.082,0.06l-0.084,0.057l-0.084,0.055l0,0l-0.086,0.052l-0.086,0.05l-0.086,0.047h-0.002l-0.086,0.045l0,0l-0.09,0.043
		l-0.09,0.04l-0.09,0.038l0,0l-0.09,0.036l0,0l-0.094,0.034l0,0l-0.092,0.031l-0.092,0.029l-0.094,0.026l-0.094,0.024l0,0
		l-0.094,0.021l0,0l-0.094,0.019h-0.002l-0.094,0.018l-0.096,0.014l-0.096,0.013l-0.096,0.01l-0.096,0.008l-0.096,0.006
		l-0.096,0.003l-0.096,0.001l-0.096-0.001l-0.096-0.003l-0.096-0.006l-0.096-0.008l-0.096-0.01l-0.094-0.012l-0.096-0.015l0,0
		l-0.1,0.012l-0.094-0.019l-0.094-0.022l-0.094-0.023l0,0l-0.092-0.026l-0.092-0.028l-0.092-0.031l-0.09-0.032l-0.092-0.035
		l-0.088-0.037l-0.088-0.039l-0.088-0.042l-0.086-0.043l-0.086-0.046l0,0l-0.084-0.048l-0.084-0.05l-0.082-0.052l-0.082-0.055
		l-0.08-0.057l0,0l-0.078-0.058l-0.078-0.062l0,0l-0.074-0.063l-0.076-0.065L729.167,89l-0.074-0.07l-0.068-0.072l0,0l-0.07-0.073
		l-0.066-0.076l-0.066-0.078L728.66,88.436z"/>
	<path fill="none" stroke="#FFFFFF" stroke-width="0.5" stroke-miterlimit="2.6131" d="M744.578,51.504c0,0,3.588,5.59-4.555,7.661
		l-0.873,8.223"/>
	
		<line fill="none" stroke="#FFFFFF" stroke-width="0.5" stroke-miterlimit="2.6131" x1="737.005" y1="57.718" x2="743.367" y2="62.033"/>
</g>
<g>
	<g>
		<path fill="#F39220" d="M55.89,166.277l6.968-1.853c0.857,2.627,2.114,5.06,3.741,7.239c-1.405,1.127-2.681,2.4-3.798,3.792
			C59.572,173.163,57.19,170,55.89,166.277L55.89,166.277z M56.199,152.915c-1.533,3.795-1.802,7.88-0.776,11.84l6.979-1.855
			c-0.715-2.745-0.969-5.546-0.756-8.333C59.784,154.228,57.954,153.673,56.199,152.915L56.199,152.915z M65.679,142.838
			c-2.019,3.072-3.343,6.553-3.854,10.142c-1.703-0.318-3.372-0.827-4.969-1.515C58.771,147.667,61.871,144.64,65.679,142.838
			L65.679,142.838z M68.219,142.032c-2.585,3.282-4.246,7.137-4.82,11.187c2.569,0.301,5.152,0.175,7.688-0.374L68.219,142.032
			L68.219,142.032z M76.851,168.365c2.309-0.562,4.666-0.778,7.018-0.642c-0.661,3.621-2.214,7.086-4.515,10.076L76.851,168.365
			L76.851,168.365z M74.953,161.209l8.808-2.341c0.489,2.417,0.601,4.861,0.333,7.276c-2.563-0.162-5.134,0.068-7.65,0.685
			L74.953,161.209L74.953,161.209z M73.039,153.996l1.506,5.676l8.856-2.355c-0.656-2.42-1.676-4.699-3.035-6.783
			C78.121,152.083,75.659,153.246,73.039,153.996L73.039,153.996z M69.8,141.785c3.86,1.615,7.184,4.177,9.654,7.447
			c-2.087,1.438-4.38,2.521-6.824,3.224L69.8,141.785L69.8,141.785z M84.605,144.385c-3.692-2.551-8.091-3.706-12.516-3.298
			c3.409,1.722,6.378,4.192,8.645,7.197C82.167,147.145,83.468,145.835,84.605,144.385L84.605,144.385z M85.876,145.343
			c3.055,2.507,5.212,5.836,6.253,9.654l-7.189,1.912c-0.708-2.616-1.814-5.077-3.29-7.321
			C83.219,148.351,84.639,146.925,85.876,145.343L85.876,145.343z M91.179,167.651c1.552-3.51,2-7.335,1.302-11.101l-7.18,1.909
			c0.537,2.604,0.665,5.237,0.379,7.837C87.565,166.535,89.413,166.991,91.179,167.651L91.179,167.651z M81.69,177.27
			c3.721-1.696,6.806-4.567,8.781-8.185c-1.61-0.589-3.292-0.997-5.008-1.214C84.873,171.228,83.605,174.384,81.69,177.27
			L81.69,177.27z M73.007,160.08l-9.065,2.411c-0.659-2.53-0.898-5.115-0.714-7.688c2.759,0.321,5.538,0.181,8.268-0.418
			L73.007,160.08L73.007,160.08z M74.911,167.256l-1.495-5.637l-9.017,2.397c0.802,2.427,1.969,4.675,3.475,6.692
			C70.019,169.203,72.383,168.043,74.911,167.256L74.911,167.256z M77.859,178.369l-2.541-9.576
			c-2.311,0.728-4.477,1.789-6.449,3.16C71.272,174.745,74.368,176.954,77.859,178.369L77.859,178.369z M64.142,176.327
			c3.355,1.985,7.252,2.894,11.108,2.601c-2.961-1.501-5.533-3.521-7.66-6.019C66.318,173.928,65.16,175.076,64.142,176.327
			L64.142,176.327z M78.014,180.144l1.912-0.501c10.569-3.284,16.617-14.213,13.776-24.924
			c-2.841-10.711-13.512-17.205-24.32-14.818l-1.895,0.496c-0.005,0.005-0.01,0.011-0.015,0.017
			c-10.417,3.363-16.371,14.264-13.56,24.86C56.725,175.871,67.299,182.388,78.014,180.144z"/>
		<path fill="#F39220" d="M62.991,164.922l-6.969,1.853l-0.264-0.994l6.969-1.852l0.621,0.337L62.991,164.922L62.991,164.922z
			 M62.727,163.928l0.47-0.125l0.151,0.462L62.727,163.928L62.727,163.928z M66.921,172.064l-0.644-0.802l-0.09,0.708l-0.154-0.209
			l-0.153-0.211l-0.15-0.212l-0.147-0.213l-0.146-0.216l-0.144-0.217l-0.141-0.218l-0.139-0.22l-0.137-0.221l-0.135-0.223
			l-0.132-0.224l-0.13-0.225l-0.127-0.227l-0.125-0.228l-0.123-0.229l-0.121-0.23l-0.118-0.232l-0.116-0.233l-0.114-0.235
			l-0.111-0.236l-0.109-0.237l-0.107-0.239l-0.104-0.24l-0.102-0.241l-0.1-0.242l-0.097-0.243l-0.095-0.245l-0.093-0.246
			l-0.09-0.247l-0.088-0.249l-0.085-0.249l-0.083-0.25l0.978-0.319l0.08,0.241l0.082,0.24l0.084,0.238l0.087,0.237l0.089,0.236
			l0.092,0.235l0.093,0.233l0.096,0.233l0.098,0.231l0.1,0.23l0.103,0.229l0.105,0.228l0.106,0.226l0.109,0.225l0.112,0.224
			l0.113,0.223l0.116,0.221l0.118,0.22l0.12,0.219l0.123,0.217l0.125,0.216l0.127,0.215l0.129,0.214l0.131,0.212l0.133,0.21
			l0.136,0.209l0.138,0.208l0.14,0.206l0.142,0.206l0.144,0.204l0.146,0.202l0.148,0.201L66.921,172.064L66.921,172.064z
			 M67.011,171.356l0.297,0.398l-0.388,0.311L67.011,171.356L67.011,171.356z M62.503,175.875l0.595-0.838l-0.699,0.098l0.107-0.133
			l0.108-0.133l0.109-0.131l0.11-0.13l0.111-0.13l0.112-0.129l0.113-0.129l0.114-0.127l0.115-0.127l0.116-0.126l0.117-0.126
			l0.117-0.125l0.118-0.124l0.12-0.123l0.12-0.122l0.121-0.122l0.122-0.121l0.123-0.12l0.123-0.119l0.124-0.119l0.125-0.118
			l0.126-0.117l0.127-0.116l0.128-0.116l0.128-0.114l0.129-0.113l0.13-0.112l0.131-0.112l0.132-0.111l0.132-0.11l0.133-0.109
			l0.134-0.108l0.644,0.802l-0.128,0.104l-0.128,0.105l-0.127,0.106l-0.126,0.106l-0.125,0.107l-0.125,0.108l-0.124,0.108
			l-0.123,0.11l-0.123,0.11l-0.122,0.111l-0.121,0.112l-0.12,0.112l-0.119,0.114l-0.119,0.115l-0.117,0.115l-0.117,0.116
			l-0.116,0.117l-0.115,0.117l-0.114,0.118l-0.114,0.119l-0.113,0.12l-0.112,0.12l-0.111,0.121l-0.11,0.122l-0.109,0.123
			l-0.108,0.123l-0.107,0.124l-0.107,0.125l-0.106,0.125l-0.104,0.126l-0.104,0.126l-0.103,0.127L62.503,175.875L62.503,175.875z
			 M63.202,175.777l-0.304,0.378l-0.395-0.281L63.202,175.777L63.202,175.777z M55.758,165.78l0.264,0.994l0.353-0.667l0.122,0.338
			l0.128,0.335l0.134,0.331l0.14,0.328l0.146,0.325l0.152,0.321l0.158,0.317l0.163,0.314l0.17,0.31l0.175,0.307l0.181,0.303
			l0.187,0.299l0.192,0.295l0.198,0.291l0.204,0.287l0.208,0.284l0.215,0.279l0.22,0.275l0.225,0.271l0.231,0.267l0.236,0.263
			l0.241,0.258l0.247,0.254l0.252,0.249l0.257,0.245l0.262,0.24l0.268,0.236l0.272,0.231l0.278,0.226l0.282,0.222l0.288,0.217
			l0.292,0.211l-0.595,0.838l-0.308-0.223l-0.303-0.229l-0.298-0.233l-0.293-0.239l-0.287-0.244l-0.282-0.249l-0.277-0.253
			l-0.271-0.258l-0.266-0.264l-0.261-0.268l-0.255-0.273l-0.249-0.277l-0.244-0.281l-0.238-0.287l-0.232-0.291l-0.227-0.295
			l-0.221-0.299l-0.215-0.304l-0.209-0.308l-0.203-0.312l-0.197-0.316l-0.191-0.319l-0.185-0.324l-0.179-0.328l-0.173-0.331
			l-0.167-0.336l-0.161-0.339l-0.154-0.343l-0.148-0.346l-0.141-0.35l-0.135-0.353l-0.128-0.357L55.758,165.78L55.758,165.78z
			 M55.405,166.447l-0.184-0.524l0.537-0.143L55.405,166.447L55.405,166.447z M62.16,154.606l-1.025-0.079l0.421,0.545l-0.178-0.033
			l-0.178-0.034l-0.178-0.036l-0.178-0.038l-0.177-0.038l-0.177-0.04l-0.177-0.041l-0.177-0.042l-0.176-0.043l-0.176-0.045
			l-0.176-0.046l-0.176-0.047l-0.175-0.048l-0.175-0.05l-0.175-0.051l-0.174-0.052l-0.174-0.054l-0.173-0.055l-0.174-0.056
			l-0.172-0.057l-0.172-0.058l-0.172-0.06l-0.172-0.061l-0.171-0.062l-0.171-0.063l-0.17-0.064l-0.17-0.065l-0.169-0.067
			l-0.17-0.068l-0.168-0.069l-0.168-0.071l-0.168-0.072l0.408-0.944l0.162,0.069l0.161,0.068l0.163,0.067l0.163,0.065l0.163,0.064
			l0.163,0.063l0.165,0.062l0.164,0.061l0.165,0.06l0.165,0.059l0.165,0.058l0.166,0.056l0.166,0.055l0.166,0.053l0.167,0.053
			l0.167,0.051l0.167,0.05l0.167,0.049l0.167,0.047l0.168,0.047l0.168,0.045l0.169,0.044l0.169,0.043l0.169,0.042l0.169,0.041
			l0.17,0.039l0.17,0.038l0.17,0.037l0.17,0.035l0.171,0.034l0.17,0.033l0.171,0.031L62.16,154.606L62.16,154.606z M61.739,154.061
			l0.457,0.083l-0.036,0.462L61.739,154.061L61.739,154.061z M62.535,163.396l-0.264-0.994l-0.366,0.626l-0.067-0.262l-0.064-0.263
			l-0.062-0.263l-0.059-0.264l-0.056-0.264l-0.053-0.264l-0.05-0.265l-0.048-0.265l-0.045-0.265l-0.042-0.265l-0.039-0.265
			l-0.037-0.266l-0.034-0.266l-0.031-0.266l-0.028-0.266l-0.025-0.266l-0.023-0.266l-0.02-0.266l-0.017-0.267l-0.014-0.267
			l-0.012-0.267l-0.008-0.267l-0.006-0.267l-0.003-0.267v-0.267l0.002-0.267l0.005-0.267l0.008-0.267l0.011-0.267l0.013-0.267
			l0.016-0.267l0.019-0.267l1.025,0.079l-0.018,0.256l-0.016,0.256l-0.013,0.256l-0.01,0.256l-0.008,0.256l-0.004,0.257
			l-0.002,0.256v0.256l0.003,0.256l0.006,0.256l0.008,0.256l0.011,0.256l0.014,0.256l0.017,0.255l0.019,0.256l0.022,0.256
			l0.024,0.256l0.027,0.255l0.03,0.255l0.033,0.255l0.035,0.255l0.038,0.254l0.041,0.255l0.043,0.254l0.046,0.254l0.049,0.254
			l0.051,0.254l0.054,0.253l0.056,0.253l0.059,0.253l0.062,0.253l0.064,0.252L62.535,163.396L62.535,163.396z M62.9,162.77
			l0.129,0.495l-0.494,0.132L62.9,162.77L62.9,162.77z M55.291,164.258l6.98-1.855l0.264,0.994l-6.98,1.855l-0.63-0.368
			L55.291,164.258L55.291,164.258z M55.555,165.251l-0.5,0.133l-0.13-0.5L55.555,165.251L55.555,165.251z M56.403,152.443
			l-0.408,0.944l0.681-0.279l-0.136,0.347l-0.129,0.349l-0.122,0.35l-0.114,0.352l-0.107,0.353l-0.1,0.354l-0.093,0.355
			l-0.085,0.356l-0.078,0.357l-0.071,0.358L55.575,157l-0.056,0.36l-0.049,0.361l-0.042,0.361l-0.035,0.362l-0.027,0.362
			l-0.02,0.363l-0.013,0.364l-0.005,0.364l0.002,0.364l0.009,0.364l0.017,0.365l0.023,0.364l0.031,0.364l0.038,0.364l0.046,0.364
			l0.053,0.364l0.06,0.363l0.068,0.364l0.075,0.363l0.083,0.362l0.09,0.361l-0.996,0.258l-0.095-0.382l-0.087-0.382l-0.079-0.383
			l-0.072-0.383l-0.063-0.384l-0.056-0.384l-0.048-0.385l-0.041-0.385l-0.033-0.384l-0.025-0.385l-0.018-0.385l-0.009-0.385
			l-0.002-0.385l0.006-0.384l0.014-0.384l0.021-0.384l0.029-0.383l0.037-0.383l0.044-0.382l0.052-0.381l0.06-0.38l0.067-0.38
			l0.075-0.378l0.083-0.377l0.091-0.377l0.098-0.375l0.105-0.374l0.113-0.372l0.121-0.371l0.129-0.37l0.136-0.367l0.144-0.366
			L56.403,152.443L56.403,152.443z M55.723,152.723l0.197-0.488l0.483,0.209L55.723,152.723L55.723,152.723z M61.73,153.486
			l0.189-1.011l-0.604,0.433l0.051-0.343l0.056-0.342l0.061-0.342l0.066-0.341l0.07-0.34l0.076-0.339l0.08-0.338l0.084-0.337
			l0.089-0.336l0.094-0.335l0.099-0.333l0.104-0.332l0.108-0.331l0.112-0.33l0.117-0.328l0.122-0.326l0.126-0.326l0.13-0.323
			l0.135-0.321l0.14-0.32l0.144-0.318l0.148-0.316l0.152-0.315l0.157-0.313L64,144.67l0.166-0.309l0.17-0.306l0.174-0.305
			l0.179-0.302l0.183-0.3l0.187-0.298l0.191-0.295l0.86,0.564l-0.183,0.283l-0.18,0.286l-0.176,0.288l-0.171,0.29l-0.167,0.292
			l-0.163,0.294l-0.16,0.296l-0.155,0.298l-0.15,0.3l-0.146,0.302l-0.143,0.304l-0.138,0.305l-0.134,0.307l-0.13,0.309l-0.125,0.311
			l-0.121,0.312l-0.117,0.313l-0.112,0.314l-0.108,0.316l-0.104,0.317l-0.099,0.319l-0.095,0.32l-0.09,0.321l-0.086,0.322
			l-0.081,0.324l-0.077,0.324l-0.072,0.325l-0.068,0.326l-0.063,0.327l-0.059,0.328l-0.054,0.329l-0.049,0.329L61.73,153.486
			L61.73,153.486z M62.334,153.053l-0.076,0.531l-0.528-0.099L62.334,153.053L62.334,153.053z M56.397,151.234l0.918,0.462
			l-0.256-0.704l0.147,0.063l0.146,0.062l0.147,0.061l0.148,0.06l0.148,0.058l0.148,0.058l0.149,0.056l0.149,0.056l0.149,0.054
			l0.151,0.054l0.15,0.052l0.15,0.051l0.151,0.05l0.151,0.049l0.152,0.048l0.151,0.047l0.152,0.045l0.153,0.045l0.153,0.043
			l0.153,0.042l0.153,0.042l0.154,0.041l0.154,0.039l0.154,0.039l0.155,0.037l0.155,0.036l0.155,0.036l0.155,0.034l0.155,0.033
			l0.155,0.032l0.156,0.031l0.156,0.03l-0.189,1.011l-0.163-0.031l-0.163-0.033l-0.163-0.033l-0.163-0.034l-0.162-0.036
			l-0.162-0.037l-0.162-0.038l-0.162-0.04l-0.162-0.04l-0.161-0.042l-0.161-0.042l-0.16-0.043l-0.16-0.044l-0.159-0.046l-0.16-0.047
			l-0.159-0.048l-0.159-0.049l-0.158-0.05l-0.159-0.051l-0.157-0.053l-0.158-0.053l-0.157-0.055l-0.156-0.055l-0.157-0.057
			l-0.156-0.058l-0.155-0.059l-0.155-0.06l-0.155-0.062l-0.154-0.063l-0.154-0.063l-0.154-0.064l-0.153-0.065L56.397,151.234
			L56.397,151.234z M56.653,151.938l-0.501-0.216l0.246-0.487L56.653,151.938L56.653,151.938z M66.108,143.121l-0.86-0.564
			l0.65,0.747l-0.345,0.167l-0.341,0.175l-0.337,0.182l-0.333,0.188l-0.328,0.195l-0.324,0.202l-0.319,0.208l-0.314,0.215
			l-0.311,0.221l-0.305,0.227l-0.3,0.233l-0.295,0.239l-0.291,0.245l-0.285,0.251l-0.28,0.257l-0.274,0.263l-0.269,0.268
			l-0.264,0.275l-0.258,0.28l-0.252,0.285l-0.247,0.291l-0.241,0.296l-0.235,0.301l-0.229,0.306l-0.223,0.311l-0.217,0.316
			l-0.21,0.321l-0.205,0.326l-0.198,0.331l-0.191,0.335l-0.185,0.341l-0.178,0.344l-0.918-0.462l0.188-0.363l0.195-0.359
			l0.202-0.354l0.208-0.349l0.216-0.344l0.222-0.339l0.229-0.333l0.235-0.329l0.241-0.323l0.249-0.318l0.254-0.312l0.26-0.307
			l0.267-0.301l0.272-0.295l0.278-0.289l0.284-0.284l0.29-0.278l0.296-0.271l0.301-0.265l0.306-0.259l0.312-0.253l0.317-0.246
			l0.323-0.24l0.327-0.233L63,143.766l0.337-0.22l0.342-0.213l0.347-0.205l0.351-0.199l0.355-0.192l0.36-0.184l0.364-0.177
			L66.108,143.121L66.108,143.121z M65.458,142.374l1.655-0.783l-1.005,1.53L65.458,142.374L65.458,142.374z M70.591,152.977
			l-2.869-10.813l0.994-0.264l2.868,10.813l-0.388,0.635L70.591,152.977L70.591,152.977z M71.584,152.713l0.138,0.521l-0.526,0.114
			L71.584,152.713L71.584,152.713z M62.89,153.146l1.018,0.145l-0.449-0.583l0.235,0.026l0.236,0.024l0.236,0.021l0.235,0.019
			l0.236,0.017l0.235,0.014l0.236,0.012l0.236,0.009l0.236,0.007l0.236,0.004l0.235,0.002h0.236l0.236-0.003l0.236-0.005
			l0.235-0.008l0.235-0.01l0.235-0.013l0.236-0.015l0.235-0.018l0.235-0.02l0.235-0.022l0.235-0.025l0.235-0.027l0.234-0.029
			l0.234-0.032l0.234-0.035l0.234-0.037l0.233-0.039l0.234-0.042l0.233-0.044l0.233-0.047l0.232-0.049l0.218,1.005l-0.243,0.051
			l-0.244,0.049l-0.244,0.046l-0.244,0.044l-0.244,0.041l-0.245,0.039l-0.244,0.036l-0.245,0.034L69,153.718l-0.245,0.028
			l-0.245,0.026l-0.246,0.023l-0.246,0.021l-0.246,0.019l-0.246,0.016l-0.246,0.013l-0.247,0.011l-0.246,0.008l-0.246,0.005
			l-0.246,0.003h-0.247l-0.247-0.002l-0.247-0.005l-0.246-0.007l-0.247-0.009l-0.247-0.012l-0.246-0.015l-0.247-0.018l-0.246-0.021
			l-0.247-0.021l-0.246-0.025l-0.246-0.028L62.89,153.146L62.89,153.146z M63.339,153.729l-0.523-0.061l0.074-0.522L63.339,153.729
			L63.339,153.729z M68.716,141.9l-0.994,0.264l0.901,0.187l-0.234,0.303l-0.229,0.306l-0.224,0.309l-0.218,0.312l-0.213,0.315
			l-0.208,0.318l-0.202,0.321l-0.197,0.324l-0.19,0.326l-0.186,0.33l-0.18,0.332l-0.174,0.334L66,146.518l-0.163,0.339l-0.157,0.342
			l-0.151,0.343l-0.146,0.346l-0.14,0.348l-0.134,0.35l-0.128,0.353l-0.122,0.354l-0.116,0.356l-0.11,0.357l-0.104,0.359
			l-0.099,0.361l-0.092,0.362l-0.086,0.364l-0.081,0.366l-0.074,0.367l-0.068,0.368l-0.062,0.369l-0.056,0.371l-1.018-0.145
			l0.058-0.388l0.065-0.386l0.071-0.385l0.078-0.384l0.084-0.382l0.09-0.381l0.097-0.379l0.103-0.377l0.109-0.376l0.116-0.374
			l0.122-0.372l0.128-0.37l0.134-0.368l0.14-0.366l0.146-0.363l0.152-0.362l0.159-0.359l0.164-0.356l0.17-0.354l0.176-0.352
			l0.182-0.349l0.188-0.347l0.193-0.344l0.199-0.341l0.206-0.338l0.211-0.335l0.217-0.332l0.222-0.329l0.228-0.326l0.233-0.323
			l0.24-0.319l0.245-0.316L68.716,141.9L68.716,141.9z M67.815,141.714l0.637-0.809l0.264,0.995L67.815,141.714L67.815,141.714z
			 M84.375,167.816l-1.012-0.185l0.476,0.605l-0.215-0.011l-0.216-0.009l-0.216-0.008l-0.215-0.005L82.76,168.2l-0.215-0.001h-0.216
			l-0.216,0.002l-0.215,0.004l-0.216,0.007l-0.216,0.008l-0.215,0.011l-0.215,0.013l-0.215,0.015l-0.215,0.017l-0.215,0.019
			l-0.214,0.021l-0.215,0.022l-0.215,0.025l-0.214,0.026l-0.214,0.029l-0.214,0.031l-0.214,0.032l-0.214,0.035l-0.213,0.037
			l-0.213,0.039l-0.213,0.041l-0.213,0.042l-0.212,0.045l-0.213,0.046l-0.212,0.048l-0.212,0.051l-0.243-0.999l0.222-0.053
			l0.221-0.051l0.222-0.049l0.222-0.046l0.223-0.044l0.223-0.042l0.223-0.041l0.223-0.038l0.223-0.036l0.223-0.034l0.224-0.033
			l0.224-0.029l0.224-0.028l0.224-0.026l0.224-0.024l0.225-0.021l0.224-0.02l0.225-0.017l0.225-0.015l0.225-0.014l0.225-0.011
			l0.225-0.009l0.225-0.007l0.226-0.005l0.225-0.003h0.225l0.225,0.001l0.226,0.003l0.226,0.006l0.225,0.008l0.225,0.01l0.226,0.012
			L84.375,167.816L84.375,167.816z M83.898,167.21l0.581,0.034l-0.104,0.572L83.898,167.21L83.898,167.21z M78.857,177.932
			l0.994-0.264l-0.904-0.182l0.209-0.276l0.205-0.278l0.2-0.281l0.196-0.283l0.192-0.286l0.187-0.288l0.183-0.292l0.178-0.292
			l0.174-0.295l0.168-0.297l0.165-0.3l0.16-0.302l0.156-0.304l0.15-0.306l0.146-0.308l0.142-0.309l0.137-0.312l0.132-0.313
			l0.127-0.315l0.122-0.316l0.118-0.318l0.113-0.32l0.108-0.321l0.103-0.322l0.098-0.323l0.093-0.325l0.088-0.327l0.083-0.327
			l0.078-0.329l0.073-0.329l0.068-0.331l0.063-0.331l1.012,0.185l-0.066,0.347l-0.071,0.346l-0.077,0.345l-0.082,0.344l-0.087,0.342
			l-0.092,0.341l-0.098,0.34l-0.103,0.338l-0.108,0.337l-0.113,0.335l-0.118,0.334l-0.123,0.332l-0.128,0.331l-0.133,0.329
			l-0.138,0.327l-0.143,0.325l-0.148,0.324l-0.153,0.321l-0.157,0.319l-0.162,0.318l-0.167,0.315l-0.172,0.313l-0.177,0.311
			l-0.181,0.309l-0.186,0.306L81,176.348l-0.195,0.301l-0.2,0.298l-0.204,0.296l-0.209,0.293l-0.213,0.291l-0.218,0.288
			L78.857,177.932L78.857,177.932z M79.762,178.113l-0.637,0.828l-0.268-1.009L79.762,178.113L79.762,178.113z M77.348,168.233
			l2.502,9.435l-0.994,0.264l-2.502-9.435l0.375-0.631L77.348,168.233L77.348,168.233z M76.354,168.497l-0.135-0.507l0.51-0.124
			L76.354,168.497L76.354,168.497z M83.893,159.365l-8.808,2.341l-0.264-0.994l8.808-2.342l0.636,0.395L83.893,159.365
			L83.893,159.365z M83.628,158.371l0.528-0.14l0.108,0.535L83.628,158.371L83.628,158.371z M84.062,166.658l0.064-1.026
			l-0.543,0.457l0.024-0.222l0.021-0.222l0.019-0.222l0.017-0.222l0.015-0.222l0.013-0.222l0.01-0.223l0.008-0.222l0.006-0.222
			l0.004-0.223l0.002-0.222v-0.223l-0.003-0.222l-0.005-0.223l-0.007-0.223l-0.009-0.223l-0.011-0.223l-0.014-0.223l-0.016-0.223
			l-0.018-0.223l-0.02-0.223l-0.022-0.223l-0.024-0.223l-0.027-0.223l-0.028-0.222l-0.031-0.223l-0.033-0.223l-0.035-0.222
			l-0.037-0.223l-0.04-0.222L83.3,159.19l-0.044-0.222l1.008-0.204l0.045,0.231l0.043,0.232l0.042,0.231l0.039,0.231l0.037,0.233
			l0.034,0.232l0.033,0.232l0.029,0.233l0.028,0.232l0.025,0.232l0.023,0.233l0.021,0.233l0.019,0.233l0.016,0.232l0.014,0.233
			l0.012,0.233l0.01,0.233l0.007,0.232l0.005,0.233l0.003,0.232v0.233l-0.002,0.233l-0.004,0.232l-0.007,0.232l-0.009,0.232
			l-0.01,0.232l-0.013,0.232l-0.016,0.232l-0.018,0.231l-0.021,0.232l-0.022,0.232l-0.024,0.231L84.062,166.658L84.062,166.658z
			 M84.605,166.201l-0.054,0.487l-0.489-0.031L84.605,166.201L84.605,166.201z M75.947,166.961l0.994-0.264l-0.619-0.368
			l0.241-0.058l0.241-0.056l0.241-0.053l0.242-0.051l0.242-0.048l0.242-0.046l0.243-0.043l0.243-0.042l0.243-0.04l0.243-0.037
			l0.244-0.035l0.244-0.032l0.243-0.03l0.244-0.028l0.245-0.025l0.244-0.023l0.245-0.021l0.245-0.018l0.245-0.016l0.245-0.014
			l0.245-0.011l0.246-0.009l0.245-0.006l0.245-0.005l0.246-0.002h0.245l0.245,0.002l0.245,0.005l0.245,0.007l0.246,0.01l0.245,0.012
			l0.245,0.014l-0.064,1.026l-0.236-0.014l-0.235-0.012l-0.235-0.009l-0.235-0.007l-0.236-0.004l-0.235-0.003h-0.235l-0.235,0.002
			l-0.236,0.004l-0.235,0.006l-0.235,0.008l-0.235,0.012l-0.235,0.013l-0.235,0.016l-0.235,0.018l-0.235,0.02l-0.234,0.022
			l-0.234,0.024l-0.234,0.026l-0.235,0.029l-0.234,0.031l-0.233,0.034l-0.233,0.036l-0.233,0.038l-0.234,0.04l-0.233,0.042
			l-0.232,0.044l-0.233,0.047l-0.232,0.049l-0.232,0.051l-0.232,0.053l-0.231,0.056L75.947,166.961L75.947,166.961z M76.566,167.329
			l-0.49,0.12l-0.129-0.487L76.566,167.329L76.566,167.329z M75.45,161.078l1.491,5.619l-0.994,0.264l-1.491-5.62l0.365-0.628
			L75.45,161.078L75.45,161.078z M74.456,161.341l-0.132-0.497l0.497-0.132L74.456,161.341L74.456,161.341z M80.797,150.253
			l-0.861,0.562l0.723,0.142l-0.215,0.147l-0.217,0.145l-0.218,0.142l-0.219,0.14l-0.221,0.137l-0.222,0.136l-0.223,0.133
			l-0.224,0.131l-0.226,0.128l-0.227,0.126l-0.228,0.124l-0.229,0.121l-0.23,0.119l-0.232,0.117l-0.232,0.114l-0.234,0.112
			l-0.235,0.109l-0.235,0.107l-0.237,0.105l-0.238,0.102l-0.239,0.1l-0.24,0.097l-0.241,0.095l-0.242,0.093l-0.243,0.09
			l-0.245,0.087l-0.245,0.085l-0.246,0.083l-0.248,0.081l-0.248,0.078l-0.25,0.076l-0.25,0.073l-0.283-0.989l0.24-0.07l0.239-0.072
			l0.239-0.075l0.237-0.077l0.236-0.08l0.236-0.082l0.234-0.084l0.234-0.087l0.232-0.088l0.232-0.091l0.23-0.093l0.229-0.096
			l0.229-0.098l0.227-0.1l0.227-0.103l0.225-0.105l0.224-0.107l0.223-0.109l0.222-0.112l0.221-0.114l0.22-0.117l0.219-0.119
			l0.218-0.121l0.216-0.123l0.215-0.126l0.214-0.127l0.213-0.13l0.212-0.132l0.21-0.135l0.209-0.136l0.208-0.139l0.207-0.141
			L80.797,150.253L80.797,150.253z M80.074,150.111l0.434-0.3l0.289,0.442L80.074,150.111L80.074,150.111z M83.533,157.814
			l-0.264-0.994l-0.364,0.631l-0.061-0.221l-0.063-0.222l-0.065-0.22l-0.068-0.218l-0.069-0.219l-0.072-0.218l-0.074-0.216
			l-0.075-0.215l-0.078-0.215l-0.08-0.214l-0.082-0.213l-0.083-0.211l-0.086-0.211l-0.088-0.21l-0.09-0.209l-0.092-0.208
			l-0.094-0.208l-0.096-0.207l-0.098-0.206l-0.1-0.204l-0.102-0.203l-0.104-0.202l-0.106-0.202l-0.108-0.2l-0.11-0.199l-0.112-0.198
			l-0.114-0.197l-0.116-0.196l-0.118-0.195l-0.12-0.194l-0.122-0.193l-0.124-0.191l0.861-0.562l0.129,0.2l0.127,0.201l0.125,0.203
			l0.123,0.204l0.121,0.205l0.119,0.206l0.117,0.208l0.115,0.208l0.113,0.209l0.11,0.21l0.108,0.211l0.107,0.212l0.104,0.213
			l0.102,0.215l0.1,0.215l0.098,0.216l0.097,0.218l0.094,0.218l0.092,0.22l0.089,0.22l0.088,0.221l0.085,0.222l0.083,0.224
			l0.081,0.224l0.079,0.226l0.077,0.226l0.075,0.227l0.072,0.228l0.07,0.229l0.068,0.23l0.066,0.229l0.064,0.232L83.533,157.814
			L83.533,157.814z M83.897,157.183l0.135,0.499l-0.499,0.133L83.897,157.183L83.897,157.183z M74.413,159.175l8.855-2.355
			l0.264,0.994l-8.856,2.355l-0.629-0.365L74.413,159.175L74.413,159.175z M74.677,160.169l-0.497,0.132l-0.132-0.497
			L74.677,160.169L74.677,160.169z M73.536,153.864l1.506,5.676l-0.994,0.264l-1.505-5.676l0.355-0.626L73.536,153.864
			L73.536,153.864z M72.542,154.128l-0.129-0.487l0.484-0.139L72.542,154.128L72.542,154.128z M79.746,149.655l-0.583-0.847
			l-0.118,0.733l-0.229-0.298l-0.233-0.293l-0.239-0.29l-0.243-0.286l-0.248-0.281l-0.252-0.276l-0.257-0.272l-0.261-0.269
			l-0.266-0.263l-0.271-0.26L76.27,146.5l-0.278-0.25l-0.283-0.246l-0.288-0.241l-0.291-0.236l-0.296-0.232l-0.299-0.227
			l-0.303-0.222l-0.307-0.218l-0.312-0.212l-0.315-0.208l-0.318-0.203l-0.322-0.197l-0.326-0.193l-0.329-0.188l-0.333-0.183
			l-0.336-0.178l-0.339-0.172l-0.343-0.167l-0.346-0.162l-0.35-0.156l-0.353-0.151L70,141.309l0.368,0.158l0.365,0.163l0.361,0.169
			l0.358,0.174l0.355,0.18l0.351,0.185l0.348,0.19l0.344,0.196l0.34,0.201l0.337,0.207l0.333,0.212l0.329,0.217l0.325,0.222
			l0.322,0.227l0.317,0.232l0.313,0.237l0.309,0.242l0.305,0.247l0.3,0.252l0.296,0.257l0.292,0.262l0.287,0.267l0.282,0.271
			l0.279,0.276l0.273,0.28l0.269,0.285l0.264,0.29l0.259,0.294L79.135,148l0.25,0.303l0.245,0.307l0.239,0.312L79.746,149.655
			L79.746,149.655z M79.864,148.922l0.324,0.429l-0.442,0.305L79.864,148.922L79.864,148.922z M72.133,152.587l0.994-0.264
			l-0.639-0.362l0.224-0.065l0.223-0.068l0.222-0.07l0.221-0.072l0.22-0.074l0.219-0.076l0.218-0.079l0.218-0.081l0.216-0.083
			l0.215-0.085l0.215-0.087l0.213-0.089l0.213-0.091l0.211-0.094l0.21-0.096l0.209-0.097l0.208-0.1l0.208-0.102l0.207-0.104
			l0.206-0.106l0.204-0.108l0.203-0.11l0.203-0.112l0.201-0.114l0.2-0.117l0.199-0.119l0.197-0.12l0.197-0.123l0.196-0.125
			l0.194-0.127l0.193-0.128l0.192-0.131l0.583,0.847l-0.2,0.137l-0.202,0.135l-0.203,0.132l-0.204,0.13l-0.206,0.128l-0.207,0.126
			l-0.208,0.124l-0.209,0.122l-0.21,0.12l-0.211,0.117l-0.212,0.115l-0.213,0.113l-0.214,0.11l-0.216,0.109l-0.217,0.106
			l-0.218,0.104l-0.219,0.102l-0.22,0.1l-0.222,0.098l-0.222,0.095l-0.223,0.093l-0.224,0.091l-0.226,0.089l-0.226,0.086
			l-0.227,0.084l-0.229,0.083l-0.229,0.08l-0.23,0.078l-0.231,0.075l-0.231,0.073l-0.232,0.071l-0.234,0.068L72.133,152.587
			L72.133,152.587z M72.772,152.95l-0.504,0.145l-0.135-0.507L72.772,152.95L72.772,152.95z M70.297,141.653l2.831,10.67
			l-0.994,0.264l-2.831-10.67l0.695-0.606L70.297,141.653L70.297,141.653z M69.303,141.917l-0.268-1.009l0.963,0.403L69.303,141.917
			L69.303,141.917z M80.323,148.593l0.821-0.619l-0.73-0.093l0.131-0.105l0.13-0.106l0.129-0.106l0.129-0.108l0.127-0.109
			l0.127-0.109l0.127-0.111l0.125-0.112l0.125-0.112l0.124-0.114l0.123-0.114l0.123-0.115l0.121-0.116l0.121-0.117l0.12-0.118
			l0.119-0.119l0.118-0.12l0.117-0.121l0.116-0.122l0.115-0.123l0.115-0.124l0.113-0.125l0.114-0.125l0.111-0.125l0.111-0.127
			l0.11-0.128l0.109-0.128l0.108-0.129l0.108-0.13l0.106-0.13l0.105-0.132l0.105-0.133l0.81,0.634L84.9,144.84l-0.11,0.138
			l-0.111,0.137l-0.112,0.135l-0.113,0.136l-0.115,0.134l-0.115,0.133l-0.116,0.132l-0.117,0.132l-0.118,0.131l-0.119,0.129
			l-0.12,0.129l-0.12,0.128l-0.122,0.127l-0.123,0.126l-0.124,0.125l-0.125,0.124l-0.125,0.123l-0.126,0.123l-0.127,0.122
			l-0.128,0.121l-0.129,0.12l-0.129,0.119l-0.13,0.118l-0.131,0.116l-0.132,0.116l-0.133,0.115l-0.134,0.114l-0.134,0.113
			l-0.135,0.111l-0.136,0.111l-0.137,0.109L80.323,148.593L80.323,148.593z M81.053,148.686l-0.413,0.328l-0.317-0.421
			L81.053,148.686L81.053,148.686z M72.042,140.575l0.094,1.024l0.185-0.971l0.325,0.167l0.322,0.171l0.319,0.176l0.317,0.18
			l0.313,0.185l0.311,0.188l0.308,0.193l0.305,0.197l0.302,0.202l0.299,0.205l0.296,0.209l0.292,0.214l0.29,0.218l0.286,0.221
			l0.283,0.225l0.279,0.229l0.276,0.233l0.272,0.237l0.27,0.241l0.266,0.244l0.262,0.249l0.258,0.251l0.255,0.255l0.251,0.259
			l0.247,0.263l0.243,0.266l0.239,0.269l0.236,0.273l0.231,0.276l0.228,0.279l0.223,0.283l0.219,0.286l-0.821,0.619l-0.21-0.274
			l-0.214-0.271l-0.218-0.268l-0.222-0.265l-0.226-0.261l-0.23-0.259l-0.233-0.255l-0.237-0.251l-0.241-0.248l-0.244-0.245
			l-0.248-0.241l-0.251-0.238l-0.255-0.235l-0.258-0.23l-0.262-0.228l-0.265-0.224l-0.269-0.22l-0.271-0.216l-0.274-0.213
			l-0.278-0.209l-0.281-0.205l-0.284-0.202l-0.287-0.197l-0.29-0.193l-0.293-0.189l-0.296-0.185l-0.298-0.181l-0.301-0.177
			l-0.304-0.173l-0.307-0.169l-0.309-0.165l-0.312-0.16L72.042,140.575L72.042,140.575z M71.857,141.545l-1.597-0.807l1.782-0.164
			L71.857,141.545L71.857,141.545z M85.01,144.702l-0.81-0.634l0.113,0.74l-0.339-0.229l-0.343-0.22l-0.347-0.213l-0.35-0.205
			l-0.354-0.197l-0.356-0.188l-0.361-0.181l-0.364-0.172l-0.366-0.164l-0.37-0.156l-0.373-0.147l-0.375-0.139l-0.377-0.131
			l-0.38-0.123l-0.382-0.114l-0.384-0.106l-0.387-0.097l-0.389-0.089l-0.391-0.08l-0.392-0.072l-0.394-0.063l-0.395-0.055
			l-0.397-0.046l-0.398-0.038l-0.399-0.028l-0.4-0.02l-0.401-0.012l-0.402-0.002l-0.402,0.006l-0.403,0.015l-0.403,0.024
			l-0.404,0.033l-0.094-1.024l0.426-0.035l0.426-0.025l0.425-0.016l0.425-0.007l0.424,0.003l0.423,0.012l0.423,0.021l0.421,0.03
			l0.42,0.04l0.419,0.048l0.417,0.058l0.416,0.066l0.414,0.076l0.413,0.084l0.411,0.094l0.408,0.103l0.406,0.112l0.404,0.121
			l0.401,0.129l0.399,0.138l0.396,0.146l0.393,0.156l0.39,0.164l0.388,0.173l0.383,0.182l0.38,0.19l0.377,0.199l0.373,0.208
			l0.37,0.216l0.365,0.224l0.362,0.233l0.357,0.241L85.01,144.702L85.01,144.702z M84.897,143.962l0.449,0.31l-0.337,0.43
			L84.897,143.962L84.897,143.962z M92.261,155.494l-0.264-0.994l-0.364,0.632l-0.098-0.347l-0.104-0.344L91.32,154.1l-0.117-0.338
			l-0.123-0.335l-0.13-0.332l-0.135-0.329l-0.141-0.325l-0.148-0.322l-0.154-0.319l-0.159-0.315l-0.166-0.312l-0.171-0.309
			l-0.177-0.305l-0.183-0.302l-0.188-0.297l-0.195-0.294l-0.2-0.29l-0.206-0.287l-0.211-0.282l-0.217-0.279l-0.223-0.274
			l-0.228-0.27l-0.234-0.266l-0.239-0.263l-0.245-0.258l-0.25-0.253l-0.255-0.25l-0.261-0.244l-0.266-0.241l-0.271-0.235
			l-0.276-0.231l0.652-0.795l0.291,0.244l0.286,0.249l0.28,0.253l0.275,0.258l0.269,0.264l0.264,0.267l0.258,0.272l0.252,0.277
			l0.247,0.281l0.242,0.286l0.235,0.29l0.229,0.294l0.224,0.299l0.218,0.303l0.211,0.307l0.206,0.311l0.199,0.314l0.194,0.319
			l0.187,0.322l0.181,0.326l0.175,0.33l0.168,0.333l0.162,0.336l0.156,0.34l0.149,0.344l0.143,0.347l0.136,0.35l0.13,0.354
			l0.124,0.357l0.117,0.36l0.11,0.363l0.104,0.366L92.261,155.494L92.261,155.494z M92.625,154.862l0.136,0.499l-0.5,0.133
			L92.625,154.862L92.625,154.862z M84.807,156.412l7.19-1.912l0.264,0.994l-7.19,1.912l-0.628-0.363L84.807,156.412L84.807,156.412
			z M85.071,157.406l-0.495,0.131l-0.134-0.494L85.071,157.406L85.071,157.406z M81.332,149.184l0.637,0.808l0.111-0.687l0.14,0.215
			l0.138,0.217l0.136,0.218l0.133,0.219l0.131,0.221l0.129,0.222l0.126,0.223l0.125,0.224l0.122,0.226l0.12,0.226l0.118,0.228
			l0.116,0.229l0.113,0.23l0.111,0.231l0.108,0.232l0.106,0.233l0.104,0.235l0.102,0.235l0.1,0.237l0.097,0.238l0.094,0.239
			l0.093,0.24l0.09,0.241l0.088,0.242l0.085,0.243l0.083,0.244l0.081,0.245l0.078,0.246l0.076,0.247l0.074,0.248l0.071,0.249
			l0.069,0.25l-0.993,0.269l-0.066-0.24l-0.069-0.238l-0.071-0.238l-0.073-0.238l-0.075-0.236l-0.077-0.235l-0.08-0.234
			l-0.082-0.233l-0.084-0.232l-0.086-0.231l-0.089-0.23l-0.091-0.229l-0.094-0.229l-0.095-0.227l-0.098-0.227l-0.1-0.225
			l-0.102-0.224l-0.104-0.223l-0.106-0.222l-0.109-0.221l-0.11-0.22l-0.113-0.219l-0.115-0.217l-0.117-0.216l-0.12-0.215
			l-0.122-0.214l-0.124-0.212l-0.126-0.211l-0.128-0.21l-0.13-0.209l-0.132-0.208l-0.135-0.207L81.332,149.184L81.332,149.184z
			 M81.22,149.87l-0.259-0.394l0.371-0.292L81.22,149.87L81.22,149.87z M86.202,144.946l-0.652,0.795l0.731-0.081l-0.119,0.15
			l-0.12,0.15l-0.121,0.149l-0.122,0.148l-0.123,0.147l-0.125,0.146l-0.125,0.145L85.3,146.84l-0.127,0.144l-0.129,0.142
			l-0.129,0.141l-0.13,0.14l-0.132,0.139l-0.133,0.139l-0.133,0.137l-0.135,0.136l-0.135,0.135l-0.137,0.134l-0.138,0.133
			l-0.138,0.132l-0.14,0.131l-0.14,0.13l-0.141,0.129l-0.143,0.128l-0.144,0.126l-0.144,0.125l-0.145,0.125l-0.146,0.124
			l-0.147,0.122l-0.148,0.121l-0.148,0.12l-0.15,0.119l-0.637-0.808l0.144-0.114l0.143-0.115l0.142-0.117l0.141-0.117l0.14-0.119
			l0.139-0.12l0.139-0.121l0.138-0.122l0.136-0.123l0.136-0.123l0.134-0.125l0.134-0.126l0.133-0.126l0.132-0.128l0.131-0.128
			l0.13-0.13l0.129-0.13l0.128-0.132l0.127-0.133l0.125-0.133l0.125-0.135l0.125-0.136l0.123-0.136l0.123-0.137l0.122-0.139
			l0.12-0.139l0.119-0.14l0.119-0.142l0.118-0.142l0.116-0.143l0.115-0.144l0.114-0.145L86.202,144.946L86.202,144.946z
			 M85.471,145.026l0.324-0.415l0.407,0.334L85.471,145.026L85.471,145.026z M85.168,166.239l1.022,0.112l-0.446-0.566l0.18,0.024
			l0.18,0.025l0.18,0.026l0.18,0.027l0.179,0.029l0.179,0.03l0.179,0.031l0.179,0.033l0.178,0.034l0.178,0.035l0.178,0.036
			l0.177,0.038l0.177,0.039l0.176,0.041l0.176,0.041l0.176,0.043l0.176,0.044l0.175,0.045l0.175,0.046l0.174,0.048l0.174,0.049
			l0.174,0.05l0.173,0.051l0.173,0.053l0.172,0.054l0.172,0.055l0.171,0.056l0.172,0.058l0.17,0.059l0.17,0.06l0.169,0.062
			l0.169,0.063l-0.36,0.963l-0.163-0.06l-0.163-0.059l-0.164-0.058l-0.163-0.056l-0.164-0.056l-0.165-0.054l-0.165-0.053
			l-0.166-0.052l-0.166-0.05l-0.167-0.049l-0.167-0.048l-0.167-0.047l-0.167-0.046l-0.168-0.044l-0.168-0.043l-0.167-0.042
			l-0.168-0.041l-0.17-0.04l-0.169-0.038l-0.17-0.038l-0.17-0.036l-0.17-0.035l-0.17-0.033l-0.172-0.033l-0.171-0.031l-0.171-0.03
			l-0.172-0.029l-0.172-0.027l-0.172-0.026l-0.172-0.025l-0.173-0.024l-0.173-0.023L85.168,166.239L85.168,166.239z M85.615,166.805
			l-0.501-0.063l0.055-0.502L85.615,166.805L85.615,166.805z M85.169,157.962l0.264,0.994l0.372-0.601l0.05,0.249l0.048,0.249
			l0.045,0.25l0.042,0.249l0.041,0.25l0.038,0.25l0.036,0.25l0.033,0.25l0.031,0.25l0.028,0.25l0.025,0.25l0.024,0.25l0.021,0.25
			l0.018,0.25l0.016,0.25l0.013,0.25l0.011,0.25l0.008,0.25l0.006,0.25l0.003,0.25l0.001,0.25l-0.001,0.251l-0.004,0.25l-0.007,0.25
			l-0.008,0.25l-0.011,0.25l-0.014,0.25l-0.016,0.25l-0.019,0.249l-0.021,0.25l-0.024,0.249l-0.026,0.249l-1.022-0.112L85.193,166
			l0.023-0.239l0.021-0.239l0.018-0.239l0.016-0.24l0.013-0.239l0.011-0.239l0.008-0.24l0.006-0.24l0.004-0.24l0.001-0.24
			l-0.001-0.24l-0.003-0.241l-0.005-0.24l-0.008-0.24l-0.01-0.24l-0.013-0.24l-0.015-0.241l-0.018-0.24l-0.02-0.24l-0.022-0.241
			l-0.024-0.24l-0.027-0.24l-0.029-0.24l-0.032-0.241L85.051,160l-0.036-0.24l-0.039-0.24l-0.041-0.24l-0.043-0.239l-0.046-0.24
			l-0.048-0.239L85.169,157.962L85.169,157.962z M84.797,158.563l-0.098-0.476l0.47-0.125L84.797,158.563L84.797,158.563z
			 M92.612,157.047l-7.179,1.909l-0.264-0.994l7.179-1.909l0.638,0.403L92.612,157.047L92.612,157.047z M92.348,156.053l0.537-0.143
			l0.101,0.546L92.348,156.053L92.348,156.053z M90.999,168.133l0.36-0.963l-0.65,0.274l0.139-0.321l0.132-0.323l0.125-0.324
			l0.12-0.326l0.113-0.328l0.107-0.329l0.101-0.33l0.094-0.332l0.088-0.333l0.082-0.334l0.075-0.335l0.068-0.336l0.063-0.338
			l0.056-0.338l0.049-0.339l0.043-0.34l0.037-0.34l0.03-0.341l0.024-0.342l0.018-0.342l0.011-0.343l0.005-0.343l-0.002-0.343
			l-0.008-0.344l-0.015-0.344l-0.021-0.344l-0.028-0.344l-0.034-0.344l-0.041-0.344l-0.048-0.344l-0.054-0.344l-0.061-0.344
			l1.011-0.188l0.063,0.362l0.058,0.363l0.05,0.363l0.043,0.363l0.037,0.363l0.029,0.364l0.022,0.364l0.016,0.363l0.009,0.363
			l0.002,0.363l-0.005,0.362l-0.012,0.362l-0.018,0.361l-0.025,0.361l-0.032,0.36l-0.039,0.36l-0.046,0.359l-0.052,0.358
			l-0.059,0.357l-0.066,0.356l-0.072,0.355l-0.08,0.354l-0.086,0.353l-0.093,0.352l-0.099,0.35l-0.106,0.349l-0.113,0.347
			l-0.12,0.346l-0.126,0.344l-0.133,0.342l-0.139,0.341l-0.146,0.338L90.999,168.133L90.999,168.133z M91.649,167.859l-0.196,0.444
			l-0.454-0.17L91.649,167.859L91.649,167.859z M85.527,167.36l-0.129,1.021l0.571-0.421l-0.059,0.321l-0.062,0.32l-0.067,0.318
			l-0.071,0.317l-0.075,0.315l-0.079,0.314l-0.083,0.314l-0.087,0.312l-0.091,0.311l-0.095,0.31l-0.099,0.308l-0.103,0.307
			l-0.106,0.306l-0.111,0.304l-0.114,0.303l-0.119,0.301l-0.123,0.3l-0.126,0.298l-0.13,0.296l-0.134,0.295l-0.139,0.294
			l-0.142,0.293l-0.146,0.291l-0.15,0.289l-0.154,0.288l-0.158,0.287l-0.162,0.285l-0.166,0.283l-0.17,0.282L82.477,177
			l-0.177,0.278l-0.182,0.277l-0.856-0.569l0.174-0.266l0.17-0.268l0.167-0.269l0.163-0.271l0.159-0.272l0.155-0.273l0.152-0.275
			l0.148-0.276l0.144-0.278l0.141-0.279l0.137-0.28l0.133-0.282l0.128-0.283l0.125-0.285l0.122-0.286l0.117-0.288l0.114-0.289
			l0.11-0.29l0.106-0.291l0.102-0.292l0.098-0.294l0.095-0.295l0.091-0.296l0.086-0.298l0.083-0.299l0.079-0.3l0.075-0.301
			l0.072-0.303l0.068-0.304l0.064-0.305l0.06-0.307l0.056-0.308L85.527,167.36L85.527,167.36z M84.956,167.781l0.085-0.483
			l0.486,0.062L84.956,167.781L84.956,167.781z M90.922,169.332l-0.902-0.493l0.275,0.729l-0.148-0.054l-0.148-0.052l-0.149-0.051
			l-0.149-0.05l-0.149-0.049l-0.15-0.049l-0.15-0.047l-0.15-0.046l-0.151-0.045l-0.151-0.044l-0.151-0.042l-0.152-0.042
			l-0.152-0.041l-0.153-0.04l-0.152-0.039l-0.153-0.038l-0.153-0.037l-0.154-0.036l-0.154-0.035l-0.154-0.033l-0.154-0.032
			l-0.155-0.032l-0.155-0.03l-0.155-0.029l-0.155-0.028l-0.156-0.027l-0.156-0.026l-0.156-0.025l-0.156-0.023l-0.158-0.023
			l-0.157-0.021l-0.157-0.021l0.129-1.021l0.165,0.021l0.164,0.022l0.164,0.024l0.164,0.024l0.164,0.026l0.163,0.027l0.163,0.028
			l0.163,0.029l0.163,0.031l0.162,0.032l0.162,0.033l0.161,0.034l0.162,0.035l0.161,0.036l0.161,0.037l0.16,0.039l0.161,0.04
			l0.16,0.041l0.16,0.042l0.159,0.042l0.158,0.043l0.159,0.045l0.158,0.046l0.158,0.047l0.158,0.048l0.157,0.05l0.156,0.05
			l0.156,0.051l0.156,0.053l0.156,0.054l0.155,0.055l0.155,0.056L90.922,169.332L90.922,169.332z M90.647,168.602l0.561,0.206
			l-0.286,0.524L90.647,168.602L90.647,168.602z M81.262,176.986l0.856,0.569l-0.642-0.752l0.337-0.158l0.334-0.165l0.33-0.171
			l0.326-0.178l0.322-0.184l0.318-0.19l0.313-0.196l0.31-0.203l0.306-0.208l0.301-0.215l0.296-0.221l0.292-0.227l0.288-0.232
			l0.283-0.238l0.278-0.244l0.273-0.25l0.268-0.254l0.263-0.26l0.258-0.266l0.252-0.271l0.248-0.276l0.242-0.281l0.237-0.286
			l0.23-0.291l0.226-0.296l0.219-0.301l0.214-0.306l0.208-0.31l0.202-0.314l0.196-0.319l0.19-0.324l0.183-0.328l0.902,0.493
			l-0.193,0.346l-0.2,0.341l-0.207,0.337l-0.213,0.332l-0.219,0.327l-0.226,0.323l-0.232,0.317l-0.237,0.312l-0.244,0.308
			l-0.25,0.302l-0.255,0.297l-0.261,0.291l-0.267,0.286l-0.272,0.28l-0.277,0.275l-0.283,0.269l-0.288,0.264l-0.294,0.257
			l-0.298,0.251l-0.304,0.246l-0.308,0.239l-0.313,0.233l-0.318,0.227l-0.322,0.221l-0.327,0.214l-0.332,0.208l-0.336,0.201
			l-0.34,0.194l-0.344,0.188l-0.349,0.181l-0.353,0.174l-0.356,0.167L81.262,176.986L81.262,176.986z M81.903,177.738l-1.636,0.746
			l0.994-1.498L81.903,177.738L81.903,177.738z M63.81,161.994l9.065-2.411l0.264,0.994l-9.065,2.411l-0.629-0.368L63.81,161.994
			L63.81,161.994z M64.074,162.988l-0.5,0.133l-0.13-0.5L64.074,162.988L64.074,162.988z M63.288,154.292l-0.119,1.021l0.572-0.474
			l-0.016,0.236l-0.013,0.236l-0.011,0.236l-0.008,0.236l-0.006,0.236l-0.003,0.236l-0.001,0.236l0.001,0.236l0.004,0.236
			l0.006,0.236l0.009,0.236l0.011,0.236l0.014,0.236l0.016,0.236l0.018,0.235l0.021,0.236l0.023,0.235l0.025,0.235l0.028,0.235
			l0.031,0.235l0.032,0.235l0.036,0.235l0.038,0.235l0.04,0.234l0.042,0.234l0.045,0.234l0.047,0.233l0.05,0.233l0.052,0.233
			l0.055,0.233l0.057,0.232l0.059,0.232l-0.995,0.259l-0.063-0.242l-0.059-0.243l-0.057-0.243l-0.055-0.243l-0.052-0.244
			l-0.049-0.244l-0.046-0.244l-0.044-0.244l-0.042-0.245l-0.039-0.245l-0.037-0.245l-0.034-0.245l-0.032-0.246l-0.029-0.246
			l-0.027-0.246l-0.024-0.246l-0.022-0.246l-0.019-0.246l-0.017-0.247l-0.014-0.247l-0.011-0.246l-0.009-0.247l-0.006-0.247
			l-0.004-0.246l-0.001-0.248l0.001-0.246V156l0.006-0.247l0.009-0.246l0.011-0.248l0.014-0.247l0.017-0.246L63.288,154.292
			L63.288,154.292z M62.715,154.767l0.039-0.536l0.534,0.062L62.715,154.767L62.715,154.767z M71.993,154.253L71,154.517
			l0.607,0.371l-0.262,0.056l-0.261,0.053l-0.262,0.051l-0.262,0.048l-0.262,0.045l-0.263,0.042l-0.263,0.039l-0.263,0.037
			l-0.263,0.034l-0.264,0.031l-0.264,0.028l-0.264,0.026l-0.264,0.023l-0.264,0.02l-0.264,0.018l-0.264,0.015l-0.265,0.012
			l-0.264,0.009l-0.264,0.007l-0.265,0.004h-0.265l-0.264-0.001l-0.265-0.004l-0.264-0.007l-0.265-0.01l-0.265-0.013l-0.264-0.016
			l-0.265-0.018l-0.264-0.021l-0.265-0.023l-0.264-0.027l-0.264-0.029l0.119-1.021l0.253,0.028l0.253,0.025l0.253,0.023l0.254,0.02
			l0.253,0.018l0.254,0.015l0.254,0.012l0.254,0.01l0.254,0.007l0.254,0.004l0.254,0.001l0.253-0.001l0.254-0.003l0.253-0.006
			l0.254-0.009l0.254-0.012l0.253-0.014l0.254-0.017l0.253-0.019l0.253-0.022l0.253-0.024l0.253-0.027l0.252-0.03l0.252-0.033
			l0.253-0.035l0.252-0.038l0.252-0.041l0.252-0.043l0.251-0.046l0.252-0.048l0.251-0.051l0.251-0.054L71.993,154.253
			L71.993,154.253z M71.386,153.883l0.481-0.105l0.126,0.476L71.386,153.883L71.386,153.883z M72.51,160.212L71,154.517l0.994-0.263
			l1.511,5.695l-0.365,0.628L72.51,160.212L72.51,160.212z M73.504,159.949l0.132,0.497l-0.497,0.132L73.504,159.949L73.504,159.949
			z M67.461,171.016l0.824-0.615l-0.708-0.113l0.206-0.143l0.207-0.141l0.208-0.139l0.209-0.137l0.211-0.134l0.212-0.133
			l0.214-0.131l0.215-0.128l0.216-0.126l0.217-0.125l0.218-0.122l0.22-0.12l0.221-0.118l0.222-0.116l0.223-0.113l0.224-0.111
			l0.226-0.109l0.227-0.107l0.228-0.105l0.229-0.103l0.23-0.101l0.231-0.098l0.232-0.097l0.233-0.094l0.234-0.091l0.235-0.09
			l0.236-0.087l0.237-0.085L74.037,167l0.239-0.081l0.24-0.079l0.241-0.076l0.306,0.982l-0.231,0.074l-0.231,0.075l-0.23,0.078
			l-0.229,0.08l-0.228,0.082l-0.227,0.084l-0.226,0.086l-0.226,0.088l-0.224,0.09l-0.223,0.092l-0.222,0.094l-0.221,0.097
			l-0.22,0.099l-0.219,0.101l-0.217,0.103l-0.217,0.105l-0.215,0.107l-0.214,0.109l-0.213,0.111l-0.211,0.113l-0.211,0.115
			l-0.209,0.117l-0.208,0.119l-0.208,0.122l-0.207,0.123l-0.204,0.125l-0.204,0.128l-0.203,0.129l-0.201,0.131l-0.2,0.133
			l-0.199,0.135l-0.197,0.137L67.461,171.016L67.461,171.016z M68.169,171.129l-0.409,0.287l-0.298-0.4L68.169,171.129
			L68.169,171.129z M64.266,163.519l0.264,0.994l0.356-0.658l0.075,0.222l0.077,0.221l0.079,0.22l0.081,0.219l0.083,0.217
			l0.085,0.217l0.087,0.215l0.089,0.215l0.091,0.214l0.093,0.212l0.095,0.212l0.097,0.21l0.099,0.209l0.102,0.208l0.104,0.207
			l0.105,0.206l0.107,0.204l0.109,0.204l0.111,0.202l0.113,0.201l0.115,0.2l0.118,0.198l0.119,0.197l0.122,0.196l0.124,0.195
			l0.125,0.193l0.127,0.192l0.129,0.19l0.131,0.189l0.133,0.188l0.135,0.187l0.137,0.186l-0.824,0.615l-0.144-0.194l-0.141-0.196
			l-0.139-0.196l-0.137-0.198l-0.135-0.2l-0.133-0.201l-0.131-0.202l-0.129-0.203l-0.127-0.205l-0.125-0.206l-0.123-0.207
			l-0.121-0.208l-0.118-0.21l-0.117-0.211l-0.114-0.212l-0.113-0.213l-0.11-0.215l-0.108-0.216l-0.106-0.217l-0.104-0.219
			l-0.102-0.22l-0.099-0.22l-0.098-0.222l-0.095-0.223l-0.093-0.224l-0.091-0.226l-0.089-0.226l-0.086-0.228l-0.084-0.229
			l-0.083-0.229l-0.08-0.231l-0.078-0.232L64.266,163.519L64.266,163.519z M63.91,164.177l-0.171-0.518l0.527-0.14L63.91,164.177
			L63.91,164.177z M73.547,162.116l-9.017,2.397l-0.264-0.994l9.017-2.397l0.629,0.365L73.547,162.116L73.547,162.116z
			 M73.283,161.122l0.497-0.132l0.132,0.497L73.283,161.122L73.283,161.122z M74.414,167.388l-1.495-5.637l0.994-0.264l1.496,5.637
			l-0.344,0.623L74.414,167.388L74.414,167.388z M75.408,167.124l0.126,0.476l-0.471,0.146L75.408,167.124L75.408,167.124z
			 M68.576,171.531l0.587,0.844l0.096-0.758l0.222,0.254l0.226,0.251l0.229,0.248l0.234,0.244l0.238,0.241l0.241,0.237l0.245,0.233
			l0.248,0.23l0.252,0.226l0.255,0.223l0.259,0.219l0.263,0.215l0.266,0.211l0.269,0.208l0.272,0.204l0.275,0.199l0.279,0.196
			l0.282,0.192l0.285,0.188l0.288,0.184l0.291,0.18l0.293,0.175l0.296,0.171l0.299,0.167l0.302,0.163l0.304,0.159l0.307,0.154
			l0.31,0.15l0.312,0.146l0.314,0.141l0.317,0.137l0.319,0.132l-0.387,0.953l-0.333-0.138L77,178.567l-0.329-0.147l-0.326-0.152
			l-0.323-0.156l-0.32-0.161l-0.318-0.166l-0.315-0.169l-0.312-0.175l-0.31-0.179l-0.307-0.183l-0.303-0.188l-0.3-0.191
			l-0.297-0.196l-0.294-0.2l-0.291-0.205l-0.288-0.208l-0.284-0.213l-0.281-0.216l-0.278-0.221l-0.274-0.225l-0.271-0.229
			l-0.267-0.232l-0.264-0.237l-0.26-0.24l-0.255-0.244l-0.252-0.248l-0.249-0.252l-0.245-0.255l-0.241-0.258l-0.237-0.263
			l-0.232-0.266L68.576,171.531L68.576,171.531z M68.479,172.288l-0.372-0.432l0.468-0.325L68.479,172.288L68.479,172.288z
			 M75.815,168.661l-0.994,0.264l0.651,0.358l-0.212,0.068l-0.21,0.07l-0.21,0.072l-0.209,0.073l-0.208,0.076l-0.208,0.077
			l-0.207,0.079l-0.205,0.081l-0.205,0.083l-0.204,0.085l-0.203,0.086l-0.202,0.088l-0.201,0.09l-0.2,0.092l-0.199,0.094
			l-0.198,0.096l-0.197,0.098L71.8,170.79l-0.195,0.102l-0.194,0.104l-0.193,0.105l-0.192,0.107l-0.191,0.108l-0.189,0.11
			l-0.189,0.113l-0.188,0.114l-0.187,0.116l-0.186,0.118l-0.185,0.119l-0.183,0.121l-0.183,0.124l-0.181,0.125l-0.587-0.844
			l0.19-0.13l0.19-0.128l0.192-0.127l0.192-0.125l0.194-0.123l0.196-0.121l0.196-0.119l0.197-0.117l0.199-0.116l0.2-0.114
			l0.201-0.111l0.202-0.11l0.203-0.107l0.204-0.106l0.205-0.104l0.206-0.102l0.207-0.1l0.208-0.099l0.208-0.096l0.21-0.094
			l0.211-0.092L73,169.1l0.212-0.088l0.214-0.086l0.215-0.085l0.215-0.083l0.216-0.08l0.217-0.079l0.219-0.077l0.219-0.074
			l0.22-0.073l0.221-0.07L75.815,168.661L75.815,168.661z M75.164,168.303l0.513-0.162l0.138,0.52L75.164,168.303L75.164,168.303z
			 M77.362,178.5l-2.54-9.576l0.994-0.264l2.541,9.576l-0.69,0.608L77.362,178.5L77.362,178.5z M78.356,178.237l0.264,0.995
			l-0.954-0.387L78.356,178.237L78.356,178.237z M67.981,172.575l-0.783,0.667l0.713,0.068l-0.116,0.094l-0.116,0.094l-0.115,0.096
			l-0.115,0.096l-0.113,0.097l-0.113,0.097l-0.112,0.098L67,174.081l-0.111,0.1l-0.11,0.1l-0.109,0.101l-0.109,0.102l-0.108,0.103
			l-0.107,0.103l-0.106,0.104l-0.106,0.104l-0.105,0.105l-0.104,0.105l-0.104,0.106l-0.104,0.107l-0.102,0.107l-0.101,0.108
			l-0.101,0.109l-0.1,0.109l-0.099,0.11l-0.099,0.11l-0.097,0.111l-0.097,0.112l-0.096,0.113l-0.095,0.113l-0.095,0.113
			l-0.093,0.114l-0.798-0.649l0.098-0.12l0.099-0.119l0.1-0.118l0.101-0.118l0.101-0.117l0.102-0.116l0.103-0.116l0.104-0.115
			l0.104-0.115l0.105-0.114l0.106-0.113l0.107-0.113l0.107-0.111l0.108-0.111l0.109-0.11l0.11-0.11l0.111-0.109l0.111-0.108
			l0.113-0.107l0.112-0.107l0.113-0.106l0.115-0.106l0.116-0.105l0.116-0.104l0.116-0.104l0.118-0.103l0.118-0.102l0.119-0.101
			l0.12-0.101l0.12-0.099l0.121-0.099l0.122-0.098L67.981,172.575L67.981,172.575z M67.269,172.507l0.389-0.312l0.324,0.38
			L67.269,172.507L67.269,172.507z M75.289,179.44l-0.078-1.025l-0.193,0.972l-0.282-0.146l-0.279-0.148l-0.277-0.151l-0.275-0.155
			l-0.272-0.158l-0.271-0.16l-0.268-0.164l-0.266-0.167l-0.263-0.17l-0.261-0.172l-0.258-0.176l-0.256-0.179l-0.253-0.182
			l-0.251-0.185l-0.249-0.188l-0.246-0.191l-0.244-0.194l-0.241-0.197l-0.238-0.2l-0.236-0.203l-0.234-0.206l-0.231-0.209
			l-0.229-0.211l-0.226-0.214l-0.223-0.217l-0.221-0.22L68.25,174.4l-0.215-0.226l-0.213-0.229l-0.21-0.232l-0.208-0.234
			l-0.205-0.238l0.783-0.667l0.197,0.228l0.199,0.225l0.202,0.222l0.205,0.22l0.207,0.217l0.209,0.214l0.211,0.211l0.214,0.208
			l0.216,0.206l0.219,0.203l0.222,0.2l0.224,0.197l0.227,0.194l0.229,0.191l0.231,0.189l0.234,0.186l0.236,0.183l0.238,0.18
			l0.241,0.178l0.243,0.174l0.246,0.172l0.248,0.168l0.25,0.166l0.252,0.163l0.255,0.16l0.257,0.157l0.259,0.154l0.262,0.151
			l0.264,0.148l0.267,0.145l0.269,0.143l0.271,0.14L75.289,179.44L75.289,179.44z M75.482,178.469l1.641,0.832l-1.835,0.139
			L75.482,178.469L75.482,178.469z M63.743,176.002l0.798,0.649l-0.137-0.767l0.308,0.178l0.311,0.171l0.313,0.166l0.316,0.159
			l0.319,0.153l0.322,0.147L66.616,177l0.326,0.134l0.329,0.128l0.331,0.122l0.333,0.115l0.335,0.109l0.337,0.103l0.338,0.096
			l0.34,0.089l0.341,0.083l0.343,0.077l0.344,0.07l0.345,0.064l0.347,0.057l0.347,0.051l0.349,0.043l0.35,0.038l0.35,0.031
			l0.351,0.024l0.351,0.017l0.352,0.011l0.352,0.004l0.351-0.003l0.352-0.01l0.352-0.016l0.352-0.023l0.078,1.025l-0.372,0.024
			l-0.372,0.018l-0.371,0.01l-0.372,0.003l-0.372-0.004l-0.371-0.011l-0.371-0.018l-0.37-0.026l-0.37-0.032l-0.369-0.04
			l-0.368-0.046l-0.367-0.054l-0.365-0.06l-0.365-0.067l-0.363-0.074l-0.362-0.081l-0.361-0.088l-0.358-0.095l-0.357-0.101
			l-0.355-0.108l-0.353-0.115l-0.352-0.122l-0.349-0.129l-0.347-0.135l-0.344-0.142l-0.342-0.148l-0.34-0.155l-0.336-0.162
			l-0.333-0.168l-0.331-0.175l-0.328-0.181l-0.325-0.188L63.743,176.002L63.743,176.002z M63.88,176.769l-0.514-0.304l0.377-0.463
			L63.88,176.769L63.88,176.769z M80.057,180.14l-1.912,0.501l-0.261-0.995l1.912-0.501l0.283,0.988L80.057,180.14L80.057,180.14z
			 M80.079,180.134l-0.015,0.004l-0.007,0.002L80.079,180.134L80.079,180.134z M93.205,154.851l0.994-0.264l0,0l0.246,1.029
			l0.194,1.029l0.142,1.028l0.091,1.024l0.042,1.02l-0.008,1.015l-0.057,1.006l-0.104,0.998l-0.151,0.987l-0.197,0.975l-0.242,0.961
			l-0.287,0.947l-0.33,0.93l-0.373,0.912l-0.415,0.893l-0.457,0.873l-0.496,0.85l-0.536,0.826l-0.574,0.801l-0.612,0.774
			l-0.649,0.746l-0.686,0.716l-0.721,0.685l-0.755,0.653l-0.79,0.618l-0.821,0.583l-0.854,0.546l-0.885,0.507l-0.916,0.467
			l-0.945,0.426l-0.974,0.383l-1.001,0.338l-0.305-0.982l0.954-0.322l0.927-0.364l0.899-0.405l0.871-0.444l0.842-0.482l0.812-0.519
			l0.782-0.555l0.75-0.588l0.719-0.62l0.685-0.652l0.652-0.681l0.617-0.709l0.582-0.736l0.547-0.762l0.509-0.786l0.472-0.809
			l0.433-0.83l0.395-0.85l0.354-0.868l0.314-0.885l0.272-0.9l0.23-0.915l0.188-0.927l0.144-0.939l0.099-0.948l0.054-0.958
			l0.007-0.964l-0.039-0.971l-0.086-0.975l-0.135-0.978l-0.185-0.98L93.205,154.851L93.205,154.851L93.205,154.851z M69.513,140.398
			l-0.261-0.995l0.02-0.004l1.037-0.203l1.035-0.15l1.032-0.099l1.026-0.048l1.021,0.002l1.012,0.051l1.003,0.099l0.992,0.146
			l0.979,0.192l0.966,0.238l0.95,0.283l0.934,0.326l0.916,0.369l0.896,0.411l0.875,0.452l0.852,0.492l0.829,0.532l0.803,0.57
			l0.776,0.607l0.748,0.645l0.718,0.68l0.688,0.715l0.655,0.75l0.621,0.782l0.585,0.815l0.548,0.846l0.51,0.876l0.47,0.906
			l0.429,0.936l0.386,0.963l0.341,0.99l0.296,1.016l-0.994,0.264l-0.282-0.968l-0.325-0.942l-0.367-0.917l-0.408-0.89l-0.447-0.862
			l-0.485-0.834l-0.521-0.805l-0.557-0.774l-0.59-0.744l-0.623-0.713l-0.653-0.68l-0.684-0.646l-0.711-0.613l-0.738-0.578
			l-0.764-0.542l-0.788-0.505l-0.811-0.468l-0.832-0.43l-0.852-0.391l-0.871-0.351l-0.888-0.31l-0.903-0.269l-0.918-0.226
			l-0.932-0.183l-0.943-0.139l-0.954-0.094l-0.963-0.048l-0.97-0.002l-0.977,0.046l-0.981,0.094l-0.986,0.143l-0.988,0.193
			L69.513,140.398L69.513,140.398z M69.252,139.403l0.005-0.001l0.014-0.003L69.252,139.403L69.252,139.403z M67.357,139.899
			l1.895-0.496l0.261,0.995l-1.895,0.496l-0.504-0.851L67.357,139.899L67.357,139.899z M67.114,140.044l0.101-0.107l0.143-0.038
			L67.114,140.044L67.114,140.044z M67.631,140.903l-0.315-0.979l-0.248,0.172l-0.005,0.008l0,0l0.048-0.056l-0.077,0.099v-0.001
			l0.078-0.1l-0.047,0.055l0,0l0.048-0.056l-0.047,0.055l0,0l0.048-0.056l-0.047,0.055l0.048-0.056h0.001l-0.047,0.055l0.048-0.056
			l-0.047,0.055l0,0v-0.001l0,0l0.104-0.104l-0.055,0.047l-0.047,0.055l0,0l0.048-0.056l0.056-0.048l-0.103,0.102l0,0l0.048-0.056
			l0,0l-0.01,0.01l0.748,0.706l-0.011,0.011l0,0l0.047-0.055l0,0l-0.104,0.104l0.055-0.047l0.047-0.055l0,0l-0.048,0.056
			l-0.056,0.048l0.103-0.103v0.001l0,0l0,0l-0.048,0.056l0.047-0.055l-0.048,0.056l0,0l0.047-0.055l-0.048,0.056l0.047-0.055v0.001
			l-0.048,0.056l0.047-0.055l0,0l-0.048,0.056l0.076-0.099v0.001l-0.078,0.1l0.047-0.055v0.001l-0.007,0.009L67.631,140.903
			L67.631,140.903z M67.878,140.731l-0.097,0.124l-0.15,0.048L67.878,140.731L67.878,140.731z M54.411,165.142l-0.994,0.264l0,0
			l-0.244-1.018l-0.192-1.019l-0.141-1.019l-0.091-1.015l-0.042-1.012l0.007-1.006l0.055-0.999l0.101-0.991l0.148-0.981l0.193-0.969
			l0.238-0.957l0.282-0.942l0.325-0.926l0.367-0.909l0.408-0.89l0.449-0.87l0.488-0.848l0.528-0.825l0.565-0.8l0.603-0.774
			l0.64-0.747l0.675-0.717l0.709-0.687l0.744-0.655l0.777-0.621l0.81-0.586l0.841-0.55l0.872-0.512l0.902-0.472l0.932-0.432
			l0.959-0.389l0.987-0.345l0.315,0.979l-0.94,0.329l-0.913,0.37l-0.886,0.411l-0.858,0.45l-0.83,0.487l-0.8,0.522l-0.77,0.558
			l-0.739,0.591l-0.708,0.623l-0.675,0.653l-0.642,0.682l-0.608,0.71l-0.573,0.736l-0.538,0.761l-0.501,0.784l-0.465,0.807
			l-0.427,0.827l-0.388,0.847l-0.349,0.865l-0.309,0.88l-0.268,0.896l-0.226,0.91l-0.184,0.922l-0.141,0.933l-0.097,0.942
			l-0.052,0.95l-0.007,0.957l0.04,0.962l0.086,0.966l0.134,0.968l0.183,0.97L54.411,165.142L54.411,165.142L54.411,165.142z
			 M77.884,179.646l0.261,0.995l-0.025,0.005l-1.029,0.189l-1.026,0.138l-1.023,0.087l-1.018,0.037l-1.012-0.012l-1.003-0.061
			l-0.994-0.108l-0.984-0.154l-0.971-0.2l-0.957-0.245l-0.942-0.288l-0.925-0.332l-0.908-0.373l-0.888-0.415l-0.867-0.455
			l-0.845-0.494l-0.821-0.533l-0.796-0.57l-0.769-0.607l-0.742-0.643l-0.711-0.679l-0.681-0.712l-0.648-0.746l-0.615-0.778
			l-0.579-0.81l-0.543-0.84l-0.504-0.87l-0.466-0.899l-0.424-0.927l-0.382-0.955l-0.339-0.98l-0.292-1.005l0.994-0.264l0.279,0.958
			l0.322,0.933l0.363,0.908l0.404,0.881l0.443,0.855l0.48,0.828l0.516,0.799l0.551,0.771l0.585,0.74l0.617,0.709l0.647,0.678
			l0.677,0.645L61,175.459l0.731,0.578l0.757,0.542l0.781,0.507l0.804,0.47l0.825,0.433l0.844,0.394l0.863,0.355l0.88,0.315
			l0.896,0.274l0.91,0.232l0.923,0.19l0.935,0.147L72.095,180l0.954,0.058l0.962,0.012l0.968-0.035l0.973-0.083l0.977-0.131
			l0.979-0.181L77.884,179.646L77.884,179.646z M78.145,180.642l-0.009,0.002l-0.016,0.003L78.145,180.642z"/>
	</g>
	<path fill="#F39220" d="M55.586,125.467h6.768l0,0h22.912h6.039h0.936l0,0h0.084l0,0l0.083,0.003l0,0l0.083,0.005l0,0l0.082,0.007
		l0,0l0.081,0.009l0,0l0.08,0.011l0,0l0.081,0.013l0,0l0.079,0.015l0,0l0.078,0.017l0,0l0.078,0.019l0,0l0.077,0.021l0,0
		l0.076,0.022l0,0l0.076,0.025l0,0l0.075,0.026l0,0l0.075,0.028l0,0l0.073,0.03l0,0l0.072,0.032l0,0l0.071,0.034l0,0l0.07,0.035l0,0
		l0.07,0.037l0,0l0.069,0.038l0,0l0.067,0.04l0,0l0.066,0.042l0,0l0.065,0.043l0,0l0.064,0.045l0,0l0.063,0.046l0,0l0.062,0.047
		l0.061,0.049l0.06,0.051l0,0l0.058,0.052l0,0l0.057,0.053l0,0c0.038,0.036,0.075,0.073,0.111,0.11
		c0.036,0.037,0.071,0.076,0.105,0.116l0.051,0.06l0,0l0.049,0.061l0,0c0.032,0.041,0.063,0.083,0.094,0.125l0,0
		c0.031,0.042,0.06,0.086,0.088,0.13l0,0c0.028,0.044,0.055,0.088,0.082,0.134l0,0l0.038,0.068l0,0l0.037,0.07l0,0l0.036,0.071l0,0
		l0.033,0.072l0,0l0.032,0.072l0.03,0.073l0,0l0.028,0.074l0,0c0.019,0.05,0.035,0.1,0.051,0.151l0,0l0.022,0.077
		c0.022,0.077,0.042,0.155,0.058,0.234l0,0l0.016,0.08l0,0c0.009,0.053,0.018,0.107,0.025,0.161l0,0l0.009,0.081l0,0
		c0.005,0.055,0.01,0.109,0.013,0.165l0,0l0.003,0.083l0,0l0.001,0.083l0,0v6.976l-0.001,0.083l-0.003,0.083l-0.005,0.083
		l-0.007,0.082l-0.009,0.082l-0.011,0.081l-0.014,0.081l-0.016,0.08l-0.017,0.079l0,0l-0.019,0.078l-0.021,0.078l-0.022,0.076l0,0
		l-0.025,0.076l-0.026,0.075l0,0l-0.029,0.074l-0.03,0.073l0,0l-0.032,0.072l-0.034,0.071l0,0l-0.036,0.07l0,0l-0.037,0.07
		l-0.039,0.068l0,0l-0.04,0.068l0,0l-0.042,0.066l0,0l-0.043,0.065l0,0l-0.045,0.064l-0.046,0.063l0,0l-0.048,0.062l-0.049,0.061
		l0,0l-0.05,0.06l0,0l-0.051,0.059l0,0l-0.054,0.057l-0.054,0.056l-0.057,0.055l0,0l-0.057,0.053l0,0l-0.058,0.052l0,0l-0.06,0.05
		l-0.061,0.049l-0.062,0.048l0,0l-0.063,0.046l-0.064,0.045l0,0l-0.065,0.043l0,0l-0.066,0.042l-0.067,0.04l0,0l-0.069,0.039
		l-0.07,0.037l-0.071,0.036l-0.071,0.033l-0.073,0.032l-0.073,0.03l-0.075,0.029l-0.075,0.026l-0.076,0.025l-0.076,0.022l0,0
		l-0.077,0.021l-0.079,0.019l-0.079,0.018l0,0l-0.079,0.015l0,0l-0.081,0.014l-0.081,0.011l0,0l-0.081,0.01l0,0l-0.082,0.007l0,0
		l-0.083,0.005l0,0l-0.083,0.003l0,0h-0.083l0,0h-6.975l0,0h-0.084l0,0l-0.083-0.003l0,0l-0.083-0.005l0,0l-0.082-0.007l0,0
		l-0.082-0.01l0,0l-0.081-0.011l0,0l-0.081-0.013l0,0l-0.08-0.015l-0.079-0.018l0,0l-0.079-0.019l0,0l-0.077-0.021l-0.077-0.022l0,0
		l-0.076-0.025l0,0l-0.075-0.026l0,0l-0.074-0.028l0,0l-0.073-0.03l-0.072-0.032l0,0l-0.072-0.033l0,0l-0.071-0.035l-0.069-0.037
		l-0.069-0.039l0,0l-0.068-0.04l-0.066-0.042l-0.065-0.043l-0.064-0.045l0,0l-0.063-0.046l-0.062-0.048l0,0l-0.061-0.049l0,0
		l-0.06-0.05l0,0l-0.059-0.052l0,0l-0.057-0.053l-0.056-0.055l0,0l-0.054-0.056l0,0l-0.053-0.057l0,0l-0.051-0.059l0,0l-0.05-0.06
		l0,0l-0.049-0.061l0,0l-0.048-0.062l0,0l-0.046-0.063l0,0l-0.044-0.064l0,0l-0.043-0.065l0,0l-0.042-0.066l0,0l-0.04-0.067l0,0
		l-0.039-0.068l0,0l-0.037-0.07l0,0l-0.035-0.07l0,0l-0.033-0.071l0,0l-0.031-0.072l0,0l-0.03-0.073l0,0l-0.028-0.074l0,0
		l-0.026-0.075l0,0c-0.017-0.05-0.033-0.101-0.047-0.152l0,0c-0.022-0.077-0.041-0.155-0.057-0.235l0,0l-0.015-0.079l0,0
		c-0.01-0.053-0.018-0.107-0.024-0.161l0,0c-0.018-0.136-0.026-0.273-0.026-0.413V133.3H65.61v2.395l0,0v0.083l0,0l-0.003,0.083l0,0
		l-0.005,0.083l0,0l-0.007,0.082l0,0l-0.009,0.082l0,0l-0.011,0.081l0,0l-0.013,0.08l-0.016,0.08l-0.017,0.079l0,0l-0.019,0.078l0,0
		l-0.021,0.078l-0.023,0.076l0,0l-0.024,0.076l0,0l-0.026,0.075l0,0l-0.028,0.074l-0.03,0.073l0,0l-0.032,0.072l-0.033,0.071l0,0
		l-0.035,0.07l0,0l-0.037,0.07l-0.039,0.068l0,0l-0.04,0.067l0,0l-0.042,0.066l0,0l-0.043,0.065l0,0l-0.045,0.064l0,0l-0.046,0.063
		l0,0l-0.048,0.062l0,0c-0.033,0.041-0.065,0.081-0.1,0.12l0,0l-0.052,0.059l0,0l-0.053,0.057l0,0l-0.055,0.056
		c-0.037,0.037-0.074,0.073-0.113,0.108l0,0c-0.038,0.035-0.078,0.069-0.118,0.104l0,0l-0.061,0.049l0,0l-0.062,0.048l0,0
		l-0.063,0.046l0,0c-0.063,0.046-0.129,0.089-0.196,0.13l0,0l-0.067,0.04l0,0l-0.068,0.039l0,0l-0.069,0.037l0,0l-0.07,0.036l0,0
		l-0.071,0.033l0,0l-0.072,0.032l0,0l-0.073,0.03l0,0l-0.074,0.029l0,0l-0.075,0.026l0,0l-0.076,0.025l0,0l-0.076,0.022l0,0
		l-0.077,0.021l0,0l-0.078,0.019l0,0l-0.079,0.018l0,0l-0.079,0.015l0,0l-0.08,0.014H62.86l-0.081,0.011l0,0l-0.081,0.01l0,0
		l-0.082,0.007l0,0l-0.083,0.005l0,0l-0.083,0.003l0,0h-0.083l0,0h-6.976h-0.083l-0.083-0.003l-0.083-0.005l-0.082-0.007l0,0
		l-0.082-0.01l-0.081-0.011l-0.08-0.014l0,0l-0.079-0.015l0,0l-0.079-0.018l-0.078-0.019l0,0l-0.077-0.021l-0.077-0.022
		l-0.076-0.025l0,0l-0.075-0.026l-0.074-0.029l-0.074-0.03l0,0l-0.072-0.032l-0.072-0.033l-0.071-0.036l-0.07-0.037l-0.068-0.039
		l0,0l-0.067-0.04l0,0l-0.066-0.042l0,0l-0.065-0.043l0,0l-0.064-0.044l0,0l-0.063-0.046l0,0l-0.062-0.048l0,0l-0.061-0.049l0,0
		l-0.06-0.05l0,0l-0.059-0.052l0,0l-0.057-0.053l0,0l-0.056-0.055l0,0l-0.054-0.056l0,0l-0.053-0.057l0,0l-0.052-0.059l0,0
		l-0.051-0.06l0,0l-0.049-0.061l0,0l-0.047-0.062l0,0l-0.046-0.063l0,0l-0.044-0.064l0,0l-0.043-0.065l0,0l-0.042-0.066l0,0
		l-0.04-0.067l0,0l-0.039-0.068l-0.037-0.07l0,0l-0.035-0.07l0,0l-0.033-0.071l0,0l-0.032-0.072l0,0l-0.03-0.073l-0.028-0.074l0,0
		l-0.026-0.075l0,0l-0.025-0.076l0,0l-0.023-0.076l-0.021-0.078l0,0l-0.019-0.078l0,0l-0.017-0.079l-0.015-0.08l-0.014-0.08l0,0
		l-0.011-0.081l-0.009-0.082l-0.008-0.082l-0.005-0.083l-0.003-0.083l-0.001-0.083v-6.976l0,0l0.001-0.083l0,0l0.003-0.083l0,0
		l0.005-0.083l0,0l0.008-0.082l0,0l0.009-0.081l0,0l0.011-0.081l0,0l0.014-0.08l0,0l0.015-0.08l0,0l0.017-0.079l0,0l0.02-0.078l0,0
		l0.021-0.077l0.023-0.077l0,0l0.025-0.076l0,0l0.026-0.075l0,0l0.028-0.074l0.03-0.073l0,0l0.032-0.072l0.033-0.072l0,0l0.035-0.07
		l0,0l0.037-0.07l0.039-0.068l0,0l0.04-0.067l0,0l0.042-0.066l0,0l0.043-0.065l0,0l0.044-0.064l0,0l0.046-0.063l0,0l0.047-0.062l0,0
		l0.049-0.061l0,0l0.051-0.06l0.052-0.059l0,0l0.053-0.057l0.055-0.056l0,0l0.056-0.054l0,0l0.057-0.053l0,0l0.058-0.052l0,0
		l0.06-0.051l0.061-0.049l0.062-0.047l0,0l0.063-0.046l0,0l0.064-0.045l0.065-0.043l0,0l0.066-0.042l0,0l0.067-0.04l0,0l0.069-0.038
		l0,0l0.07-0.037l0,0l0.07-0.035l0,0l0.071-0.034l0,0l0.072-0.032l0,0l0.073-0.03l0,0l0.074-0.028l0,0l0.075-0.026l0,0l0.076-0.025
		l0,0l0.076-0.023l0,0l0.077-0.021l0,0l0.079-0.019l0,0l0.079-0.017l0.08-0.016l0.08-0.013l0,0l0.081-0.011l0.082-0.009l0,0
		l0.082-0.007l0,0l0.083-0.005l0,0l0.083-0.003l0,0h0.083l0,0h0.195V125.467z"/>
</g>
<g>
	<path fill="#F39220" d="M196.518,180.585h11.158l0,0h37.771h0.001h9.955l0,0h1.543l0.138-0.002l0.137-0.005l0.136-0.009
		l0.136-0.012l0.134-0.016l0.133-0.019l0.132-0.022l0.131-0.025l0.13-0.028l0.129-0.032l0.128-0.035l0.126-0.038l0,0l0.125-0.041
		l0.124-0.044l0.123-0.047l0.121-0.05l0.12-0.053l0.118-0.055l0.116-0.058l0,0l0.115-0.061l0.113-0.063h0.001l0.11-0.065l0,0
		l0.11-0.069l0.108-0.071l0,0l0.106-0.074l0.104-0.077l0,0l0.102-0.078l0,0l0.1-0.081l0,0l0.098-0.083l0,0l0.096-0.086l0,0
		l0.094-0.087l0,0l0.092-0.09l0,0l0.089-0.092l0,0l0.087-0.094l0,0l0.085-0.097l0,0l0.083-0.098h0.001l0.08-0.101l0,0l0.078-0.103
		l0,0l0.076-0.104l0,0l0.074-0.106l0,0l0.071-0.108l0,0l0.068-0.11l0,0l0.065-0.112h0.001l0.063-0.113l0,0l0.061-0.115l0,0
		l0.058-0.116l0,0l0.055-0.118l0,0l0.052-0.12l0,0l0.049-0.121h0.001l0.046-0.122l0,0l0.044-0.124l0,0l0.04-0.125l0,0l0.038-0.126
		l0,0l0.034-0.127l0,0l0.031-0.129l0,0l0.028-0.13l0,0l0.025-0.131l0,0l0.022-0.132l0,0l0.018-0.134l0,0l0.015-0.134l0,0
		l0.012-0.136l0,0l0.008-0.136l0,0l0.004-0.137l0,0l0.001-0.138l0,0v-11.5c0-0.553-0.085-1.088-0.243-1.591l0,0
		c-0.091-0.294-0.208-0.577-0.346-0.846l0,0c-0.06-0.116-0.123-0.229-0.19-0.34l0,0c-0.091-0.147-0.187-0.291-0.29-0.428l0,0
		l-0.078-0.103l0,0l-0.08-0.1h-0.001l-0.083-0.099l0,0c-0.057-0.065-0.114-0.129-0.173-0.191l0,0
		c-0.059-0.062-0.12-0.124-0.182-0.182l0,0l-0.094-0.088l0,0c-0.126-0.115-0.26-0.226-0.398-0.329l0,0l-0.104-0.076
		c-0.07-0.05-0.142-0.098-0.214-0.145l0,0c-0.109-0.07-0.22-0.136-0.334-0.198l0,0c-0.076-0.042-0.153-0.081-0.231-0.119l0,0
		l-0.118-0.055l-0.12-0.052l0,0l-0.121-0.049v-0.001l-0.123-0.046l0,0l-0.124-0.043l0,0c-0.083-0.028-0.167-0.054-0.251-0.078l0,0
		l-0.128-0.034l0,0l-0.129-0.031l0,0l-0.13-0.028l-0.131-0.025l0,0l-0.132-0.021l0,0l-0.133-0.019l0,0l-0.134-0.015l0,0
		l-0.136-0.011v-0.001l-0.136-0.008l0,0l-0.137-0.004l0,0l-0.138-0.001v-0.001h-11.5c-0.276,0-0.548,0.021-0.814,0.063l0,0
		c-0.088,0.013-0.177,0.029-0.263,0.047l0,0l-0.13,0.028l0,0c-0.13,0.03-0.258,0.065-0.383,0.104l0,0l-0.125,0.04l0,0l-0.124,0.043
		l0,0l-0.123,0.046v0.001l-0.121,0.049l0,0l-0.119,0.052l-0.118,0.055l0,0l-0.117,0.058l0,0l-0.115,0.061l0,0l-0.113,0.063l0,0
		l-0.112,0.065l0,0l-0.11,0.068l0,0l-0.107,0.071l0,0l-0.106,0.074l-0.104,0.076l-0.103,0.079l0,0l-0.101,0.081l0,0l-0.098,0.083
		l0,0l-0.096,0.085h-0.001l-0.094,0.088l-0.092,0.089l0,0l-0.09,0.092l-0.087,0.094l0,0l-0.086,0.096l0,0l-0.083,0.099l0,0
		l-0.08,0.1l0,0l-0.079,0.103l-0.076,0.104l0,0l-0.074,0.106l0,0c-0.048,0.071-0.095,0.144-0.14,0.217
		c-0.067,0.111-0.131,0.224-0.19,0.34l0,0c-0.04,0.077-0.077,0.155-0.113,0.234l0,0c-0.071,0.158-0.136,0.321-0.192,0.486l0,0
		l-0.041,0.125h-0.001c-0.052,0.168-0.096,0.339-0.132,0.513l0,0c-0.072,0.348-0.11,0.708-0.11,1.078v3.948h-27.039v-3.948
		c0-0.369-0.038-0.729-0.109-1.078l0,0c-0.037-0.174-0.081-0.345-0.133-0.513l0,0c-0.066-0.21-0.144-0.414-0.233-0.612l0,0
		c-0.036-0.079-0.074-0.157-0.113-0.234l0,0c-0.06-0.116-0.123-0.229-0.189-0.34l0,0c-0.067-0.11-0.139-0.219-0.214-0.324l0,0
		l-0.076-0.104l-0.078-0.103h-0.001l-0.081-0.1l0,0l-0.083-0.099l0,0l-0.085-0.096l0,0l-0.088-0.094
		c-0.06-0.063-0.12-0.123-0.182-0.182l-0.094-0.088l0,0l-0.096-0.085l0,0l-0.099-0.083l0,0l-0.101-0.081l0,0l-0.103-0.079
		l-0.104-0.076l0,0c-0.105-0.075-0.214-0.146-0.324-0.214l0,0c-0.111-0.067-0.224-0.13-0.34-0.19l0,0
		c-0.077-0.04-0.155-0.077-0.234-0.113h-0.001c-0.197-0.09-0.402-0.168-0.611-0.233l0,0c-0.168-0.052-0.339-0.097-0.513-0.133l0,0
		c-0.349-0.071-0.709-0.11-1.078-0.11h-11.5v0.001l-0.138,0.001l0,0l-0.137,0.004l0,0l-0.136,0.008v0.001l-0.135,0.011l0,0
		l-0.134,0.015l0,0l-0.134,0.019l0,0l-0.132,0.021l0,0l-0.131,0.025l-0.13,0.028l0,0l-0.129,0.031l0,0l-0.128,0.034l0,0
		l-0.126,0.038l0,0l-0.125,0.04l0,0l-0.124,0.043l0,0l-0.123,0.046v0.001l-0.121,0.049l0,0l-0.12,0.052l-0.118,0.055l0,0
		l-0.116,0.058l0,0l-0.115,0.061l0,0l-0.113,0.063l0,0l-0.111,0.065l0,0l-0.11,0.068l0,0l-0.107,0.071l0,0l-0.106,0.074
		l-0.104,0.076l-0.103,0.079l0,0l-0.1,0.081l0,0l-0.099,0.083l0,0l-0.097,0.085l-0.094,0.088l-0.093,0.089l0,0l-0.09,0.092
		l-0.087,0.094l0,0l-0.086,0.096l-0.083,0.099l-0.081,0.1l-0.079,0.103l-0.076,0.104l0,0l-0.074,0.106l0,0l-0.071,0.107l0,0
		l-0.069,0.11l-0.066,0.111l0,0l-0.063,0.113l0,0l-0.061,0.115l-0.058,0.116l0,0l-0.055,0.118l0,0l-0.053,0.119l0,0l-0.05,0.121l0,0
		l-0.046,0.123l0,0l-0.044,0.124l0,0l-0.041,0.125l-0.038,0.126l0,0l-0.035,0.127l0,0l-0.032,0.128l0,0l-0.028,0.13l0,0l-0.025,0.13
		v0.001l-0.022,0.131l0,0l-0.019,0.133l0,0l-0.016,0.134l0,0l-0.012,0.135l0,0l-0.009,0.136l0,0l-0.005,0.137l0,0l-0.002,0.138l0,0
		v11.499c0,2.952,2.415,5.366,5.366,5.366h0.349V180.585z"/>
	<circle fill="#F39220" stroke="#FBC000" stroke-width="0.5" stroke-miterlimit="2.6131" cx="227.631" cy="130.175" r="9.388"/>
	<path fill="#F39220" d="M226.485,141.325l0.95,0.183l13.344-2.562c0,0,5.857-0.915,5.491,6.039v9.148h-6.77v-8.6v20.127
		l-12.255,0.172v0.011l-0.388-0.005l-0.389,0.005v-0.011l-12.255-0.172v-20.127v8.6h-6.77v-9.148
		c-0.367-6.953,5.491-6.039,5.491-6.039L226.485,141.325z"/>
	
		<rect x="224.704" y="142.518" transform="matrix(0.6903 0.7235 -0.7235 0.6903 175.3129 -119.4868)" fill="#FFFFFF" width="5.063" height="5.063"/>
	<path fill="#ECECED" d="M227.945,141.325c0,0,2.931,1.694,2.017,4.622l11.344-6.862L227.945,141.325z"/>
	<path fill="#ECECED" d="M226.485,141.325c0,0-2.932,1.694-2.017,4.622l-11.344-6.862L226.485,141.325z"/>
	<polygon fill="#FFFFFF" points="224.468,145.255 227.299,163.787 230.098,145.361 	"/>
</g>
<g>
	<g>
		<rect x="373.457" y="166.05" fill="#F39220" width="38.499" height="8.446"/>
		<path fill="#F39220" d="M373.233,166.05h7.519c1.93,0,3.508,1.579,3.508,3.508v7.519c0,1.93-1.579,3.508-3.508,3.508h-7.519
			c-1.931,0-3.51-1.578-3.51-3.508v-7.519C369.725,167.629,371.303,166.05,373.233,166.05z"/>
		<path fill="#F39220" d="M405.447,166.05h7.519c1.931,0,3.508,1.579,3.508,3.508v7.519c0,1.93-1.579,3.508-3.508,3.508h-7.519
			c-1.931,0-3.508-1.578-3.508-3.508v-7.519C401.938,167.629,403.517,166.05,405.447,166.05z"/>
		<path fill="#F39220" d="M384.26,177.077v-2.581h-10.803v-8.446h-0.224c-1.931,0-3.51,1.579-3.51,3.508v7.519
			c0,1.93,1.579,3.508,3.51,3.508h7.518C382.682,180.585,384.26,179.007,384.26,177.077z"/>
		<path fill="#F39220" d="M373.457,174.497h10.803v-4.938c0-1.93-1.579-3.508-3.509-3.508h-7.294V174.497z"/>
		<path fill="#F39220" d="M401.938,174.497v2.581c0,1.93,1.579,3.508,3.509,3.508h7.518c1.93,0,3.509-1.579,3.509-3.508v-7.519
			c0-1.93-1.579-3.508-3.509-3.508h-1.009v8.446H401.938z"/>
		<path fill="#F39220" d="M401.938,174.497h10.019v-8.446h-6.509c-1.931,0-3.508,1.579-3.508,3.508v4.938H401.938z"/>
		<path fill="#F39220" d="M401.938,174.497v-4.938c0-1.93,1.579-3.508,3.509-3.508h-24.695c1.93,0,3.509,1.579,3.509,3.508v4.938
			H401.938z"/>
	</g>
	<g>
		<path fill="#F39220" d="M392.639,129.458c-13.023,0-23.582,10.343-23.582,23.101c0,1.65,0.178,3.26,0.514,4.813h46.137
			c0.336-1.552,0.513-3.162,0.513-4.813C416.22,139.8,405.662,129.458,392.639,129.458z"/>
		<ellipse fill="#F39220" cx="392.639" cy="127.833" rx="6.002" ry="5.775"/>
	</g>
	<rect x="369.973" y="160.221" fill="#F39220" width="45.75" height="3.75"/>
</g>
<g>
	<g>
		<rect x="538.109" y="163.461" fill="#F39220" width="45.357" height="9.951"/>
		<path fill="#F39220" d="M537.847,163.461h8.857c2.271,0,4.133,1.86,4.133,4.133v8.858c0,2.273-1.859,4.133-4.133,4.133h-8.857
			c-2.273,0-4.135-1.86-4.135-4.133v-8.858C533.712,165.321,535.574,163.461,537.847,163.461z"/>
		<path fill="#F39220" d="M575.798,163.461h8.857c2.273,0,4.135,1.86,4.135,4.133v8.858c0,2.273-1.861,4.133-4.135,4.133h-8.857
			c-2.273,0-4.133-1.86-4.133-4.133v-8.858C571.666,165.321,573.525,163.461,575.798,163.461z"/>
		<path fill="#F39220" d="M550.837,176.452v-3.041h-12.729v-9.951h-0.264c-2.271,0-4.133,1.86-4.133,4.133v8.858
			c0,2.273,1.859,4.133,4.133,4.133h8.857C548.978,180.585,550.837,178.726,550.837,176.452z"/>
		<path fill="#F39220" d="M538.109,173.412h12.729v-5.817c0-2.273-1.859-4.133-4.133-4.133h-8.596V173.412L538.109,173.412z"/>
		<path fill="#F39220" d="M571.666,173.412v3.041c0,2.273,1.859,4.133,4.133,4.133h8.857c2.273,0,4.135-1.86,4.135-4.133v-8.858
			c0-2.273-1.861-4.133-4.135-4.133h-1.189v9.951L571.666,173.412L571.666,173.412z"/>
		<path fill="#F39220" d="M571.666,173.412h11.801v-9.951h-7.668c-2.273,0-4.133,1.86-4.133,4.133V173.412z"/>
		<path fill="#F39220" d="M571.666,173.412v-5.817c0-2.273,1.859-4.133,4.133-4.133h-29.094c2.271,0,4.133,1.86,4.133,4.133v5.817
			H571.666z"/>
	</g>
	<path fill="#F39220" d="M536.212,156.297l32.982-24.869c0.545-0.411,1.326-0.301,1.736,0.244l0.871,1.155
		c0.41,0.545,0.301,1.327-0.244,1.737l-32.982,24.869c-0.545,0.411-1.326,0.301-1.736-0.244l-0.871-1.155
		C535.558,157.489,535.667,156.708,536.212,156.297z"/>
	
		<ellipse transform="matrix(-0.5658 -0.8245 0.8245 -0.5658 792.2954 676.6909)" fill="#F39220" cx="574.316" cy="129.739" rx="5.109" ry="7.351"/>
	
		<ellipse transform="matrix(-0.5661 -0.8244 0.8244 -0.5661 793.3814 676.3848)" fill="#E1800F" cx="574.709" cy="129.381" rx="4.349" ry="6.256"/>
	<path fill="#F39220" d="M585.277,156.685l-32.984-24.869c-0.545-0.411-1.326-0.301-1.736,0.244l-0.871,1.155
		c-0.41,0.545-0.301,1.326,0.244,1.737l32.982,24.869c0.545,0.411,1.326,0.301,1.738-0.244l0.869-1.155
		C585.931,157.876,585.822,157.095,585.277,156.685z"/>
	<path fill="#F39220" d="M537.931,128.785l0.668-0.817l5.121,3.664l-4.605-4.296l0.668-0.818l5.121,3.664l-4.605-4.295l0.637-0.782
		l5.121,3.664l-4.604-4.296l0.563-0.689l5.121,3.664l-4.605-4.296l0.438-0.536l5.121,3.664l-4.605-4.296l0.469-0.573l8.234,6.719
		c0.814,0.662,0.936,1.867,0.273,2.679l-3.609,4.425c-0.664,0.812-1.867,0.935-2.68,0.272L537.931,128.785z"/>
</g>
<g>
	<path fill="#F39220" d="M711.388,158.209v-19.528c-7.381,0.029-13.352,4.39-13.352,9.764S704.007,158.18,711.388,158.209z"/>
	<path fill="#F39220" d="M741.755,137.521v19.528c0.025,0,0.049,0,0.074,0c7.414,0,13.426-4.372,13.426-9.764
		c0-5.392-6.012-9.764-13.426-9.764C741.804,137.521,741.781,137.521,741.755,137.521z"/>
	<path fill="none" stroke="#F39220" stroke-width="2.0001" stroke-miterlimit="2.6131" d="M704.251,140.745
		c0-11.92,10.027-21.583,22.398-21.583c12.369,0,22.396,9.663,22.396,21.583"/>
	<rect x="712.349" y="138.681" fill="#F39220" width="2.094" height="19.486"/>
	<rect x="739.15" y="137.718" fill="#F39220" width="2.09" height="19.486"/>
	<ellipse fill="#F39220" cx="756.08" cy="146.867" rx="2.229" ry="2.547"/>
	<path fill="none" stroke="#F39220" stroke-width="1.0001" stroke-miterlimit="2.6131" d="M756.08,146.867
		c0,0,10.672,17.519-6.729,18.418c-17.4,0.899-24.6-4.5-24.6,3.9s0,8.4,0,8.4"/>
	<circle fill="#F39220" stroke="#FBC000" stroke-width="0.5" stroke-miterlimit="2.6131" cx="725.427" cy="173.385" r="7.2"/>
	<polygon fill="#FFFFFF" points="724.027,179.301 724.027,174.597 719.347,174.597 719.347,172.629 724.027,172.629 
		724.027,167.949 726.019,167.949 726.019,172.629 730.699,172.629 730.699,174.597 726.019,174.597 726.019,179.301 	"/>
</g>
<g>
	<g>
		<rect x="55.048" y="254.182" fill="#F39220" width="37.95" height="8.325"/>
		<path fill="#F39220" d="M54.828,254.182h7.411c1.902,0,3.458,1.556,3.458,3.458v7.411c0,1.902-1.556,3.459-3.458,3.459h-7.411
			c-1.902,0-3.458-1.557-3.458-3.459v-7.411C51.369,255.737,52.925,254.182,54.828,254.182z"/>
		<path fill="#F39220" d="M86.582,254.182h7.411c1.902,0,3.458,1.556,3.458,3.458v7.411c0,1.902-1.556,3.459-3.458,3.459h-7.411
			c-1.902,0-3.458-1.557-3.458-3.459v-7.411C83.124,255.737,84.68,254.182,86.582,254.182z"/>
		<path fill="#F39220" d="M65.697,265.051v-2.544H55.048v-8.325h-0.22c-1.902,0-3.458,1.556-3.458,3.458v7.411
			c0,1.902,1.556,3.459,3.458,3.459h7.411C64.141,268.51,65.697,266.953,65.697,265.051z"/>
		<path fill="#F39220" d="M55.048,262.507h10.649v-4.867c0-1.902-1.556-3.458-3.458-3.458h-7.191V262.507z"/>
		<path fill="#F39220" d="M83.124,262.507v2.544c0,1.902,1.556,3.459,3.458,3.459h7.411c1.902,0,3.458-1.557,3.458-3.459v-7.411
			c0-1.902-1.556-3.458-3.458-3.458h-0.995v8.325H83.124z"/>
		<path fill="#F39220" d="M83.124,262.507h9.875v-8.325h-6.416c-1.902,0-3.458,1.556-3.458,3.458L83.124,262.507L83.124,262.507z"/>
		<path fill="#F39220" d="M83.124,262.507v-4.867c0-1.902,1.556-3.458,3.458-3.458H62.239c1.902,0,3.458,1.556,3.458,3.458v4.867
			H83.124z"/>
	</g>
	<polygon fill="#F39220" points="50.168,235.406 95.469,222.206 95.469,252.506 50.168,252.506 	"/>
	<path fill="#F39220" d="M86.769,208.706h0.3c1.32,0,2.4,1.08,2.4,2.4v19.2c0,1.319-1.08,2.399-2.4,2.399h-0.3
		c-1.32,0-2.4-1.08-2.4-2.399v-19.2C84.369,209.786,85.449,208.706,86.769,208.706z"/>
	<path fill="#F39220" d="M76.569,215.307h0.3c1.32,0,2.4,1.08,2.4,2.399v19.2c0,1.32-1.08,2.4-2.4,2.4h-0.3
		c-1.32,0-2.4-1.08-2.4-2.4v-19.2C74.169,216.387,75.249,215.307,76.569,215.307z"/>
	<circle fill="#FFFFFF" cx="85.861" cy="233.164" r="4.507"/>
	<path fill="#F39220" d="M85.458,232.993l-0.913-1.511c0,0-0.662-0.826,0.337-1.346c0.999-0.519,1.447-0.638,1.33,0.18
		c-0.114,0.795-1.23,0.943-0.367,2.387l1.014-1.396c0,0,0.504-0.93,1.371-0.212c0.867,0.719,1.15,1.085,0.352,1.295
		c-0.782,0.206-1.355-0.781-2.364,0.621l1.667,0.581c0,0,1.036,0.214,0.599,1.251c-0.437,1.037-0.706,1.414-1.138,0.71
		c-0.423-0.689,0.357-1.523-1.277-2.083l-0.075,1.764c0,0,0.094,1.054-1.025,0.934c-1.12-0.119-1.558-0.268-1.009-0.885
		c0.538-0.604,1.562-0.099,1.627-1.824l-1.71,0.438c0,0-0.982,0.395-1.19-0.712c-0.209-1.106-0.194-1.568,0.555-1.221
		C83.975,232.304,83.787,233.43,85.458,232.993z"/>
</g>
<g>
	<g>
		
			<rect x="185.334" y="239.555" transform="matrix(-0.3658 -0.9307 0.9307 -0.3658 54.9684 525.9307)" fill="#F39220" width="42.685" height="9.364"/>
		<path fill="#F39220" d="M210.222,266.044l-3.049-7.758c-0.783-1.991,0.206-4.261,2.197-5.044l7.758-3.049
			c1.992-0.783,4.261,0.206,5.044,2.197l3.049,7.758c0.783,1.991-0.206,4.261-2.198,5.043l-7.758,3.05
			C213.274,269.023,211.004,268.035,210.222,266.044z"/>
		<path fill="#F39220" d="M197.156,232.803l-3.05-7.758c-0.782-1.991,0.206-4.261,2.198-5.043l7.758-3.05
			c1.992-0.782,4.261,0.206,5.043,2.197l3.049,7.758c0.783,1.992-0.206,4.262-2.197,5.044l-7.758,3.05
			C200.208,235.783,197.939,234.795,197.156,232.803z"/>
		<path fill="#F39220" d="M217.127,250.193l-2.663,1.046l4.382,11.148l-8.716,3.426l0.091,0.23c0.783,1.991,3.052,2.979,5.043,2.197
			l7.758-3.05c1.992-0.782,2.98-3.052,2.198-5.043l-3.049-7.758C221.388,250.399,219.119,249.41,217.127,250.193z"/>
		<path fill="#F39220" d="M218.847,262.388l-4.382-11.148l-5.095,2.003c-1.991,0.783-2.98,3.053-2.197,5.044l2.958,7.527
			L218.847,262.388z"/>
		<path fill="#F39220" d="M207.294,232.998l2.663-1.047c1.992-0.782,2.98-3.052,2.197-5.044l-3.049-7.758
			c-0.783-1.991-3.052-2.979-5.043-2.197l-7.758,3.05c-1.992,0.782-2.98,3.052-2.198,5.043l0.41,1.042l8.715-3.426L207.294,232.998z
			"/>
		<path fill="#F39220" d="M207.294,232.998l-4.063-10.337l-8.715,3.426l2.64,6.716c0.783,1.992,3.052,2.98,5.043,2.198
			L207.294,232.998z"/>
		<path fill="#F39220" d="M207.294,232.998l-5.095,2.003c-1.992,0.782-4.261-0.206-5.043-2.198l10.016,25.483
			c-0.783-1.991,0.206-4.261,2.197-5.044l5.095-2.003L207.294,232.998z"/>
	</g>
	<polygon fill="#F39220" points="214.649,241.466 236.16,217.386 249.395,241.499 218.989,247.391 	"/>
	<polyline fill="none" stroke="#F39220" stroke-width="1.0001" stroke-miterlimit="2.6131" points="219.055,236.685 
		215.878,233.659 227.861,221.074 230.671,223.75 	"/>
	<g>
		<path fill="none" stroke="#F39220" stroke-width="1.0001" stroke-miterlimit="2.6131" d="M243.438,212.147
			c0,0,16.218-1.132,15.841,20.367"/>
		<path fill="none" stroke="#F39220" stroke-width="1.0001" stroke-miterlimit="2.6131" d="M241.876,216.873
			c0,0,12.281-0.857,11.996,15.422"/>
		<path fill="none" stroke="#F39220" stroke-width="1.0001" stroke-miterlimit="2.6131" d="M240.539,221.837
			c0,0,8.287-0.579,8.095,10.407"/>
	</g>
</g>
<g>
	<g>
		<rect x="373.403" y="260.184" fill="#F39220" width="37.95" height="8.326"/>
		<path fill="#F39220" d="M373.183,268.51h7.411c1.902,0,3.459-1.557,3.459-3.459v-7.411c0-1.902-1.557-3.458-3.459-3.458h-7.411
			c-1.901,0-3.458,1.556-3.458,3.458v7.411C369.724,266.953,371.28,268.51,373.183,268.51z"/>
		<path fill="#F39220" d="M404.938,268.51h7.41c1.902,0,3.458-1.557,3.458-3.459v-7.411c0-1.902-1.556-3.458-3.458-3.458h-7.41
			c-1.902,0-3.459,1.556-3.459,3.458v7.411C401.479,266.953,403.035,268.51,404.938,268.51z"/>
		<path fill="#F39220" d="M384.053,257.64v2.544h-10.648v8.326h-0.222c-1.901,0-3.458-1.557-3.458-3.459v-7.411
			c0-1.902,1.557-3.458,3.458-3.458h7.411C382.496,254.182,384.053,255.737,384.053,257.64z"/>
		<path fill="#F39220" d="M373.403,260.184h10.648v4.867c0,1.902-1.557,3.459-3.459,3.459h-7.189V260.184L373.403,260.184z"/>
		<path fill="#F39220" d="M401.479,260.184v-2.544c0-1.902,1.557-3.458,3.459-3.458h7.41c1.902,0,3.458,1.556,3.458,3.458v7.411
			c0,1.902-1.556,3.459-3.458,3.459h-0.994v-8.326H401.479L401.479,260.184z"/>
		<path fill="#F39220" d="M401.479,260.184h9.875v8.326h-6.416c-1.902,0-3.459-1.557-3.459-3.459V260.184z"/>
		<path fill="#F39220" d="M401.479,260.184v4.867c0,1.902,1.557,3.459,3.459,3.459h-24.344c1.902,0,3.459-1.557,3.459-3.459v-4.867
			H401.479z"/>
	</g>
	
		<line fill="none" stroke="#F39220" stroke-width="2.0001" stroke-miterlimit="2.6131" x1="376.886" y1="223.651" x2="376.886" y2="253.179"/>
	
		<line fill="none" stroke="#F39220" stroke-width="2.0001" stroke-miterlimit="2.6131" x1="406.413" y1="223.651" x2="406.413" y2="253.179"/>
	<polygon fill="#F39220" points="366.188,206.962 419.25,206.962 427.337,230.498 358.102,230.498 	"/>
	<path fill="#F39220" d="M422.603,228.786h4.146l0.588,1.712l0.189,1.926c0.129,1.347-1.109,2.461-2.461,2.461l0,0
		c-1.355,0-2.461-1.107-2.461-2.461v-3.638H422.603z"/>
	<path fill="#F39220" d="M416.054,228.786h4.921v3.638c0,1.354-1.106,2.461-2.46,2.461h-0.001c-1.353,0-2.46-1.107-2.46-2.461
		V228.786z"/>
	<path fill="#F39220" d="M392.766,228.786h4.921v3.638c0,1.354-1.106,2.461-2.46,2.461l0,0c-1.354,0-2.46-1.107-2.46-2.461
		L392.766,228.786L392.766,228.786z"/>
	<path fill="#F39220" d="M385.813,228.786h4.922v3.638c0,1.354-1.107,2.461-2.46,2.461l0,0c-1.354,0-2.46-1.107-2.46-2.461v-3.638
		H385.813z"/>
	<path fill="#F39220" d="M379.667,228.786h4.921v3.638c0,1.354-1.106,2.461-2.46,2.461l0,0c-1.354,0-2.46-1.107-2.46-2.461
		L379.667,228.786L379.667,228.786z"/>
	<path fill="#F39220" d="M364.143,228.786h4.922v3.638c0,1.354-1.107,2.461-2.461,2.461h-0.001c-1.353,0-2.46-1.107-2.46-2.461
		V228.786z"/>
	<path fill="#F39220" d="M358.662,228.865l4.256-0.079v3.638c0,1.354-1.107,2.461-2.46,2.461l0,0c-1.354,0-2.461-1.107-2.461-2.461
		v-1.809L358.662,228.865z"/>
	<path fill="#F39220" d="M398.948,228.786h4.921v3.638c0,1.354-1.107,2.461-2.46,2.461l0,0c-1.354,0-2.46-1.107-2.46-2.461
		L398.948,228.786L398.948,228.786z"/>
	<path fill="#F39220" d="M408.957,228.786h4.921v3.638c0,1.354-1.106,2.461-2.46,2.461l0,0c-1.353,0-2.46-1.107-2.46-2.461
		L408.957,228.786L408.957,228.786z"/>
	<path fill="#F39220" d="M370.253,228.786h4.921v3.638c0,1.354-1.106,2.461-2.46,2.461l0,0c-1.354,0-2.46-1.107-2.46-2.461
		L370.253,228.786L370.253,228.786z"/>
</g>
<g>
	<path fill="none" stroke="#F39220" stroke-width="1.5001" stroke-miterlimit="2.6131" d="M572.533,221.882
		c9.094-14.348,29.475-10.1,31.912,4.091c1.338,7.786-0.629,23.59-28.563,42.537c0,0-23.553-11.025-30.07-35.209
		c-3.357-12.463,10.336-24.439,24.207-19.237"/>
	<path fill="none" stroke="#F39220" stroke-width="2.0001" stroke-miterlimit="2.6131" d="M591.658,219.09
		c0,0,5.166,1.536,6.701,7.259"/>
	<g>
		<rect x="523.337" y="246.531" fill="#F39220" width="57.625" height="12.643"/>
		<path fill="#F39220" d="M523.003,259.174h11.252c2.889,0,5.252-2.363,5.252-5.252v-11.253c0-2.889-2.363-5.252-5.252-5.252
			h-11.252c-2.889,0-5.252,2.363-5.252,5.252v11.253C517.751,256.811,520.115,259.174,523.003,259.174z"/>
		<path fill="#F39220" d="M571.22,259.174h11.252c2.891,0,5.252-2.363,5.252-5.252v-11.253c0-2.889-2.361-5.252-5.252-5.252H571.22
			c-2.889,0-5.252,2.363-5.252,5.252v11.253C565.968,256.811,568.332,259.174,571.22,259.174z"/>
		<path fill="#F39220" d="M539.507,242.669v3.862h-16.17v12.643h-0.334c-2.889,0-5.252-2.363-5.252-5.252v-11.253
			c0-2.889,2.363-5.252,5.252-5.252h11.252C537.144,237.417,539.507,239.78,539.507,242.669z"/>
		<path fill="#F39220" d="M523.337,246.531h16.17v7.391c0,2.889-2.363,5.252-5.252,5.252h-10.918V246.531L523.337,246.531z"/>
		<path fill="#F39220" d="M565.968,246.531v-3.862c0-2.889,2.363-5.252,5.252-5.252h11.252c2.891,0,5.252,2.363,5.252,5.252v11.253
			c0,2.889-2.361,5.252-5.252,5.252h-1.51v-12.643H565.968z"/>
		<path fill="#F39220" d="M565.968,246.531h14.994v12.643h-9.742c-2.889,0-5.252-2.363-5.252-5.252V246.531z"/>
		<path fill="#F39220" d="M565.968,246.531v7.391c0,2.889,2.363,5.252,5.252,5.252h-36.965c2.889,0,5.252-2.363,5.252-5.252v-7.391
			H565.968z"/>
	</g>
</g>
<g>
	<g>
		<rect x="702.384" y="257.993" fill="#F39220" width="47.936" height="10.517"/>
		<path fill="#F39220" d="M702.107,268.51h9.359c2.402,0,4.369-1.966,4.369-4.368v-9.36c0-2.403-1.967-4.369-4.369-4.369h-9.359
			c-2.402,0-4.369,1.966-4.369,4.369v9.36C697.738,266.544,699.705,268.51,702.107,268.51z"/>
		<path fill="#F39220" d="M742.214,268.51h9.361c2.4,0,4.367-1.966,4.367-4.368v-9.36c0-2.403-1.967-4.369-4.367-4.369h-9.361
			c-2.402,0-4.369,1.966-4.369,4.369v9.36C737.845,266.544,739.812,268.51,742.214,268.51z"/>
		<path fill="#F39220" d="M715.835,254.78v3.213h-13.451v10.517h-0.277c-2.402,0-4.367-1.966-4.367-4.368v-9.361
			c0-2.402,1.965-4.368,4.367-4.368h9.361C713.871,250.412,715.835,252.378,715.835,254.78z"/>
		<path fill="#F39220" d="M702.384,257.993h13.451v6.148c0,2.402-1.965,4.368-4.367,4.368h-9.084V257.993z"/>
		<path fill="#F39220" d="M737.845,257.993v-3.213c0-2.402,1.967-4.368,4.369-4.368h9.361c2.4,0,4.367,1.966,4.367,4.368v9.361
			c0,2.402-1.967,4.368-4.367,4.368h-1.258v-10.517L737.845,257.993L737.845,257.993z"/>
		<path fill="#F39220" d="M737.845,257.993h12.475v10.517h-8.105c-2.4,0-4.367-1.966-4.367-4.368v-6.149H737.845z"/>
		<path fill="#F39220" d="M737.845,257.993v6.148c0,2.402,1.967,4.368,4.369,4.368h-30.746c2.402,0,4.367-1.966,4.367-4.368v-6.148
			H737.845z"/>
	</g>
	<path fill="none" stroke="#F39220" stroke-width="1.0001" stroke-miterlimit="2.6131" d="M728.011,238.44v-14.231
		c0-8.425-6.895-15.317-15.316-15.317h-0.002c-8.426,0-15.316,6.893-15.316,15.317v21.071"/>
	<path fill="none" stroke="#F39220" stroke-width="1.0001" stroke-miterlimit="2.6131" d="M742.074,238.495L742.074,238.495
		c6.232,0,11.334-5.1,11.334-11.333v-4.257c0-6.234-5.102-11.334-11.334-11.334l0,0c-6.234,0-11.334,5.1-11.334,11.334v4.257
		C730.74,233.396,735.839,238.495,742.074,238.495z"/>
	<path fill="none" stroke="#F39220" stroke-width="1.0001" stroke-miterlimit="2.6131" d="M696.177,256.367v-7.571
		c0,0,0.428-6.5,10-10h51.287c4.9,0,5.133,7.324-0.398,6.988"/>
	<path fill="none" stroke="#F39220" stroke-width="0.5" stroke-miterlimit="2.6131" d="M725.82,256.225l-0.143-7.857
		c0,0,1.285-5,4.715-6.857c3.428-1.856,14-4.714,20.998-1c0,0,6.717,3.429,6.857,9.286l-0.143,6.571"/>
	<path fill="none" stroke="#F39220" stroke-width="0.5" stroke-miterlimit="2.6131" d="M706.693,238.993h10.715v4.811
		c0,2.646-2.164,4.81-4.811,4.81h-1.096c-2.646,0-4.809-2.164-4.809-4.81V238.993L706.693,238.993z"/>
	<path fill="none" stroke="#F39220" stroke-width="0.5" stroke-miterlimit="2.6131" d="M736.978,238.993h10.715v4.811
		c0,2.646-2.164,4.81-4.811,4.81h-1.096c-2.645,0-4.809-2.164-4.809-4.81V238.993L736.978,238.993z"/>
	<path fill="none" stroke="#F39220" stroke-width="0.5" stroke-miterlimit="2.6131" d="M717.392,213.439
		c0,0,1.715,11.714-15.715,11.714v7c0,0,9.191,15.704,20.145,0C721.82,232.153,726.734,217.027,717.392,213.439z"/>
	<path fill="none" stroke="#F39220" stroke-width="0.5" stroke-miterlimit="2.6131" d="M730.74,224.082c0,0,11.15-0.965,14.58-5.643
		c0,0,3.531,6.975,8.088,6.594"/>
	<path fill="none" stroke="#F39220" stroke-width="0.5" stroke-miterlimit="2.6131" d="M746.896,212.654
		c1.365-9.103,15.031-1.57,5.188,4.95"/>
</g>
<g>
	<g>
		<path fill="#F39220" d="M93.748,34.921l7.104-1.903l1.151,1.443l-7.104,1.903L93.748,34.921L93.748,34.921L93.748,34.921z
			 M94.272,37.084l-1.795-0.781l0,0l0.011-0.063l0.014-0.062l0.015-0.06l0.018-0.062L92.553,36l0.021-0.057l0.023-0.057l0.025-0.056
			l0.027-0.053l0.028-0.053l0.03-0.051l0.032-0.05l0.034-0.049l0.035-0.047l0.038-0.047l0.039-0.045l0.04-0.043l0.043-0.042
			l0.044-0.04l0.046-0.04l0.049-0.039l0.048-0.036l0.052-0.035l0.053-0.033l0.054-0.032l0.057-0.03l0.057-0.028l0.059-0.027
			l0.063-0.025l0.063-0.023l0.064-0.021l0.068-0.02l1.152,1.443l-0.026,0.008l-0.028,0.009l-0.027,0.01l-0.025,0.01l-0.028,0.012
			l-0.028,0.014l-0.025,0.014l-0.027,0.016l-0.025,0.016l-0.025,0.018l-0.025,0.019l-0.023,0.019l-0.023,0.02l-0.023,0.021
			l-0.022,0.022l-0.022,0.024l-0.021,0.024l-0.02,0.024l-0.02,0.026l-0.018,0.026l-0.018,0.027l-0.017,0.028L94.366,36.8
			l-0.015,0.03l-0.013,0.029l-0.013,0.03l-0.011,0.032l-0.011,0.032l-0.009,0.031l-0.008,0.034l-0.007,0.033L94.272,37.084
			L94.272,37.084L94.272,37.084z M87.332,68.243l5.146-31.939l1.795,0.781l-5.146,31.939l0,0L87.332,68.243L87.332,68.243z
			 M87.326,70.475l-0.767-1.491l0,0h0.021l0.024-0.002l0.025-0.002l0.026-0.004l0.028-0.006l0.029-0.007l0.029-0.009l0.03-0.011
			l0.032-0.012l0.031-0.014l0.032-0.016l0.032-0.018l0.031-0.019l0.031-0.021l0.03-0.022l0.03-0.025l0.029-0.025l0.028-0.028
			l0.027-0.029l0.025-0.03l0.025-0.032l0.024-0.033l0.022-0.034l0.021-0.035l0.02-0.036l0.018-0.037l0.016-0.037l0.015-0.039
			l0.013-0.039l0.011-0.04l0.01-0.04l0.007-0.04l1.795,0.781l-0.014,0.079l-0.018,0.075l-0.02,0.074l-0.024,0.073l-0.026,0.07
			l-0.03,0.069l-0.032,0.067l-0.035,0.065l-0.037,0.063l-0.04,0.062l-0.042,0.059l-0.045,0.057l-0.048,0.056l-0.05,0.053
			l-0.052,0.051l-0.055,0.049L88.5,70.091l-0.06,0.044l-0.062,0.042l-0.065,0.04l-0.067,0.037l-0.07,0.035l-0.072,0.033
			l-0.075,0.029l-0.077,0.027l-0.082,0.024l-0.083,0.021l-0.085,0.017l-0.089,0.014l-0.092,0.01l-0.095,0.006L87.326,70.475
			L87.326,70.475L87.326,70.475z M52.128,68.983H86.56l0.767,1.491H52.894l0,0L52.128,68.983L52.128,68.983z M50.37,68.6
			l1.765,0.326l0,0l0.007,0.025l0.008,0.024l0.007,0.02l0.007,0.017l0.007,0.015l0.007,0.013l0.006,0.01l0.003,0.005l0.001,0.001
			l0.002,0.002l0,0l-0.004-0.004l-0.004-0.004l-0.008-0.008l-0.009-0.007l-0.01-0.008l-0.011-0.008l-0.013-0.009l-0.012-0.008
			l-0.013-0.007l-0.014-0.007l-0.005-0.002l-0.012-0.004l-0.006-0.003h-0.003l-0.002-0.001l0.003,0.001l0.008,0.001l0.007,0.001
			l0.01,0.001l0.017,0.001h0.018l0.766,1.491L52.8,70.472l-0.094-0.005l-0.099-0.01l-0.101-0.015l-0.099-0.018l-0.101-0.023
			l-0.105-0.029l-0.104-0.033L51.99,70.3l-0.109-0.045l-0.101-0.046l-0.107-0.054l-0.104-0.059l-0.101-0.062l-0.1-0.067l-0.095-0.07
			l-0.091-0.073l-0.087-0.076l-0.084-0.08l-0.077-0.079l-0.074-0.083l-0.067-0.081l-0.062-0.082l-0.06-0.085l-0.054-0.084
			l-0.047-0.082l-0.043-0.083l-0.04-0.083l-0.036-0.083L50.42,68.76l-0.027-0.081L50.37,68.6L50.37,68.6L50.37,68.6z M47.122,50.219
			l5.013,18.707L50.37,68.6l-5.013-18.707L47.122,50.219L47.122,50.219L47.122,50.219z M45.573,48.454l1.677,1.09l0,0l-0.015,0.022
			l-0.014,0.023l-0.013,0.022l-0.012,0.022l-0.012,0.023l-0.011,0.023l-0.011,0.023l-0.009,0.021l-0.008,0.021l-0.008,0.023
			l-0.008,0.023l-0.006,0.022l-0.005,0.021l-0.005,0.021l-0.004,0.022L47.105,49.9l-0.003,0.02L47.1,49.942l-0.002,0.022
			l-0.001,0.02l-0.001,0.021v0.021v0.017l0.001,0.021l0.001,0.021l0.002,0.019l0.002,0.018l0.003,0.021l0.003,0.021l0.004,0.018
			l0.004,0.018l0.005,0.019l-1.764-0.325l-0.013-0.051l-0.012-0.052l-0.011-0.051l-0.008-0.049l-0.008-0.048L45.3,49.59l-0.005-0.05
			l-0.003-0.048l-0.002-0.047l-0.001-0.051l0.001-0.047l0.001-0.046l0.003-0.048l0.004-0.045l0.005-0.045l0.007-0.046l0.008-0.045
			l0.009-0.044l0.01-0.044l0.012-0.045l0.013-0.042l0.013-0.041l0.015-0.042l0.017-0.043l0.018-0.042l0.018-0.04l0.019-0.04
			l0.02-0.04l0.021-0.04l0.022-0.04l0.024-0.038L45.573,48.454L45.573,48.454L45.573,48.454z M46.824,47.69l0.989,1.476l0,0
			l-0.019,0.003l-0.018,0.003l-0.019,0.004l-0.02,0.004l-0.018,0.005L47.7,49.19l-0.017,0.005l-0.019,0.006l-0.02,0.007
			l-0.018,0.007l-0.019,0.008l-0.018,0.008l-0.018,0.009l-0.019,0.01l-0.018,0.01l-0.018,0.011l-0.02,0.012l-0.018,0.013
			l-0.018,0.013l-0.017,0.013l-0.018,0.015l-0.019,0.016l-0.017,0.015l-0.016,0.016l-0.017,0.018l-0.018,0.019l-0.016,0.018
			l-0.016,0.019l-0.017,0.021l-0.015,0.02l-0.016,0.022l-0.015,0.022l-1.677-1.09l0.026-0.037l0.026-0.037l0.028-0.037l0.027-0.034
			l0.029-0.035l0.031-0.034l0.029-0.032l0.031-0.032l0.033-0.032l0.034-0.031l0.033-0.028l0.035-0.029l0.037-0.028L46.002,48
			l0.038-0.025l0.037-0.024l0.04-0.024l0.041-0.024l0.041-0.021l0.042-0.021l0.043-0.02l0.043-0.019l0.045-0.018l0.044-0.017
			l0.047-0.017l0.049-0.015l0.049-0.014l0.05-0.013l0.049-0.011l0.051-0.011l0.052-0.009L46.824,47.69L46.824,47.69L46.824,47.69z
			 M57.194,47.865l-9.38,1.302l-0.989-1.476l9.38-1.302L57.194,47.865L57.194,47.865z M93.039,42.889l-35.845,4.976l-0.989-1.477
			l35.845-4.976L93.039,42.889L93.039,42.889z M80.223,68.992l-2.205-24.738l1.803,0.538l2.205,24.738L80.223,68.992L80.223,68.992z
			 M71.61,68.995l-2.205-23.498l1.802,0.533l2.205,23.498L71.61,68.995L71.61,68.995z M64.513,68.997l-2.205-22.464l1.802,0.528
			l2.205,22.464L64.513,68.997L64.513,68.997z M56.755,69L54.55,47.569l1.802,0.522l2.205,21.431L56.755,69z"/>
	</g>
	<g>
		<rect x="52.123" y="72.665" fill="#F39220" width="34.219" height="7.507"/>
		<path fill="#F39220" d="M51.924,72.665h6.683c1.715,0,3.119,1.403,3.119,3.119v6.683c0,1.715-1.403,3.118-3.119,3.118h-6.683
			c-1.715,0-3.118-1.403-3.118-3.118v-6.683C48.806,74.068,50.208,72.665,51.924,72.665z"/>
		<path fill="#F39220" d="M80.556,72.665h6.683c1.716,0,3.119,1.403,3.119,3.119v6.683c0,1.715-1.403,3.118-3.119,3.118h-6.683
			c-1.715,0-3.118-1.403-3.118-3.118v-6.683C77.438,74.068,78.841,72.665,80.556,72.665z"/>
		<path fill="#F39220" d="M61.725,82.465v-2.293h-9.603v-7.507h-0.199c-1.715,0-3.118,1.403-3.118,3.119v6.682
			c0,1.716,1.403,3.119,3.118,3.119h6.683C60.322,85.584,61.725,84.181,61.725,82.465z"/>
		<path fill="#F39220" d="M52.123,80.172h9.603v-4.389c0-1.715-1.403-3.119-3.119-3.119h-6.484V80.172z"/>
		<path fill="#F39220" d="M77.438,80.172v2.293c0,1.716,1.403,3.119,3.119,3.119h6.682c1.715,0,3.119-1.403,3.119-3.119v-6.682
			c0-1.715-1.403-3.119-3.119-3.119h-0.897v7.507L77.438,80.172L77.438,80.172z"/>
		<path fill="#F39220" d="M77.438,80.172h8.904v-7.507h-5.785c-1.715,0-3.119,1.403-3.119,3.119V80.172z"/>
		<path fill="#F39220" d="M77.438,80.172v-4.389c0-1.715,1.403-3.119,3.119-3.119h-21.95c1.715,0,3.119,1.403,3.119,3.119v4.389
			H77.438z"/>
	</g>
</g>
<g>
	<path fill="#F39220" d="M209.777,75.823V56.295c-7.38,0.029-13.352,4.39-13.352,9.764S202.396,75.794,209.777,75.823z"/>
	<path fill="#F39220" d="M240.145,55.135v19.528c0.025,0,0.049,0,0.074,0c7.415,0,13.426-4.372,13.426-9.764
		s-6.011-9.765-13.426-9.765C240.194,55.135,240.169,55.135,240.145,55.135z"/>
	<path fill="none" stroke="#F39220" stroke-width="2.0001" stroke-miterlimit="2.6131" d="M202.641,58.358
		c0-11.92,10.028-21.583,22.398-21.583s22.398,9.663,22.398,21.583"/>
	<rect x="210.739" y="56.295" fill="#F39220" width="2.091" height="19.486"/>
	<rect x="237.539" y="55.333" fill="#F39220" width="2.091" height="19.486"/>
	<path fill="none" stroke="#F39220" stroke-width="2.0001" stroke-miterlimit="2.6131" d="M254.019,64.826
		c0,0,7.056,21.367-6.144,22.929c-13.199,1.562-13.199,1.562-13.199,1.562"/>
	<ellipse fill="#F39220" cx="254.47" cy="64.481" rx="2.229" ry="2.547"/>
	<ellipse fill="#F39220" cx="232.605" cy="88.733" rx="2.919" ry="2.441"/>
</g>
</svg>
