<?xml version="1.0" encoding="UTF-8"?>
<svg id="Layer_1" data-name="Layer 1" xmlns="http://www.w3.org/2000/svg" viewBox="0 0 529 398.69">
  <defs>
    <style>
      .cls-1 {
        fill: #000051;
        fill-rule: evenodd;
      }
    </style>
  </defs>
  <path class="cls-1" d="M288.26,67.03c-3.31-.88-4.97-2.65-7.84-4.56-45.86-30.58-108.4-26.46-152.32,4.55-20.8,14.69-36.8,34.95-47.08,59.34-8.37,19.86-9.73,34.01-9.73,61.56-14.29,1.19-38.47,20.26-48.8,32.82C8.64,237.59,1.39,257.9,0,278.66v14.79c2.65,40.88,27.24,80.77,68.18,96.99,13.14,5.2,29.18,8.25,47.54,8.25H430.85c21.34,0,38.91-5.17,54.97-15.28,14.3-9,25.69-21.97,33.2-37.06,5.82-11.69,9.21-24.28,9.98-37.09v-11.24c-.48-8.01-2-16.02-4.61-23.87-2.7-8.13-5.43-17.01-13.99-17.01-16.4,0-3.23,22.15-2.04,26.83,5.41,21.24,2.5,42.71-8.49,59.77-7.34,11.39-13.4,17.46-24.8,24.8-8.83,5.69-23.81,11.56-38.04,11.56H108.49c-18.45,0-36.03-6.05-49.81-15.29-22.12-14.84-38.88-41.86-40.1-69.43-.63-14.16-1.26-21.53,4-37.35,8.99-27.07,28.37-44.31,54.78-53.71,14.48-5.15,13.26-3.38,11.52-24.76-.39-4.83,.76-8.85,1.04-14.35,.42-8.11,3.17-18.5,5.5-25.49,3.35-10.06,9.67-22.4,15.86-30.63,23.17-30.79,53.55-49.29,100.53-49.29s72.43,31,78.52,31c7.64,0,9.71-7.91,15.14-17.92,6.53-12.03,15.93-21.77,26.42-30.41,42.79-35.27,106.95-31.29,146.9,8.65,14.61,14.61,24.98,32.71,29.48,53.17,3.17,14.39,3.07,22.84,2.05,37.06-.24,3.35-1.23,8.38-1.97,11.46-23.11,96.29-146.86,118.07-200.9,35.54-7.73-11.81-13.94-27.82-15.94-41.92-1.92-13.49,.61-20.5-12.56-20.5-15.24,0-.31,44.51,1.47,49.16,3.21,8.39,6.3,14.22,10.6,21.43,7.76,13.03,15.81,21.2,26.39,30.43,10.17,8.87,22.73,16.45,35.32,21.51,4,1.61,8.17,2.92,12.4,4.13,29.59,8.41,63.74,5.45,90.86-7.48,3.94-1.88,5.65-3.19,9.29-5.17,15.39-8.36,29.98-22.38,39.95-36.5,14.21-20.13,22.07-42.55,23.75-65.14v-18.49c-2.24-30.02-15.37-59.35-39-82.99-15.36-15.37-37.27-28.05-59.76-33.23-48.81-11.24-90.74,4.81-123.13,36.84-4.65,4.6-17.17,20.34-18.85,26.61h0Z"/>
  <path class="cls-1" d="M326.49,99.06c0,31.82,13.54,54.33,32.28,73.11,2.76,2.76,3.77,3.3,6.67,5.73,2.69,2.26,3.86,3.42,6.8,5.6,53.93,40.01,104.07,9.96,104.07-14.18,0-19.75-19.63-16.2-19.63-6.2,0,4.95,5.06,7.5-8.03,15.74-19.5,12.26-45.21,3.83-62.04-7.66-10.91-7.45-18.89-15.35-26.78-25.92-3.53-4.72-7.26-10.98-9.45-16.38-7.62-18.79-9.73-45.07,9.17-57.73,7.13,1.91,20.48,14.41,20.66,22.73-6.32,1.69-11.03,11.33-12.55,18.47-2.06,9.67,1.27,16.98,4.96,24.25,7.32,14.44,21.92,25.47,41.69,25.47,9.32,0,23.76-9.73,23.76-18.6,0-6.65-6.9-11.27-12.94-7.85-4.94,2.79-6.69,9.8-15.4,8.36-13.5-2.23-33.53-23.34-19.94-35.35,.34-.3,1.61-1.35,1.69-1.41,22.87-21-16.87-53.63-29.86-53.63-11.93,0-18.66,4.94-25.79,16.57-4.34,7.08-9.34,17.64-9.34,28.89h0Z"/>
  <path class="cls-1" d="M117.79,181.71c0,23.02,14.09,16.91,17.03,12.9,5.23-7.16-6.68-44.17,32.75-69.53,6.19-3.98,22.61-8.08,15.54-18.97-6.11-9.41-17.34-1.18-24.33,2.94-24.25,14.32-40.99,44.64-40.99,72.66h0Z"/>
</svg>