<svg id="Capa_1" enable-background="new 0 0 512.02 512.02" height="512" viewBox="0 0 512.02 512.02" width="512" xmlns="http://www.w3.org/2000/svg"><g><g id="Page-1_54_"><g id="_x30_55---Call-Center" transform="translate(-1)"><path id="Shape_276_" d="m487.41.01h-460.8c-14.551.464-25.993 12.6-25.6 27.153v372.361c-.393 14.553 11.049 26.689 25.6 27.153h148.326l-17.066 34.133h-28.86c-14.138 0-25.6 11.462-25.6 25.6s11.462 25.6 25.6 25.6h256c14.138 0 25.6-11.462 25.6-25.6s-11.462-25.6-25.6-25.6h-28.86l-17.067-34.133h148.327c14.551-.464 25.993-12.6 25.6-27.153v-372.361c.392-14.554-11.049-26.689-25.6-27.153zm-460.8 17.066h460.8c5.091.526 8.858 4.979 8.533 10.086v331.248h-477.867v-331.247c-.324-5.108 3.443-9.561 8.534-10.087zm366.933 469.334c0 4.713-3.82 8.533-8.533 8.533h-256c-4.713 0-8.533-3.821-8.533-8.533s3.821-8.533 8.533-8.533h256c4.713-.001 8.533 3.82 8.533 8.533zm-56.473-25.6h-160.12l17.067-34.133h125.986zm150.34-51.2h-460.8c-5.091-.526-8.858-4.979-8.533-10.086v-24.047h477.867v24.047c.324 5.107-3.443 9.56-8.534 10.086z"/><path id="Shape_275_" d="m146.076 290.143h17.067c9.426 0 17.067-7.641 17.067-17.067v-102.4c0-9.426-7.641-17.067-17.067-17.067h-8.533c0-56.554 45.846-102.4 102.4-102.4s102.4 45.846 102.4 102.4h-8.533c-9.426 0-17.067 7.641-17.067 17.067v102.4c.022 8.279 5.983 15.348 14.14 16.768l-.452.759c-6.147 10.325-17.287 16.638-29.303 16.606h-11.555c-3.603-10.192-13.22-17.022-24.03-17.067h-51.2c-14.139 0-25.6 11.462-25.6 25.6s11.462 25.6 25.6 25.6h51.2c10.81-.045 20.427-6.875 24.03-17.067h11.554c17.999.064 34.693-9.385 43.904-24.849l5.623-9.284h.222c28.265-.028 51.172-22.935 51.2-51.2v-34.132c-.046-24.957-18.062-46.252-42.667-50.432v-.768c0-65.98-53.487-119.467-119.467-119.467s-119.466 53.487-119.466 119.467v.768c-24.604 4.18-42.62 25.475-42.667 50.432v34.133c.029 28.265 22.935 51.172 51.2 51.2zm136.534 34.133h-51.2c-4.713 0-8.533-3.82-8.533-8.533s3.821-8.533 8.533-8.533h51.2c4.713 0 8.533 3.821 8.533 8.533s-3.82 8.533-8.533 8.533zm119.466-119.466v34.133c0 18.851-15.282 34.133-34.133 34.133h-17.067v-102.4h17.067c18.851 0 34.133 15.282 34.133 34.134zm-290.133 0c0-18.851 15.282-34.133 34.133-34.133h17.067v102.4h-17.067c-18.851 0-34.133-15.282-34.133-34.133z"/></g></g></g></svg>