<?xml version="1.0" encoding="UTF-8"?>
<svg id="Layer_1" data-name="Layer 1" xmlns="http://www.w3.org/2000/svg" viewBox="0 0 562.6 428">
  <defs>
    <style>
      .cls-1 {
        fill: #000051;
        fill-rule: evenodd;
      }

      .cls-2 {
        fill: none;
        stroke: #000051;
        stroke-miterlimit: 2.61;
        stroke-width: 20px;
      }
    </style>
  </defs>
  <path class="cls-2" d="M41.55,10h479.51c17.35,0,31.55,14.19,31.55,31.55V386.45c0,17.35-14.19,31.55-31.55,31.55H41.55c-17.35,0-31.55-14.19-31.55-31.55V41.55c0-17.35,14.19-31.55,31.55-31.55h0Z"/>
  <path class="cls-1" d="M315.48,375.19h98.85c21.46,0,35.75-14.29,35.75-35.75V95.48c0-21.46-14.29-35.75-35.75-35.75h-98.85s-23.13,0-23.13,0h0s-144.06,0-144.06,0c-19.96,0-35.75,13.13-35.75,32.6v250.27c0,19.47,15.79,32.6,35.75,32.6h167.2Zm100.95-23.13H147.23c-6.56,0-11.57-3.01-11.57-9.46V92.32c0-12,15.28-9.46,27.34-9.46h111.46c1.12,4.82,11.04,23.64,14,29.11,4.63,8.55,14.26,16.1,27.01,16.1h111.46v213.46c0,5.91-4.61,10.52-10.52,10.52h0ZM299.7,82.86c7.92,0,114.54-.84,119.46,.41,9.62,2.46,7.77,12.36,7.77,21.67h-112.52c-5.68,0-10.7-14.49-14.72-22.08h0Z"/>
  <path class="cls-1" d="M157.74,319.15c0,7.78,3.78,12.62,12.62,12.62h200.85c14.51,0,14.51-23.13,0-23.13H170.36c-6.79,0-12.62,3.94-12.62,10.52h0Z"/>
  <path class="cls-1" d="M157.74,272.14c0,7.25,3.52,12.62,10.51,12.62h113.57c13.44,0,15.96-23.13-3.15-23.13h-107.26c-6.92,0-13.67,3.69-13.67,10.52h0Z"/>
  <path class="cls-1" d="M292.34,162.47c0,11.17,11.49,15.16,16.82,23.13-5.34,7.97-16.82,11.97-16.82,23.13,0,7.48,5.52,10.52,12.62,10.52,5.68,0,32.6-26.15,32.6-33.65s-15.05-19.7-22.34-27.08c-4.81-4.86-4.92-6.57-12.36-6.57-5.66,0-10.51,4.8-10.51,10.51h0Z"/>
  <path class="cls-1" d="M157.74,184.56c0,9.02,7.65,13.44,14.46,20.24,6.8,6.8,11.22,14.46,20.24,14.46,5.99,0,10.52-5.53,10.52-11.57,0-7.79-12.92-16.26-16.83-22.08,3.29-4.91,16.83-15.14,16.83-21.03,0-8.83-4.84-12.62-12.62-12.62-5.85,0-32.6,26.75-32.6,32.6h0Z"/>
  <path class="cls-1" d="M225.04,206.64c0,8.9,3.72,12.62,12.62,12.62,8.4,0,12.59-13.61,18.23-24.89,2.02-4.04,14.37-27.6,14.37-29.79,0-12.93-15.62-19.61-23.85-2.82-2.63,5.35-4.68,9.41-7.34,14.74-2.53,5.06-14.02,25.96-14.02,30.14h0Z"/>
  <path class="cls-1" d="M179.83,118.31c0,15.13,23.13,15.13,23.13,0s-23.13-15.13-23.13,0h0Z"/>
  <path class="cls-1" d="M225.04,117.26c0,17.33,21.6,15.59,22.67,1.84,1.2-15.48-22.67-16.14-22.67-1.84h0Z"/>
</svg>