<svg id="Capa_1" enable-background="new 0 0 512 512" height="512" viewBox="0 0 512 512" width="512" xmlns="http://www.w3.org/2000/svg"><g><g><path d="m494.5 95.598h-61.418v-58.46c0-11.037-8.979-20.016-20.016-20.016h-201.066c-4.142 0-7.5 3.357-7.5 7.5s3.358 7.5 7.5 7.5h201.066c2.766 0 5.016 2.25 5.016 5.016v42.561h-324.164v-42.561c0-2.766 2.25-5.016 5.015-5.016h78.067c4.142 0 7.5-3.357 7.5-7.5s-3.358-7.5-7.5-7.5h-78.067c-11.036 0-20.015 8.979-20.015 20.016v58.46h-61.418c-9.649 0-17.5 7.851-17.5 17.5v259.562c0 9.649 7.851 17.5 17.5 17.5h190v46h-97.963c-9.649 0-17.5 7.851-17.5 17.5v23.718c0 9.649 7.851 17.5 17.5 17.5h67.463c4.142 0 7.5-3.357 7.5-7.5s-3.358-7.5-7.5-7.5h-67.463c-1.378 0-2.5-1.121-2.5-2.5v-23.718c0-1.379 1.122-2.5 2.5-2.5h292.926c1.379 0 2.5 1.121 2.5 2.5v23.718c0 1.379-1.121 2.5-2.5 2.5h-190.463c-4.142 0-7.5 3.357-7.5 7.5s3.358 7.5 7.5 7.5h190.463c9.649 0 17.5-7.851 17.5-17.5v-23.718c0-9.649-7.851-17.5-17.5-17.5h-97.963v-46h190c9.649 0 17.5-7.851 17.5-17.5v-259.562c0-9.65-7.851-17.5-17.5-17.5zm-400.582-.9h324.164v145.302c0 4.143 3.357 7.5 7.5 7.5s7.5-3.357 7.5-7.5v-104.402h38.918v214.562h-38.918v-75.16c0-4.143-3.357-7.5-7.5-7.5s-7.5 3.357-7.5 7.5v75.16h-324.164zm195.582 341.462h-67v-46h67zm207.5-63.5c0 1.379-1.121 2.5-2.5 2.5h-477c-1.378 0-2.5-1.121-2.5-2.5v-259.562c0-1.379 1.122-2.5 2.5-2.5h61.418v10h-41.418c-6.893 0-12.5 5.607-12.5 12.5v219.562c0 6.893 5.607 12.5 12.5 12.5h437c6.893 0 12.5-5.607 12.5-12.5v-219.562c0-6.893-5.607-12.5-12.5-12.5h-41.418v-10h61.418c1.379 0 2.5 1.121 2.5 2.5zm-418.082-237.062v214.562h-38.918v-214.562z"/><circle cx="116.477" cy="55.285" r="7.5"/><circle cx="138.947" cy="55.285" r="7.5"/><circle cx="395.523" cy="55.285" r="7.5"/><path d="m256 235.598c33.965 0 61.598-27.633 61.598-61.598s-27.633-61.598-61.598-61.598-61.598 27.633-61.598 61.598 27.633 61.598 61.598 61.598zm0-15c-8.584 0-16.627-2.343-23.541-6.409 2.656-4.499 6.53-8.093 11.1-10.431 3.831 1.608 8.033 2.498 12.441 2.498s8.611-.891 12.441-2.498c4.57 2.337 8.445 5.932 11.101 10.431-6.914 4.066-14.958 6.409-23.542 6.409zm-17.256-46.598c0-9.516 7.741-17.257 17.256-17.257 9.516 0 17.257 7.741 17.257 17.257s-7.741 17.257-17.257 17.257c-9.515 0-17.256-7.741-17.256-17.257zm17.256-46.598c25.694 0 46.598 20.903 46.598 46.598 0 11.673-4.324 22.348-11.441 30.532-2.718-4.05-6.086-7.578-9.949-10.44 4.406-5.516 7.049-12.5 7.049-20.092 0-17.786-14.471-32.257-32.257-32.257s-32.256 14.471-32.256 32.257c0 7.592 2.643 14.576 7.049 20.092-3.863 2.862-7.232 6.39-9.949 10.44-7.117-8.184-11.441-18.859-11.441-30.532-.001-25.694 20.903-46.598 46.597-46.598z"/><path d="m364 248.5h-216c-9.649 0-17.5 7.851-17.5 17.5v42.592c0 9.649 7.851 17.5 17.5 17.5h216c9.649 0 17.5-7.851 17.5-17.5v-42.592c0-9.649-7.851-17.5-17.5-17.5zm-52.5 62.592h-163.5c-1.378 0-2.5-1.121-2.5-2.5v-42.592c0-1.379 1.122-2.5 2.5-2.5h163.5zm55-2.5c0 1.379-1.121 2.5-2.5 2.5h-37.5v-47.592h37.5c1.379 0 2.5 1.121 2.5 2.5z"/><circle cx="167.5" cy="287.296" r="7.5"/><circle cx="191.5" cy="287.296" r="7.5"/><circle cx="215.5" cy="287.296" r="7.5"/><circle cx="239.5" cy="287.296" r="7.5"/><circle cx="263.5" cy="287.296" r="7.5"/><circle cx="287.5" cy="287.296" r="7.5"/><path d="m347.008 272.696c-2.93-2.928-7.678-2.928-10.607 0-2.929 2.93-2.929 7.678 0 10.607l3.993 3.992-3.993 3.992c-2.929 2.93-2.929 7.678 0 10.607 1.465 1.464 3.385 2.196 5.304 2.196s3.839-.732 5.304-2.196l9.296-9.296c2.929-2.93 2.929-7.678 0-10.607z"/></g></g></svg>