 
<svg class="svgico" fill="#28307e" id="Layer_1" data-name="Layer 1" xmlns="http://www.w3.org/2000/svg" viewBox="0 0 452.8 407.01">
  <defs>
    <style> 
      .cls-1, .cls-2 {
        fill-rule: evenodd;
      } 
    </style>
  </defs>
  <path class="cls-2" d="M174.22,244.09c5.35,1.25,10.39,5.66,16.8,6.19,0,15.57-3,32.72,7.96,32.72h54.83c6.8,0,8.05-5.18,7.98-12.36-.06-6.79-.02-13.58-.02-20.36,6.42-.53,11.45-4.94,16.8-6.19,9.79,6.56,15.88,20.6,24.29,18.94,5.2-1.03,19.26-16.94,23.69-21.37,23.98-23.98,27.23-22.74,13.71-36.26-3.57-3.57-8.67-7.83-11.28-11.72,1.25-5.35,5.66-10.39,6.19-16.8,15.57,0,32.72,3,32.72-7.96v-45.1h30.07c6.84,0,10.61,3.78,10.61,10.61v192.79h-103.47c-13.88,0-1.65,26.53-27.42,26.53h-102.59c-25.8,0-13.49-26.53-27.42-26.53H44.22V134.43c0-6.84,3.77-10.61,10.61-10.61h30.07v45.1c0,10.96,17.16,7.96,32.72,7.96,.53,6.41,4.94,11.45,6.19,16.8-2.6,3.88-7.31,7.75-10.83,11.27-14.1,14.1-10.84,12.6,13.27,36.7,4.44,4.44,17.86,19.76,23.05,21.21,8.68,2.42,14.92-12.07,24.93-18.78h0ZM0,360.83v-24.46c.87-10.97,5.55-9.14,26.53-9.14V130c0-8.03,5.81-14.98,10.46-18.73,6.52-5.26,11.78-5.15,23.15-5.15,19.16,0,38.32,0,57.48,0,.53-6.42,4.94-11.45,6.19-16.8-2.6-3.88-7.71-8.15-11.27-11.72-13.53-13.52-10.27-12.28,13.71-36.26,24.1-24.1,22.6-27.37,36.7-13.27,3.53,3.53,7.39,8.23,11.28,10.83,5.35-1.25,10.39-5.66,16.8-6.19,0-15.57-3-32.72,7.96-32.72h54.83c6.8,0,8.05,5.18,7.98,12.36-.06,6.79-.02,13.58-.02,20.37,6.42,.53,11.45,4.94,16.8,6.19,3.88-2.6,8.15-7.71,11.72-11.28,13.53-13.53,12.28-10.27,36.26,13.71,4.43,4.43,20.35,18.49,21.37,23.69,1.66,8.4-12.38,14.49-18.94,24.29,1.25,5.35,5.66,10.39,6.19,16.8,19.16,0,38.32,0,57.48,0,11.69,0,17.03-.06,23.63,5.55,4.49,3.82,9.97,10.47,9.97,18.33v197.22c12.08,0,26.53-2.69,26.53,7.96v25.65c0,23.55-22.4,45.99-45.99,45.99h-141.5c-4.37,0-7.96-3.59-7.96-7.96,0-11.15,6.59-9.73,19.46-9.73h27.42c18.02,0,97.14,1.57,108.22-1.44,22.33-6.07,22.66-25.76,22.66-42.78h-121.16c-2.96,12.71-16.32,26.53-31.84,26.53h-111.43c-15.51,0-28.88-13.82-31.84-26.53H17.69c0,17.42,.32,36.92,23.36,42.97,10.55,2.77,113.06,1.26,135.83,1.25,9.22,0,18.57-1.29,18.57,7.96,0,5.41-2.3,9.73-7.96,9.73H45.99c-23.54,0-45.99-22.45-45.99-45.99H0ZM127.35,66.33l23.66-24.1c6.88,4.69,13.09,17.02,22.33,17.02,2.79,0,15.09-6.62,19.19-8.23,18.42-7.24,16.19,0,16.19-33.34h35.38c0,33.34-2.23,26.1,16.19,33.34,5.68,2.23,15.63,8.23,20.07,8.23,7.58,0,15.57-13.02,21.23-16.8l24.09,23.66c-4.69,6.88-17.02,13.09-17.02,22.33,0,2.78,6.62,15.09,8.23,19.19,7.24,18.42,0,16.19,33.34,16.19v35.38c-33.33,0-26.1-2.23-33.34,16.19-2.23,5.68-8.23,15.63-8.23,20.07,0,7.58,13.02,15.57,16.8,21.22l-23.66,24.1c-6.88-4.69-13.09-17.02-22.33-17.02-2.79,0-15.09,6.62-19.19,8.23-18.42,7.24-16.19,0-16.19,33.34h-35.38c0-33.34,2.23-26.1-16.19-33.34-5.68-2.23-15.63-8.23-20.07-8.23-7.58,0-15.57,13.02-21.23,16.8l-24.09-23.66c4.69-6.88,17.02-13.09,17.02-22.33,0-2.78-6.62-15.09-8.23-19.19-7.24-18.42,0-16.19-33.34-16.19v-35.38c33.33,0,26.1,2.23,33.34-16.19,2.23-5.69,8.23-15.63,8.23-20.07,0-7.58-13.02-15.57-16.8-21.22h0Z"/>
  <path class="cls-1" d="M182.18,141.5c0-7.97,3.3-14.88,3.54-17.69h81.36c.35,4.25,11.42,28-9.47,48.9-27.83,27.83-75.43,7.16-75.43-31.21h0Zm44.22-44.22c6.77,0,17.59,3.1,23.19,6.88,1,.68,1.72,1.32,2.46,1.96h-51.3c6.12-5.32,17.6-8.84,25.65-8.84h0Zm-61.91,39.8c0,16.47,1.34,26.17,11.13,40.17,4.13,5.92,8.57,10.37,14.51,14.67,27.99,20.26,66.78,13.34,86.68-14.15,13.2-18.23,15.38-42.6,5.61-63.11-5.98-12.54-16.12-22.8-28.59-28.89-43.78-21.39-89.34,14.09-89.34,51.31h0Z"/>
  <path class="cls-1" d="M217.56,397.09c0,13.23,17.69,13.23,17.69,0,0-10.68-17.69-10.68-17.69,0h0Z"/>
</svg>