<?xml version="1.0" encoding="UTF-8"?>
<svg id="Layer_1" data-name="Layer 1" xmlns="http://www.w3.org/2000/svg" viewBox="0 0 915.01 912.97">
  <defs>
    <style>
      .cls-1 {
        fill: #006;
        fill-rule: evenodd;
      }
    </style>
  </defs>
  <path class="cls-1" d="M843.84,862.14H465.64c-21.02,0-16.27-40.62-16.27-46.77v-195.2c12.5,8.37,47.34,40.78,62.43,53.47l112.92,100.58c4.65,4.33,8.19,6.67,13.24,11.16,24.13,21.47,42.95-6.88,72.54-30.14,24.75-19.46,136.84-115.66,153.67-126.93v189.1c0,12.7,3.58,44.73-20.33,44.73h0ZM93.53,780.8c0,10.97,9.36,24.4,26.43,24.4H398.54c0,14.78-1.57,45.18,4.07,56.93H115.9c-77.6,0-65.07,9.05-65.07-154.53H398.54v46.77H128.1c-17.85,0-34.57,7.37-34.57,26.43h0Zm388.37-201.3h359.9l-185.03,154.53c-15.67-10.49-12.12-10.47-22.37-18.3l-130.65-115.38c-8-8.14-15.82-11.86-21.85-20.85h0Zm-388.37-6.1c0,13.89,9.34,26.43,22.37,26.43H398.54v56.93H50.83v-170.8H603.9v42.7h-128.1c-17.23,0-29.92,4.86-41.35,11.52-6.03,3.51-10.26,8.88-16.1,10.33l-292.34,.47c-11.22-.1-15.3-.96-21.91,4.53-3.71,3.08-10.57,12.1-10.57,17.9h0ZM50.83,256.2H603.9v178.93H50.83v-178.93h0Zm0-174.87c0-15.72,11.8-30.5,26.43-30.5h500.2c15.86,0,26.43,17.74,26.43,36.6v117.93H50.83V81.33h0ZM0,83.37V829.6c0,45.2,36.35,83.37,81.33,83.37H843.84c22.07,0,44.01-14.43,53.8-27.53,13.51-18.08,17.36-33.73,17.36-63.97v-201.3c0-51.79-24.27-91.5-79.3-91.5h-183V75.23c0-36.83-38.41-75.23-77.27-75.23H81.33C36.21,0,0,38,0,83.37H0Z"/>
  <path class="cls-1" d="M93.53,339.57c0,19.93,12.54,28.47,32.53,28.47H447.34c46.08,0,36.95-50.83,8.13-50.83H117.93c-11.3,0-24.4,12.22-24.4,22.37h0Z"/>
  <path class="cls-1" d="M93.53,126.07c0,10.02,4.32,18.19,10.01,22.52,5.84,4.45,15.92,5.95,26.59,5.95H445.3c8.25,0,17.57-2,23.18-5.29,20.55-12.05,10.09-45.55-13.01-45.55H117.93c-11.3,0-24.4,12.22-24.4,22.37h0Z"/>
  <path class="cls-1" d="M508.34,341.6c0,38.78,56.93,35.76,56.93,2.03,0-40.21-56.93-37.09-56.93-2.03h0Z"/>
  <path class="cls-1" d="M508.34,128.1c0,37.31,56.93,37.31,56.93,0s-56.93-36.08-56.93,0h0Z"/>
</svg>