<?xml version="1.0" encoding="UTF-8"?>
<!DOCTYPE svg PUBLIC "-//W3C//DTD SVG 1.1//EN" "http://www.w3.org/Graphics/SVG/1.1/DTD/svg11.dtd">
<!-- Creator: CorelDRAW 2020 (64-Bit) -->
<svg xmlns="http://www.w3.org/2000/svg" xml:space="preserve" width="50px" height="50px" version="1.1" style="shape-rendering:geometricPrecision; text-rendering:geometricPrecision; image-rendering:optimizeQuality; fill-rule:evenodd; clip-rule:evenodd"
viewBox="0 0 50 50"
 xmlns:xlink="http://www.w3.org/1999/xlink"
 xmlns:xodm="http://www.corel.com/coreldraw/odm/2003">
 <defs>
  <style type="text/css">
   <![CDATA[
    .fil1 {fill:#000051}
    .fil0 {fill:#FF9933}
    .fil2 {fill:#848484}
   ]]>
  </style>
 </defs>
 <g id="Layer_x0020_1">
  <metadata id="CorelCorpID_0Corel-Layer"/>
  <g id="_1315528133120">
   <path class="fil0" d="M24.1 7.88c9.71,-0.51 17.57,7.09 18.01,16.14 0.34,6.81 -3.31,13.22 -9.4,16.25 -11.2,5.58 -24.21,-2.26 -24.8,-14.33 -0.48,-9.79 7,-17.58 16.19,-18.06zm-1.32 -2.34c-0.04,0.1 0.19,0.14 -0.19,0.04l-0.56 0.11c-0.98,0.04 -2.02,0.44 -2.89,0.64 -0.2,-0.34 -1.02,-2.14 -1.11,-2.53 -0.46,0.12 -3.84,1.62 -4.05,1.81 0.24,0.78 0.94,1.85 1.09,2.59 -0.5,0.23 -1.11,0.67 -1.58,1.01 -0.32,0.23 -0.44,0.3 -0.72,0.55 -0.25,0.23 -0.43,0.4 -0.72,0.56 -0.26,-0.15 -1.75,-1.6 -2.13,-1.81l-2.56 2.84c-0.25,0.3 -0.22,0.21 -0.33,0.48 0.67,0.44 1.32,1.21 2.02,1.75 -0.03,0.19 -0.77,1.33 -0.96,1.63 -0.33,0.51 -0.54,1.15 -0.89,1.67l-2.66 -0.84 -1.33 4.19 2.62 0.88c-0.06,1.1 -0.34,1.73 -0.36,3.72l-2.8 0.28 0.46 4.4 2.8 -0.27c0.36,1.76 0.86,2.56 1.13,3.58 -0.4,0.18 -2.07,1.13 -2.37,1.4 0.39,0.92 1.73,2.79 2.11,3.77 0.34,-0.07 1.04,-0.52 1.33,-0.69 0.34,-0.21 0.82,-0.5 1.16,-0.66 0.55,0.58 1.8,2.25 2.49,2.68 -0.1,0.5 -0.5,0.81 -0.8,1.2l-0.79 1.15c0.23,0.23 3.33,2.48 3.62,2.58 0.19,-0.37 1.29,-1.93 1.59,-2.21 0.43,0.15 1.15,0.58 1.66,0.81 0.56,0.25 1.19,0.46 1.75,0.7l-0.56 2.74 4.31 0.89 0.56 -2.72c1.38,0.05 2.41,0.05 3.77,0l0.59 2.74 4.31 -0.92 -0.56 -2.78c0.57,-0.13 1.26,-0.43 1.79,-0.68 0.5,-0.22 1.19,-0.64 1.6,-0.78 0.31,0.29 1.41,1.84 1.6,2.21 0.29,-0.1 3.37,-2.33 3.61,-2.58 -0.1,-0.25 -0.24,-0.34 -0.39,-0.57l-1.2 -1.67c0.41,-0.45 0.86,-0.85 1.3,-1.34l1.19 -1.45c0.37,0.17 0.84,0.46 1.21,0.69 0.28,0.16 0.95,0.59 1.29,0.66 0.2,-0.58 1.8,-3.05 2.11,-3.77 -0.28,-0.24 -2.01,-1.24 -2.38,-1.4 0.18,-0.77 0.77,-1.86 1.14,-3.6l2.8 0.28 0.43 -4.38 -2.77 -0.32c-0.01,-0.59 -0.04,-1.18 -0.1,-1.75 -0.04,-0.49 -0.21,-1.23 -0.19,-1.68 -0.12,-0.11 -0.09,0.06 -0.12,-0.29l0.42 -0.17c0.24,-0.01 2,-0.56 2.26,-0.71l-1.34 -4.18 -2.67 0.84c-0.35,-0.52 -0.57,-1.16 -0.91,-1.7 -0.2,-0.33 -0.91,-1.39 -0.93,-1.58 0.69,-0.54 1.35,-1.31 2.01,-1.75 -0.14,-0.38 -2.84,-3.24 -2.93,-3.32 -0.4,0.28 -0.7,0.61 -1.07,0.95 -0.34,0.31 -0.72,0.54 -1.01,0.87 -0.56,-0.52 -2.23,-1.77 -3.02,-2.13 0.15,-0.75 0.84,-1.81 1.08,-2.59 -0.21,-0.19 -3.58,-1.69 -4.04,-1.81 -0.1,0.4 -0.92,2.2 -1.11,2.53 -0.91,-0.2 -1.89,-0.6 -2.9,-0.64l-0.55 -0.11c-0.38,0.1 -0.16,0.06 -0.2,-0.04 -0.12,-0.25 -0.04,-2.38 -0.07,-2.73l-4.32 0.01 -0.07 2.72z"/>
   <path class="fil1" d="M21.59 27.92c-0.95,-0.37 -2.17,-1.65 -3.09,-2.06 -0.41,0.65 -2.34,3.57 -2.48,3.66 0.02,-4.39 0.01,-8.79 0,-13.18l0.68 -0.04 -1.49 -3.66c0,-0.03 -0.02,-0.03 -0.03,-0.05 -0.22,0.28 -1.47,3.47 -1.49,3.73l0.66 0.02c-0.01,6.03 -0.01,12.05 0.02,18.08l20.24 0.02 0.02 0.67 3.76 -1.46 -3.76 -1.57 -0.02 0.67 -18.59 0c0.08,-0.44 1.74,-2.77 2.19,-3.47 0.24,-0.38 0.44,-0.85 0.77,-1.1 0.58,0.32 2.66,1.89 2.99,2l1.63 -2.15c1.18,-1.59 2.33,-3.07 3.65,-4.74 0.45,0.01 2.75,0.06 3.02,-0.05 0.28,-0.13 3.14,-4.74 3.76,-5.48l1.2 0.63 0.41 -4.59c-0.36,0.12 -4.02,2.04 -4.2,2.23 0.37,0.21 0.78,0.53 1.17,0.76l-3.2 4.85 -2.97 0.01c-0.21,0.24 -0.39,0.51 -0.61,0.79 -0.12,0.14 -3.98,5.26 -4.24,5.48z"/>
   <path class="fil2" d="M44.27 21.37l-0.05 -0.28c0.26,-0.07 0.2,-0.01 0.35,-0.18l-0.42 0.17c0.03,0.35 0,0.18 0.12,0.29z"/>
  </g>
 </g>
</svg>
