 
<svg id="Layer_1" class="svgico" fill="#28307e" data-name="Layer 1" xmlns="http://www.w3.org/2000/svg" viewBox="0 0 460.27 460"> 
  <path class="cls-1" d="M371.24,385.81h29.68v59.35h-29.68v-59.35h0Zm-89.03,0h29.68v59.35h-29.68v-59.35h0Zm-89.03,0h29.68v59.35h-29.68v-59.35h0Zm-14.84-14.84v74.19h-14.84c0-14.84,.02-29.68,0-44.52-.03-17.76-.37-8.4,10.22-23.17l4.62-6.51h0Zm-133.55,29.68c21.55,11.4,29.7,14.84,55.65,14.84,19.66,0,32.99-6.77,48.23-14.84v44.52H44.79v-44.52h0Zm80.69-5.56c1.12-4.81,6.24-11.09,9.27-24.11h24.11c-8.33,12.44-21.67,18.49-33.39,24.11h0Zm-51.01-24.11h44.52c-1.36,2.83-2.41,6.34-3.72,9.26-1.16,2.58-2.77,5.99-4.32,8.67-13.15,22.86-25.61,7.27-32.76-8.67-1.31-2.92-2.36-6.44-3.72-9.26h0Zm-39.88,0h24.11c3.04,13.03,8.15,19.3,9.27,24.11-3.34-1.6-6.06-2.37-9.57-4.34-3.21-1.8-6.33-3.65-9.12-5.71-4.82-3.56-11.49-9.29-14.69-14.06h0Zm143.75,0c3.98-7.52,11.21-19.46,12.05-29.68h240.2v103.87h-14.84v-74.19h-59.36v74.19h-29.68v-74.19h-59.35v74.19h-29.68v-74.19h-59.35Zm-110.36-39.88v-4.64h57.5c0,16.43-2.64,23.34-2.78,29.68h-51.93c-.12-5.54-2.78-13.83-2.78-25.04h0Zm99.23,25.04h-28.75c.13-5.62,2.78-17,2.78-29.68h36.17c0,5.89-1.59,11.53-2.96,16.52-.8,2.92-3.61,13.16-7.25,13.16h0Zm-151.17-29.68H52.21c0,11.95,2.65,23.91,2.78,29.68H26.24c-5.85,0-10.2-25.82-10.2-29.68h0Zm177.14-14.84h237.42v14.84H193.17v-14.84h0Zm-125.2-4.64c0-11.21,2.66-19.5,2.78-25.04h51.93c.14,6.34,2.78,13.24,2.78,29.68h-57.5v-4.64h0Zm283.79-84.4h38.95c0,6.31,8.28,72.13,9.27,74.19h-57.5c.99-2.07,9.27-67.88,9.27-74.19h0Zm-213.31,59.36h28.75c5.85,0,10.2,25.82,10.2,29.68h-36.17c0-12.09-2.61-23.47-2.78-29.68h0Zm-86.25,29.68H16.04c0-3.93,4.45-29.68,10.2-29.68h28.75c-.13,5.62-2.78,17-2.78,29.68h0Zm44.51-74.19c12.14,0,19.17,23.25,22.26,29.68h-44.52c2.96-6.17,3.33-9.74,8.04-17.93,2.41-4.19,8.47-11.75,14.22-11.75h0Zm28.75,5.56c11.72,5.62,25.04,11.64,33.39,24.11h-24.11c-2.7-11.57-4.52-12.74-8.05-20.69-.58-1.3-.94-2.79-1.22-3.42h0Zm-66.77,24.11h-24.11c8.33-12.44,21.68-18.49,33.39-24.11-1.12,4.81-6.24,11.09-9.27,24.11h0Zm60.28-74.19H252.53v103.87h-62.14c-.62-7.49-6.44-19.9-9.79-25.45-5.54-9.16-11.73-17.82-20.01-24.5-11.04-8.91-26.58-20.21-41.61-21.46v-32.46h0Zm-74.19,44.52v-29.68h29.68v17.62c-10.67,.89-21.89,7.93-29.68,12.06h0Zm310.69-44.52h31.53c0,3.78,.73,12.51,1.86,14.84h-35.24c1.12-2.33,1.86-11.06,1.86-14.84h0Zm-310.69-14.84h29.68v14.84h-29.68v-14.84h0Zm103.87-14.84h74.19v14.84h-74.19v-14.84h0Zm-103.87-14.84h29.68v14.84h-29.68v-14.84h0Zm89.03,29.68h-29.68v44.52h-14.84V89.03h89.03v59.36h-44.52v29.68h0ZM44.79,118.71h29.68v14.84h-29.68v-14.84h0Zm0-29.68h29.68v14.84h-29.68v-14.84h0ZM140.31,14.84c23.07,0,14.27-5.06,18.94,28.35l3.31,31h-27.82c.27-12.14,5.56-43.21,5.56-59.35h0ZM59.63,59.36h29.68v14.84h-29.68v-14.84h0Zm57.5,14.84h-12.98v-29.68H44.79v29.68h-14.84V247.62c0,2.06-7.24,9.09-10.22,12.97-3.47,4.53-6.58,9.48-9.27,14.85-17.1,34.15-12.61,70.38,8.89,101.49,3.09,4.47,10.59,11.22,10.59,13.52v69.56H445.43v-163.23h-30.61c0-5.37-1.01-10.81-1.57-15.12l-9.38-75.01c-.65-5.28-1.29-10.22-1.86-14.84-1.08-8.83-.13-13.74-3.88-13.74h-53.79c-3.67,0-2.82,4.4-3.79,12.91l-11.22,89.87c-.6,4.87-1.69,10.2-1.69,15.94h-60.28v-118.71h-29.68v-29.68h-44.52V74.19h-15.77c0-6.41-.46-11.99-1.32-18.15-.9-6.45-.95-12.04-1.86-18.55-.9-6.45-.95-12.04-1.86-18.55-.89-6.38-1.46-12.19-1.46-18.94h-44.52l-5.41,56.73c-1.13,10.72,.2,17.46-3.87,17.46h0Z"/>
  <path class="cls-1" d="M282.21,78.83c0,12.32,.61,14.86,7.42,25.04-6.89,0-11.78,2.42-15.52,5.81-9.49,8.59-9.61,27.19,3.25,35.22,7.67,4.79,12.77,3.49,24.33,3.49,9.27,0,18.55,0,27.82,0,19.24,0,19.48,.33,19.48,14.84h14.84c0-9.96,.95-19.36-9.99-26.18-7.67-4.79-12.77-3.49-24.33-3.49l-40.63-.18c-9.64-1.96-7.99-14.66,1.67-14.66h43.59v-14.84c-11.28,0-21.72,1.35-29.93-6.24-14.07-13-6.13-38.28,16.95-38.28h20.4v-14.84h-25.04c-17.11,0-34.32,17.21-34.32,34.32h0Z"/>
  <path class="cls-1" d="M356.4,59.36c14.45,0,37.1-3.05,37.1,20.4v9.27c16.28,0,35.17-2.63,44.77,6.24,10.19,9.41,8.94,25.8-2.07,33.68-13.58,9.72-33.78-.17-46.98,7.74-11.54,6.91-10.56,16.23-10.56,26.54h14.84c0-14-.06-14.85,18.55-14.84,10.53,0,17.46,.83,25.34-2.48,10.83-4.56,22.89-16.98,22.89-31.83v-5.56c0-17.11-17.2-34.32-34.31-34.32h-17.62c-.32-14.19-15-29.68-31.53-29.68h-20.4v14.84h0Z"/>
  <polygon class="cls-1" points="133.82 222.58 148.66 222.58 148.66 207.74 133.82 207.74 133.82 222.58 133.82 222.58"/>
  <polygon class="cls-1" points="163.5 222.58 178.34 222.58 178.34 207.74 163.5 207.74 163.5 222.58 163.5 222.58"/>
  <polygon class="cls-1" points="193.17 222.58 208.01 222.58 208.01 207.74 193.17 207.74 193.17 222.58 193.17 222.58"/>
  <polygon class="cls-1" points="193.17 252.26 208.01 252.26 208.01 237.42 193.17 237.42 193.17 252.26 193.17 252.26"/>
  <polygon class="cls-1" points="222.85 222.58 237.69 222.58 237.69 207.74 222.85 207.74 222.85 222.58 222.85 222.58"/>
  <polygon class="cls-1" points="222.85 252.26 237.69 252.26 237.69 237.42 222.85 237.42 222.85 252.26 222.85 252.26"/>
  <polygon class="cls-1" points="193.17 281.94 208.01 281.94 208.01 267.1 193.17 267.1 193.17 281.94 193.17 281.94"/>
  <polygon class="cls-1" points="222.85 281.94 237.69 281.94 237.69 267.1 222.85 267.1 222.85 281.94 222.85 281.94"/>
</svg>