<?xml version="1.0" encoding="utf-8"?>
<!-- Generator: Adobe Illustrator 26.4.1, SVG Export Plug-In . SVG Version: 6.00 Build 0)  -->
<svg version="1.1" id="Layer_1" xmlns="http://www.w3.org/2000/svg" xmlns:xlink="http://www.w3.org/1999/xlink" x="0px" y="0px"
	 viewBox="0 0 97.3 80.3" style="enable-background:new 0 0 97.3 80.3;" xml:space="preserve">
<style type="text/css">
	.st0{fill:none;stroke:#18164D;stroke-width:4;stroke-miterlimit:10;}
	.st1{fill:none;stroke:#18164D;stroke-width:2;stroke-miterlimit:10;}
</style>
<path class="st0" d="M17.1,76.7H7.9c-2.1,0-3.8-1.7-3.8-3.8V13.7c0-2.1,1.7-3.8,3.8-3.8h5.4v63C13.4,75.1,15.1,76.7,17.1,76.7z"/>
<path class="st0" d="M93.1,13.7v59.2c0,2.1-1.7,3.8-3.8,3.8H30.8c2.1,0,3.8-1.7,3.8-3.8V10h54.9C91.4,10,93.1,11.6,93.1,13.7z"/>
<path class="st1" d="M45.5,18.7h35.3c0.9,0,1.8,0.6,1.8,1.5v9.9c0,0.8-0.7,1.5-1.8,1.5H45.5c-0.9,0-1.8-0.6-1.8-1.5v-9.9
	C43.8,19.4,44.6,18.7,45.5,18.7z"/>
<path class="st1" d="M55.7,38.1h3c0.6,0,1,0.5,1,1v3c0,0.6-0.5,1-1,1h-3c-0.6,0-1-0.5-1-1v-3C54.6,38.6,55.1,38.1,55.7,38.1z"/>
<path class="st1" d="M67,38.1h3c0.6,0,1,0.5,1,1v3c0,0.6-0.5,1-1,1h-3c-0.6,0-1-0.5-1-1v-3C65.9,38.6,66.5,38.1,67,38.1z"/>
<path class="st1" d="M78.3,38.1h3c0.6,0,1,0.5,1,1v3c0,0.6-0.5,1-1,1h-3c-0.6,0-1-0.5-1-1v-3C77.3,38.6,77.7,38.1,78.3,38.1z"/>
<path class="st1" d="M55.7,46.4h3c0.6,0,1,0.5,1,1v3c0,0.6-0.5,1-1,1h-3c-0.6,0-1-0.5-1-1v-3C54.6,46.8,55.1,46.4,55.7,46.4z"/>
<path class="st1" d="M67,46.4h3c0.6,0,1,0.5,1,1v3c0,0.6-0.5,1-1,1h-3c-0.6,0-1-0.5-1-1v-3C65.9,46.8,66.5,46.4,67,46.4z"/>
<path class="st1" d="M78.3,46.4h3c0.6,0,1,0.5,1,1v3c0,0.6-0.5,1-1,1h-3c-0.6,0-1-0.5-1-1v-3C77.3,46.8,77.7,46.4,78.3,46.4z"/>
<path class="st1" d="M55.7,54.5h3c0.6,0,1,0.5,1,1v3c0,0.6-0.5,1-1,1h-3c-0.6,0-1-0.5-1-1v-3C54.6,55.1,55.1,54.5,55.7,54.5z"/>
<path class="st1" d="M67,54.5h3c0.6,0,1,0.5,1,1v3c0,0.6-0.5,1-1,1h-3c-0.6,0-1-0.5-1-1v-3C65.9,55.1,66.5,54.5,67,54.5z"/>
<path class="st1" d="M78.3,54.5h3c0.6,0,1,0.5,1,1v3c0,0.6-0.5,1-1,1h-3c-0.6,0-1-0.5-1-1v-3C77.3,55.1,77.7,54.5,78.3,54.5z"/>
<path class="st1" d="M55.7,62.8h3c0.6,0,1,0.5,1,1v3c0,0.6-0.5,1-1,1h-3c-0.6,0-1-0.5-1-1v-3C54.6,63.4,55.1,62.8,55.7,62.8z"/>
<path class="st1" d="M67,62.8h3c0.6,0,1,0.5,1,1v3c0,0.6-0.5,1-1,1h-3c-0.6,0-1-0.5-1-1v-3C65.9,63.4,66.5,62.8,67,62.8z"/>
<path class="st1" d="M78.3,62.8h3c0.6,0,1,0.5,1,1v3c0,0.6-0.5,1-1,1h-3c-0.6,0-1-0.5-1-1v-3C77.3,63.4,77.7,62.8,78.3,62.8z"/>
<path class="st0" d="M34.5,7.4V73c0,2.1-1.7,3.8-3.8,3.8H17.1c-2.1,0-3.8-1.7-3.8-3.8V7.4c0-2.1,1.7-3.8,3.8-3.8h13.6
	C32.8,3.6,34.5,5.3,34.5,7.4z"/>
<path class="st1" d="M44.8,38.1h3c0.6,0,1,0.5,1,1v3c0,0.6-0.5,1-1,1h-3c-0.6,0-1-0.5-1-1v-3C43.6,38.6,44.1,38.1,44.8,38.1z"/>
<path class="st1" d="M44.8,46.4h3c0.6,0,1,0.5,1,1v3c0,0.6-0.5,1-1,1h-3c-0.6,0-1-0.5-1-1v-3C43.6,46.8,44.1,46.4,44.8,46.4z"/>
<path class="st1" d="M44.8,54.5h3c0.6,0,1,0.5,1,1v3c0,0.6-0.5,1-1,1h-3c-0.6,0-1-0.5-1-1v-3C43.6,55.1,44.1,54.5,44.8,54.5z"/>
<path class="st1" d="M44.8,62.8h3c0.6,0,1,0.5,1,1v3c0,0.6-0.5,1-1,1h-3c-0.6,0-1-0.5-1-1v-3C43.6,63.4,44.1,62.8,44.8,62.8z"/>
</svg>
