<?xml version="1.0" encoding="UTF-8"?>
<!DOCTYPE svg PUBLIC "-//W3C//DTD SVG 1.1//EN" "http://www.w3.org/Graphics/SVG/1.1/DTD/svg11.dtd">
<!-- Creator: CorelDRAW 2020 (64-Bit) -->
<svg xmlns="http://www.w3.org/2000/svg" xml:space="preserve" width="900px" height="750px" version="1.1" style="shape-rendering:geometricPrecision; text-rendering:geometricPrecision; image-rendering:optimizeQuality; fill-rule:evenodd; clip-rule:evenodd"
viewBox="0 0 900 750"
 xmlns:xlink="http://www.w3.org/1999/xlink"
 xmlns:xodm="http://www.corel.com/coreldraw/odm/2003">
 <defs>
  <style type="text/css">
   <![CDATA[
    .fil1 {fill:#000051}
    .fil0 {fill:#FF9933}
   ]]>
  </style>
 </defs>
 <g id="Layer_x0020_1">
  <metadata id="CorelCorpID_0Corel-Layer"/>
  <g id="_2425761543920">
   <path class="fil0" d="M357.55 659.53c0,-18.51 3.22,-20.16 22.03,-20.16l140.08 0c19.09,0 22.02,1.37 22.02,20.16 0,37.79 4.66,48.86 -18.77,48.86 -187.76,0 -165.36,14.72 -165.36,-48.86zm68.45 -88.81l47.05 1.08 0.18 44.99 -46.94 -0.81 -0.29 -45.26zm-271.6 -25.05c-5.07,-15.44 -4.99,-136.45 -2.86,-158.55l594.92 0c3.36,22.1 3.44,143.11 -1.63,158.55 -18.91,5.57 -571.52,5.57 -590.43,0zm63.95 -500.26c43.11,-3.81 427.48,-4.22 462.42,0.34 12.76,48.16 22.06,108.37 32.36,159.5 6.6,32.81 31.26,134.44 30.26,160.02l-587.55 0.03c-0.67,-17.12 54.26,-287.15 62.51,-319.89zm-63.65 522.47l249.5 1.87c4.79,11.06 3.29,12.17 3.35,24.63 0.09,20.76 1.32,19.06 -4.53,23.43 -33.1,-3.09 -54.79,-3.89 -65.25,22.11 -28.97,-0.23 -118.03,-3.86 -137.9,2.54 -5.3,26.03 10.77,19.96 52.66,19.94 27.67,-0.01 55.36,0.12 83.03,-0.07l0 23.26c-31.48,0 -137.84,-3.68 -158.49,2.62l-0.77 17.41c22.73,6.38 129.39,2.77 161.83,2.77 6.43,15.45 10.47,14.88 23.84,22.81l175.3 0c13.24,-7.86 17.46,-7.52 23.83,-22.81 29.9,0 116.81,3.49 138.01,-2.81l1.05 -17.33c-21.53,-6.3 -107.08,-2.66 -136.49,-2.66l0 -23.26 138.7 0.33c19.51,-0.38 23.65,-2.58 19.9,-20.29 -19.28,-6.23 -130.27,-2.69 -160.81,-2.45 -10.45,-26 -32.15,-25.2 -65.24,-22.11 -5.7,-6.28 -4.62,-3.97 -4.54,-23.43 0.06,-12.46 -1.44,-13.57 3.35,-25.57l249.51 -0.93c33.72,-3.82 25.96,-50.84 25.95,-84.27 0,-168.1 -2.91,-124.1 -38.21,-297.23 -6.31,-30.93 -12.27,-61.02 -18.48,-92.28 -6.77,-34.15 -5.85,-67.26 -38.35,-72.42 -22.07,-3.5 -433.44,-1.47 -445.78,-0.59 -37.7,2.7 -36.07,31.77 -43.2,67.51 -16.29,81.62 -45.84,210.57 -56.26,282.55 -4.28,29.53 -1.47,77.65 -1.47,109.21 0,34.06 -8.27,83.65 25.96,87.52z"/>
   <path class="fil1" d="M304.65 261.9c-14.36,-14.98 -23.04,-22.59 -10.32,-52.33 35.83,-83.76 224.27,-72.1 278.53,-36.58 12.33,8.07 26.65,22.44 32.87,38.9 13.09,34.66 -4.9,42.46 -9.56,51.11 -19.17,-4.33 -53.59,-19.6 -65.31,-30.98 -0.98,-28.12 4.32,-42.03 -22.82,-49.63 -33.38,-9.35 -89.3,-10.05 -122,1.36 -33.51,11.69 -2.29,37.29 -26.42,54.92l-54.97 23.23zm85.89 -54.45c15.98,-8.1 45.76,-10.68 67.28,-9.86 37.38,1.43 49.8,3.29 50.83,21.98 2.07,37.87 5.43,31.23 34.47,45.27 13.5,6.52 38.25,22.74 54.13,20.2 33.65,-5.38 49.59,-62.31 16.81,-104.36 -21.27,-27.29 -54.28,-44.7 -98.53,-51.52 -93.64,-14.42 -199.35,-2.49 -237.01,61.17 -16.32,27.6 -20.39,62.38 9.84,87.98 21.58,18.26 46.2,-3.72 78.83,-18.67 26.79,-12.28 23.15,-18.99 23.35,-52.19z"/>
   <path class="fil1" d="M426.19 456.65c10.34,35.24 -32.03,33.27 -21.78,-1.28l21.78 1.28zm-23.95 -19.61c-41.03,17.14 -17.67,79.48 27.72,61.49 37.61,-14.9 16.2,-79.84 -27.72,-61.49z"/>
   <path class="fil1" d="M335.2 478.66c-34.6,10.18 -35.03,-32.27 0.47,-21.75l-0.47 21.75zm-24.57 -41.8c-40.95,15.9 -17.09,80.78 28.4,61.78 34.9,-14.58 17.05,-79.42 -28.4,-61.78z"/>
   <path class="fil1" d="M238.95 455.07c12.65,16.6 3.68,33.83 -13.99,23.93 -10.73,-6.01 -11.14,-25.53 13.99,-23.93zm-19.88 -18.4c-39.53,14.8 -18.97,77.76 26.13,62.84 37.79,-12.5 20.09,-80.14 -26.13,-62.84z"/>
   <path class="fil1" d="M679.08 460.81c6.08,33.86 -41.74,24.02 -18.8,-5.74 12.07,-0.77 11.74,-0.12 18.8,5.74zm-25.01 -23.29c-45.46,23.72 -9.45,80.67 29.22,60.06 33.95,-18.09 12.57,-81.86 -29.22,-60.06z"/>
  </g>
 </g>
</svg>
