<svg id="Layer_1" enable-background="new 0 0 512 512" height="512" viewBox="0 0 512 512" width="512" xmlns="http://www.w3.org/2000/svg"><path clip-rule="evenodd" d="m174.778 439.557c4.82-14.103 8.379-32.039 9.329-49.753h114.843c1.142 17.713 5.018 35.649 10.043 49.753zm294.528-396.863c-30.84-30.839-81.465-30.84-112.304 0-30.84 30.84-30.84 81.465 0 112.304 30.84 30.84 81.465 30.839 112.304 0s30.84-81.464 0-112.304zm-1.714 65.806c-11.474 0-17.231 13.901-9.118 22.014 1.494 1.494 1.494 3.919 0 5.413l-8.24 8.24c-1.494 1.494-3.919 1.494-5.413 0-8.113-8.113-22.014-2.356-22.014 9.118 0 2.115-1.714 3.827-3.827 3.827h-11.653c-2.113 0-3.827-1.713-3.827-3.827 0-11.488-13.89-17.242-22.014-9.118-1.494 1.494-3.918 1.494-5.413 0l-8.24-8.24c-1.494-1.494-1.494-3.919 0-5.413 8.113-8.113 2.356-22.014-9.118-22.014-2.114 0-3.827-1.714-3.827-3.827v-11.653c0-2.113 1.713-3.827 3.827-3.827 11.474 0 17.231-13.901 9.118-22.014-1.494-1.494-1.494-3.918 0-5.413l8.24-8.24c1.495-1.494 3.919-1.494 5.413 0 8.113 8.113 22.014 2.356 22.014-9.118 0-2.114 1.714-3.827 3.827-3.827h11.653c2.113 0 3.827 1.713 3.827 3.827 0 11.474 13.901 17.231 22.014 9.118 1.494-1.494 3.919-1.494 5.413 0l8.24 8.24c1.494 1.495 1.494 3.919 0 5.413-8.113 8.113-2.356 22.014 9.118 22.014 2.115 0 3.827 1.714 3.827 3.827v11.653c.001 2.113-1.712 3.827-3.827 3.827zm-54.438-38.127c15.725 0 28.473 12.748 28.473 28.473s-12.748 28.474-28.473 28.474c-15.726 0-28.474-12.748-28.474-28.474 0-15.725 12.748-28.473 28.474-28.473zm51.254 108.408v126.5h-444.844v-216.765c0-17.638 14.297-31.935 31.935-31.935h276.72c.742 0 1.223.769.898 1.437-17.319 35.584-10.162 78.73 17.986 106.879 30.72 30.72 79.205 36.065 115.772 13.04.669-.422 1.533.055 1.533.844zm-119.892 36.369v50.573c0 .551.449 1 1 1h50.572c.551 0 1-.449 1-1v-50.573c0-.551-.449-1-1-1h-50.572c-.551 0-1 .449-1 1zm-14.001 58.572c0 3.866 3.134 7 7 7h66.572c3.866 0 7-3.134 7-7v-66.572c0-3.866-3.134-7-7-7h-66.572c-3.866 0-7 3.134-7 7zm-243.631-58.572v50.573c0 .551.449 1 1 1h50.572c.551 0 1-.449 1-1v-50.573c0-.551-.449-1-1-1h-50.572c-.551 0-1 .449-1 1zm-14 58.572c0 3.866 3.134 7 7 7h66.572c3.866 0 7-3.134 7-7v-66.572c0-3.866-3.134-7-7-7h-66.572c-3.866 0-7 3.134-7 7zm14-170.581v50.572c0 .551.449 1 1 1h50.572c.551 0 1-.449 1-1v-50.572c0-.551-.449-1-1-1h-50.572c-.551 0-1 .449-1 1zm-14 58.572c0 3.866 3.134 7 7 7h66.572c3.866 0 7-3.134 7-7v-66.572c0-3.866-3.134-7-7-7h-66.572c-3.866 0-7 3.134-7 7zm142.816 53.437v50.573c0 .551.449 1 1 1h50.572c.551 0 1-.449 1-1v-50.573c0-.551-.449-1-1-1h-50.572c-.551 0-1 .449-1 1zm-14 58.572c0 3.866 3.134 7 7 7h66.572c3.866 0 7-3.134 7-7v-66.572c0-3.866-3.134-7-7-7h-66.572c-3.866 0-7 3.134-7 7zm14-170.581v50.572c0 .551.449 1 1 1h50.572c.551 0 1-.449 1-1v-50.572c0-.551-.449-1-1-1h-50.572c-.551 0-1 .449-1 1zm-14 58.572c0 3.866 3.134 7 7 7h66.572c3.866 0 7-3.134 7-7v-66.572c0-3.866-3.134-7-7-7h-66.572c-3.866 0-7 3.134-7 7zm22.729 189.331c-3.866 0-7-3.134-7-7s3.134-7 7-7h35.114c3.866 0 7 3.134 7 7s-3.134 7-7 7zm239.979-31.762h-444.844v24.588c0 17.638 14.297 31.935 31.935 31.935h380.973c17.638 0 31.935-14.297 31.935-31.935v-24.588zm-326.4 134.275h207.956c10.692 0 19.439 8.747 19.439 19.439s-8.747 19.439-19.439 19.439h-207.956c-10.692 0-19.439-8.747-19.439-19.439s8.747-19.439 19.439-19.439z" fill-rule="evenodd"/></svg>