<?xml version="1.0" encoding="UTF-8"?>
<svg id="Layer_1" data-name="Layer 1" xmlns="http://www.w3.org/2000/svg" viewBox="0 0 426.79 427">
  <defs>
    <style>
      .cls-1 {
        fill: #000051;
        fill-rule: evenodd;
      }
    </style>
  </defs>
  <path class="cls-1" d="M93.79,36.14c-3.16-2.12-3.41-3.41-5.83-6.21-4.27-4.94-2.82-4.92-6.22-5.83-.9,3.87-2.37,6.76-3.76,10.87l-12.59,33.87c7.12,0,41.35-7.75,47.33-7.75-1.06-4.54-6.93-9.12-9.46-12.9,2.66-3.98,16.37-10.77,21.8-13.48,22.46-11.25,45.11-17.25,70.4-19.95,18.26-1.95,44.54-.07,61.84,4.17,6.98,1.71,12.74,3.26,19.46,5.5,11.27,3.76,24.54,9.27,34.58,15.33,2.85,1.72,4.71,2.55,7.57,4.48,46.81,31.61,74.57,68.09,88.63,123.91,2.07,8.24,4.66,23.58,4.63,32.37-.01,5.34,.89,6.7,.92,12.03,.06,11.32-3.13,34.33-5.28,44.68-8.81,42.37-29.73,73.2-59.07,102.69l-21.01,16.85c-8.75,6.48-21.37,13.58-31.72,18.19-12.08,5.38-23.01,8.98-37.33,12.58-65.8,16.56-138.25-5.32-185.73-52.79-2.22-2.22-3.81-3.79-6.04-6.01-5.07-5.05-12.33-14.84-16.86-21-5.51-7.5-14.32-23.05-18.18-31.73-26.51-59.52-23.61-125.74,8.55-181.59l7.99-12.67c1.71-2.74,2.47-4.5,1.74-7.24-1.77-6.67-9.75-6.42-13.18-1.6l-11.44,18.68C6.12,149.81,0,176.56,0,220.28c0,46.59,21.22,97.47,50.1,130.6l9.07,9.86c5.23,5.68,10.56,11.22,16.67,16.03,18.24,14.4,24.71,19.16,47.2,30.24,67.2,33.1,151.48,23.86,212.9-18.59,5.37-3.71,9.63-7.14,14.54-11.27,2.96-2.49,4.09-3.3,6.83-6.08,2.65-2.7,4.34-3.52,6.92-5.99l23.49-28.14c21.46-29.67,39.08-75.19,39.08-115.8v-15.49c0-45.55-19.3-89.29-44.25-122.68l-31.1-32.57-14.49-11.32c-10.35-7.48-20.76-13.08-32.61-19.02C284.81,10.3,249.97,0,221.14,0s-51.25,1.6-77.82,11.67c-17.37,6.59-21.41,8.22-37.75,17.32-4.33,2.41-7.66,4.97-11.78,7.15h0Z"/>
  <path class="cls-1" d="M55.07,213.39c0-42.18,17.73-82.7,46.68-111.64,21.86-21.86,45.84-34.92,76.36-42.39,7.85-1.92,26.5-4.35,35.29-4.35,7.57,0,28.37,2.66,35.29,4.35,21.36,5.22,37.26,12.3,54.9,24.26,8.06,5.47,14.66,11.33,21.46,18.12,12.64,12.64,24.98,28.87,32.42,46.74,4.25,10.2,7.16,18.14,9.97,29.61,17.7,72.37-23.05,151.84-89.13,179.36-19.72,8.21-34,12.36-55.44,13.4-12.88,.62-9.81,1.88-27.8-.6-6.63-.91-11.27-1.45-16.95-2.84-10.97-2.68-20.02-5.6-29.53-10.05-5.53-2.58-8.13-3.54-13.21-6.58-4.49-2.69-7.95-4.78-12.15-7.63-14.01-9.5-30.08-25.57-39.58-39.58-11.96-17.64-19.04-33.54-24.26-54.9-2.25-9.21-4.29-24.05-4.29-35.29h0Zm-13.77-6.88c0,21.19,0,27.47,4.81,48.54,4.39,19.24,12.15,34.26,21.82,50.46,4.28,7.17,8.04,11.56,13.06,17.92,1.94,2.46,2.52,3.22,4.83,5.49l16.06,15.77c16.59,12.97,14.16,10.73,30.78,20.84,9.07,5.51,27.32,12.14,37.68,14.81,27.56,7.1,57.84,6.85,85.39,.17,20.94-5.08,33.09-11.85,50.3-21.97,2.75-1.62,3.81-2.41,6.17-4.16l23.12-19.04c2.01-1.81,2.57-3.39,4.74-5.58l13.93-17.04c2.94-4.07,5.83-8.32,8.21-12.45,7.92-13.75,14.04-27.98,18.12-43.83,7.1-27.56,6.85-57.84,.17-85.39-4.49-18.54-14.61-40.9-26.13-56.47-1.68-2.27-2.51-3.71-4.37-5.96-1.66-2.01-2.94-3.6-4.59-5.73l-21.02-21.14c-37.76-29.15-66.39-40.43-117.03-40.43-29.03,0-56.18,9.58-80.3,22.96-2.58,1.43-3.77,2.47-6.34,3.99-6.03,3.55-18.43,13.05-23.29,18.01-2.19,2.23-3.46,2.97-5.5,4.82-7.57,6.86-21.72,26.01-27.06,34.89-12.57,20.9-23.59,52.47-23.59,80.53h0Z"/>
  <path class="cls-1" d="M175.75,279.86l-49.48-49.05,4.71-4.32c10,6.56,37.45,41.11,44.55,41.11,4.27,0,6.43-3.4,8.82-5.81,2.64-2.66,4.67-4.67,7.31-7.31,10.68-10.68,100.28-101.19,104.33-103.9l4.11,4.5-124.36,124.79h0Zm-.21-29.47c-8.53-5.71-38.67-41.3-43.88-41.3s-22.37,18.56-22.37,21.51c0,4.78,9.97,12.98,14.84,17.86l41.3,41.3c9.76,9.77,10.46,9.77,20.22,0,3.22-3.22,5.81-5.81,9.04-9.03l114.87-114.87c11.34-11.34,10.65-10.43-1.29-22.37-15.53-15.53-10.01-15.38-43.45,18.07l-89.27,88.84h0Z"/>
  <path class="cls-1" d="M104.12,111c0,9.4,18.93,18.48,18.93,5.16,0-9.39-18.93-18.48-18.93-5.16h0Z"/>
  <path class="cls-1" d="M303.75,116.16c0,13.32,18.93,4.23,18.93-5.16,0-13.32-18.93-4.23-18.93,5.16h0Z"/>
  <path class="cls-1" d="M104.12,315.79c0,13.32,18.93,4.23,18.93-5.16,0-13.32-18.93-4.23-18.93,5.16h0Z"/>
  <path class="cls-1" d="M303.75,310.63c0,9.39,18.93,18.48,18.93,5.16,0-9.4-18.93-18.48-18.93-5.16h0Z"/>
  <path class="cls-1" d="M61.95,213.39c0,8.18,8.11,6.88,13.77,6.88,9.24,0,9.24-13.77,0-13.77-5.66,0-13.77-1.3-13.77,6.88h0Z"/>
  <path class="cls-1" d="M344.19,213.39c0,8.18,8.11,6.88,13.77,6.88,9.24,0,9.24-13.77,0-13.77-5.66,0-13.77-1.3-13.77,6.88h0Z"/>
  <path class="cls-1" d="M206.51,351.07c0,5.66-1.3,13.77,6.88,13.77s6.88-8.11,6.88-13.77c0-9.24-13.77-9.24-13.77,0h0Z"/>
  <path class="cls-1" d="M206.51,68.84c0,5.66-1.3,13.77,6.88,13.77s6.88-8.11,6.88-13.77c0-9.24-13.77-9.24-13.77,0h0Z"/>
</svg>