<?xml version="1.0" encoding="UTF-8"?>
<!DOCTYPE svg PUBLIC "-//W3C//DTD SVG 1.1//EN" "http://www.w3.org/Graphics/SVG/1.1/DTD/svg11.dtd">
<!-- Creator: CorelDRAW 2020 (64-Bit) -->
<svg xmlns="http://www.w3.org/2000/svg" xml:space="preserve" width="50px" height="50px" version="1.1" style="shape-rendering:geometricPrecision; text-rendering:geometricPrecision; image-rendering:optimizeQuality; fill-rule:evenodd; clip-rule:evenodd"
viewBox="0 0 50 50"
 xmlns:xlink="http://www.w3.org/1999/xlink"
 xmlns:xodm="http://www.corel.com/coreldraw/odm/2003">
 <defs>
  <style type="text/css">
   <![CDATA[
    .fil1 {fill:#000051}
    .fil0 {fill:#FF9933}
   ]]>
  </style>
 </defs>
 <g id="Layer_x0020_1">
  <metadata id="CorelCorpID_0Corel-Layer"/>
  <g id="_1315574529216">
   <path class="fil0" d="M7.39 6.92c-1.45,-0.06 -2.13,-0.07 -3.13,0.68 -0.68,0.51 -1.19,1.41 -1.19,2.69l0 22.94c0,1.06 -0.13,2.71 0.23,3.59 0.32,0.81 1.1,1.58 2.02,1.84 1.01,0.3 6.09,0.13 7.53,0.13 5.14,0 10.27,0 15.4,0 -0.16,-1.41 -0.16,-2.14 0,-3.54l-22.66 0 -0.03 -18.59 31.65 0 0.01 10.07c0.93,-0.08 1.63,0 2.49,-0.03 -0.08,-3.98 0,-8.04 0,-12.03 0,-1.34 0.17,-4.73 -0.21,-5.76 -0.3,-0.81 -0.73,-1.2 -1.39,-1.59 -0.78,-0.48 -1.71,-0.41 -2.72,-0.41 0,1.23 0.18,3.14 -0.32,4.12 -1.17,2.3 -4.51,2.15 -5.51,-0.04 -0.65,-1.4 -0.04,-2.84 -0.35,-4.08l-4.73 0c-0.17,1.32 0.25,2.74 -0.39,3.85 -1.29,2.24 -4.27,1.98 -5.38,0.02 -0.76,-1.33 -0.12,-2.61 -0.43,-3.87l-4.72 0c-0.18,1.32 0.27,2.69 -0.4,3.84 -0.48,0.84 -1.24,1.56 -2.64,1.58 -1.39,0.02 -2.21,-0.72 -2.72,-1.5 -0.59,-0.92 -0.4,-2.7 -0.41,-3.91z"/>
   <path class="fil0" d="M45.73 37.75c-0.41,3.76 -3.75,6.97 -8.03,6.52 -5.13,-0.54 -8.12,-6.13 -5.6,-10.8 0.71,-1.32 1.54,-2.04 2.7,-2.76 1.25,-0.77 2.94,-1.11 4.46,-0.95 3.71,0.4 6.93,3.78 6.47,7.99zm-15.72 -0.15c0.28,4.49 4.2,8.21 9.06,7.88 4.45,-0.31 8.2,-4.19 7.86,-9.04 -0.32,-4.51 -4.2,-8.24 -9.1,-7.88 -4.47,0.33 -8.13,4.17 -7.82,9.04z"/>
   <path class="fil1" d="M16.3 18.44c-0.73,0.18 -0.74,0.56 -0.74,1.39 0.01,0.63 -0.1,1.56 0.23,1.95 0.34,0.39 1.23,0.28 1.87,0.28 0.51,0 1.71,0.06 2.14,-0.02 0.67,-0.13 0.74,-0.65 0.74,-1.4 -0.01,-0.63 0.13,-1.58 -0.26,-1.97 -0.38,-0.38 -1.26,-0.27 -1.89,-0.27 -0.44,0 -1.78,-0.05 -2.09,0.04z"/>
   <path class="fil1" d="M29.58 24.17c-0.67,0.21 -0.65,0.69 -0.65,1.49 0.01,2.18 -0.06,2.12 2.2,2.12 0.46,0 1.79,0.06 2.15,-0.05 0.64,-0.18 0.64,-0.72 0.63,-1.49 0,-0.66 0.12,-1.54 -0.3,-1.9 -0.37,-0.32 -1.31,-0.21 -1.9,-0.21 -0.46,0 -1.79,-0.07 -2.13,0.04z"/>
   <path class="fil1" d="M9.6 18.44c-0.75,0.18 -0.72,0.64 -0.72,1.47 0,2.2 -0.08,2.15 2.15,2.15 2.33,0 2.83,0.32 2.82,-1.5 0,-0.63 0.11,-1.54 -0.25,-1.91 -0.37,-0.37 -1.28,-0.25 -1.91,-0.25 -0.48,0 -1.72,-0.05 -2.09,0.04z"/>
   <path class="fil1" d="M22.86 24.2c-0.71,0.31 -0.61,0.64 -0.61,1.53 0,0.72 -0.12,1.5 0.33,1.85 0.45,0.35 3.85,0.21 4.06,0.14 0.64,-0.2 0.59,-0.78 0.58,-1.55 0,-2.13 0.06,-2.04 -2.28,-2.04 -0.49,0 -1.71,-0.09 -2.08,0.07z"/>
   <path class="fil1" d="M8.88 32.65c0.05,0.71 0.55,0.85 1.28,0.85 0.72,0 1.45,0 2.18,0 0.77,0 1.33,0.01 1.48,-0.68 0.06,-0.25 0.05,-1.8 0.03,-2.12 -0.07,-0.72 -0.54,-0.86 -1.29,-0.85 -0.73,0 -1.45,0 -2.18,0 -0.75,-0.01 -1.31,0.02 -1.47,0.68 -0.06,0.26 -0.05,1.79 -0.03,2.12z"/>
   <path class="fil1" d="M15.56 32.65c0.06,0.72 0.55,0.86 1.29,0.85 0.73,0 1.46,0 2.19,0 0.76,0 1.31,-0.01 1.47,-0.69 0.05,-0.24 0.05,-1.8 0.02,-2.11 -0.06,-0.69 -0.53,-0.86 -1.27,-0.85 -0.73,0 -1.46,0 -2.18,0 -0.77,-0.01 -1.31,0.01 -1.48,0.66 -0.07,0.26 -0.06,1.81 -0.04,2.14z"/>
   <path class="fil1" d="M22.99 18.43c-0.67,0.17 -0.75,0.65 -0.74,1.4 0,0.63 -0.15,1.53 0.25,1.93 0.42,0.43 1.16,0.3 1.86,0.3 2.08,0 2.87,0.36 2.87,-1.42 -0.02,-2.26 0.08,-2.24 -2.14,-2.24 -0.45,0 -1.76,-0.05 -2.1,0.03z"/>
   <path class="fil1" d="M29.68 18.43c-0.71,0.16 -0.75,0.64 -0.75,1.4 0.01,2.19 -0.13,2.23 2.13,2.23 0.47,0 1.76,0.06 2.13,-0.02 0.65,-0.15 0.73,-0.68 0.72,-1.4 -0.01,-2.19 0.14,-2.24 -2.12,-2.24 -0.47,0 -1.75,-0.05 -2.11,0.03z"/>
   <path class="fil1" d="M9.51 24.18c-0.64,0.25 -0.63,0.7 -0.63,1.48 0,2.15 -0.05,2.12 2.22,2.12 2.23,0 2.76,0.3 2.75,-1.54 -0.01,-2.22 0.01,-2.11 -2.24,-2.11 -0.46,0 -1.76,-0.08 -2.1,0.05z"/>
   <path class="fil1" d="M15.56 25.44c0,2.55 -0.04,2.34 2.46,2.34 2.64,0 2.52,0.19 2.52,-2.56 0,-0.71 -0.34,-1.09 -1.06,-1.09l-2.84 0c-0.9,0 -1.08,0.45 -1.08,1.31z"/>
   <path class="fil1" d="M10 4.58c-1.26,0.43 -0.93,1.9 -0.93,3.53 0,0.68 -0.07,1.44 0.23,1.95 0.22,0.4 0.88,0.75 1.6,0.54 1.3,-0.38 0.96,-2.1 0.96,-3.51 0,-0.67 0.1,-1.44 -0.23,-1.99 -0.25,-0.41 -0.91,-0.76 -1.63,-0.52z"/>
   <path class="fil1" d="M31.85 4.95c-1.26,0.46 -0.92,2.06 -0.92,3.52 0,0.66 -0.1,1.44 0.22,1.95 0.25,0.41 0.87,0.74 1.6,0.55 1.29,-0.35 0.96,-2.12 0.96,-3.51 0,-0.68 0.1,-1.46 -0.22,-2 -0.25,-0.42 -0.94,-0.76 -1.64,-0.51z"/>
   <path class="fil1" d="M20.93 4.59c-1.28,0.44 -0.93,2.06 -0.93,3.52 0,0.66 -0.1,1.44 0.22,1.96 0.24,0.38 0.9,0.74 1.6,0.53 1.3,-0.37 0.97,-2.1 0.97,-3.51 0,-0.67 0.1,-1.45 -0.23,-1.99 -0.25,-0.42 -0.92,-0.76 -1.63,-0.51z"/>
   <path class="fil1" d="M36.35 39.44c-0.24,-0.33 -0.85,-0.88 -1.19,-1.21 -0.23,-0.23 -0.92,-1.2 -1.41,-0.71 -0.5,0.5 0.47,1.19 0.71,1.42 1.69,1.7 1.79,2.21 2.6,1.39 0.42,-0.42 0.78,-0.78 1.2,-1.2l4.81 -4.8c0.63,-0.65 -0.07,-1.35 -0.64,-0.87 -0.83,0.68 -5.62,5.8 -6.08,5.98z"/>
  </g>
 </g>
</svg>
