<?xml version="1.0" encoding="UTF-8"?>
<!DOCTYPE svg PUBLIC "-//W3C//DTD SVG 1.1//EN" "http://www.w3.org/Graphics/SVG/1.1/DTD/svg11.dtd">
<!-- Creator: CorelDRAW 2020 (64-Bit) -->
<svg xmlns="http://www.w3.org/2000/svg" xml:space="preserve" width="50px" height="50px" version="1.1" style="shape-rendering:geometricPrecision; text-rendering:geometricPrecision; image-rendering:optimizeQuality; fill-rule:evenodd; clip-rule:evenodd"
viewBox="0 0 50 50"
 xmlns:xlink="http://www.w3.org/1999/xlink"
 xmlns:xodm="http://www.corel.com/coreldraw/odm/2003">
 <defs>
  <style type="text/css">
   <![CDATA[
    .str0 {stroke:#FF9933;stroke-width:2.36;stroke-miterlimit:22.9256}
    .str1 {stroke:#000051;stroke-width:1.77;stroke-miterlimit:22.9256}
    .fil0 {fill:none}
   ]]>
  </style>
 </defs>
 <g id="Layer_x0020_1">
  <metadata id="CorelCorpID_0Corel-Layer"/>
  <g id="_1318033634288">
   <path class="fil0 str0" d="M45.28 26.22c0.17,-1.21 -0.06,-3.64 -0.27,-4.73 -0.26,-1.44 -0.62,-2.66 -1.12,-3.97 -0.68,-1.8 -1.64,-3.38 -2.76,-4.85 -0.19,-0.25 -0.36,-0.49 -0.55,-0.72 -0.72,-0.84 -2.39,-2.5 -3.25,-3.1l-1.51 -1.03c-4.16,-2.69 -9.4,-3.69 -14.32,-2.83 -3.21,0.55 -5.51,1.62 -8.1,3.33 -0.55,0.36 -0.96,0.7 -1.44,1.11 -2.03,1.74 -3.88,3.9 -5.08,6.34 -2.9,5.88 -3.01,12.76 -0.01,18.46 0.4,0.76 0.93,1.71 1.43,2.38 0.51,0.7 1.07,1.5 1.67,2.14 0.21,0.22 0.41,0.43 0.62,0.65l0.67 0.6c1.02,1.02 3.15,2.49 4.48,3.14 2.27,1.1 5.36,2.15 7.98,2.17 1.76,0.01 3.21,0.03 4.83,-0.27 3.11,-0.56 6.4,-1.93 8.8,-3.89 0.56,-0.45 0.78,-0.56 1.37,-1.15 0.24,-0.24 0.44,-0.37 0.67,-0.6 1.26,-1.27 2.39,-2.8 3.28,-4.34 1.27,-2.22 2.26,-5.07 2.51,-7.68l0.1 -1.16z"/>
   <g>
    <path class="fil0 str1" d="M17.47 33.91c1.99,0 14.54,0.07 15.43,-0.02 0,-2.23 -0.95,-4.08 -2.06,-5.19 -0.64,-0.63 -0.27,-0.27 -0.76,-0.66 -0.44,-0.36 -0.83,-0.63 -1.37,-0.88 -1.62,-0.77 -3.95,-0.94 -5.76,-0.47 -1.66,0.43 -3.13,1.47 -4.11,2.83 -0.21,0.29 -0.49,0.75 -0.64,1.11 -0.33,0.75 -0.74,1.73 -0.74,2.73l0.01 0.55z"/>
    <path class="fil0 str1" d="M24.81 16.06c-0.54,0 -1.38,0.28 -1.78,0.51 -0.31,0.16 -0.46,0.25 -0.71,0.44 -1.16,0.89 -1.85,2.29 -1.8,3.83 0.02,0.77 0.17,1.32 0.42,1.89 0.11,0.25 0.26,0.5 0.42,0.72l1.13 1.12c1.34,0.92 3.17,1.16 4.68,0.42 1.07,-0.53 1.6,-1.09 2.18,-2.1 0.17,-0.29 0.49,-1.23 0.49,-1.63 0,-1.16 0.08,-1.53 -0.5,-2.67 -0.48,-0.92 -1.16,-1.57 -2.09,-2.06 -0.86,-0.46 -1.53,-0.47 -2.44,-0.47z"/>
    <path class="fil0 str1" d="M31.61 23.18c0.08,0.57 0.08,0.91 0.33,1.41 0.4,0.79 0.94,1.34 1.77,1.68 3.43,1.41 6.45,-2.87 3.7,-5.62 -1.84,-1.84 -4.75,-0.86 -5.52,1.12 -0.14,0.35 -0.33,1.06 -0.28,1.41z"/>
    <path class="fil0 str1" d="M18.31 23.56c0.12,-0.68 -0.06,-1.59 -0.4,-2.14 -0.4,-0.65 -0.56,-0.81 -1.28,-1.29 -1.58,-1.06 -4.79,-0.21 -5.09,2.51 -0.37,3.35 3.39,4.95 5.56,3.12 0.83,-0.7 1.03,-1.24 1.21,-2.2z"/>
    <path class="fil0 str1" d="M16.84 31.08c0.1,-0.52 0.53,-1.25 0.78,-1.68 0.33,-0.55 0.99,-1.29 1.02,-1.41 -0.04,-0.04 -0.03,-0.03 -0.1,-0.07l-1.24 -0.41c-1.25,-0.3 -1.93,-0.23 -3.17,-0.23 -1,0 -2.63,0.44 -3.28,0.88 -1,0.68 -1.57,1.66 -1.53,2.92l7.52 0z"/>
    <path class="fil0 str1" d="M31.56 27.85c0.8,0.93 1.33,1.62 1.82,2.79 0.1,0.22 0.06,0.33 0.25,0.44l7.06 0c0,-1.06 -0.45,-1.88 -0.99,-2.43 -1.27,-1.3 -3.51,-1.41 -5.36,-1.37 -1.15,0.03 -1.76,0.25 -2.78,0.57z"/>
   </g>
  </g>
 </g>
</svg>
