<svg clip-rule="evenodd" fill-rule="evenodd" height="512" stroke-linejoin="round" stroke-miterlimit="2" viewBox="0 0 267 267" width="512" xmlns="http://www.w3.org/2000/svg"><path d="m175.198 150.834 13.379 10.763c3.615 3.525 9.413 3.497 12.994-.084 3.586-3.586 3.61-9.394.071-13.009.013.014-10.75-13.365-10.75-13.365 4.244-1.656 7.193-5.847 7.046-10.656-.187-6.108-5.298-10.915-11.405-10.728 0 0-21.339.653-21.339.653-5.849.179-10.549 4.879-10.728 10.728 0 0-.653 21.338-.653 21.338-.187 6.108 4.62 11.219 10.728 11.405 4.809.148 9-2.801 10.656-7.044z"/><path d="m42.46 152.962h56.932c4.126 0 7.476-3.35 7.476-7.476 0-4.127-3.35-7.477-7.476-7.477h-56.932c-4.127 0-7.477 3.35-7.477 7.477 0 4.126 3.35 7.476 7.477 7.476z"/><path d="m42.46 126.223h86.701c4.127 0 7.477-3.35 7.477-7.476s-3.35-7.476-7.477-7.476h-86.701c-4.127 0-7.477 3.35-7.477 7.476s3.35 7.476 7.477 7.476z"/><path d="m42.46 99.485h86.701c4.127 0 7.477-3.351 7.477-7.477s-3.35-7.476-7.477-7.476h-86.701c-4.127 0-7.477 3.35-7.477 7.476s3.35 7.477 7.477 7.477z"/><path d="m172.326 59.392c-.08-1.089-.986-1.931-2.078-1.931h-139.2c-9.093 0-16.465 7.371-16.465 16.465v119.487c0 9.093 7.372 16.465 16.465 16.465h172.579c9.093 0 16.465-7.372 16.465-16.465v-97.678c0-.625-.281-1.217-.765-1.612-.483-.396-1.119-.554-1.731-.43-2.434.492-4.95.749-7.526.749-19.947 0-36.312-15.465-37.744-35.05zm-3.97 2.235c2.49 20.82 20.229 36.982 41.714 36.982 1.986 0 3.941-.138 5.855-.406v95.21c0 6.792-5.506 12.298-12.298 12.298-37.063 0-135.517 0-172.579 0-6.792 0-12.298-5.506-12.298-12.298 0-28.347 0-91.14 0-119.487 0-6.793 5.506-12.299 12.298-12.299z"/><path d="m210.07 14.583c-23.187 0-42.013 18.826-42.013 42.013 0 23.188 18.826 42.013 42.013 42.013 23.188 0 42.013-18.825 42.013-42.013 0-23.187-18.825-42.013-42.013-42.013zm-10.657 24.91c-.103 1.359-1.624 21.366-1.624 21.712 0 1.15 0 1.15 0 0 0 4.966 4.032 8.999 8.999 8.999.052 0 .104-.002.156-.006l21.554-1.619c4.031-.045 7.29-3.332 7.29-7.374 0-4.054-3.277-7.348-7.323-7.376.033.001-13.301-1.001-13.301-1.001s-1.001-13.334-1.001-13.334c-.046-4.031-3.333-7.29-7.375-7.29-4.053 0-7.346 3.276-7.375 7.322z"/><path d="m220.092 177.95c0-1.151-.933-2.083-2.084-2.083h-201.342c-1.15 0-2.083.932-2.083 2.083v15.463c0 9.093 7.372 16.465 16.465 16.465h172.579c9.093 0 16.465-7.372 16.465-16.465zm-119.514 17.006h33.519c1.15 0 2.083-.934 2.083-2.084s-.933-2.083-2.083-2.083h-33.519c-1.15 0-2.084.933-2.084 2.083s.934 2.084 2.084 2.084z"/><path d="m174.219 214.045h-113.764l-2.208 4.448c-1.98 3.99-1.757 8.719.59 12.504s6.484 6.088 10.938 6.088h95.125c4.453 0 8.59-2.303 10.937-6.088s2.57-8.514.59-12.504z"/></svg>