<?xml version="1.0" encoding="utf-8"?>
<!-- Generator: Adobe Illustrator 15.0.0, SVG Export Plug-In . SVG Version: 6.00 Build 0)  -->
<!DOCTYPE svg PUBLIC "-//W3C//DTD SVG 1.1//EN" "http://www.w3.org/Graphics/SVG/1.1/DTD/svg11.dtd">
<svg version="1.1" id="Layer_1" xmlns="http://www.w3.org/2000/svg" xmlns:xlink="http://www.w3.org/1999/xlink" x="0px" y="0px"
	 width="54.667px" height="62px" viewBox="0 0 54.667 62" enable-background="new 0 0 54.667 62" xml:space="preserve">
<rect x="7.666" y="45.867" fill-rule="evenodd" clip-rule="evenodd" fill="#F7963C" width="38.499" height="8.446"/>
<path fill-rule="evenodd" clip-rule="evenodd" fill="#F7963C" d="M7.442,45.867h7.519c1.93,0,3.508,1.579,3.508,3.509v7.519
	c0,1.93-1.578,3.508-3.508,3.508H7.442c-1.931,0-3.509-1.579-3.509-3.508v-7.519C3.933,47.446,5.511,45.867,7.442,45.867"/>
<path fill-rule="evenodd" clip-rule="evenodd" fill="#F7963C" d="M39.656,45.867h7.518c1.93,0,3.509,1.579,3.509,3.509v7.519
	c0,1.93-1.579,3.508-3.509,3.508h-7.518c-1.93,0-3.509-1.579-3.509-3.508v-7.519C36.147,47.446,37.726,45.867,39.656,45.867"/>
<path fill-rule="evenodd" clip-rule="evenodd" fill="#F7963C" d="M18.468,56.894v-2.581H7.666v-8.446H7.442
	c-1.931,0-3.509,1.579-3.509,3.509v7.519c0,1.93,1.578,3.508,3.509,3.508h7.519C16.89,60.402,18.468,58.824,18.468,56.894"/>
<path fill-rule="evenodd" clip-rule="evenodd" fill="#F7963C" d="M7.666,54.313h10.803v-4.938c0-1.93-1.578-3.509-3.508-3.509H7.666
	V54.313z"/>
<path fill-rule="evenodd" clip-rule="evenodd" fill="#F7963C" d="M36.147,54.313v2.581c0,1.93,1.579,3.508,3.509,3.508h7.518
	c1.93,0,3.509-1.579,3.509-3.508v-7.519c0-1.93-1.579-3.509-3.509-3.509h-1.009v8.446H36.147z"/>
<path fill-rule="evenodd" clip-rule="evenodd" fill="#F7963C" d="M36.147,54.313h10.018v-8.446h-6.509
	c-1.93,0-3.509,1.579-3.509,3.509V54.313z"/>
<path fill-rule="evenodd" clip-rule="evenodd" fill="#F7963C" d="M36.147,54.313v-4.938c0-1.93,1.579-3.509,3.509-3.509H14.96
	c1.93,0,3.508,1.579,3.508,3.509v4.938H36.147z"/>
<path fill-rule="evenodd" clip-rule="evenodd" fill="#F7963C" d="M26.847,9.274c-13.023,0-23.582,10.342-23.582,23.101
	c0,1.65,0.178,3.26,0.514,4.813h46.137c0.336-1.553,0.513-3.163,0.513-4.813C50.428,19.617,39.871,9.274,26.847,9.274"/>
<path fill-rule="evenodd" clip-rule="evenodd" fill="#F7963C" d="M26.847,1.875c3.314,0,6.002,2.585,6.002,5.775
	s-2.688,5.775-6.002,5.775s-6.003-2.586-6.003-5.775S23.533,1.875,26.847,1.875"/>
<rect x="4.181" y="40.038" fill-rule="evenodd" clip-rule="evenodd" fill="#F7963C" width="45.751" height="3.75"/>
</svg>
