<?xml version="1.0" encoding="utf-8"?>
<!-- Generator: Adobe Illustrator 26.4.1, SVG Export Plug-In . SVG Version: 6.00 Build 0)  -->
<svg version="1.1" id="Layer_1" xmlns:xodm="http://www.corel.com/coreldraw/odm/2003"
	 xmlns="http://www.w3.org/2000/svg" xmlns:xlink="http://www.w3.org/1999/xlink" x="0px" y="0px" viewBox="0 0 236.1 55.8"
	 style="enable-background:new 0 0 236.1 55.8;" xml:space="preserve">
<style type="text/css">
	.st0{fill:none;}
	.st1{clip-path:url(#SVGID_00000096020070126539648900000000405217012443388606_);}
	.st2{clip-path:url(#SVGID_00000097484361496235855790000018043491658952224154_);}
	.st3{clip-path:url(#SVGID_00000031184425502713089300000016786088035258177718_);}
	.st4{clip-path:url(#SVGID_00000132770367189665720050000008291811002550369188_);}
	.st5{clip-path:url(#SVGID_00000075854683648739403430000009782758215513363108_);}
</style>
<g id="Layer_x0020_1">
	<g id="_2733719028576">
		<polygon class="st0" points="64.7,12.7 68.5,12.7 73.4,26.4 78.3,12.7 82.1,12.7 75.2,32 71.6,32 		"/>
		<polygon class="st0" points="84.2,12.7 87.9,12.7 87.9,32 84.2,32 		"/>
		<polygon class="st0" points="89.8,12.7 100.5,12.7 100.5,16.3 97,16.3 97,32 93.3,32 93.3,16.3 89.8,16.3 		"/>
		<polygon class="st0" points="102.6,12.7 113.1,12.7 113.1,16.3 106.2,16.3 106.2,19.8 113.1,19.8 113.1,23.3 106.2,23.3 
			106.2,28.4 113.1,28.4 113.1,32 102.6,32 		"/>
		<polygon class="st0" points="116.7,12.7 120.4,12.7 120.4,28.5 125.8,28.5 125.8,32 116.7,32 		"/>
		<path class="st0" d="M154,15.8l-2.6,2.6c-1.6-1.7-3.6-2.6-5.7-2.6c-1.9,0-3.5,0.6-4.8,1.9c-1.3,1.3-1.9,2.8-1.9,4.6
			c0,1.9,0.7,3.5,2,4.8c1.3,1.3,3,2,4.9,2c1.3,0,2.3-0.3,3.2-0.8c0.9-0.5,1.6-1.4,2.1-2.5h-5.6v-3.5h9.8l0,0.8
			c0,1.7-0.4,3.3-1.3,4.8s-2,2.7-3.4,3.5c-1.4,0.8-3,1.2-4.9,1.2c-2,0-3.8-0.4-5.4-1.3c-1.6-0.9-2.8-2.1-3.7-3.7
			c-0.9-1.6-1.4-3.4-1.4-5.2c0-2.6,0.8-4.8,2.5-6.7c2-2.3,4.6-3.4,7.9-3.4c1.7,0,3.3,0.3,4.7,0.9C151.6,13.6,152.8,14.5,154,15.8
			L154,15.8z"/>
		<polygon class="st0" points="158.3,12.7 161.9,12.7 161.9,28.5 167.3,28.5 167.3,32 158.3,32 		"/>
		<path class="st0" d="M178.2,12.2c2.7,0,5.1,1,7.1,3c2,2,3,4.4,3,7.3c0,2.8-1,5.2-2.9,7.2c-2,2-4.3,2.9-7.1,2.9c-2.9,0-5.3-1-7.2-3
			c-1.9-2-2.9-4.4-2.9-7.2c0-1.9,0.5-3.6,1.3-5.1c0.9-1.6,2.1-2.8,3.7-3.7C174.7,12.6,176.4,12.2,178.2,12.2L178.2,12.2z
			 M178.2,15.8c-1.8,0-3.3,0.6-4.5,1.9c-1.2,1.2-1.8,2.8-1.8,4.8c0,2.1,0.8,3.8,2.3,5.1c1.2,1,2.6,1.5,4.1,1.5
			c1.8,0,3.2-0.6,4.5-1.9c1.2-1.3,1.8-2.8,1.8-4.7c0-1.8-0.6-3.4-1.9-4.7C181.5,16.4,179.9,15.8,178.2,15.8L178.2,15.8z"/>
		<path class="st0" d="M191.3,32V12.7h3c1.8,0,3.1,0.1,3.9,0.3c1.2,0.3,2.1,0.9,2.8,1.7c0.7,0.8,1,1.8,1,3c0,0.7-0.2,1.4-0.5,2
			c-0.3,0.6-0.8,1.2-1.5,1.7c1.2,0.6,2,1.2,2.6,2.1c0.5,0.8,0.8,1.8,0.8,2.9c0,1.1-0.3,2.1-0.8,3c-0.6,0.9-1.3,1.6-2.2,2
			c-0.9,0.4-2.1,0.7-3.7,0.7H191.3L191.3,32z M195,16.2v4.1h0.8c0.9,0,1.6-0.2,2-0.6c0.4-0.4,0.7-0.9,0.7-1.5c0-0.6-0.2-1.1-0.6-1.4
			c-0.4-0.4-1-0.5-1.9-0.5C196,16.2,195,16.2,195,16.2z M195,23.6v5h0.9c1.5,0,2.6-0.2,3.1-0.6c0.5-0.4,0.8-0.9,0.8-1.7
			c0-0.8-0.3-1.5-0.9-2c-0.6-0.5-1.7-0.7-3.1-0.7H195L195,23.6z"/>
		<path class="st0" d="M211.8,12.7h3.7L223,32h-3.8l-1.5-4h-7.9l-1.6,4h-3.8L211.8,12.7L211.8,12.7z M213.7,17.8l-2.6,6.7h5.1
			L213.7,17.8L213.7,17.8z"/>
		<polygon class="st0" points="225.2,12.7 228.9,12.7 228.9,28.5 234.2,28.5 234.2,32 225.2,32 		"/>
		<g>
			<defs>
				<path id="SVGID_1_" d="M64.7,12.7h3.8l4.9,13.8l4.9-13.8h3.8l-7,19.4h-3.6L64.7,12.7L64.7,12.7z M84.2,12.7h3.7V32h-3.7
					C84.2,32,84.2,12.7,84.2,12.7z M89.8,12.7h10.7v3.6H97V32h-3.8V16.3h-3.4C89.8,16.3,89.8,12.7,89.8,12.7z M102.6,12.7h10.6v3.6
					h-6.9v3.5h6.9v3.6h-6.9v5.1h6.9V32h-10.6C102.6,32,102.6,12.7,102.6,12.7z M116.7,12.7h3.7v15.9h5.3V32h-9L116.7,12.7
					L116.7,12.7z M154,15.8l-2.6,2.6c-1.6-1.7-3.6-2.6-5.7-2.6c-1.8,0-3.5,0.6-4.8,1.9c-1.2,1.3-1.9,2.8-1.9,4.6
					c0,1.9,0.7,3.5,2.1,4.8c1.3,1.3,2.9,2,4.9,2c1.2,0,2.3-0.3,3.2-0.8c0.9-0.5,1.6-1.4,2.1-2.5h-5.6v-3.5h9.7l0.1,0.8
					c0,1.7-0.5,3.3-1.4,4.8c-0.9,1.5-2,2.7-3.4,3.5c-1.4,0.8-3,1.2-4.9,1.2c-2.1,0-3.8-0.5-5.4-1.3c-1.6-0.9-2.8-2.1-3.8-3.7
					c-0.9-1.6-1.4-3.4-1.4-5.2c0-2.6,0.9-4.8,2.5-6.7c2.1-2.3,4.7-3.4,7.9-3.4c1.7,0,3.3,0.3,4.7,0.9
					C151.6,13.6,152.8,14.5,154,15.8z M158.2,12.7h3.7v15.9h5.4V32h-9.1V12.7L158.2,12.7z M178.2,12.2c2.7,0,5.1,1,7,3
					c2,2,3,4.4,3,7.3c0,2.8-1,5.2-2.9,7.2c-2,2-4.3,2.9-7.1,2.9c-2.9,0-5.3-1-7.3-3c-1.9-2-2.9-4.4-2.9-7.2c0-1.8,0.5-3.6,1.4-5.1
					c0.9-1.6,2.1-2.8,3.7-3.7C174.7,12.6,176.4,12.2,178.2,12.2L178.2,12.2z M178.1,15.8c-1.8,0-3.3,0.6-4.5,1.9
					c-1.2,1.2-1.8,2.8-1.8,4.7c0,2.1,0.8,3.8,2.3,5.1c1.2,1,2.6,1.5,4.1,1.5c1.8,0,3.3-0.6,4.5-1.9c1.2-1.3,1.8-2.8,1.8-4.7
					c0-1.8-0.6-3.4-1.9-4.7C181.4,16.4,179.9,15.8,178.1,15.8z M191.3,32V12.7h3c1.8,0,3.1,0.1,3.9,0.3c1.2,0.3,2.1,0.9,2.7,1.7
					c0.7,0.8,1,1.8,1,3c0,0.7-0.1,1.4-0.5,2c-0.3,0.6-0.8,1.2-1.5,1.7c1.2,0.5,2.1,1.2,2.6,2.1c0.5,0.8,0.8,1.8,0.8,2.9
					c0,1.1-0.3,2.1-0.9,3c-0.5,0.9-1.2,1.6-2.1,2c-0.9,0.4-2.1,0.7-3.7,0.7L191.3,32L191.3,32z M195,16.2v4.1h0.8
					c0.9,0,1.6-0.2,2-0.6c0.5-0.4,0.7-0.9,0.7-1.6c0-0.6-0.2-1.1-0.6-1.4c-0.4-0.3-1-0.5-1.9-0.5L195,16.2L195,16.2z M195,23.6v5
					h0.9c1.5,0,2.5-0.2,3.1-0.6c0.5-0.4,0.8-0.9,0.8-1.7c0-0.8-0.3-1.5-1-2c-0.6-0.5-1.6-0.7-3.1-0.7L195,23.6L195,23.6z
					 M211.8,12.7h3.8L223,32h-3.8l-1.5-4h-7.9l-1.6,4h-3.8L211.8,12.7L211.8,12.7z M213.7,17.8l-2.6,6.6h5.1L213.7,17.8L213.7,17.8z
					 M225.1,12.7h3.7v15.9h5.4V32h-9.1L225.1,12.7L225.1,12.7z"/>
			</defs>
			<clipPath id="SVGID_00000044177728821409884850000011585012299040444855_">
				<use xlink:href="#SVGID_1_"  style="overflow:visible;"/>
			</clipPath>
			<g style="clip-path:url(#SVGID_00000044177728821409884850000011585012299040444855_);">
				
					<image style="overflow:visible;enable-background:new    ;" width="1000" height="264" xlink:href="7E056442.png"  transform="matrix(0.2413 0 0 0.2413 -2.1086 -4.0655)">
				</image>
			</g>
		</g>
		<path class="st0" d="M76.7,36.5L76,37.2c-0.5-0.5-1-0.7-1.6-0.7c-0.5,0-0.9,0.2-1.3,0.5c-0.3,0.3-0.5,0.8-0.5,1.3
			c0,0.3,0.1,0.7,0.2,0.9c0.1,0.3,0.4,0.5,0.6,0.6c0.3,0.2,0.6,0.2,0.9,0.2c0.3,0,0.5-0.1,0.8-0.2c0.2-0.1,0.5-0.3,0.8-0.6l0.7,0.7
			c-0.4,0.4-0.7,0.6-1.1,0.8c-0.3,0.1-0.7,0.2-1.2,0.2c-0.8,0-1.5-0.3-2-0.8c-0.5-0.5-0.8-1.2-0.8-2c0-0.5,0.1-1,0.4-1.4
			c0.2-0.4,0.6-0.7,1-1c0.4-0.2,0.9-0.4,1.4-0.4c0.4,0,0.8,0.1,1.2,0.3C76.1,35.9,76.4,36.2,76.7,36.5L76.7,36.5z"/>
		<path class="st0" d="M87.1,35.5c0.7,0,1.4,0.3,1.9,0.8c0.5,0.5,0.8,1.2,0.8,1.9c0,0.8-0.3,1.4-0.8,1.9c-0.5,0.5-1.2,0.8-1.9,0.8
			c-0.8,0-1.4-0.3-1.9-0.8c-0.5-0.5-0.8-1.2-0.8-1.9c0-0.5,0.1-1,0.4-1.4c0.2-0.4,0.6-0.7,1-1C86.2,35.6,86.6,35.5,87.1,35.5z
			 M87.1,36.4c-0.5,0-0.9,0.2-1.2,0.5c-0.3,0.3-0.5,0.8-0.5,1.3c0,0.6,0.2,1,0.6,1.4c0.3,0.3,0.7,0.4,1.1,0.4c0.5,0,0.9-0.2,1.2-0.5
			c0.3-0.3,0.5-0.8,0.5-1.3c0-0.5-0.2-0.9-0.5-1.3C88,36.6,87.6,36.4,87.1,36.4L87.1,36.4z"/>
		<polygon class="st0" points="98.4,35.6 99.4,35.6 100.6,39.2 101.8,35.6 102.8,35.6 103.6,40.8 102.7,40.8 102.1,37.5 101,40.8 
			100.1,40.8 99.1,37.5 98.5,40.8 97.5,40.8 		"/>
		<polygon class="st0" points="112.3,35.6 113.3,35.6 114.5,39.2 115.7,35.6 116.6,35.6 117.5,40.8 116.6,40.8 116,37.5 114.9,40.8 
			114,40.8 112.9,37.5 112.4,40.8 111.4,40.8 		"/>
		<path class="st0" d="M125.5,35.6h1V39c0,0.3,0,0.5,0.1,0.6c0.1,0.1,0.1,0.2,0.3,0.3c0.1,0.1,0.3,0.1,0.4,0.1c0.2,0,0.3,0,0.5-0.1
			c0.1-0.1,0.2-0.2,0.3-0.3c0-0.1,0.1-0.4,0.1-0.7v-3.2h1v3.1c0,0.5,0,0.9-0.1,1.1c-0.1,0.2-0.2,0.4-0.3,0.6
			c-0.2,0.2-0.4,0.3-0.6,0.4c-0.2,0.1-0.5,0.1-0.8,0.1c-0.4,0-0.7-0.1-1-0.3c-0.3-0.2-0.5-0.4-0.6-0.6c-0.1-0.3-0.2-0.7-0.2-1.3
			V35.6L125.5,35.6z"/>
		<polygon class="st0" points="137.5,35.6 138.4,35.6 140.6,39 140.6,35.6 141.6,35.6 141.6,40.8 140.7,40.8 138.4,37.4 138.4,40.8 
			137.5,40.8 		"/>
		<polygon class="st0" points="150,35.6 151,35.6 151,40.8 150,40.8 		"/>
		<path class="st0" d="M164.2,36.5l-0.7,0.7c-0.5-0.5-1-0.7-1.6-0.7c-0.5,0-0.9,0.2-1.3,0.5c-0.3,0.3-0.5,0.8-0.5,1.3
			c0,0.3,0.1,0.7,0.2,0.9c0.1,0.3,0.4,0.5,0.6,0.6c0.3,0.2,0.6,0.2,0.9,0.2c0.3,0,0.5-0.1,0.8-0.2c0.2-0.1,0.5-0.3,0.8-0.6l0.7,0.7
			c-0.4,0.4-0.7,0.6-1.1,0.8c-0.3,0.1-0.7,0.2-1.2,0.2c-0.8,0-1.5-0.3-2-0.8c-0.5-0.5-0.8-1.2-0.8-2c0-0.5,0.1-1,0.4-1.4
			c0.2-0.4,0.6-0.7,1-1c0.4-0.2,0.9-0.4,1.4-0.4c0.4,0,0.8,0.1,1.2,0.3C163.6,35.9,163.9,36.2,164.2,36.5L164.2,36.5z"/>
		<path class="st0" d="M173.8,35.6h1l2,5.2h-1l-0.4-1.1h-2.1l-0.4,1.1h-1L173.8,35.6L173.8,35.6z M174.4,37l-0.7,1.8h1.4L174.4,37z"
			/>
		<polygon class="st0" points="184.1,35.6 186.9,35.6 186.9,36.6 186,36.6 186,40.8 185,40.8 185,36.6 184.1,36.6 		"/>
		<polygon class="st0" points="194.8,35.6 195.8,35.6 195.8,40.8 194.8,40.8 		"/>
		<path class="st0" d="M206.6,35.5c0.7,0,1.4,0.3,1.9,0.8c0.5,0.5,0.8,1.2,0.8,1.9c0,0.8-0.3,1.4-0.8,1.9c-0.5,0.5-1.2,0.8-1.9,0.8
			c-0.8,0-1.4-0.3-1.9-0.8c-0.5-0.5-0.8-1.2-0.8-1.9c0-0.5,0.1-1,0.4-1.4c0.2-0.4,0.6-0.7,1-1C205.7,35.6,206.2,35.5,206.6,35.5
			L206.6,35.5z M206.6,36.4c-0.5,0-0.9,0.2-1.2,0.5c-0.3,0.3-0.5,0.8-0.5,1.3c0,0.6,0.2,1,0.6,1.4c0.3,0.3,0.7,0.4,1.1,0.4
			c0.5,0,0.9-0.2,1.2-0.5c0.3-0.3,0.5-0.8,0.5-1.3c0-0.5-0.2-0.9-0.5-1.3C207.5,36.6,207.1,36.4,206.6,36.4L206.6,36.4z"/>
		<polygon class="st0" points="217.5,35.6 218.5,35.6 220.7,39 220.7,35.6 221.7,35.6 221.7,40.8 220.7,40.8 218.5,37.4 218.5,40.8 
			217.5,40.8 		"/>
		<g>
			<defs>
				<path id="SVGID_00000060728482005939542070000015443514523182763198_" d="M76.7,36.5L76,37.2c-0.5-0.5-1-0.7-1.6-0.7
					c-0.5,0-0.9,0.2-1.2,0.5c-0.3,0.3-0.5,0.8-0.5,1.3c0,0.3,0.1,0.7,0.2,0.9c0.2,0.3,0.4,0.5,0.7,0.6c0.3,0.1,0.5,0.2,0.9,0.2
					c0.3,0,0.5-0.1,0.8-0.2c0.2-0.1,0.5-0.3,0.8-0.6l0.7,0.7c-0.4,0.4-0.8,0.6-1.1,0.8s-0.8,0.2-1.2,0.2c-0.8,0-1.5-0.3-2-0.8
					c-0.5-0.5-0.8-1.2-0.8-2c0-0.5,0.1-1,0.3-1.4c0.2-0.4,0.5-0.7,1-1c0.4-0.2,0.9-0.4,1.4-0.4c0.4,0,0.8,0.1,1.2,0.3
					C76.1,35.9,76.4,36.2,76.7,36.5L76.7,36.5z M87.1,35.5c0.8,0,1.4,0.3,1.9,0.8c0.5,0.5,0.8,1.2,0.8,2c0,0.8-0.2,1.4-0.8,1.9
					c-0.5,0.5-1.2,0.8-1.9,0.8c-0.8,0-1.4-0.3-1.9-0.8c-0.5-0.5-0.8-1.2-0.8-1.9c0-0.5,0.1-1,0.4-1.4c0.2-0.4,0.5-0.7,1-1
					C86.1,35.6,86.6,35.5,87.1,35.5L87.1,35.5z M87.1,36.4c-0.5,0-0.9,0.2-1.2,0.5c-0.3,0.3-0.5,0.8-0.5,1.3c0,0.6,0.2,1,0.6,1.4
					c0.3,0.3,0.7,0.4,1.1,0.4c0.5,0,0.9-0.2,1.2-0.5c0.3-0.3,0.5-0.8,0.5-1.3c0-0.5-0.2-0.9-0.5-1.2C88,36.6,87.6,36.4,87.1,36.4z
					 M98.4,35.6h1l1.2,3.6l1.2-3.6h1l0.9,5.2h-1l-0.5-3.3l-1.1,3.3h-0.9l-1.1-3.3l-0.5,3.3h-1L98.4,35.6L98.4,35.6z M112.3,35.6h1
					l1.2,3.6l1.2-3.6h1l0.9,5.2h-1l-0.6-3.3l-1.1,3.3H114l-1.1-3.3l-0.6,3.3h-1L112.3,35.6L112.3,35.6z M125.5,35.6h1V39
					c0,0.3,0,0.5,0.1,0.6c0.1,0.1,0.1,0.2,0.3,0.3c0.1,0.1,0.3,0.1,0.4,0.1c0.2,0,0.3,0,0.5-0.1c0.1-0.1,0.2-0.2,0.2-0.3
					c0.1-0.1,0.1-0.4,0.1-0.7v-3.2h1v3.1c0,0.5,0,0.9-0.1,1.1c-0.1,0.2-0.2,0.4-0.3,0.6c-0.2,0.2-0.3,0.3-0.6,0.4
					c-0.2,0.1-0.4,0.1-0.8,0.1c-0.3,0-0.7-0.1-1-0.3c-0.3-0.2-0.5-0.4-0.6-0.7c-0.1-0.3-0.1-0.7-0.1-1.3L125.5,35.6L125.5,35.6z
					 M137.4,35.6h1l2.3,3.4v-3.4h1v5.2h-1l-2.2-3.4v3.4h-1L137.4,35.6L137.4,35.6z M150,35.6h1v5.2h-1V35.6L150,35.6z M164.2,36.5
					l-0.7,0.7c-0.5-0.5-1-0.7-1.6-0.7c-0.5,0-0.9,0.2-1.2,0.5c-0.3,0.3-0.5,0.8-0.5,1.3c0,0.3,0.1,0.7,0.2,0.9
					c0.2,0.3,0.4,0.5,0.7,0.6c0.3,0.1,0.5,0.2,0.9,0.2c0.3,0,0.5-0.1,0.8-0.2c0.2-0.1,0.5-0.3,0.8-0.6l0.7,0.7
					c-0.4,0.4-0.8,0.6-1.1,0.8c-0.3,0.1-0.8,0.2-1.2,0.2c-0.8,0-1.4-0.3-2-0.8c-0.5-0.5-0.8-1.2-0.8-2c0-0.5,0.1-1,0.3-1.4
					c0.2-0.4,0.5-0.7,1-1c0.4-0.2,0.9-0.4,1.4-0.4c0.4,0,0.8,0.1,1.2,0.3C163.6,35.9,163.9,36.2,164.2,36.5L164.2,36.5z M173.8,35.6
					h1l2,5.2h-1l-0.4-1.1h-2.1l-0.4,1.1h-1L173.8,35.6L173.8,35.6z M174.4,37l-0.8,1.8h1.4L174.4,37z M184.1,35.6h2.9v1h-1v4.2h-1
					v-4.2h-0.9V35.6z M194.8,35.6h1v5.2h-1V35.6L194.8,35.6z M206.7,35.5c0.7,0,1.4,0.3,1.8,0.8c0.5,0.5,0.8,1.2,0.8,2
					c0,0.8-0.3,1.4-0.8,1.9c-0.5,0.5-1.2,0.8-1.9,0.8c-0.8,0-1.4-0.3-2-0.8c-0.5-0.5-0.8-1.2-0.8-1.9c0-0.5,0.1-1,0.3-1.4
					c0.3-0.4,0.6-0.7,1-1C205.7,35.6,206.2,35.5,206.7,35.5L206.7,35.5z M206.7,36.4c-0.5,0-0.9,0.2-1.2,0.5
					c-0.3,0.3-0.5,0.8-0.5,1.3c0,0.6,0.2,1,0.6,1.4c0.3,0.3,0.7,0.4,1.1,0.4c0.5,0,0.8-0.2,1.2-0.5c0.3-0.3,0.5-0.8,0.5-1.3
					c0-0.5-0.2-0.9-0.5-1.2C207.5,36.6,207.1,36.4,206.7,36.4z M217.5,35.6h1l2.2,3.4v-3.4h1v5.2h-1l-2.3-3.4v3.4h-1L217.5,35.6
					L217.5,35.6z M232.9,36.3l-0.8,0.7c-0.2-0.4-0.5-0.5-0.8-0.5c-0.1,0-0.2,0-0.3,0.1c-0.1,0.1-0.1,0.1-0.1,0.2
					c0,0.1,0,0.2,0.1,0.3c0.1,0.1,0.3,0.3,0.7,0.7c0.4,0.3,0.6,0.5,0.7,0.6c0.2,0.2,0.3,0.4,0.5,0.6c0.1,0.2,0.1,0.4,0.1,0.6
					c0,0.4-0.1,0.8-0.4,1.1c-0.3,0.3-0.7,0.4-1.2,0.4c-0.3,0-0.7-0.1-1-0.3c-0.3-0.2-0.5-0.5-0.7-0.8l0.8-0.5
					c0.3,0.5,0.5,0.7,0.8,0.7c0.2,0,0.3-0.1,0.5-0.1c0.1-0.1,0.1-0.2,0.1-0.3c0-0.1,0-0.2-0.1-0.4c-0.1-0.1-0.3-0.3-0.5-0.5
					c-0.5-0.5-1-0.8-1.1-1.1c-0.1-0.3-0.3-0.5-0.3-0.7c0-0.4,0.1-0.7,0.4-0.9c0.3-0.3,0.6-0.4,1-0.4c0.3,0,0.5,0.1,0.8,0.2
					C232.3,35.8,232.6,36,232.9,36.3L232.9,36.3z"/>
			</defs>
			<clipPath id="SVGID_00000083794806236063310320000005158082237055382401_">
				<use xlink:href="#SVGID_00000060728482005939542070000015443514523182763198_"  style="overflow:visible;"/>
			</clipPath>
			<g style="clip-path:url(#SVGID_00000083794806236063310320000005158082237055382401_);">
				
					<image style="overflow:visible;enable-background:new    ;" width="1000" height="264" xlink:href="7E056446.png"  transform="matrix(0.2413 0 0 0.2413 -2.1086 -4.0655)">
				</image>
			</g>
		</g>
		<path class="st0" d="M232.9,36.3l-0.7,0.6c-0.3-0.4-0.5-0.5-0.8-0.5c-0.1,0-0.2,0-0.3,0.1c-0.1,0.1-0.1,0.1-0.1,0.2
			c0,0.1,0,0.2,0.1,0.2c0.1,0.1,0.3,0.3,0.7,0.7c0.4,0.3,0.6,0.5,0.7,0.6c0.2,0.2,0.3,0.4,0.4,0.6c0.1,0.2,0.1,0.4,0.1,0.6
			c0,0.4-0.1,0.8-0.4,1.1c-0.3,0.3-0.7,0.4-1.2,0.4c-0.4,0-0.7-0.1-1-0.3c-0.3-0.2-0.5-0.5-0.7-0.9l0.8-0.5c0.2,0.5,0.5,0.7,0.9,0.7
			c0.2,0,0.3,0,0.4-0.1c0.1-0.1,0.2-0.2,0.2-0.3c0-0.1,0-0.2-0.1-0.4c-0.1-0.1-0.3-0.3-0.6-0.5c-0.6-0.5-0.9-0.8-1.1-1.1
			c-0.2-0.3-0.2-0.5-0.2-0.8c0-0.4,0.1-0.7,0.4-0.9c0.3-0.3,0.6-0.4,1-0.4c0.3,0,0.5,0.1,0.7,0.2C232.4,35.8,232.6,36,232.9,36.3
			L232.9,36.3z"/>
		<polygon class="st0" points="71.5,49.1 71.5,48.6 74.2,48.6 74.2,49.1 73.1,49.1 73.1,53.5 72.6,53.5 72.6,49.1 		"/>
		<path class="st0" d="M74.7,48.4h0.5v2.1c0.2-0.3,0.4-0.4,0.6-0.6c0.2-0.1,0.5-0.2,0.7-0.2c0.3,0,0.5,0.1,0.7,0.2
			c0.2,0.1,0.4,0.3,0.5,0.6c0.1,0.2,0.2,0.6,0.2,1.1v1.9h-0.5v-1.7c0-0.4,0-0.7-0.1-0.8c-0.1-0.2-0.2-0.4-0.3-0.5
			c-0.2-0.1-0.4-0.2-0.6-0.2c-0.3,0-0.5,0.1-0.8,0.3c-0.2,0.2-0.4,0.4-0.4,0.7c0,0.2-0.1,0.5-0.1,1v1.3h-0.5V48.4L74.7,48.4z"/>
		<path class="st0" d="M81.9,52.3l0.4,0.2c-0.1,0.3-0.3,0.5-0.5,0.6c-0.2,0.2-0.4,0.3-0.6,0.4c-0.2,0.1-0.5,0.1-0.7,0.1
			c-0.6,0-1.1-0.2-1.4-0.6c-0.3-0.4-0.5-0.8-0.5-1.3c0-0.5,0.1-0.9,0.4-1.2c0.4-0.5,0.8-0.7,1.4-0.7c0.6,0,1.1,0.2,1.5,0.7
			c0.3,0.3,0.4,0.8,0.4,1.3h-3.3c0,0.4,0.1,0.8,0.4,1c0.3,0.3,0.6,0.4,1,0.4c0.2,0,0.4,0,0.5-0.1c0.2-0.1,0.3-0.2,0.4-0.3
			C81.6,52.7,81.8,52.5,81.9,52.3L81.9,52.3z M81.9,51.3c-0.1-0.2-0.2-0.5-0.3-0.6c-0.1-0.2-0.3-0.3-0.5-0.4
			c-0.2-0.1-0.4-0.1-0.6-0.1c-0.4,0-0.7,0.1-0.9,0.3c-0.2,0.2-0.3,0.4-0.4,0.8H81.9L81.9,51.3z"/>
		<path class="st0" d="M85.3,48.6h0.5v3c0,0.4,0,0.6,0,0.7c0,0.2,0.1,0.4,0.2,0.5c0.1,0.1,0.2,0.2,0.4,0.3c0.2,0.1,0.4,0.1,0.6,0.1
			c0.2,0,0.3,0,0.5-0.1c0.2-0.1,0.3-0.2,0.4-0.3c0.1-0.1,0.2-0.3,0.2-0.4c0-0.1,0-0.4,0-0.8v-3h0.5v3c0,0.4,0,0.8-0.1,1.1
			c-0.1,0.3-0.3,0.5-0.5,0.7c-0.3,0.2-0.6,0.3-0.9,0.3c-0.4,0-0.7-0.1-1-0.3c-0.3-0.2-0.5-0.4-0.6-0.8c-0.1-0.2-0.1-0.5-0.1-1V48.6
			L85.3,48.6z"/>
		<polygon class="st0" points="89.6,48.4 90.1,48.4 90.1,53.5 89.6,53.5 		"/>
		<polygon class="st0" points="91.3,48.5 91.8,48.5 91.8,49.9 92.6,49.9 92.6,50.3 91.8,50.3 91.8,53.5 91.3,53.5 91.3,50.3 
			90.7,50.3 90.7,49.9 91.3,49.9 		"/>
		<path class="st0" d="M93.3,48.4c0.1,0,0.2,0,0.3,0.1c0.1,0.1,0.1,0.2,0.1,0.3c0,0.1,0,0.2-0.1,0.3c-0.1,0.1-0.2,0.1-0.3,0.1
			c-0.1,0-0.2,0-0.3-0.1C93,48.9,93,48.9,93,48.7c0-0.1,0-0.2,0.1-0.3C93.1,48.4,93.2,48.4,93.3,48.4z M93.1,49.9h0.5v3.7h-0.5V49.9
			z"/>
		<path class="st0" d="M94.5,49.9H95v0.6c0.2-0.2,0.3-0.4,0.5-0.5c0.2-0.1,0.5-0.2,0.7-0.2c0.2,0,0.3,0,0.5,0.1
			c0.2,0.1,0.3,0.2,0.4,0.3c0.1,0.1,0.2,0.3,0.3,0.5c0.2-0.3,0.4-0.5,0.6-0.7c0.2-0.1,0.5-0.2,0.8-0.2c0.3,0,0.5,0.1,0.7,0.2
			c0.2,0.1,0.3,0.3,0.4,0.5c0.1,0.2,0.1,0.6,0.1,1v2h-0.5v-2c0-0.4,0-0.7-0.1-0.8c-0.1-0.1-0.2-0.3-0.3-0.4
			c-0.1-0.1-0.3-0.1-0.5-0.1c-0.2,0-0.4,0.1-0.6,0.2c-0.2,0.1-0.3,0.3-0.4,0.5c-0.1,0.2-0.1,0.6-0.1,1.1v1.4H97v-1.9
			c0-0.4,0-0.7-0.1-0.9c-0.1-0.2-0.2-0.3-0.3-0.4c-0.1-0.1-0.3-0.1-0.5-0.1c-0.2,0-0.4,0.1-0.6,0.2c-0.2,0.1-0.3,0.3-0.4,0.5
			C95,51.2,95,51.5,95,52v1.5h-0.5V49.9z"/>
		<path class="st0" d="M104.5,49.9v3.7h-0.5v-0.6c-0.2,0.2-0.4,0.4-0.7,0.5c-0.2,0.1-0.5,0.2-0.8,0.2c-0.5,0-1-0.2-1.3-0.6
			c-0.4-0.4-0.6-0.8-0.6-1.4c0-0.5,0.2-1,0.6-1.4c0.4-0.4,0.8-0.6,1.3-0.6c0.3,0,0.6,0.1,0.8,0.2c0.2,0.1,0.5,0.3,0.6,0.6v-0.7
			H104.5z M102.7,50.2c-0.3,0-0.5,0.1-0.7,0.2c-0.2,0.1-0.4,0.3-0.5,0.5c-0.1,0.2-0.2,0.5-0.2,0.7c0,0.3,0.1,0.5,0.2,0.7
			c0.1,0.2,0.3,0.4,0.5,0.6c0.2,0.1,0.5,0.2,0.7,0.2c0.3,0,0.5-0.1,0.7-0.2c0.2-0.1,0.4-0.3,0.5-0.5c0.1-0.2,0.2-0.5,0.2-0.7
			c0-0.4-0.1-0.8-0.4-1.1C103.4,50.4,103.1,50.2,102.7,50.2L102.7,50.2z"/>
		<polygon class="st0" points="105.8,48.5 106.3,48.5 106.3,49.9 107.1,49.9 107.1,50.3 106.3,50.3 106.3,53.5 105.8,53.5 
			105.8,50.3 105.2,50.3 105.2,49.9 105.8,49.9 		"/>
		<path class="st0" d="M110.6,52.3l0.4,0.2c-0.1,0.3-0.3,0.5-0.5,0.6c-0.2,0.2-0.4,0.3-0.6,0.4c-0.2,0.1-0.5,0.1-0.7,0.1
			c-0.6,0-1.1-0.2-1.4-0.6c-0.3-0.4-0.5-0.8-0.5-1.3c0-0.5,0.1-0.9,0.4-1.2c0.4-0.5,0.8-0.7,1.4-0.7c0.6,0,1.1,0.2,1.5,0.7
			c0.3,0.3,0.4,0.8,0.4,1.3h-3.3c0,0.4,0.1,0.8,0.4,1c0.3,0.3,0.6,0.4,1,0.4c0.2,0,0.4,0,0.5-0.1c0.2-0.1,0.3-0.2,0.4-0.3
			C110.3,52.7,110.4,52.5,110.6,52.3L110.6,52.3z M110.6,51.3c-0.1-0.2-0.2-0.5-0.3-0.6c-0.1-0.2-0.3-0.3-0.5-0.4
			c-0.2-0.1-0.4-0.1-0.6-0.1c-0.4,0-0.7,0.1-0.9,0.3c-0.2,0.2-0.3,0.4-0.4,0.8H110.6L110.6,51.3z"/>
		<path class="st0" d="M114,48.6h1c0.4,0,0.7,0,0.9,0.1c0.2,0.1,0.4,0.2,0.5,0.4c0.1,0.2,0.2,0.4,0.2,0.6c0,0.2-0.1,0.4-0.2,0.6
			c-0.1,0.2-0.3,0.3-0.5,0.4c0.3,0.1,0.5,0.2,0.6,0.3c0.1,0.1,0.2,0.3,0.3,0.4c0.1,0.2,0.1,0.3,0.1,0.5c0,0.4-0.1,0.7-0.4,1
			c-0.3,0.3-0.7,0.4-1.2,0.4H114L114,48.6L114,48.6z M114.4,49.1v1.6h0.3c0.3,0,0.6,0,0.8-0.1c0.2-0.1,0.3-0.2,0.4-0.3
			c0.1-0.1,0.1-0.3,0.1-0.5c0-0.2-0.1-0.4-0.2-0.5c-0.2-0.1-0.4-0.2-0.8-0.2H114.4L114.4,49.1z M114.4,51.1V53h0.6
			c0.4,0,0.6,0,0.8-0.1c0.2-0.1,0.3-0.2,0.4-0.3c0.1-0.2,0.2-0.3,0.2-0.5c0-0.2-0.1-0.4-0.2-0.6c-0.1-0.2-0.3-0.3-0.6-0.3
			c-0.2,0-0.5-0.1-0.9-0.1H114.4L114.4,51.1z"/>
		<path class="st0" d="M117.7,49.9h0.5v1.7c0,0.4,0,0.7,0.1,0.9c0.1,0.2,0.2,0.4,0.4,0.5c0.2,0.1,0.4,0.2,0.7,0.2
			c0.3,0,0.5-0.1,0.7-0.2c0.2-0.1,0.3-0.3,0.4-0.5c0-0.1,0.1-0.4,0.1-0.9v-1.7h0.5v1.8c0,0.5-0.1,0.9-0.2,1.1
			c-0.1,0.3-0.3,0.5-0.5,0.6c-0.2,0.1-0.5,0.2-0.9,0.2c-0.4,0-0.7-0.1-0.9-0.2c-0.2-0.1-0.4-0.3-0.5-0.6c-0.1-0.3-0.2-0.6-0.2-1.2
			L117.7,49.9L117.7,49.9z"/>
		<path class="st0" d="M123.6,50.3l-0.3,0.3c-0.3-0.2-0.5-0.4-0.7-0.4c-0.2,0-0.3,0.1-0.4,0.2c-0.1,0.1-0.2,0.2-0.2,0.4
			c0,0.1,0,0.2,0.1,0.3c0.1,0.1,0.3,0.2,0.6,0.4c0.3,0.2,0.6,0.4,0.7,0.5c0.1,0.2,0.2,0.4,0.2,0.6c0,0.3-0.1,0.6-0.3,0.8
			c-0.2,0.2-0.5,0.3-0.8,0.3c-0.2,0-0.4,0-0.6-0.1c-0.2-0.1-0.4-0.2-0.5-0.4l0.3-0.3c0.2,0.3,0.5,0.4,0.8,0.4c0.2,0,0.3-0.1,0.5-0.2
			c0.1-0.1,0.2-0.3,0.2-0.4c0-0.1,0-0.3-0.1-0.4c-0.1-0.1-0.3-0.2-0.6-0.4c-0.3-0.2-0.6-0.3-0.7-0.5c-0.1-0.2-0.2-0.4-0.2-0.6
			c0-0.3,0.1-0.5,0.3-0.7c0.2-0.2,0.4-0.3,0.7-0.3C123,49.8,123.3,49.9,123.6,50.3L123.6,50.3z"/>
		<path class="st0" d="M124.6,48.4c0.1,0,0.2,0,0.3,0.1s0.1,0.2,0.1,0.3c0,0.1,0,0.2-0.1,0.3c-0.1,0.1-0.2,0.1-0.3,0.1
			c-0.1,0-0.2,0-0.3-0.1c-0.1-0.1-0.1-0.2-0.1-0.3c0-0.1,0-0.2,0.1-0.3C124.4,48.4,124.5,48.4,124.6,48.4z M124.3,49.9h0.5v3.7h-0.5
			V49.9z"/>
		<path class="st0" d="M125.8,49.9h0.5v0.7c0.2-0.3,0.4-0.4,0.6-0.6c0.2-0.1,0.5-0.2,0.7-0.2c0.3,0,0.5,0.1,0.7,0.2
			c0.2,0.1,0.4,0.3,0.5,0.6c0.1,0.2,0.2,0.6,0.2,1.1v1.9h-0.5v-1.7c0-0.4,0-0.7-0.1-0.8c-0.1-0.2-0.2-0.4-0.3-0.5
			c-0.2-0.1-0.4-0.2-0.6-0.2c-0.3,0-0.5,0.1-0.8,0.3c-0.2,0.2-0.4,0.4-0.4,0.7c0,0.2-0.1,0.5-0.1,1v1.3h-0.5L125.8,49.9L125.8,49.9z
			"/>
		<path class="st0" d="M133,52.3l0.4,0.2c-0.1,0.3-0.3,0.5-0.5,0.6c-0.2,0.2-0.4,0.3-0.6,0.4c-0.2,0.1-0.5,0.1-0.7,0.1
			c-0.6,0-1.1-0.2-1.4-0.6c-0.3-0.4-0.5-0.8-0.5-1.3c0-0.5,0.1-0.9,0.4-1.2c0.4-0.5,0.8-0.7,1.4-0.7c0.6,0,1.1,0.2,1.5,0.7
			c0.3,0.3,0.4,0.8,0.4,1.3h-3.3c0,0.4,0.1,0.8,0.4,1c0.3,0.3,0.6,0.4,1,0.4c0.2,0,0.4,0,0.5-0.1c0.2-0.1,0.3-0.2,0.4-0.3
			C132.7,52.7,132.8,52.5,133,52.3L133,52.3z M133,51.3c-0.1-0.2-0.2-0.5-0.3-0.6c-0.1-0.2-0.3-0.3-0.5-0.4
			c-0.2-0.1-0.4-0.1-0.6-0.1c-0.4,0-0.7,0.1-0.9,0.3c-0.2,0.2-0.3,0.4-0.4,0.8H133L133,51.3z"/>
		<path class="st0" d="M136,50.3l-0.3,0.3c-0.3-0.2-0.5-0.4-0.7-0.4c-0.2,0-0.3,0.1-0.4,0.2c-0.1,0.1-0.2,0.2-0.2,0.4
			c0,0.1,0,0.2,0.1,0.3c0.1,0.1,0.3,0.2,0.6,0.4c0.3,0.2,0.6,0.4,0.7,0.5c0.1,0.2,0.2,0.4,0.2,0.6c0,0.3-0.1,0.6-0.3,0.8
			c-0.2,0.2-0.5,0.3-0.8,0.3c-0.2,0-0.4,0-0.6-0.1c-0.2-0.1-0.4-0.2-0.5-0.4l0.3-0.3c0.2,0.3,0.5,0.4,0.8,0.4c0.2,0,0.3-0.1,0.5-0.2
			c0.1-0.1,0.2-0.3,0.2-0.4c0-0.1,0-0.3-0.1-0.4c-0.1-0.1-0.3-0.2-0.6-0.4c-0.3-0.2-0.6-0.3-0.7-0.5c-0.1-0.2-0.2-0.4-0.2-0.6
			c0-0.3,0.1-0.5,0.3-0.7c0.2-0.2,0.4-0.3,0.7-0.3C135.4,49.8,135.7,49.9,136,50.3z"/>
		<path class="st0" d="M138.7,50.3l-0.3,0.3c-0.3-0.2-0.5-0.4-0.7-0.4c-0.2,0-0.3,0.1-0.4,0.2c-0.1,0.1-0.2,0.2-0.2,0.4
			c0,0.1,0,0.2,0.1,0.3c0.1,0.1,0.3,0.2,0.6,0.4c0.3,0.2,0.6,0.4,0.7,0.5c0.1,0.2,0.2,0.4,0.2,0.6c0,0.3-0.1,0.6-0.3,0.8
			c-0.2,0.2-0.5,0.3-0.8,0.3c-0.2,0-0.4,0-0.6-0.1c-0.2-0.1-0.4-0.2-0.5-0.4l0.3-0.3c0.2,0.3,0.5,0.4,0.8,0.4c0.2,0,0.3-0.1,0.5-0.2
			c0.1-0.1,0.2-0.3,0.2-0.4c0-0.1,0-0.3-0.1-0.4c-0.1-0.1-0.3-0.2-0.6-0.4c-0.3-0.2-0.6-0.3-0.7-0.5c-0.1-0.2-0.2-0.4-0.2-0.6
			c0-0.3,0.1-0.5,0.3-0.7c0.2-0.2,0.4-0.3,0.7-0.3C138,49.8,138.3,49.9,138.7,50.3z"/>
		<path class="st0" d="M146.1,49.5l-0.4,0.3c-0.2-0.3-0.5-0.5-0.8-0.6c-0.3-0.1-0.6-0.2-1-0.2c-0.4,0-0.8,0.1-1.1,0.3
			c-0.3,0.2-0.6,0.4-0.8,0.8c-0.2,0.3-0.3,0.7-0.3,1.1c0,0.6,0.2,1.1,0.6,1.5c0.4,0.4,0.9,0.6,1.6,0.6c0.7,0,1.3-0.3,1.7-0.8
			l0.4,0.3c-0.2,0.3-0.6,0.6-0.9,0.7c-0.4,0.2-0.8,0.3-1.2,0.3c-0.9,0-1.5-0.3-2-0.9c-0.4-0.5-0.6-1.1-0.6-1.8
			c0-0.7,0.3-1.3,0.8-1.8c0.5-0.5,1.1-0.7,1.9-0.7c0.5,0,0.9,0.1,1.3,0.3C145.5,48.9,145.8,49.2,146.1,49.5L146.1,49.5z"/>
		<polygon class="st0" points="146.8,48.4 147.2,48.4 147.2,53.5 146.8,53.5 		"/>
		<path class="st0" d="M149.9,49.8c0.6,0,1,0.2,1.4,0.6c0.3,0.4,0.5,0.8,0.5,1.3c0,0.5-0.2,1-0.5,1.3c-0.4,0.4-0.8,0.6-1.4,0.6
			c-0.6,0-1-0.2-1.4-0.6c-0.4-0.4-0.5-0.8-0.5-1.3c0-0.5,0.2-0.9,0.5-1.3C148.9,50,149.3,49.8,149.9,49.8z M149.9,50.2
			c-0.4,0-0.7,0.1-1,0.4c-0.3,0.3-0.4,0.6-0.4,1c0,0.3,0.1,0.5,0.2,0.7c0.1,0.2,0.3,0.4,0.5,0.5c0.2,0.1,0.5,0.2,0.7,0.2
			c0.3,0,0.5-0.1,0.7-0.2c0.2-0.1,0.4-0.3,0.5-0.5c0.1-0.2,0.2-0.5,0.2-0.7c0-0.4-0.1-0.8-0.4-1C150.6,50.4,150.3,50.2,149.9,50.2z"
			/>
		<path class="st0" d="M152.5,49.9h0.5v1.7c0,0.4,0,0.7,0.1,0.9c0.1,0.2,0.2,0.4,0.4,0.5c0.2,0.1,0.4,0.2,0.7,0.2
			c0.3,0,0.5-0.1,0.7-0.2c0.2-0.1,0.3-0.3,0.4-0.5c0-0.1,0.1-0.4,0.1-0.9v-1.7h0.5v1.8c0,0.5-0.1,0.9-0.2,1.1
			c-0.1,0.3-0.3,0.5-0.5,0.6c-0.2,0.1-0.5,0.2-0.9,0.2c-0.4,0-0.7-0.1-0.9-0.2c-0.2-0.1-0.4-0.3-0.5-0.6c-0.1-0.3-0.2-0.6-0.2-1.2
			V49.9L152.5,49.9z"/>
		<path class="st0" d="M160.3,48.4v5.1h-0.5v-0.6c-0.2,0.2-0.4,0.4-0.7,0.5c-0.2,0.1-0.5,0.2-0.8,0.2c-0.5,0-1-0.2-1.3-0.6
			c-0.4-0.4-0.6-0.8-0.6-1.4c0-0.5,0.2-1,0.6-1.4c0.4-0.4,0.8-0.6,1.3-0.6c0.3,0,0.6,0.1,0.8,0.2c0.2,0.1,0.5,0.3,0.6,0.6v-2.1
			H160.3z M158.4,50.2c-0.3,0-0.5,0.1-0.7,0.2c-0.2,0.1-0.4,0.3-0.5,0.5c-0.1,0.2-0.2,0.5-0.2,0.7c0,0.3,0.1,0.5,0.2,0.7
			c0.1,0.2,0.3,0.4,0.5,0.6c0.2,0.1,0.5,0.2,0.7,0.2c0.3,0,0.5-0.1,0.7-0.2c0.2-0.1,0.4-0.3,0.5-0.5c0.1-0.2,0.2-0.5,0.2-0.7
			c0-0.4-0.1-0.8-0.4-1.1C159.1,50.4,158.8,50.2,158.4,50.2L158.4,50.2z"/>
		<polygon class="st0" points="162.9,48.6 163.5,48.6 165.1,52.4 166.8,48.6 167.3,48.6 165.2,53.5 165.1,53.5 		"/>
		<path class="st0" d="M169.2,49.8c0.6,0,1,0.2,1.4,0.6c0.3,0.4,0.5,0.8,0.5,1.3c0,0.5-0.2,1-0.5,1.3c-0.4,0.4-0.8,0.6-1.4,0.6
			c-0.6,0-1-0.2-1.4-0.6c-0.4-0.4-0.5-0.8-0.5-1.3c0-0.5,0.2-0.9,0.5-1.3C168.2,50,168.6,49.8,169.2,49.8z M169.2,50.2
			c-0.4,0-0.7,0.1-1,0.4c-0.3,0.3-0.4,0.6-0.4,1c0,0.3,0.1,0.5,0.2,0.7c0.1,0.2,0.3,0.4,0.5,0.5c0.2,0.1,0.5,0.2,0.7,0.2
			c0.3,0,0.5-0.1,0.7-0.2c0.2-0.1,0.4-0.3,0.5-0.5c0.1-0.2,0.2-0.5,0.2-0.7c0-0.4-0.1-0.8-0.4-1C169.9,50.4,169.6,50.2,169.2,50.2z"
			/>
		<path class="st0" d="M172.1,48.4c0.1,0,0.2,0,0.3,0.1c0.1,0.1,0.1,0.2,0.1,0.3c0,0.1,0,0.2-0.1,0.3c-0.1,0.1-0.2,0.1-0.3,0.1
			c-0.1,0-0.2,0-0.3-0.1c-0.1-0.1-0.1-0.2-0.1-0.3c0-0.1,0-0.2,0.1-0.3S172,48.4,172.1,48.4z M171.8,49.9h0.5v3.7h-0.5V49.9z"/>
		<path class="st0" d="M176.7,50.6l-0.4,0.2c-0.3-0.4-0.8-0.6-1.3-0.6c-0.4,0-0.8,0.1-1.1,0.4c-0.3,0.3-0.4,0.6-0.4,1
			c0,0.3,0.1,0.5,0.2,0.8c0.1,0.2,0.3,0.4,0.6,0.5c0.2,0.1,0.5,0.2,0.8,0.2c0.5,0,1-0.2,1.3-0.6l0.4,0.2c-0.2,0.3-0.4,0.5-0.7,0.6
			c-0.3,0.1-0.6,0.2-1,0.2c-0.6,0-1.1-0.2-1.4-0.6c-0.4-0.4-0.6-0.8-0.6-1.3c0-0.4,0.1-0.7,0.3-1c0.2-0.3,0.4-0.5,0.7-0.7
			c0.3-0.2,0.7-0.3,1-0.3c0.2,0,0.5,0,0.7,0.1c0.2,0.1,0.4,0.2,0.6,0.3C176.5,50.3,176.6,50.4,176.7,50.6L176.7,50.6z"/>
		<path class="st0" d="M180.5,52.3l0.4,0.2c-0.1,0.3-0.3,0.5-0.5,0.6c-0.2,0.2-0.4,0.3-0.6,0.4c-0.2,0.1-0.5,0.1-0.7,0.1
			c-0.6,0-1.1-0.2-1.4-0.6c-0.3-0.4-0.5-0.8-0.5-1.3c0-0.5,0.1-0.9,0.4-1.2c0.4-0.5,0.8-0.7,1.4-0.7c0.6,0,1.1,0.2,1.5,0.7
			c0.3,0.3,0.4,0.8,0.4,1.3h-3.3c0,0.4,0.1,0.8,0.4,1c0.3,0.3,0.6,0.4,1,0.4c0.2,0,0.4,0,0.5-0.1c0.2-0.1,0.3-0.2,0.4-0.3
			C180.2,52.7,180.3,52.5,180.5,52.3L180.5,52.3z M180.5,51.3c-0.1-0.2-0.2-0.5-0.3-0.6c-0.1-0.2-0.3-0.3-0.5-0.4
			c-0.2-0.1-0.4-0.1-0.6-0.1c-0.4,0-0.7,0.1-0.9,0.3c-0.2,0.2-0.3,0.4-0.4,0.8H180.5z"/>
		<path class="st0" d="M187.6,51.7l0.3,0.4c-0.2,0.2-0.4,0.4-0.6,0.5c0.1,0.1,0.3,0.3,0.5,0.5c0.2,0.2,0.3,0.3,0.4,0.5h-0.7
			l-0.6-0.7c-0.4,0.3-0.8,0.5-1,0.6c-0.3,0.1-0.5,0.2-0.8,0.2c-0.4,0-0.7-0.1-0.9-0.3c-0.2-0.2-0.3-0.5-0.3-0.8
			c0-0.2,0.1-0.5,0.2-0.7c0.2-0.2,0.5-0.6,1-0.9c-0.3-0.3-0.4-0.6-0.5-0.7c-0.1-0.2-0.1-0.3-0.1-0.4c0-0.2,0.1-0.5,0.3-0.6
			c0.2-0.2,0.5-0.3,0.8-0.3c0.2,0,0.4,0,0.6,0.1c0.2,0.1,0.3,0.2,0.4,0.3c0.1,0.1,0.1,0.3,0.1,0.4c0,0.2-0.1,0.3-0.2,0.5
			c-0.1,0.2-0.3,0.4-0.7,0.7l0.7,0.8l0.5,0.5C187.2,52,187.4,51.8,187.6,51.7L187.6,51.7z M185.4,50.5c0.2-0.2,0.4-0.4,0.5-0.5
			c0.1-0.1,0.1-0.2,0.1-0.3c0-0.1-0.1-0.2-0.2-0.3c-0.1-0.1-0.3-0.1-0.4-0.1c-0.2,0-0.3,0-0.4,0.1c-0.1,0.1-0.2,0.2-0.2,0.3
			c0,0.1,0,0.2,0.1,0.3C185.1,50.1,185.2,50.3,185.4,50.5L185.4,50.5z M185.4,51.2c-0.4,0.3-0.7,0.6-0.8,0.8
			c-0.1,0.2-0.2,0.4-0.2,0.5c0,0.2,0.1,0.4,0.2,0.5c0.2,0.1,0.4,0.2,0.6,0.2c0.2,0,0.3,0,0.5-0.1c0.3-0.1,0.6-0.3,0.9-0.6l-0.8-0.8
			C185.7,51.5,185.5,51.4,185.4,51.2L185.4,51.2z"/>
		<path class="st0" d="M191,53.5v-4.9h1c0.7,0,1.3,0.1,1.6,0.2c0.5,0.2,0.9,0.5,1.1,0.9c0.3,0.4,0.4,0.9,0.4,1.5
			c0,0.5-0.1,0.9-0.3,1.3c-0.2,0.4-0.5,0.7-0.8,0.8c-0.3,0.2-0.8,0.3-1.4,0.3H191L191,53.5z M191.4,53.1h0.6c0.7,0,1.2,0,1.4-0.1
			c0.4-0.1,0.7-0.3,0.9-0.7c0.2-0.3,0.3-0.7,0.3-1.2c0-0.5-0.1-0.9-0.3-1.2c-0.2-0.3-0.6-0.6-1-0.7c-0.3-0.1-0.8-0.1-1.5-0.1h-0.3
			V53.1L191.4,53.1z"/>
		<path class="st0" d="M199.6,49.9v3.7h-0.5v-0.6c-0.2,0.2-0.4,0.4-0.7,0.5c-0.2,0.1-0.5,0.2-0.8,0.2c-0.5,0-1-0.2-1.3-0.6
			c-0.4-0.4-0.6-0.8-0.6-1.4c0-0.5,0.2-1,0.6-1.4c0.4-0.4,0.8-0.6,1.3-0.6c0.3,0,0.6,0.1,0.8,0.2c0.2,0.1,0.5,0.3,0.6,0.6v-0.7
			H199.6L199.6,49.9z M197.7,50.2c-0.3,0-0.5,0.1-0.7,0.2c-0.2,0.1-0.4,0.3-0.5,0.5c-0.1,0.2-0.2,0.5-0.2,0.7c0,0.3,0.1,0.5,0.2,0.7
			c0.1,0.2,0.3,0.4,0.5,0.6c0.2,0.1,0.5,0.2,0.7,0.2c0.3,0,0.5-0.1,0.7-0.2c0.2-0.1,0.4-0.3,0.5-0.5c0.1-0.2,0.2-0.5,0.2-0.7
			c0-0.4-0.1-0.8-0.4-1.1C198.5,50.4,198.1,50.2,197.7,50.2z"/>
		<polygon class="st0" points="200.9,48.5 201.3,48.5 201.3,49.9 202.1,49.9 202.1,50.3 201.3,50.3 201.3,53.5 200.9,53.5 
			200.9,50.3 200.2,50.3 200.2,49.9 200.9,49.9 		"/>
		<path class="st0" d="M206.1,49.9v3.7h-0.5v-0.6c-0.2,0.2-0.4,0.4-0.7,0.5c-0.2,0.1-0.5,0.2-0.8,0.2c-0.5,0-1-0.2-1.3-0.6
			c-0.4-0.4-0.6-0.8-0.6-1.4c0-0.5,0.2-1,0.6-1.4c0.4-0.4,0.8-0.6,1.3-0.6c0.3,0,0.6,0.1,0.8,0.2c0.2,0.1,0.5,0.3,0.6,0.6v-0.7
			H206.1L206.1,49.9z M204.2,50.2c-0.3,0-0.5,0.1-0.7,0.2c-0.2,0.1-0.4,0.3-0.5,0.5c-0.1,0.2-0.2,0.5-0.2,0.7c0,0.3,0.1,0.5,0.2,0.7
			c0.1,0.2,0.3,0.4,0.5,0.6c0.2,0.1,0.5,0.2,0.7,0.2c0.3,0,0.5-0.1,0.7-0.2c0.2-0.1,0.4-0.3,0.5-0.5c0.1-0.2,0.2-0.5,0.2-0.7
			c0-0.4-0.1-0.8-0.4-1.1C205,50.4,204.7,50.2,204.2,50.2z"/>
		<path class="st0" d="M208.7,52.6l0.4-0.3c0.3,0.5,0.6,0.8,1,0.8c0.2,0,0.3,0,0.5-0.1c0.1-0.1,0.3-0.2,0.3-0.3
			c0.1-0.1,0.1-0.3,0.1-0.4c0-0.2-0.1-0.3-0.2-0.5c-0.2-0.2-0.4-0.5-0.8-0.8c-0.4-0.3-0.7-0.5-0.8-0.7c-0.2-0.2-0.3-0.5-0.3-0.8
			c0-0.2,0.1-0.4,0.2-0.6c0.1-0.2,0.2-0.3,0.4-0.4c0.2-0.1,0.4-0.2,0.6-0.2c0.2,0,0.5,0.1,0.7,0.2c0.2,0.1,0.4,0.3,0.6,0.6l-0.4,0.3
			c-0.2-0.2-0.3-0.4-0.5-0.5c-0.1-0.1-0.3-0.1-0.4-0.1c-0.2,0-0.4,0.1-0.5,0.2c-0.1,0.1-0.2,0.3-0.2,0.4c0,0.1,0,0.2,0.1,0.3
			c0,0.1,0.1,0.2,0.2,0.3c0.1,0.1,0.3,0.2,0.6,0.5c0.4,0.3,0.7,0.6,0.9,0.8c0.2,0.2,0.2,0.5,0.2,0.7c0,0.4-0.1,0.7-0.4,0.9
			c-0.3,0.3-0.6,0.4-1,0.4c-0.3,0-0.6-0.1-0.8-0.2C209.1,53.2,208.9,53,208.7,52.6L208.7,52.6z"/>
		<path class="st0" d="M215.4,52.3l0.4,0.2c-0.1,0.3-0.3,0.5-0.5,0.6c-0.2,0.2-0.4,0.3-0.6,0.4c-0.2,0.1-0.5,0.1-0.7,0.1
			c-0.6,0-1.1-0.2-1.4-0.6c-0.3-0.4-0.5-0.8-0.5-1.3c0-0.5,0.1-0.9,0.4-1.2c0.4-0.5,0.8-0.7,1.4-0.7c0.6,0,1.1,0.2,1.5,0.7
			c0.3,0.3,0.4,0.8,0.4,1.3h-3.3c0,0.4,0.1,0.8,0.4,1c0.3,0.3,0.6,0.4,1,0.4c0.2,0,0.4,0,0.5-0.1c0.2-0.1,0.3-0.2,0.4-0.3
			C215.2,52.7,215.3,52.5,215.4,52.3L215.4,52.3z M215.4,51.3c-0.1-0.2-0.2-0.5-0.3-0.6c-0.1-0.2-0.3-0.3-0.5-0.4
			c-0.2-0.1-0.4-0.1-0.6-0.1c-0.4,0-0.7,0.1-0.9,0.3c-0.2,0.2-0.3,0.4-0.4,0.8H215.4z"/>
		<path class="st0" d="M216.6,49.9h0.5v0.5c0.1-0.2,0.3-0.4,0.5-0.5c0.2-0.1,0.3-0.2,0.5-0.2c0.1,0,0.3,0,0.4,0.1l-0.2,0.4
			c-0.1,0-0.2-0.1-0.2-0.1c-0.2,0-0.3,0.1-0.5,0.2c-0.1,0.1-0.3,0.3-0.3,0.6c-0.1,0.2-0.1,0.6-0.1,1.3v1.2h-0.5V49.9L216.6,49.9z"/>
		<polygon class="st0" points="218.8,49.9 219.3,49.9 220.5,52.5 221.7,49.9 222.2,49.9 220.5,53.5 220.4,53.5 		"/>
		<path class="st0" d="M223,48.4c0.1,0,0.2,0,0.3,0.1c0.1,0.1,0.1,0.2,0.1,0.3c0,0.1,0,0.2-0.1,0.3c-0.1,0.1-0.2,0.1-0.3,0.1
			c-0.1,0-0.2,0-0.3-0.1c-0.1-0.1-0.1-0.2-0.1-0.3c0-0.1,0-0.2,0.1-0.3S222.9,48.4,223,48.4z M222.8,49.9h0.5v3.7h-0.5V49.9z"/>
		<path class="st0" d="M227.7,50.6l-0.4,0.2c-0.3-0.4-0.8-0.6-1.3-0.6c-0.4,0-0.8,0.1-1.1,0.4c-0.3,0.3-0.4,0.6-0.4,1
			c0,0.3,0.1,0.5,0.2,0.8c0.1,0.2,0.3,0.4,0.6,0.5c0.2,0.1,0.5,0.2,0.8,0.2c0.5,0,1-0.2,1.3-0.6l0.4,0.2c-0.2,0.3-0.4,0.5-0.7,0.6
			c-0.3,0.1-0.6,0.2-1,0.2c-0.6,0-1.1-0.2-1.4-0.6c-0.4-0.4-0.6-0.8-0.6-1.3c0-0.4,0.1-0.7,0.3-1c0.2-0.3,0.4-0.5,0.7-0.7
			c0.3-0.2,0.7-0.3,1-0.3c0.2,0,0.5,0,0.7,0.1c0.2,0.1,0.4,0.2,0.6,0.3C227.4,50.3,227.6,50.4,227.7,50.6L227.7,50.6z"/>
		<path class="st0" d="M231.4,52.3l0.4,0.2c-0.1,0.3-0.3,0.5-0.5,0.6c-0.2,0.2-0.4,0.3-0.6,0.4c-0.2,0.1-0.5,0.1-0.7,0.1
			c-0.6,0-1.1-0.2-1.4-0.6c-0.3-0.4-0.5-0.8-0.5-1.3c0-0.5,0.1-0.9,0.4-1.2c0.4-0.5,0.8-0.7,1.4-0.7c0.6,0,1.1,0.2,1.5,0.7
			c0.3,0.3,0.4,0.8,0.4,1.3h-3.3c0,0.4,0.1,0.8,0.4,1c0.3,0.3,0.6,0.4,1,0.4c0.2,0,0.4,0,0.5-0.1c0.2-0.1,0.3-0.2,0.4-0.3
			C231.1,52.7,231.3,52.5,231.4,52.3L231.4,52.3z M231.4,51.3c-0.1-0.2-0.2-0.5-0.3-0.6c-0.1-0.2-0.3-0.3-0.5-0.4
			c-0.2-0.1-0.4-0.1-0.6-0.1c-0.4,0-0.7,0.1-0.9,0.3c-0.2,0.2-0.3,0.4-0.4,0.8H231.4z"/>
		<g>
			<defs>
				<path id="SVGID_00000103232289183282515310000012420046974554685104_" d="M71.4,49v-0.5h2.7V49h-1.1v4.5h-0.5V49H71.4z
					 M74.7,48.5h0.5v2.1c0.2-0.3,0.4-0.4,0.6-0.6c0.3-0.1,0.5-0.2,0.8-0.2c0.3,0,0.5,0.1,0.8,0.2c0.2,0.1,0.3,0.3,0.5,0.6
					c0.1,0.2,0.1,0.6,0.1,1.1v1.9h-0.5v-1.8c0-0.4,0-0.7-0.1-0.8c-0.1-0.2-0.1-0.4-0.3-0.5c-0.2-0.1-0.4-0.2-0.6-0.2
					c-0.3,0-0.5,0.1-0.8,0.3c-0.3,0.2-0.4,0.4-0.5,0.7c-0.1,0.2-0.1,0.5-0.1,1v1.4h-0.5V48.5L74.7,48.5z M81.9,52.3l0.4,0.2
					c-0.1,0.3-0.3,0.5-0.4,0.6c-0.2,0.2-0.4,0.3-0.6,0.4c-0.2,0.1-0.4,0.1-0.7,0.1c-0.6,0-1.1-0.2-1.4-0.6c-0.3-0.4-0.5-0.8-0.5-1.3
					c0-0.5,0.1-0.9,0.4-1.2c0.3-0.5,0.8-0.7,1.4-0.7s1.2,0.2,1.5,0.7c0.3,0.3,0.4,0.8,0.4,1.2h-3.3c0,0.4,0.1,0.8,0.4,1
					c0.3,0.3,0.5,0.4,1,0.4c0.2,0,0.3,0,0.5-0.1c0.2-0.1,0.3-0.2,0.5-0.3C81.6,52.7,81.8,52.6,81.9,52.3L81.9,52.3z M81.9,51.3
					c-0.1-0.3-0.1-0.5-0.3-0.6c-0.1-0.1-0.3-0.3-0.5-0.4c-0.1-0.1-0.4-0.1-0.6-0.1c-0.3,0-0.6,0.1-0.9,0.3c-0.2,0.2-0.3,0.4-0.4,0.8
					H81.9L81.9,51.3z M85.3,48.6h0.5v3c0,0.4,0,0.6,0,0.7c0.1,0.2,0.1,0.3,0.2,0.5c0.1,0.1,0.2,0.2,0.4,0.3c0.2,0.1,0.3,0.1,0.5,0.1
					c0.2,0,0.3,0,0.5-0.1c0.1-0.1,0.3-0.2,0.4-0.3c0.1-0.1,0.1-0.3,0.2-0.5c0-0.1,0.1-0.4,0.1-0.8v-3h0.5v3c0,0.4-0.1,0.8-0.1,1.1
					c-0.1,0.3-0.3,0.5-0.5,0.7c-0.2,0.2-0.5,0.3-0.9,0.3c-0.4,0-0.8-0.1-1-0.3c-0.3-0.2-0.5-0.5-0.6-0.8c-0.1-0.2-0.1-0.5-0.1-1
					L85.3,48.6L85.3,48.6z M89.6,48.5h0.5v5.1h-0.5V48.5z M91.3,48.5h0.5v1.4h0.8v0.4h-0.8v3.3h-0.5v-3.3h-0.6v-0.4h0.6V48.5z
					 M93.3,48.4c0.1,0,0.2,0,0.3,0.1c0.1,0.1,0.1,0.2,0.1,0.3c0,0.1,0,0.2-0.1,0.3c-0.1,0.1-0.1,0.1-0.3,0.1c-0.1,0-0.1-0.1-0.3-0.1
					C93,48.9,93,48.8,93,48.7c0-0.1,0-0.2,0.1-0.3C93.2,48.4,93.3,48.4,93.3,48.4z M93.1,49.9h0.5v3.7h-0.5V49.9z M94.6,49.9H95v0.6
					c0.1-0.2,0.3-0.4,0.5-0.5c0.2-0.1,0.5-0.2,0.8-0.2c0.1,0,0.3,0,0.5,0.1c0.2,0.1,0.3,0.2,0.4,0.3c0.1,0.1,0.2,0.3,0.3,0.5
					c0.1-0.3,0.3-0.5,0.5-0.7c0.3-0.1,0.5-0.2,0.8-0.2c0.3,0,0.5,0.1,0.7,0.2c0.2,0.1,0.3,0.3,0.5,0.5c0.1,0.2,0.1,0.6,0.1,1v2h-0.5
					v-2c0-0.4-0.1-0.7-0.1-0.8c0-0.1-0.1-0.3-0.3-0.3c-0.1-0.1-0.3-0.1-0.5-0.1c-0.2,0-0.4,0.1-0.6,0.2c-0.2,0.1-0.3,0.3-0.4,0.5
					c-0.1,0.2-0.1,0.6-0.1,1.1v1.4H97v-1.9c0-0.5,0-0.7-0.1-0.9c-0.1-0.2-0.1-0.3-0.3-0.4c-0.1-0.1-0.3-0.1-0.5-0.1
					c-0.3,0-0.5,0.1-0.6,0.2c-0.2,0.1-0.3,0.3-0.4,0.5C95,51.2,95,51.5,95,52v1.6h-0.5L94.6,49.9L94.6,49.9z M104.5,49.9v3.7h-0.5
					v-0.6c-0.1,0.2-0.4,0.4-0.6,0.5c-0.3,0.1-0.5,0.2-0.8,0.2c-0.5,0-1-0.2-1.3-0.6c-0.4-0.4-0.5-0.8-0.5-1.4c0-0.5,0.1-1,0.5-1.4
					c0.3-0.4,0.8-0.6,1.3-0.6c0.3,0,0.5,0.1,0.8,0.2c0.3,0.1,0.5,0.3,0.6,0.6v-0.7H104.5z M102.7,50.2c-0.3,0-0.5,0.1-0.8,0.2
					c-0.2,0.1-0.4,0.3-0.5,0.5c-0.1,0.2-0.2,0.5-0.2,0.7c0,0.3,0.1,0.5,0.2,0.7c0.1,0.2,0.3,0.4,0.5,0.5c0.2,0.1,0.5,0.2,0.8,0.2
					c0.2,0,0.5-0.1,0.7-0.2c0.3-0.1,0.4-0.3,0.5-0.5c0.1-0.2,0.2-0.5,0.2-0.8c0-0.4-0.1-0.8-0.4-1C103.4,50.4,103.1,50.2,102.7,50.2
					L102.7,50.2z M105.8,48.5h0.5v1.4h0.8v0.4h-0.8v3.3h-0.5v-3.3h-0.6v-0.4h0.6V48.5z M110.6,52.3l0.4,0.2
					c-0.1,0.3-0.3,0.5-0.5,0.6c-0.1,0.2-0.3,0.3-0.5,0.4c-0.2,0.1-0.5,0.1-0.8,0.1c-0.5,0-1-0.2-1.4-0.6c-0.3-0.4-0.5-0.8-0.5-1.3
					c0-0.5,0.2-0.9,0.5-1.2c0.3-0.5,0.8-0.7,1.4-0.7c0.6,0,1.1,0.2,1.5,0.7c0.3,0.3,0.4,0.8,0.4,1.2h-3.3c0,0.4,0.1,0.8,0.4,1
					c0.2,0.3,0.5,0.4,1,0.4c0.1,0,0.3,0,0.5-0.1c0.1-0.1,0.3-0.2,0.4-0.3C110.3,52.7,110.4,52.6,110.6,52.3L110.6,52.3z M110.6,51.3
					c-0.1-0.3-0.1-0.5-0.3-0.6c-0.1-0.1-0.3-0.3-0.5-0.4c-0.2-0.1-0.4-0.1-0.6-0.1c-0.3,0-0.7,0.1-1,0.3c-0.1,0.2-0.3,0.4-0.4,0.8
					H110.6L110.6,51.3z M114,48.6h1c0.4,0,0.7,0,0.9,0.1c0.2,0.1,0.4,0.2,0.5,0.4c0.1,0.2,0.2,0.4,0.2,0.7c0,0.2-0.1,0.4-0.1,0.6
					c-0.1,0.2-0.3,0.3-0.5,0.4c0.3,0.1,0.4,0.2,0.5,0.3c0.1,0.1,0.3,0.3,0.3,0.4c0.1,0.2,0.1,0.3,0.1,0.5c0,0.4-0.1,0.7-0.4,1
					c-0.3,0.3-0.7,0.4-1.2,0.4H114L114,48.6L114,48.6z M114.5,49.1v1.6h0.3c0.3,0,0.6,0,0.8-0.1c0.1-0.1,0.3-0.2,0.3-0.3
					c0.1-0.1,0.2-0.3,0.2-0.5c0-0.2-0.1-0.4-0.3-0.5c-0.1-0.1-0.4-0.2-0.8-0.2L114.5,49.1L114.5,49.1z M114.5,51.1V53h0.6
					c0.3,0,0.6,0,0.8-0.1c0.2-0.1,0.3-0.2,0.4-0.3c0.1-0.2,0.1-0.3,0.1-0.5c0-0.2-0.1-0.4-0.2-0.6c-0.1-0.2-0.3-0.3-0.5-0.3
					c-0.2,0-0.5-0.1-0.9-0.1L114.5,51.1L114.5,51.1z M117.7,49.9h0.5v1.7c0,0.4,0,0.7,0.1,0.8c0.1,0.2,0.2,0.4,0.4,0.5
					c0.1,0.1,0.4,0.2,0.6,0.2c0.3,0,0.5-0.1,0.7-0.2c0.2-0.1,0.3-0.3,0.4-0.5c0-0.1,0.1-0.4,0.1-0.9v-1.7h0.5v1.8
					c0,0.5-0.1,0.9-0.2,1.1c-0.1,0.3-0.3,0.5-0.5,0.6c-0.2,0.1-0.5,0.2-0.9,0.2c-0.3,0-0.6-0.1-0.9-0.2c-0.2-0.1-0.4-0.3-0.5-0.6
					c-0.1-0.3-0.2-0.7-0.2-1.2L117.7,49.9L117.7,49.9z M123.6,50.3l-0.3,0.3c-0.3-0.2-0.5-0.4-0.8-0.4c-0.1,0-0.3,0.1-0.4,0.1
					c-0.1,0.1-0.1,0.2-0.1,0.4c0,0.1,0.1,0.2,0.1,0.3c0.1,0.1,0.3,0.2,0.5,0.4c0.3,0.2,0.6,0.4,0.8,0.5c0.1,0.2,0.1,0.4,0.1,0.6
					c0,0.3-0.1,0.6-0.3,0.8c-0.2,0.2-0.5,0.3-0.8,0.3c-0.2,0-0.4-0.1-0.6-0.1c-0.1-0.1-0.3-0.2-0.5-0.4l0.3-0.3
					c0.2,0.3,0.5,0.4,0.8,0.4c0.2,0,0.3-0.1,0.5-0.2c0.1-0.1,0.2-0.3,0.2-0.4c0-0.1-0.1-0.3-0.1-0.4c-0.1-0.1-0.3-0.2-0.6-0.4
					c-0.3-0.2-0.5-0.3-0.7-0.5c-0.1-0.2-0.1-0.4-0.1-0.6c0-0.3,0.1-0.5,0.3-0.7c0.2-0.2,0.4-0.3,0.7-0.3
					C122.9,49.8,123.3,49.9,123.6,50.3L123.6,50.3z M124.6,48.4c0.1,0,0.2,0,0.3,0.1c0.1,0.1,0.1,0.2,0.1,0.3c0,0.1-0.1,0.2-0.1,0.3
					c-0.1,0.1-0.2,0.1-0.3,0.1c-0.1,0-0.2-0.1-0.3-0.1c-0.1-0.1-0.1-0.2-0.1-0.3c0-0.1,0.1-0.2,0.1-0.3
					C124.4,48.4,124.4,48.4,124.6,48.4z M124.3,49.9h0.5v3.7h-0.5V49.9z M125.7,49.9h0.5v0.7c0.2-0.3,0.4-0.4,0.6-0.6
					c0.3-0.1,0.5-0.2,0.8-0.2c0.3,0,0.5,0.1,0.8,0.2c0.2,0.1,0.3,0.3,0.5,0.6c0.1,0.2,0.1,0.6,0.1,1.1v1.9h-0.5v-1.8
					c0-0.4,0-0.7-0.1-0.8c-0.1-0.2-0.1-0.4-0.3-0.5c-0.2-0.1-0.4-0.2-0.6-0.2c-0.3,0-0.5,0.1-0.8,0.3c-0.3,0.2-0.4,0.4-0.5,0.7
					c-0.1,0.2-0.1,0.5-0.1,1v1.4h-0.5L125.7,49.9L125.7,49.9z M132.9,52.3l0.4,0.2c-0.1,0.3-0.3,0.5-0.4,0.6
					c-0.2,0.2-0.4,0.3-0.6,0.4c-0.2,0.1-0.4,0.1-0.7,0.1c-0.6,0-1.1-0.2-1.4-0.6c-0.3-0.4-0.5-0.8-0.5-1.3c0-0.5,0.1-0.9,0.4-1.2
					c0.3-0.5,0.8-0.7,1.4-0.7c0.6,0,1.2,0.2,1.5,0.7c0.3,0.3,0.4,0.8,0.4,1.2h-3.3c0,0.4,0.1,0.8,0.4,1c0.3,0.3,0.5,0.4,1,0.4
					c0.2,0,0.3,0,0.5-0.1c0.2-0.1,0.3-0.2,0.5-0.3C132.7,52.7,132.8,52.6,132.9,52.3L132.9,52.3z M132.9,51.3
					c-0.1-0.3-0.1-0.5-0.3-0.6c-0.1-0.1-0.3-0.3-0.5-0.4c-0.1-0.1-0.4-0.1-0.6-0.1c-0.3,0-0.6,0.1-0.9,0.3c-0.2,0.2-0.3,0.4-0.4,0.8
					H132.9L132.9,51.3z M136,50.3l-0.3,0.3c-0.3-0.2-0.5-0.4-0.8-0.4c-0.1,0-0.3,0.1-0.3,0.1c-0.1,0.1-0.2,0.2-0.2,0.4
					c0,0.1,0.1,0.2,0.1,0.3c0.1,0.1,0.3,0.2,0.5,0.4c0.3,0.2,0.6,0.4,0.8,0.5c0.1,0.2,0.1,0.4,0.1,0.6c0,0.3-0.1,0.6-0.3,0.8
					c-0.2,0.2-0.5,0.3-0.8,0.3c-0.2,0-0.4-0.1-0.6-0.1c-0.1-0.1-0.3-0.2-0.4-0.4l0.3-0.3c0.2,0.3,0.5,0.4,0.8,0.4
					c0.2,0,0.3-0.1,0.5-0.2c0.1-0.1,0.2-0.3,0.2-0.4c0-0.1-0.1-0.3-0.1-0.4c-0.1-0.1-0.3-0.2-0.6-0.4c-0.3-0.2-0.5-0.3-0.6-0.5
					c-0.1-0.2-0.2-0.4-0.2-0.6c0-0.3,0.1-0.5,0.3-0.7c0.2-0.2,0.4-0.3,0.8-0.3C135.3,49.8,135.7,49.9,136,50.3L136,50.3z
					 M138.7,50.3l-0.3,0.3c-0.2-0.2-0.5-0.4-0.7-0.4c-0.2,0-0.3,0.1-0.4,0.1c-0.1,0.1-0.1,0.2-0.1,0.4c0,0.1,0,0.2,0.1,0.3
					c0.1,0.1,0.3,0.2,0.5,0.4c0.3,0.2,0.5,0.4,0.7,0.5c0.1,0.2,0.2,0.4,0.2,0.6c0,0.3-0.1,0.6-0.3,0.8c-0.2,0.2-0.5,0.3-0.8,0.3
					c-0.2,0-0.4-0.1-0.6-0.1c-0.2-0.1-0.3-0.2-0.5-0.4l0.3-0.3c0.3,0.3,0.5,0.4,0.8,0.4c0.2,0,0.4-0.1,0.5-0.2
					c0.1-0.1,0.2-0.3,0.2-0.4c0-0.1,0-0.3-0.1-0.4c-0.1-0.1-0.3-0.2-0.5-0.4c-0.3-0.2-0.5-0.3-0.7-0.5c-0.1-0.2-0.2-0.4-0.2-0.6
					c0-0.3,0.1-0.5,0.3-0.7c0.1-0.2,0.4-0.3,0.7-0.3C138,49.8,138.3,49.9,138.7,50.3L138.7,50.3z M146.1,49.5l-0.3,0.3
					c-0.3-0.3-0.5-0.5-0.8-0.6c-0.3-0.1-0.6-0.2-1-0.2c-0.4,0-0.8,0.1-1.1,0.3c-0.3,0.2-0.6,0.4-0.8,0.8c-0.1,0.3-0.3,0.7-0.3,1.1
					c0,0.6,0.2,1.1,0.6,1.5c0.4,0.4,1,0.6,1.6,0.6c0.7,0,1.3-0.3,1.8-0.8l0.3,0.3c-0.2,0.3-0.5,0.6-0.9,0.7
					c-0.4,0.2-0.8,0.3-1.2,0.3c-0.9,0-1.6-0.3-2.1-0.8c-0.4-0.5-0.6-1.1-0.6-1.8c0-0.7,0.2-1.3,0.8-1.8c0.5-0.5,1.2-0.7,1.9-0.7
					c0.4,0,0.9,0.1,1.2,0.3C145.5,48.9,145.9,49.2,146.1,49.5L146.1,49.5z M146.7,48.5h0.5v5.1h-0.5V48.5z M149.9,49.8
					c0.5,0,1,0.2,1.4,0.6c0.3,0.4,0.5,0.8,0.5,1.3s-0.2,1-0.5,1.3c-0.3,0.4-0.8,0.6-1.4,0.6s-1-0.2-1.4-0.6s-0.5-0.8-0.5-1.3
					s0.1-0.9,0.5-1.3C148.9,50,149.3,49.8,149.9,49.8L149.9,49.8z M149.9,50.2c-0.4,0-0.8,0.1-1,0.4c-0.3,0.3-0.4,0.7-0.4,1
					c0,0.3,0.1,0.5,0.2,0.7c0.1,0.2,0.3,0.4,0.5,0.5c0.3,0.1,0.5,0.2,0.8,0.2c0.3,0,0.5-0.1,0.7-0.2c0.3-0.1,0.4-0.3,0.5-0.5
					c0.1-0.2,0.2-0.5,0.2-0.7c0-0.4-0.1-0.8-0.4-1C150.6,50.4,150.3,50.2,149.9,50.2z M152.5,49.9h0.5v1.7c0,0.4,0,0.7,0.1,0.8
					c0.1,0.2,0.2,0.4,0.4,0.5c0.2,0.1,0.4,0.2,0.7,0.2c0.3,0,0.5-0.1,0.6-0.2c0.2-0.1,0.3-0.3,0.4-0.5c0.1-0.1,0.1-0.4,0.1-0.9v-1.7
					h0.5v1.8c0,0.5-0.1,0.9-0.2,1.1c-0.1,0.3-0.3,0.5-0.5,0.6c-0.3,0.1-0.5,0.2-0.9,0.2c-0.4,0-0.7-0.1-0.9-0.2
					c-0.3-0.1-0.4-0.3-0.5-0.6c-0.1-0.3-0.2-0.7-0.2-1.2L152.5,49.9L152.5,49.9z M160.3,48.5v5.1h-0.5v-0.6
					c-0.2,0.2-0.4,0.4-0.7,0.5c-0.2,0.1-0.5,0.2-0.8,0.2c-0.5,0-1-0.2-1.3-0.6c-0.3-0.4-0.5-0.8-0.5-1.4c0-0.5,0.2-1,0.5-1.4
					c0.4-0.4,0.8-0.6,1.4-0.6c0.3,0,0.5,0.1,0.8,0.2c0.2,0.1,0.4,0.3,0.6,0.6v-2.1L160.3,48.5L160.3,48.5z M158.4,50.2
					c-0.3,0-0.5,0.1-0.7,0.2c-0.3,0.1-0.4,0.3-0.5,0.5c-0.1,0.2-0.2,0.5-0.2,0.7c0,0.3,0.1,0.5,0.2,0.7c0.1,0.2,0.3,0.4,0.5,0.5
					c0.2,0.1,0.4,0.2,0.7,0.2c0.3,0,0.5-0.1,0.8-0.2c0.2-0.1,0.4-0.3,0.5-0.5c0.1-0.2,0.1-0.5,0.1-0.8c0-0.4-0.1-0.8-0.4-1
					C159.1,50.4,158.8,50.2,158.4,50.2L158.4,50.2z M163,48.6h0.5l1.6,3.8l1.6-3.8h0.5l-2.2,4.9h-0.1L163,48.6L163,48.6z
					 M169.2,49.8c0.5,0,1,0.2,1.4,0.6c0.3,0.4,0.5,0.8,0.5,1.3s-0.2,1-0.5,1.3c-0.3,0.4-0.8,0.6-1.4,0.6c-0.5,0-1-0.2-1.4-0.6
					s-0.5-0.8-0.5-1.3s0.2-0.9,0.5-1.3C168.2,50,168.6,49.8,169.2,49.8z M169.2,50.2c-0.4,0-0.8,0.1-1,0.4c-0.3,0.3-0.4,0.7-0.4,1
					c0,0.3,0.1,0.5,0.2,0.7c0.1,0.2,0.3,0.4,0.5,0.5c0.2,0.1,0.4,0.2,0.7,0.2c0.3,0,0.5-0.1,0.8-0.2c0.2-0.1,0.3-0.3,0.5-0.5
					c0.1-0.2,0.2-0.5,0.2-0.7c0-0.4-0.1-0.8-0.4-1C169.9,50.4,169.6,50.2,169.2,50.2z M172.1,48.4c0.1,0,0.2,0,0.3,0.1
					c0.1,0.1,0.1,0.2,0.1,0.3c0,0.1-0.1,0.2-0.1,0.3c-0.1,0.1-0.1,0.1-0.3,0.1c-0.1,0-0.2-0.1-0.3-0.1c-0.1-0.1-0.1-0.2-0.1-0.3
					c0-0.1,0.1-0.2,0.1-0.3C171.9,48.4,171.9,48.4,172.1,48.4z M171.9,49.9h0.5v3.7h-0.5V49.9z M176.8,50.6l-0.4,0.2
					c-0.3-0.4-0.8-0.7-1.3-0.7c-0.5,0-0.8,0.1-1.1,0.4c-0.3,0.3-0.5,0.6-0.5,1c0,0.3,0.1,0.5,0.2,0.8c0.1,0.2,0.3,0.4,0.5,0.5
					c0.3,0.1,0.5,0.2,0.8,0.2c0.5,0,1-0.2,1.3-0.7l0.4,0.3c-0.2,0.3-0.4,0.5-0.8,0.6c-0.3,0.1-0.6,0.2-1,0.2c-0.6,0-1.1-0.2-1.4-0.6
					c-0.4-0.4-0.6-0.8-0.6-1.3c0-0.4,0.1-0.7,0.3-1c0.2-0.3,0.4-0.5,0.8-0.7c0.3-0.2,0.7-0.3,1-0.3c0.3,0,0.5,0,0.7,0.1
					c0.3,0.1,0.4,0.2,0.6,0.3C176.5,50.3,176.6,50.4,176.8,50.6L176.8,50.6z M180.5,52.3l0.4,0.2c-0.1,0.3-0.3,0.5-0.5,0.6
					c-0.1,0.2-0.3,0.3-0.5,0.4c-0.2,0.1-0.5,0.1-0.8,0.1c-0.5,0-1-0.2-1.4-0.6c-0.3-0.4-0.5-0.8-0.5-1.3c0-0.5,0.2-0.9,0.5-1.2
					c0.3-0.5,0.8-0.7,1.4-0.7c0.6,0,1.1,0.2,1.5,0.7c0.3,0.3,0.4,0.8,0.4,1.2h-3.3c0,0.4,0.1,0.8,0.4,1c0.2,0.3,0.5,0.4,1,0.4
					c0.1,0,0.3,0,0.5-0.1c0.1-0.1,0.3-0.2,0.4-0.3C180.2,52.7,180.3,52.6,180.5,52.3z M180.5,51.3c-0.1-0.3-0.1-0.5-0.3-0.6
					c-0.1-0.1-0.3-0.3-0.5-0.4c-0.2-0.1-0.4-0.1-0.6-0.1c-0.3,0-0.7,0.1-1,0.3c-0.1,0.2-0.3,0.4-0.4,0.8H180.5z M187.6,51.7l0.3,0.4
					c-0.2,0.2-0.4,0.4-0.5,0.5c0.1,0.1,0.3,0.3,0.5,0.5c0.1,0.2,0.3,0.3,0.4,0.5h-0.7l-0.6-0.7c-0.4,0.3-0.8,0.5-1,0.6
					c-0.3,0.1-0.5,0.1-0.8,0.1c-0.4,0-0.7-0.1-1-0.3c-0.2-0.2-0.3-0.5-0.3-0.8c0-0.3,0.1-0.5,0.3-0.7c0.1-0.3,0.5-0.6,1-0.9
					c-0.3-0.3-0.5-0.6-0.5-0.7c-0.1-0.2-0.1-0.3-0.1-0.5c0-0.3,0.1-0.5,0.3-0.6c0.2-0.2,0.5-0.3,0.8-0.3c0.2,0,0.3,0,0.5,0.1
					c0.1,0.1,0.3,0.2,0.4,0.3c0.1,0.1,0.1,0.3,0.1,0.5c0,0.2-0.1,0.3-0.2,0.5c-0.1,0.2-0.3,0.4-0.7,0.7l0.8,0.8l0.5,0.5
					C187.2,52,187.4,51.8,187.6,51.7z M185.4,50.5c0.3-0.2,0.5-0.4,0.5-0.5c0.1-0.1,0.1-0.2,0.1-0.3c0-0.1-0.1-0.2-0.1-0.3
					c-0.1-0.1-0.3-0.1-0.5-0.1c-0.1,0-0.3,0-0.4,0.1c-0.1,0.1-0.1,0.2-0.1,0.3c0,0.1,0,0.2,0.1,0.3
					C185.1,50.1,185.2,50.3,185.4,50.5L185.4,50.5z M185.4,51.2c-0.5,0.3-0.8,0.6-0.9,0.7c-0.1,0.2-0.1,0.4-0.1,0.5
					c0,0.2,0.1,0.4,0.2,0.5c0.1,0.1,0.3,0.2,0.6,0.2c0.1,0,0.3,0,0.5-0.1c0.3-0.1,0.6-0.3,1-0.6l-0.8-0.8
					C185.7,51.5,185.5,51.4,185.4,51.2L185.4,51.2z M190.9,53.5v-4.9h1c0.8,0,1.3,0.1,1.6,0.2c0.5,0.2,0.8,0.5,1.1,0.9
					c0.3,0.4,0.4,0.9,0.4,1.5c0,0.5-0.1,0.9-0.3,1.3c-0.3,0.4-0.5,0.7-0.9,0.8c-0.3,0.2-0.8,0.3-1.4,0.3L190.9,53.5L190.9,53.5z
					 M191.4,53.1h0.6c0.7,0,1.2-0.1,1.4-0.1c0.4-0.1,0.7-0.3,0.9-0.7c0.2-0.3,0.3-0.7,0.3-1.2c0-0.5-0.1-0.9-0.3-1.2
					c-0.2-0.3-0.5-0.6-1-0.7c-0.3-0.1-0.8-0.1-1.6-0.1h-0.3L191.4,53.1L191.4,53.1z M199.6,49.9v3.7h-0.4v-0.6
					c-0.2,0.2-0.4,0.4-0.7,0.5c-0.3,0.1-0.5,0.2-0.8,0.2c-0.5,0-1-0.2-1.3-0.6c-0.4-0.4-0.5-0.8-0.5-1.4c0-0.5,0.1-1,0.5-1.4
					c0.3-0.4,0.8-0.6,1.3-0.6c0.3,0,0.6,0.1,0.8,0.2c0.3,0.1,0.5,0.3,0.7,0.6v-0.7H199.6z M197.7,50.2c-0.3,0-0.5,0.1-0.8,0.2
					c-0.2,0.1-0.4,0.3-0.5,0.5c-0.1,0.2-0.2,0.5-0.2,0.7c0,0.3,0.1,0.5,0.2,0.7c0.1,0.2,0.3,0.4,0.5,0.5c0.3,0.1,0.5,0.2,0.8,0.2
					s0.5-0.1,0.8-0.2c0.2-0.1,0.4-0.3,0.5-0.5c0.1-0.2,0.2-0.5,0.2-0.8c0-0.4-0.1-0.8-0.4-1C198.5,50.4,198.1,50.2,197.7,50.2
					L197.7,50.2z M200.9,48.5h0.5v1.4h0.8v0.4h-0.8v3.3h-0.5v-3.3h-0.6v-0.4h0.6V48.5z M206.1,49.9v3.7h-0.5v-0.6
					c-0.2,0.2-0.4,0.4-0.6,0.5c-0.3,0.1-0.5,0.2-0.8,0.2c-0.5,0-1-0.2-1.4-0.6c-0.3-0.4-0.5-0.8-0.5-1.4c0-0.5,0.2-1,0.6-1.4
					c0.3-0.4,0.8-0.6,1.3-0.6c0.3,0,0.5,0.1,0.8,0.2c0.3,0.1,0.5,0.3,0.6,0.6v-0.7H206.1L206.1,49.9z M204.3,50.2
					c-0.3,0-0.5,0.1-0.8,0.2c-0.2,0.1-0.4,0.3-0.5,0.5c-0.1,0.2-0.2,0.5-0.2,0.7c0,0.3,0.1,0.5,0.2,0.7c0.1,0.2,0.3,0.4,0.5,0.5
					c0.2,0.1,0.5,0.2,0.8,0.2c0.2,0,0.5-0.1,0.7-0.2c0.3-0.1,0.4-0.3,0.5-0.5c0.1-0.2,0.2-0.5,0.2-0.8c0-0.4-0.1-0.8-0.4-1
					C205,50.4,204.7,50.2,204.3,50.2L204.3,50.2z M208.7,52.6l0.4-0.3c0.3,0.5,0.7,0.8,1,0.8c0.2,0,0.3,0,0.5-0.1
					c0.1-0.1,0.3-0.2,0.3-0.3c0.1-0.1,0.1-0.3,0.1-0.4c0-0.2-0.1-0.3-0.2-0.5c-0.1-0.2-0.4-0.5-0.8-0.8c-0.4-0.3-0.7-0.5-0.8-0.7
					c-0.1-0.2-0.2-0.5-0.2-0.8c0-0.2,0-0.4,0.1-0.6c0.1-0.2,0.3-0.3,0.4-0.4c0.2-0.1,0.4-0.1,0.6-0.1c0.3,0,0.5,0.1,0.7,0.2
					c0.2,0.1,0.4,0.3,0.6,0.7l-0.4,0.3c-0.1-0.3-0.3-0.4-0.5-0.5c-0.1-0.1-0.3-0.1-0.4-0.1c-0.2,0-0.3,0.1-0.5,0.2
					c-0.1,0.1-0.2,0.3-0.2,0.5c0,0.1,0,0.2,0.1,0.3c0.1,0.1,0.1,0.2,0.3,0.3c0.1,0.1,0.3,0.2,0.6,0.5c0.4,0.3,0.8,0.6,0.9,0.8
					c0.1,0.3,0.2,0.5,0.2,0.8c0,0.4-0.1,0.7-0.4,0.9c-0.3,0.3-0.5,0.4-1,0.4c-0.3,0-0.5-0.1-0.8-0.2C209.1,53.2,208.9,53,208.7,52.6
					z M215.4,52.3l0.4,0.2c-0.1,0.3-0.3,0.5-0.5,0.6c-0.1,0.2-0.3,0.3-0.5,0.4c-0.2,0.1-0.5,0.1-0.8,0.1c-0.5,0-1-0.2-1.4-0.6
					c-0.3-0.4-0.5-0.8-0.5-1.3c0-0.5,0.1-0.9,0.4-1.2c0.3-0.5,0.8-0.7,1.4-0.7c0.6,0,1.1,0.2,1.5,0.7c0.3,0.3,0.4,0.8,0.4,1.2h-3.3
					c0,0.4,0.1,0.8,0.4,1c0.2,0.3,0.5,0.4,1,0.4c0.1,0,0.3,0,0.5-0.1c0.1-0.1,0.3-0.2,0.4-0.3C215.2,52.7,215.3,52.6,215.4,52.3z
					 M215.4,51.3c-0.1-0.3-0.1-0.5-0.3-0.6c-0.1-0.1-0.3-0.3-0.5-0.4c-0.2-0.1-0.4-0.1-0.6-0.1c-0.3,0-0.7,0.1-0.9,0.3
					c-0.2,0.2-0.3,0.4-0.5,0.8H215.4L215.4,51.3z M216.7,49.9h0.5v0.5c0.1-0.2,0.3-0.4,0.4-0.5c0.2-0.1,0.3-0.2,0.5-0.2
					c0.1,0,0.2,0,0.4,0.1l-0.3,0.4c-0.1-0.1-0.2-0.1-0.3-0.1c-0.1,0-0.3,0.1-0.4,0.2c-0.1,0.1-0.3,0.3-0.3,0.6
					c-0.1,0.2-0.1,0.6-0.1,1.3v1.2h-0.5L216.7,49.9L216.7,49.9z M218.8,49.9h0.5l1.2,2.7l1.2-2.7h0.5l-1.6,3.7h-0.1L218.8,49.9
					L218.8,49.9z M223,48.4c0.1,0,0.2,0,0.3,0.1c0.1,0.1,0.1,0.2,0.1,0.3c0,0.1,0,0.2-0.1,0.3c-0.1,0.1-0.2,0.1-0.3,0.1
					c-0.1,0-0.2-0.1-0.3-0.1c-0.1-0.1-0.1-0.2-0.1-0.3c0-0.1,0.1-0.2,0.1-0.3C222.8,48.4,222.9,48.4,223,48.4z M222.7,49.9h0.5v3.7
					h-0.5V49.9z M227.7,50.6l-0.3,0.2c-0.3-0.4-0.8-0.7-1.3-0.7c-0.5,0-0.8,0.1-1.2,0.4c-0.3,0.3-0.4,0.6-0.4,1
					c0,0.3,0.1,0.5,0.2,0.8c0.1,0.2,0.3,0.4,0.5,0.5c0.2,0.1,0.5,0.2,0.8,0.2c0.5,0,1-0.2,1.3-0.7l0.3,0.3c-0.1,0.3-0.4,0.5-0.7,0.6
					c-0.3,0.1-0.6,0.2-1,0.2c-0.5,0-1-0.2-1.4-0.6c-0.3-0.4-0.5-0.8-0.5-1.3c0-0.4,0.1-0.7,0.3-1c0.1-0.3,0.4-0.5,0.8-0.7
					c0.3-0.2,0.6-0.3,1-0.3c0.2,0,0.5,0,0.7,0.1c0.2,0.1,0.4,0.2,0.5,0.3C227.5,50.3,227.6,50.4,227.7,50.6L227.7,50.6z M231.4,52.3
					l0.4,0.2c-0.1,0.3-0.3,0.5-0.5,0.6c-0.1,0.2-0.3,0.3-0.5,0.4c-0.3,0.1-0.5,0.1-0.8,0.1c-0.6,0-1-0.2-1.4-0.6
					c-0.3-0.4-0.5-0.8-0.5-1.3c0-0.5,0.1-0.9,0.4-1.2c0.4-0.5,0.9-0.7,1.5-0.7c0.6,0,1.1,0.2,1.4,0.7c0.3,0.3,0.4,0.8,0.4,1.2h-3.3
					c0,0.4,0.1,0.8,0.4,1c0.3,0.3,0.6,0.4,1,0.4c0.2,0,0.4,0,0.5-0.1c0.2-0.1,0.3-0.2,0.5-0.3C231.2,52.7,231.3,52.6,231.4,52.3z
					 M231.4,51.3c-0.1-0.3-0.1-0.5-0.3-0.6c-0.1-0.1-0.3-0.3-0.5-0.4c-0.2-0.1-0.4-0.1-0.6-0.1c-0.4,0-0.7,0.1-1,0.3
					c-0.2,0.2-0.3,0.4-0.4,0.8H231.4z M234.5,50.3l-0.3,0.3c-0.2-0.2-0.5-0.4-0.7-0.4c-0.2,0-0.3,0.1-0.4,0.1
					c-0.1,0.1-0.1,0.2-0.1,0.4c0,0.1,0,0.2,0.1,0.3c0.1,0.1,0.3,0.2,0.5,0.4c0.3,0.2,0.5,0.4,0.7,0.5c0.1,0.2,0.2,0.4,0.2,0.6
					c0,0.3-0.1,0.6-0.3,0.8c-0.2,0.2-0.5,0.3-0.8,0.3c-0.2,0-0.4-0.1-0.6-0.1c-0.2-0.1-0.3-0.2-0.5-0.4l0.3-0.3
					c0.3,0.3,0.5,0.4,0.8,0.4c0.2,0,0.4-0.1,0.5-0.2c0.1-0.1,0.2-0.3,0.2-0.4c0-0.1,0-0.3-0.1-0.4c-0.1-0.1-0.3-0.2-0.5-0.4
					c-0.3-0.2-0.5-0.3-0.7-0.5c-0.1-0.2-0.2-0.4-0.2-0.6c0-0.3,0.1-0.5,0.3-0.7c0.1-0.2,0.4-0.3,0.7-0.3
					C233.8,49.8,234.2,49.9,234.5,50.3z"/>
			</defs>
			<clipPath id="SVGID_00000158014460922916150910000013910338366644613023_">
				<use xlink:href="#SVGID_00000103232289183282515310000012420046974554685104_"  style="overflow:visible;"/>
			</clipPath>
			<g style="clip-path:url(#SVGID_00000158014460922916150910000013910338366644613023_);">
				
					<image style="overflow:visible;enable-background:new    ;" width="1000" height="264" xlink:href="7E056446.png"  transform="matrix(0.2413 0 0 0.2413 -2.1086 -4.0655)">
				</image>
			</g>
		</g>
		<path class="st0" d="M234.5,50.3l-0.3,0.3c-0.3-0.2-0.5-0.4-0.7-0.4c-0.2,0-0.3,0.1-0.4,0.2c-0.1,0.1-0.2,0.2-0.2,0.4
			c0,0.1,0,0.2,0.1,0.3c0.1,0.1,0.3,0.2,0.6,0.4c0.3,0.2,0.6,0.4,0.7,0.5c0.1,0.2,0.2,0.4,0.2,0.6c0,0.3-0.1,0.6-0.3,0.8
			c-0.2,0.2-0.5,0.3-0.8,0.3c-0.2,0-0.4,0-0.6-0.1c-0.2-0.1-0.4-0.2-0.5-0.4l0.3-0.3c0.2,0.3,0.5,0.4,0.8,0.4c0.2,0,0.3-0.1,0.5-0.2
			c0.1-0.1,0.2-0.3,0.2-0.4c0-0.1,0-0.3-0.1-0.4c-0.1-0.1-0.3-0.2-0.6-0.4c-0.3-0.2-0.6-0.3-0.7-0.5c-0.1-0.2-0.2-0.4-0.2-0.6
			c0-0.3,0.1-0.5,0.3-0.7c0.2-0.2,0.4-0.3,0.7-0.3C233.8,49.8,234.2,49.9,234.5,50.3L234.5,50.3z"/>
		<g>
			<defs>
				<polygon id="SVGID_00000173123565171017265670000013098811127635292072_" points="71.2,45.8 71.2,45.5 232.3,45.4 232.3,45.8 
									"/>
			</defs>
			<clipPath id="SVGID_00000174570762544123519040000017683317199275115142_">
				<use xlink:href="#SVGID_00000173123565171017265670000013098811127635292072_"  style="overflow:visible;"/>
			</clipPath>
			<g style="clip-path:url(#SVGID_00000174570762544123519040000017683317199275115142_);">
				
					<image style="overflow:visible;enable-background:new    ;" width="1000" height="264" xlink:href="7E056442.png"  transform="matrix(0.2413 0 0 0.2413 -2.1086 -4.0655)">
				</image>
			</g>
		</g>
		<g>
			<defs>
				<path id="SVGID_00000036227786872048248060000011426816073364043155_" d="M36.5,17.5c0,0-12.1-7.6-8.8,9.5
					c0,0,4.6,17.5,15.8,21.2c0,0,5,1.2,5.7-4.5c0,0,1.8-9.6-8.3-22.1c0,0,11.3-13,18.5-7.7c0,0,3.2,2.5,2.4,9
					c-1.1,8.9-6.8,17.8-12.1,23.9c0,0-1.6,8.5-11.6,5.9c-3.9-1-12.2-4-20.2-12.5C15.3,37.7,4,27,1.4,12.3c0,0-1.6-15.5,14.6-9.7
					C16,2.6,27.9,7,36.5,17.5L36.5,17.5z"/>
			</defs>
			<clipPath id="SVGID_00000098922014389881575340000007087612228256812986_">
				<use xlink:href="#SVGID_00000036227786872048248060000011426816073364043155_"  style="overflow:visible;"/>
			</clipPath>
			<g style="clip-path:url(#SVGID_00000098922014389881575340000007087612228256812986_);">
				
					<image style="overflow:visible;enable-background:new    ;" width="1000" height="264" xlink:href="7E056442.png"  transform="matrix(0.2413 0 0 0.2413 -2.1086 -4.0655)">
				</image>
			</g>
		</g>
	</g>
</g>
</svg>
