<?xml version="1.0" encoding="UTF-8"?>
<!DOCTYPE svg PUBLIC "-//W3C//DTD SVG 1.1//EN" "http://www.w3.org/Graphics/SVG/1.1/DTD/svg11.dtd">
<!-- Creator: CorelDRAW 2020 (64-Bit) -->
<svg xmlns="http://www.w3.org/2000/svg" xml:space="preserve" width="50px" height="50px" version="1.1" style="shape-rendering:geometricPrecision; text-rendering:geometricPrecision; image-rendering:optimizeQuality; fill-rule:evenodd; clip-rule:evenodd"
viewBox="0 0 50 50"
 xmlns:xlink="http://www.w3.org/1999/xlink"
 xmlns:xodm="http://www.corel.com/coreldraw/odm/2003">
 <defs>
  <style type="text/css">
   <![CDATA[
    .fil1 {fill:#000051}
    .fil0 {fill:#FF9933}
   ]]>
  </style>
 </defs>
 <g id="Layer_x0020_1">
  <metadata id="CorelCorpID_0Corel-Layer"/>
  <g id="_1315576766064">
   <path class="fil0" d="M23.05 40.62c0,-1.89 -1.03,-0.74 -4.9,-1.66 -1.73,-0.42 -3.33,-1.09 -4.69,-1.87 -9.95,-5.68 -11.55,-19.62 -3.83,-27.29 1.23,-1.21 0.39,-0.71 2.63,-2.29 10.97,-7.74 26.46,-0.33 27.44,12.7 -0.64,-0.41 -1.24,-1.9 -2.13,-1.11 -0.2,0.15 -0.28,-0.18 -0.38,0.54 -0.09,0.67 3.07,3.73 3.41,3.75 1.11,-0.28 1.4,-1.25 2.1,-1.86 0.78,-0.68 1.66,-1.27 1.27,-2.55 -1.08,-0.23 -1.16,-0.04 -2.54,1.45 -0.83,-4.67 -1.53,-7.13 -3.97,-10.25 -4.88,-6.2 -12.73,-8.94 -20.77,-6.64 -3.61,1.03 -7.17,3.65 -8.77,5.65 -0.58,0.72 -1.01,1.14 -1.53,1.94 -3.86,6.05 -4.54,13.14 -1.16,19.6 1.79,3.42 3.91,5.59 6.92,7.5 1.64,1.03 8.88,4.16 10.9,2.39z"/>
   <path class="fil0" d="M9.02 21.1c0.42,-6.24 5.67,-11.94 12.01,-12.01 0.02,0.98 -0.06,2.1 0.2,2.9 0.54,0.19 0.79,0.18 1.35,0.01 0.27,-0.81 0.19,-1.91 0.21,-2.9 3.34,-0.08 6.71,2.06 8.23,3.69 2.15,2.3 3.57,4.84 3.78,8.28l-2.85 0.13c-1.19,2.83 4.16,1.48 4.29,1.36 0.37,-0.4 0.33,-0.33 0.33,-1.11 0,-0.38 -0.06,-0.95 -0.11,-1.33 -0.1,-0.79 -0.25,-1.54 -0.46,-2.28 -0.41,-1.46 -1.05,-2.82 -1.78,-3.87 -3.51,-5.04 -9.06,-7.65 -15.45,-6.34 -1.48,0.3 -3,0.95 -4.1,1.56 -0.67,0.37 -1.01,0.64 -1.65,1.09 -7.28,5.21 -8.34,17.89 0.91,23.98 1.79,1.18 6.06,2.96 8.64,2.17 0.32,-0.9 0.32,-3.54 0.05,-4.49 -2.07,-0.67 -1.59,1.1 -1.58,2.85 -6.68,0.38 -12.67,-7.79 -11.92,-11.98 0.97,0.03 2.1,0.09 2.88,-0.22 0.5,-2.02 -1.28,-1.51 -2.98,-1.49z"/>
   <path class="fil1" d="M25.06 38.96c1.19,-1.08 2.91,-1.21 2.88,-3.29 -0.03,-1.81 -1.12,-1.94 -2.79,-3.14l0.86 -1.93c1.89,0.33 2.78,1.11 4.2,-0.21 1.48,-1.38 0.59,-2.28 0.37,-4.26l2 -0.68c0.98,1.45 1.27,2.88 3.28,2.83 1.88,-0.06 2.08,-1.78 3.12,-2.8l1.85 0.89c-0.31,1.89 -1.1,2.9 0.23,4.29 1.17,1.22 2.55,0.55 4.29,0.26l0.72 2.04c-4.57,2.01 -3.17,5.05 -0.08,6.19l-0.78 2.06c-2.07,-0.35 -2.93,-1.22 -4.42,0.3 -1.14,1.17 -0.65,2.29 -0.28,4.01 -0.37,0.4 -1.33,0.7 -1.91,0.86 -1.23,-1.28 -0.95,-2.81 -3.11,-2.86 -1.73,-0.03 -2.66,1.45 -3.22,2.82l-2.02 -0.84c0.2,-1.67 1.14,-2.97 -0.1,-4.3 -1.24,-1.34 -2.55,-0.61 -4.41,-0.33l-0.68 -1.91zm20.7 3.44c0.62,-0.69 1.47,-2.46 1.46,-3.44 -0.12,-0.51 -2.51,-2.14 -2.79,-2.3 0,-1.34 0.07,-1.33 0.93,-1.88 1.17,-0.77 3.22,-0.94 0.77,-4.98 -1.52,-0.31 -2.13,0.3 -3.7,0.3 -1.92,-1.63 0.05,-2.22 -0.4,-4.46 -0.37,-0.37 -2.01,-1.21 -2.8,-1.38 -1.34,-0.28 -1.52,0.83 -2.11,1.74 -1.73,2.63 -2.71,-0.08 -3.91,-1.83 -1.12,-0.17 -3.69,0.7 -3.87,1.7 -0.09,0.56 0.28,1.62 0.37,2.27 0.17,1.16 -0.14,1.1 -0.58,1.7 -2.47,0.1 -3.49,-1.74 -4.6,0.89 -1.16,2.77 -0.82,2.22 1.26,3.7 2.27,1.62 0.05,2.49 -1.23,3.25 -1.9,1.15 0.55,4.32 0.56,4.33 1.06,0.58 5.38,-2.09 4.14,2.21 -0.39,1.32 -0.54,1.92 0.67,2.5 3.82,1.81 2.74,0.46 4.83,-1.92 2.59,-0.13 1.82,2.01 3.11,2.73 0.8,0.46 3.62,-0.69 3.88,-1.46 0.11,-1.29 -0.99,-3.15 0.05,-3.91 0.9,-0.66 2.53,0.43 3.96,0.24z"/>
   <path class="fil1" d="M16.3 17.07l0.74 -0.78c0.86,0.5 1.61,1.38 2.9,0.92 1.5,-0.54 0.79,-1.57 1.51,-2.7l0.91 -0.01c0.72,1.15 0.04,2.16 1.53,2.7 1.44,0.53 2.01,-0.63 3.04,-0.88l0.61 0.73c-0.44,1.04 -1.43,1.53 -0.87,2.99 0.5,1.33 1.43,0.86 2.65,1.4l0.06 0.92 -0.71 0.31c-0.63,0.18 -1.49,0.13 -1.96,1.13 -0.69,1.47 0.39,2.12 0.85,2.98l-0.81 0.8c-3.08,-1.98 -3.56,-1 -4.28,1.79l-1.11 0.02c-0.35,-1.28 -0.16,-2.16 -1.38,-2.66 -1.27,-0.52 -2.15,0.41 -2.91,0.84l-0.81 -0.81c1.32,-1.98 1.85,-3.37 -0.97,-4.06l-0.83 -0.34 0.02 -0.92c0.21,-0.09 3.9,-0.4 2.6,-3.09 -0.05,-0.11 -0.72,-1.2 -0.78,-1.28zm3.11 -1.07c-1.43,0.5 -1.41,-2.38 -3.59,-0.18 -0.43,0.43 -1.17,0.85 -0.76,1.78 0.48,1.06 2.08,2.07 -0.31,2.47 -0.68,0.11 -0.89,0.16 -1.4,0.35 -0.52,2.7 -0.12,3.2 1.33,3.42 0.76,0.11 0.87,0.02 1.3,0.52 0.39,1.55 -2.29,1.69 -0.36,3.64 2.38,2.41 2.05,-0.51 3.96,-0.08 0.63,0.71 0.23,1.65 0.97,2.61 0.88,0.2 1.84,0.19 2.72,0.01 0.78,-1.01 0.3,-1.79 0.96,-2.63 1.84,-0.38 1.65,2.39 3.88,0.2 2.14,-2.11 -0.67,-1.99 -0.21,-3.92 1.21,-0.6 1.96,-0.11 2.52,-0.95 0.33,-0.56 0.28,-1.93 0.05,-2.56 -0.82,-1.03 -1.65,-0.26 -2.58,-1.06 -0.26,-1.19 0.49,-1.22 0.87,-2.02 0.44,-0.93 -0.35,-1.36 -0.77,-1.79 -0.46,-0.48 -0.74,-1.19 -1.74,-0.71 -0.61,0.29 -1.09,1.17 -1.83,0.9 -1.48,-0.88 0.56,-2.74 -2.42,-2.75 -1.08,-0.01 -1.57,-0.15 -1.85,0.72 -0.28,0.87 0.09,1.58 -0.74,2.03z"/>
   <path class="fil1" d="M34.47 32.74c4.15,-1.57 6.39,4.89 2.24,6.33 -4.11,1.43 -6.64,-4.67 -2.24,-6.33zm5.4 4.57c1.67,-5.89 -6.65,-8.34 -8.61,-2.94 -0.46,1.3 -0.25,2.83 0.39,3.87 2.17,3.52 7.24,2.51 8.22,-0.93z"/>
   <path class="fil1" d="M21.12 19.96c2.87,-1.26 3.96,3.11 1.6,4.04 -2.47,0.97 -4.49,-2.77 -1.6,-4.04zm-0.36 -1.11c-4.26,1.7 -1.7,7.75 2.34,6.25 1.39,-0.51 2.6,-2.25 2,-4.2 -0.47,-1.52 -2.29,-2.87 -4.34,-2.05z"/>
  </g>
 </g>
</svg>
