<?xml version="1.0" encoding="UTF-8"?>
<svg id="Layer_1" data-name="Layer 1" xmlns="http://www.w3.org/2000/svg" viewBox="0 0 351.52 404">
  <defs>
    <style>
      .cls-1 {
        fill: #000051;
        fill-rule: evenodd;
      }
    </style>
  </defs>
  <path class="cls-1" d="M174.19,276.26c-.87-3.56-.52-6.43,3.01-6.92,3.59-.5,6.15-.22,6.6,3.4,.45,3.66,.23,6.2-3.35,6.78-3.1,.5-5.58-.45-6.27-3.25h0Zm68.17-16.28l8.88-13.92c2.58-4.47,5.49-10.55,7.77-15.49,9.57-.49,9.72-.21,7.69,5.9-1.3,3.92-2.96,7.8-5.15,10.69-4.02,5.32-13.09,11.92-19.19,12.82h0Zm-28.61,21.89c.02,9.22,1.62,12.19,6.05,18.18,5.08,6.87,12.22,12.81,18.83,18.11,2.43,1.95,4.55,3.4,7.08,5.24,22.94,16.56,53.32,30.69,80.77,41.95,6.65,2.73,8.7,1.4,8.05,16.05-.25,5.66-1.87,4.77-7.37,5-4.09,.17-8.23,.14-12.33,.16l-245.42,.26c-15.16,0-33.68,.68-48.39-.61-2.23-.2-3.2-.3-3.63-2.38-.48-2.34-.93-14.21,2.03-15.98l17.36-7.26c24.67-10.05,74.63-36.11,91.42-55.9,3.05-3.6,8.15-9.16,9.23-15.33,.56-3.22,.79-22.04-.21-24.2-1.01-2.17-26.12-24.81-28.38-45.02-.85-7.58-.65-16.21-.68-23.94-.06-16.26-.11-32.57,.02-48.82,.24-29.37-2.88-57.76,22.91-75.12,10.47-7.05,23.93-9.44,39.03-10.05,32.59-1.33,58.15,6.35,68.11,30.27,6.01,14.43,4.89,27.14,4.91,43.9l.05,85.79c-.02,3.67-1.9,6.1-3.31,9.02-2.93,6.07-5.73,10.59-9.29,15.34-1.88,2.5-3.64,4.57-5.5,6.81l-8.54,9.5c-1.51,1.51-1.48,2.22-3.71,2.35-2.13,.12-10.49,.23-12.31-.04-3.01-.45-4.58-6.81-13.38-11.18-13.64-6.77-27.03,5.82-29.72,15.72-2.21,8.15,1.65,13.96,5.13,18.56,2.37,3.13,10.1,8.2,16.39,8.31,6.89,.12,12.35-4.23,16.46-8.24,5.72-5.58,.49-5.88,18.36-6.46h0Zm47.59-68.2l-.04-78.97c2.75-.25,9.96,.64,12.35,1.55,3.8,1.46,3.9,5.26,4.23,9.82,.57,8.02,.63,48.09,.1,56.18-.37,5.65-.7,7.09-4.66,9.18-3.05,1.61-8.19,2.44-11.98,2.24h0ZM90.63,134.97l.21,77.95c-3.16,.58-10.09,.03-12.67-1.31-4.04-2.09-3.56-4.72-3.87-10.13-.65-11.22-1.34-45.05-.46-55.43,.4-4.71,1.27-8.06,4.45-9.61,2.82-1.37,8.85-1.8,12.36-1.47h0Zm3.12-35.63c-1.59-24.95,11.93-46.74,23.45-58.55,30.64-31.37,84.8-31.6,116.9-.46,11.83,11.48,24.85,32.94,24.2,58.01-.51-.51-.29-.21-.75-.92l-.86-2.23c-4.7-14.84-13.63-28.31-27.03-36.78-15.75-9.96-32.75-13.45-54.67-13.12-21.33,.32-39.46,4-53.58,14.21-6.26,4.52-12.73,10.57-16.91,16.95-7.93,12.12-7.16,16.33-10.74,22.89h0Zm-17.9,19.76c-4.59,3.07-7.79,3.87-11.95,8.7-1.99,2.31-6.83,9.5-6.95,13.85-.54,19.62,.13,42.19,.02,62.48-.03,5.17,.12,4.57,2.11,8.57,3.13,6.27,8.64,12.51,15.76,15.47,6.33,2.64,11.65,1.75,18.49,2.63,4.43,8.72,2.72,8.12,9.66,18.93,4.79,7.47,9.94,14.23,15.48,20.15,1.45,1.55,2.55,1.84,2.63,4.58,.37,11.98-.75,14.37-7.32,21.53-15.36,16.76-57.03,37.64-81.12,47.77-12.98,5.46-30.33,9.81-32,25.27-1.08,9.93-1.38,16.88,3.48,24.4,5.84,9.02,10.24,9.16,19.1,9.62,18.44,.94,37.72,.74,56.3,.73l243.23,.03c4.32,0,10.04,.83,13.53-.97,14.92-7.72,14.82-14.67,15.17-27.61,.17-6.25,.08-7.41-2.38-12.25-3.69-7.24-7.44-9.7-15.44-13.1-13.97-5.93-26.7-11.18-39.62-17.58-14.97-7.42-49.97-26.44-59.72-40.57-3.19-4.63-3.02-5.12-3.21-11.75,15.79-2.84,30.45-8.66,41.11-19.54,8.63-8.81,11.74-19.76,13.33-32.35,.92-7.29,1.68-6.2,4.78-10.67,5.48-7.89,4.75-14.75,4.81-25.6,.06-10.11,.04-20.24,.01-30.35-.05-19.53,1.84-23.81-9.77-36.05-3.41-3.59-4.5-3.47-9.11-6.18-.63-3.03-.51-9.77-.61-13.21-.14-4.39-.25-8.77-.52-13.18-3.97-65.47-76.75-115.52-142.84-82.29-17.39,8.75-32.57,23.05-42.39,39.84-7.7,13.16-11.57,26.08-13.18,41.81-.94,9.22-.3,17.88-.85,26.88h0Z"/>
</svg>