<?xml version="1.0" encoding="UTF-8" standalone="no"?>
<!-- Created with Inkscape (http://www.inkscape.org/) -->

<svg
   version="1.1"
   id="svg2973"
   xml:space="preserve"
   width="682.66669"
   height="682.66669"
   viewBox="0 0 682.66669 682.66669"
   xmlns="http://www.w3.org/2000/svg"
   xmlns:svg="http://www.w3.org/2000/svg"><defs
     id="defs2977"><clipPath
       clipPathUnits="userSpaceOnUse"
       id="clipPath2987"><path
         d="M 0,512 H 512 V 0 H 0 Z"
         id="path2985" /></clipPath></defs><g
     id="g2979"
     transform="matrix(1.3333333,0,0,-1.3333333,0,682.66667)"><g
       id="g2981"><g
         id="g2983"
         clip-path="url(#clipPath2987)"><g
           id="g2989"
           transform="translate(395.5176,450.1523)"><path
             d="m 0,0 c 42.579,-38.507 69.329,-94.175 69.329,-156.089 0,-45.46 -14.422,-87.553 -38.941,-121.958"
             style="fill:none;stroke:#000000;stroke-width:15;stroke-linecap:round;stroke-linejoin:round;stroke-miterlimit:10;stroke-dasharray:none;stroke-opacity:1"
             id="path2991" /></g><g
           id="g2993"
           transform="translate(141.1016,116.6069)"><path
             d="m 0,0 c -58.525,37.378 -97.328,102.888 -97.328,177.456 0,116.221 94.261,210.437 210.537,210.437 37.979,0 73.609,-10.052 104.374,-27.639"
             style="fill:none;stroke:#000000;stroke-width:15;stroke-linecap:round;stroke-linejoin:round;stroke-miterlimit:10;stroke-dasharray:none;stroke-opacity:1"
             id="path2995" /></g><g
           id="g2997"
           transform="translate(392.5928,135.3774)"><path
             d="M 0,0 C -19.989,-17.417 -43.3,-31.122 -68.856,-40.042"
             style="fill:none;stroke:#000000;stroke-width:15;stroke-linecap:round;stroke-linejoin:round;stroke-miterlimit:10;stroke-dasharray:none;stroke-opacity:1"
             id="path2999" /></g><g
           id="g3001"
           transform="translate(206.2178,116.6089)"><path
             d="m 0,0 c -24.86,37.379 -41.344,102.887 -41.344,177.454 0,116.221 40.042,210.437 89.437,210.437 49.393,0 89.435,-94.216 89.435,-210.437 C 137.528,102.887 121.045,37.378 96.185,0"
             style="fill:none;stroke:#000000;stroke-width:15;stroke-linecap:round;stroke-linejoin:round;stroke-miterlimit:10;stroke-dasharray:none;stroke-opacity:1"
             id="path3003" /></g><g
           id="g3005"
           transform="translate(58.0273,365.6479)"><path
             d="M 0,0 H 392.565"
             style="fill:none;stroke:#000000;stroke-width:15;stroke-linecap:round;stroke-linejoin:round;stroke-miterlimit:10;stroke-dasharray:none;stroke-opacity:1"
             id="path3007" /></g><g
           id="g3009"
           transform="translate(58.0273,222.478)"><path
             d="M 0,0 H 392.565"
             style="fill:none;stroke:#000000;stroke-width:15;stroke-linecap:round;stroke-linejoin:round;stroke-miterlimit:10;stroke-dasharray:none;stroke-opacity:1"
             id="path3011" /></g><g
           id="g3013"
           transform="translate(394.6641,183.4785)"><path
             d="m 0,0 0.309,-133.777 c 0.018,-8.126 10.355,-11.577 15.255,-5.093 l 28.937,38.286 c 1.886,2.494 4.99,3.75 8.08,3.267 l 47.431,-7.408 c 8.032,-1.254 13.061,8.41 7.422,14.263 L 14.598,5.902 C 9.294,11.408 -0.018,7.643 0,0 Z"
             style="fill:none;stroke:#000000;stroke-width:15;stroke-linecap:round;stroke-linejoin:round;stroke-miterlimit:10;stroke-dasharray:none;stroke-opacity:1"
             id="path3015" /></g><g
           id="g3017"
           transform="translate(95.9551,7.5)"><path
             d="m 0,0 h 209.092 c 10.124,0 18.331,8.207 18.331,18.331 v 70.531 c 0,10.124 -8.207,18.331 -18.331,18.331 H -70.124 c -10.124,0 -18.331,-8.207 -18.331,-18.331 V 18.331 C -88.455,8.207 -80.248,0 -70.124,0 h 30.161"
             style="fill:none;stroke:#000000;stroke-width:15;stroke-linecap:round;stroke-linejoin:round;stroke-miterlimit:10;stroke-dasharray:none;stroke-opacity:1"
             id="path3019" /></g><g
           id="g3021"
           transform="translate(42.4102,85.3457)"><path
             d="M 0,0 15.735,-48.499 33.227,-5.918 50.718,-48.499 66.452,0"
             style="fill:none;stroke:#000000;stroke-width:15;stroke-linecap:round;stroke-linejoin:round;stroke-miterlimit:10;stroke-dasharray:none;stroke-opacity:1"
             id="path3023" /></g><g
           id="g3025"
           transform="translate(132.2129,85.3457)"><path
             d="M 0,0 15.735,-48.499 33.226,-5.918 50.717,-48.499 66.452,0"
             style="fill:none;stroke:#000000;stroke-width:15;stroke-linecap:round;stroke-linejoin:round;stroke-miterlimit:10;stroke-dasharray:none;stroke-opacity:1"
             id="path3027" /></g><g
           id="g3029"
           transform="translate(222.0146,85.3457)"><path
             d="M 0,0 15.735,-48.499 33.227,-5.918 50.718,-48.499 66.453,0"
             style="fill:none;stroke:#000000;stroke-width:15;stroke-linecap:round;stroke-linejoin:round;stroke-miterlimit:10;stroke-dasharray:none;stroke-opacity:1"
             id="path3031" /></g></g></g></g></svg>
