<?xml version="1.0" encoding="UTF-8"?>
<svg id="Layer_1" data-name="Layer 1" xmlns="http://www.w3.org/2000/svg" viewBox="0 0 563.28 429.5">
  <defs>
    <style>
      .cls-1 {
        fill: none;
        stroke: #000051;
        stroke-miterlimit: 2.61;
        stroke-width: 24px;
      }

      .cls-2 {
        fill: #000051;
        fill-rule: evenodd;
      }
    </style>
  </defs>
  <path class="cls-2" d="M67.44,110.47H495.94c8.84,0,16.96-22.99-7.32-22.99H74.76c-15.11,0-18.81,10.18-14.52,17.6,1.16,2,4.58,5.39,7.2,5.39h0Z"/>
  <path class="cls-2" d="M170.91,253.65c0-24.86,43.89-30.43,43.89,6.27v17.77h-43.89v-24.04h0Zm-22.99-1.05v81.52c0,12.05,22.99,17.83,22.99-5.23v-28.22h43.89v33.44c0,12.05,22.99,17.83,22.99-5.23v-65.84c0-20.81-6.55-37-22.64-46.34-30.73-17.83-67.24,6.47-67.24,35.88h0Z"/>
  <path class="cls-2" d="M302.59,277.69h-20.9v-43.89c35.83,0,33.44-4.46,33.44,30.31,0,8.43-3.97,13.59-12.54,13.59h0Zm-43.89-51.21v102.42c0,4.33,.58,7.44,2.23,10.31,5.92,10.3,20.76,4.58,20.76-5.09v-33.44c38.58,0,56.44-1.48,56.44-48.08,0-12.72-1.55-21.98-7.14-29.44-12.46-16.63-38.96-12.36-62.88-12.36-5.6,0-9.41,7.89-9.41,15.68h0Z"/>
  <path class="cls-2" d="M348.58,221.25c0,13.12,11.79,12.54,21.95,12.54v87.79c-5.77,0-11.8-.52-16.58,2.23-10.3,5.92-4.58,20.76,5.09,20.76h45.98c12.05,0,17.83-22.99-5.23-22.99h-6.27v-87.79c5.78,0,11.8,.52,16.58-2.23,10.3-5.92,4.58-20.76-5.09-20.76h-45.98c-5.25,0-10.45,5.2-10.45,10.45h0Z"/>
  <path class="cls-2" d="M141.65,66.58c26.66,0,18.45-22.99,7.32-22.99s-17.05-1.83-21.42,4.73c-4.56,6.84-2.21,18.26,14.11,18.26h0Z"/>
  <path class="cls-2" d="M476.08,66.58c26.66,0,18.45-22.99,7.32-22.99s-17.05-1.83-21.42,4.73c-4.56,6.84-2.21,18.26,14.11,18.26h0Z"/>
  <path class="cls-2" d="M69.53,54.04c0,20.44,43.62,14.54,32.28-5.06-4.23-7.31-10.83-5.39-21.83-5.39-5.38,0-10.45,6.02-10.45,10.45h0Z"/>
  <path class="cls-1" d="M43.35,12h476.57c17.24,0,31.35,14.11,31.35,31.35V386.15c0,17.24-14.11,31.35-31.35,31.35H43.35c-17.24,0-31.35-14.11-31.35-31.35V43.35c0-17.24,14.11-31.35,31.35-31.35h0Z"/>
</svg>