<?xml version="1.0" encoding="UTF-8"?>
<svg id="Layer_1" data-name="Layer 1" xmlns="http://www.w3.org/2000/svg" viewBox="0 0 743.61 841.21">
  <defs>
    <style>
      .cls-1 {
        fill: #000051;
        fill-rule: evenodd;
      }
    </style>
  </defs>
  <path class="cls-1" d="M148.36,719.63v72.29H51.43c0-50.88,14.67-86.23,42.68-123.26,7.54-9.96,17.16-17.96,25.06-25.87,7.46-7.47,20.08-15.5,29.7-21.23,42.25-25.16,73.15-26.8,127.64-26.8,1.34,16.08,15.48,34.38,25.87,44.77,12.03,12.03,25.78,21.45,44.78,25.87,0,17-.15,34.04-.09,51.02,.1,27.59,28.12,32.18,42.42,19.23,11.42-10.35,6.97-46.05,6.97-70.25,24.88-5.8,47.91-24.57,60.3-44.85,3.86-6.31,9.63-17.27,10.34-25.8,38.66,0,62.81-.22,91.79,10.08,33.65,11.96,68.21,34.95,89.91,62.88,28.34,36.48,43.39,73.55,43.39,124.2h-96.94v-72.29c0-36.3-50.93-35.96-50.93-1.64v73.94H199.3v-73.94c0-32.77-50.93-36.21-50.93,1.64h0ZM358.36,0h27c34.54,1.81,69.19,10.57,104.72,26.31,19.16,8.49,44.18,26.32,60.33,39.89,5.76,4.84,11.06,10.91,16.5,16.36,47.21,47.21,77.63,116.08,77.63,188.53,0,46.33,6.74,83.67-31.64,111.3-8.46,6.09-21.13,11.62-32.82,13.18-28.34,3.78-35.11-7.19-38,8.01-5.22,27.46-19.22,59.96-36.78,78.23-4.58,4.76-6.12,7.88-10.62,12.38l-18.76,15.74c-6.69,5.9-3.89,11.91-3.89,33.89h26.29c52.09,0,119.22,23.83,155.67,57.92,21.64,20.23,22.86,19.16,43.39,46.98,26.61,36.06,45.75,89.87,45.75,134.98,0,17.7,5.66,57.51-21.36,57.51H21.85c-27.02,0-21.36-39.81-21.36-57.51,0-45.62,19.6-100.01,46.45-135.91,10.33-13.81,23.08-30.04,36.65-40.58,3.67-2.85,4.45-4.21,7.75-7.03,17.13-14.66,35.6-24.29,55.9-34.46,39.27-19.66,78.44-21.89,124.34-21.89v-27.93c0-5.78-25.9-20.13-44.07-47.94-17.51-26.82-19.62-37.74-26.22-65.79-2.12-9.01-5.41-6.4-16.77-6.23-22.25,.32-35.56-.16-54.75-14.25-37.37-27.42-30.71-64.96-30.71-110.59,0-92.73,44.45-167.72,113.6-219.93,17.72-13.38,16.29-10.62,30.29-19,4.1-2.45,6.38-4.02,10.56-5.87C289.11,10.58,323.79,1.81,358.36,0h0Zm-35.85,537.25c4.93,2.37,15.6,4.02,22.53,5.4,16.35,3.25,34.97,3.07,52.16,.3,7.55-1.21,18.74-3.23,23.88-5.69,0,23.28,2.03,41.53-7.2,56.87-19.02,31.6-65.15,31.6-84.17,0-9.24-15.35-7.2-33.59-7.2-56.87h0Zm24.65-169.23c0,15.95,8,27.93,21.36,27.93h123.22c-.25,11.36-10.25,31.41-14.83,39.38-6.09,10.59-15.94,20.81-24.99,29.23-70.04,65.17-203.34,18.1-203.34-93.26v-101.86c0-30.65,14.36-62.5,34.88-83.42,78.07-79.6,211.57-20.51,211.57,83.42v75.58h-113.37c-16.38,0-34.5,6.6-34.5,23h0Zm226.73-23h-27.93v-47.64c19.63,0,47.65-3.95,47.65,24.64,0,13.18-10.05,23-19.72,23h0Zm-423.89-23c0-28.6,28.01-24.64,47.64-24.64v47.64c-17.97,0-47.64,5.37-47.64-23h0Zm50.93-75.58c-34.4,0-23.86,1.17-49.29,3.29,0-16.12,4.25-31.78,8.42-44.16,17.81-52.9,44.96-88.91,90.82-119.48,10.98-7.32,21.85-13.55,34.05-18.52,12.7-5.18,24.97-9.33,39.91-12.67l46.96-5.44,46.96,5.44c80.22,17.92,138.57,72.83,164.78,150.67,4.17,12.38,8.42,28.04,8.42,44.16-25.43-2.12-14.89-3.29-49.29-3.29,0-22.96-15.39-53.36-26.37-70.57-7.99-12.53-17.03-21.29-27.42-31.73-67.56-67.91-194.62-58.28-252.54,19.42-3.03,4.06-5.65,7.16-8.41,11.31-11.2,16.84-27.01,48.86-27.01,71.57h0Z"/>
</svg>