<svg id="svg8" height="512" viewBox="0 0 8.4666665 8.4666669" width="512" xmlns="http://www.w3.org/2000/svg" xmlns:svg="http://www.w3.org/2000/svg"><g id="layer1" transform="translate(0 -288.533)"><path id="rect823" d="m8.0019531 1.0039062c-1.644703 0-3.0039062 1.3513946-3.0039062 2.9960938v4.9980469h-2.9980469c-1.36360082-.0306117-1.36360082 2.0306121 0 2.0000001h2.9980469v4.001953h-2.9980469c-1.36360379-.03061-1.36360379 2.030615 0 2h2.9980469v4.001953h-2.9980469c-.034482-.0018-.069033-.0018-.1035156 0-1.30252961.09647-1.20201402 2.038512.1035156 2h2.9980469v4.998047c0 1.644699 1.3592259 3.003906 3.0039062 3.003906h19.9980469c1.64468 0 2.996094-1.359207 2.996094-3.003906v-2.001953c.130418-1.4527-2.122606-1.4527-1.992188 0v2.001953c0 .571313-.4326 1.003906-1.003906 1.003906h-19.9980469c-.5713058 0-1.0039062-.432593-1.0039062-1.003906v-24c0-.5712756.4326231-1.0039062 1.0039062-1.0039062h19.9980469c.571283 0 1.003906.4326306 1.003906 1.0039062v13.996094c-.130418 1.4527 2.122606 1.4527 1.992188 0v-13.996094c0-1.6446992-1.351391-2.9960938-2.996094-2.9960938zm9.9941409 3.9921876c-2.749574 0-4.996085 2.2562908-4.996094 5.0058592.000004 1.275946.497355 2.431017 1.291016 3.316406-1.913149.701747-3.292969 2.526378-3.292969 4.677735 0 1.334635 2.001953 1.334635 2.001953 0 0-1.67932 1.316789-2.996094 2.996094-2.996094h4.001953c1.679305 0 3.003906 1.316774 3.003906 2.996094.02893 1.304078 1.971066 1.304078 2 0 0-2.15099-1.382267-3.973766-3.296875-4.675782.796456-.885636 1.296871-2.041429 1.296875-3.318359-.000009-2.7495684-2.256286-5.0058592-5.005859-5.0058592zm0 2.0019531c1.668695 0 3.005854 1.335207 3.005859 3.0039061-.000005 1.668699-1.337164 2.998047-3.005859 2.998047-1.668696 0-2.996089-1.329348-2.996094-2.998047.000005-1.6686991 1.327398-3.0039061 2.996094-3.0039061zm-6.09375 14.0019531c-.000652.00065-.0013.0013-.002.002-1.302529.09647-1.202014 2.038511.103515 2h11.994141c1.363604.03062 1.363604-2.030615 0-2h-11.994094c-.0338-.0024-.0677-.003-.101562-.002zm18.097656 0c-.552285 0-1 .447715-1 1s.447715 1 1 1 1-.447715 1-1-.447715-1-1-1zm-16.099609 4.001953c-1.303709.09543-1.203081 2.039669.103515 2h7.994141c1.304853-.02818 1.304853-1.971824 0-2h-7.994141c-.03448-.0018-.06903-.0018-.103515 0z" fill-rule="evenodd" transform="matrix(.265 0 0 .265 0 288.533)" font-variant-ligatures="normal" font-variant-position="normal" font-variant-caps="normal" font-variant-numeric="normal" font-variant-alternates="normal" font-feature-settings="normal" text-indent="0" text-align="start" text-decoration-line="none" text-decoration-style="solid" text-decoration-color="rgb(0,0,0)" text-transform="none" text-orientation="mixed" white-space="normal" shape-padding="0" isolation="auto" mix-blend-mode="normal" solid-color="rgb(0,0,0)" solid-opacity="1" vector-effect="none" paint-order="stroke fill markers"/></g></svg>