<?xml version="1.0" encoding="UTF-8"?>
<svg id="Layer_1" data-name="Layer 1" xmlns="http://www.w3.org/2000/svg" viewBox="0 0 428.24 425.55">
  <defs>
    <style>
      .cls-1 {
        fill: #000051;
        fill-rule: evenodd;
      }
    </style>
  </defs>
  <path class="cls-1" d="M65.43,250.61c-3.02-3.13-6.05-5.94-9.08-8.9-3.05-2.99-5.8-6.01-8.59-9.47C-12.93,156.6,26.5,58.95,110.8,28.58c57.05-20.55,120.95-5.22,160.01,35.34,5.93,6.15,10.85,12.04,16.1,20.04,4.58,6.98,8.78,15.25,12.24,24.07,7.21,18.38,10.02,41.68,6.62,63.01-6.56,41.23-33.03,69.32-58.32,85.42-29.97,19.08-73.63,29.7-115.03,21.56-9.09-1.79-5.33-3.12-13.03,1.33-3.88,2.24-7.22,4.47-11.43,6.52-8.05,3.92-15.82,7.54-24.3,10.94-9.06,3.63-47.1,17.27-56.63,11.74,1.56-1.37,5.27-3.22,7.27-4.53,17.65-11.58,28.89-30.54,31.12-53.42h0ZM292.11,59.18c-1.61-1.25-3.36-3.92-5.57-6.04-4.89-4.68-5.19-5.66-11.52-11.43C248.33,17.38,208,1.54,170.54,.43,127.78-3.2,81.21,16.73,56.48,37.31c-14.38,11.97-25.06,23.25-35.79,40.82-28.53,46.76-27.15,104.3,1.63,150.46,8.93,14.32,12.16,16.58,21.56,26.65,3.85,4.12-4.14,16.53-6.34,19.82-4.48,6.7-12.15,13.83-20.3,17.92-4.9,2.46-8.7,3.34-12.27,6.75-3.02,2.88-5.76,8.31-4.21,14.79,2.24,9.37,12.92,13.89,23.96,14.33,32.98,1.33,67.53-12.52,95.67-27.82,6.66-3.62,5.2-4.66,9.6-3.85l12.15,1.81c80.34,8.08,166.38-37.21,181.51-122.06,4.04-22.67,2.34-47.92-4.54-68.47-7.41-22.14-14.25-31.9-27-49.27h0Z"/>
  <path class="cls-1" d="M403.32,316.36c-5.07,17.26-25.77,38.08-37.68,45.46,2.34,17.11,12,28.37,24.21,36.39,1.23,.81,11.14,6.94,11.43,7.49-23.14,2.73-52.34-3.63-70.63-17.28-9.17-6.85-11.44-11.79-14.84-14.75-8.25,1.01-15.12,2.79-24.11,3.29-24.18,1.35-49.98-1.67-72.29-9.43-17.62-6.13-40.07-18.5-51-32.24-7.02-8.83-6.56-9.54-11.28-16.06l-18.94-1.86-1.9,.66c4.5,17.34,22.73,36.72,34.69,45.8,30.9,23.47,70.22,32.68,108.91,32.77,11.82,.03,24-1.87,29.69-1.84,3.29,4.68,11.26,10.21,17.16,13.88,20.16,12.53,49.74,18.75,73.77,16.43,8.97-.87,17.46-3.02,22.96-7.94,7.23-6.47,5.69-15.46-.95-21.12-8.15-6.96-29.94-15.07-34.95-26.71l8.85-8.71c49.77-51.55,38.15-125.19-16.68-164.17l-9.62-6.87c-3.91-1.48-8.95-5.12-13.3-7.2-4.08-1.95-10.03-4.98-14.55-6.05,.12,7.05-2.88,12.98-3.66,19.23,8.78,2.03,25.84,13.14,31.86,17.77,9.25,7.1,17.11,15.05,24.07,25.13,11.39,16.51,17.4,37.54,14.12,59.16-.61,4-3.35,17.18-5.34,18.77h0Z"/>
  <path class="cls-1" d="M83.82,106.54l158.15,.05,.13-18.99c-3.61-1.02-105.62-.34-118.73-.34-12.3,0-27.65-.84-39.58,.11l.03,19.17h0Z"/>
  <polygon class="cls-1" points="83.79 154.77 85.84 154.95 242.09 154.92 242.09 135.58 83.79 135.58 83.79 154.77 83.79 154.77"/>
  <polygon class="cls-1" points="83.78 203.17 195.48 203.26 195.47 184.09 83.93 183.91 83.78 203.17 83.78 203.17"/>
  <path class="cls-1" d="M344.33,290.24c-22.91,0-45.81,0-68.72,0-8.66,0-7.72-.94-14.25,2.94-6.48,3.85-16.31,8.6-23.33,11.42-3.4,1.36-9.91,3.26-12.42,4.95h118.76s-.03-19.31-.03-19.31h0Z"/>
  <path class="cls-1" d="M344.1,261.25l.11-19.02-27.59-.04c-2.36,3.12-4.47,6.24-7.18,9.6-2.43,3.02-5.75,6.41-7.74,9.48h42.4Z"/>
  <path class="cls-1" d="M344.1,261.25l.64-9.53c0-3.19,.35-6.66-.24-9.76l-24.96-.32c-.41,0-1.22,.01-1.6,.07-1.85,.27-.83,.24-1.33,.48l27.59,.04-.11,19.02h0Z"/>
</svg>