<?xml version="1.0" encoding="UTF-8"?>
<svg id="Layer_1" data-name="Layer 1" xmlns="http://www.w3.org/2000/svg" viewBox="0 0 435.35 331.85">
  <defs>
    <style>
      .cls-1 {
        fill: #000051;
        fill-rule: evenodd;
      }
    </style>
  </defs>
  <path class="cls-1" d="M380.92,122.76c5.12-2.66,11.41-7.06,16.27-9.13,5.28,1.97,13.02,6.2,16.68,9.8l.06,18.34c-2.74,1.96-14.32,9.16-16.65,9.1-1.05-.03-14.74-7.81-16.27-8.9l-.1-19.21h0ZM52.5,88.55c.39-11.69,.09-23.84,.09-35.58,0-18-2.76-25.3,9.18-25.3H373.05c7.35,0,9.66,1.55,9.66,8.89l-.02,60.97c-14.44,5.69-26.82,22.12-22.24,43.31,3.43,15.84,18.77,30.43,38.69,29.43,33.05-1.65,45.18-38.57,29.27-59.71-2.85-3.78-4.62-5.62-8.06-8.39-2.83-2.27-8.07-3.66-9.85-6.74,0-21.47,.37-43.27,0-64.7-.34-19.39-13.71-30.74-33.58-30.74H58.39C40.28,0,26.5,9.97,25.01,27.08c-1.57,18.15,.16,41.76-.17,60.67,13.93-.63,13.09-1.59,27.66,.8h0Z"/>
  <path class="cls-1" d="M52.73,167.83c4.95-4.16,8.7-4.16,15.38-12.51,15.05-18.79,5.55-48.61-10.78-55.13l-.24,31.55c-3.53,2.05-17.19,10.75-19.77,10.49l-17.04-9.69c-1.62-1.46-.83-.26-1.85-2.36l.05-29.75c-8.8,1.97-20.66,20.09-18.14,37.45,3.7,25.39,23.55,27,24.56,31.87,.65,3.1-1.16,61.92,.42,70.62,4.84,26.57,30.32,24.42,46.57,24.42H354.71c26.02,0,43.97,2.59,53.19-17.74,4.46-9.84,2.77-53.56,2.57-67.45-13.46,.88-13.64,1.7-27.84-.61,.26,9.23,2.54,51.94-2.1,56.16-3.94,3.58-45.96,1.83-54.77,1.83H68.04c-12.28,.04-15.56,1.14-15.47-12.19,.12-18.48-.84-38.77,.16-56.97h0Z"/>
  <path class="cls-1" d="M154.25,312.82c-8.19,.27-26.23-1.01-32.89,.19-5.13,.92-5.08,5.9-4.85,11.19,.27,6.17,1.32,7.51,7.45,7.66l191.41-.37c5.24-3.38,4.51-13.86,.74-18.48l-34.87-.24-13.39-38.86-100.81,.04-12.79,38.88h0Z"/>
  <path class="cls-1" d="M145.88,120.53c-3.9-18.93,9.45-34.36,24.71-37.47,41.72-8.48,52.75,54.9,12.03,62.23-18.86,3.39-33.63-9.62-36.74-24.76h0Zm19.95-56.64l-16.71,6.6c-3.07-2.13-6.91-5.37-10.62-6.31-3.18,1.97-10.12,8.6-11.45,11.94,1.77,3.9,4.67,6.72,6.48,10.62-2.95,5.91-4.55,8.96-6.58,16.23l-12.3,2.22-.5,17.36,12.33,2.46c12.01,22.58,2.63,18.18,.4,27.37,2.4,3.16,8.37,9.74,11.63,11.5,4.09-1.53,7.12-4.34,10.62-6.4,5.44,1.8,9.11,5.01,16.64,6.31l2.2,12.66,16.87,.36,3.05-12.83c7.04-1.38,9.04-3.76,14.42-5.69,4.63-1.67,6.8,4.82,13.88,5.92,3.26-3.74,6.95-6.89,10.45-11.82-1.23-3.96-4.12-6.78-6.44-10.62,2.44-6.24,4.73-8.53,6.33-16.28,2.26-.39,4.18-.7,6.49-1.11,.49-.09,2.77-.54,3.19-.68,5.23-1.82-4.55,2.24,1.4-.62,4.01-1.93,2.05-15.73,1.07-16.81-2.5-2.01-7.67-2.2-11.37-3.11-1.33-2.19-5.64-13.36-6.96-16.42,2.06-3.46,5.38-6.88,6.53-10.62-2.42-2.86-8.77-9.99-12.12-11.76-4.89,2.06-8.29,7.29-12.15,5.64-5.43-2.33-8.33-3.76-14.47-5.89l-2.5-12.54-16.6-.15-3.2,12.46h0Z"/>
  <path class="cls-1" d="M263.52,147.92c32.3-9.19,45.49,41.4,11.96,48.85-31.15,6.92-43.69-39.82-11.96-48.85h0Zm-24.63-16.44c-8.77,5.17-11.86,10.01-3.95,17.72-1.74,4.91-4.18,7.87-5.37,13.79l-10.42,1.95,.24,13.52c3.55,2.22,5.69,1.6,9.78,2.94l5.52,13.42c-2.04,2.91-3.81,3.96-5.11,7.77,1.75,4.37,4.9,7.51,9.3,9.97,4.47-1.06,5.41-3.06,8.69-5.03,4.18,1.38,7.25,3.6,13.1,5.12l2.18,10.57,14.25,.13c2.37-10.14-.16-10.98,15.92-15.74,2.6,2.15,3.58,3.76,7.64,5.23,3.58-1.5,8.06-6.3,9.81-9.28-1-4.49-3.1-5.37-4.84-8.63l5.65-13.57,9.81-1.88,.1-14.16-9.91-2.06c-.82-1.42-5.31-12.39-5.83-14.13,1.84-1.41,4.07-4.72,5.27-7.34-1.55-3.71-6.01-7.88-9.1-9.92-6.66,1.61-6.2,9.22-22.27-.7l-2.04-9.88-13.34,.06c-4.11,6.15,.49,8.12-6.27,11.23l-10.51,4.33c-1.84-2.18-5.39-4.44-8.3-5.42h0Z"/>
  <path class="cls-1" d="M250.03,82.89c-2.05-27.15,37.57-29.8,39.93-3.82,1.07,11.68-7.71,20.94-18.4,21.75-11.41,.87-20.75-7.59-21.54-17.93h0Zm-.19-37.33c-.19,8.04,3.55,5.19-2.2,11.29-6.68,7.08-3.3,3.34-12.62,3.59-1.89,2.96-3.68,6.54-3.97,9.9l6.27,4.62-.15,12.02c-2.78,.98-3.7,1.36-6.07,3.62,.1,3.7,1.69,7.08,3.37,10.17l8.28-.77c2.31,2.65,5.31,5.58,7.84,7.98l-1.31,7.67c3.52,2.55,6.78,3.98,11.25,4.29l3.17-6.47,12.28,.23c3.3,9.77,5.61,6.13,13.98,2.92l-.83-8.64c3.16-3.23,4.41-4.31,7.67-7.59l8.75,1.24,3.84-9.93c-2.87-2.63-3.49-3.27-6.85-4.61l.33-12.05,6.27-3.9-3.41-10.5-9.33,1.3c-1.89-4.32-3.83-5.15-7.16-7.84l1.56-7.85c-3.03-2.31-6.73-4.03-10.32-4.56-2.55,2.36-2.38,3.84-4.91,6.44l-11.45-.13c-1.45-2.76-2.58-4.47-4.1-6.42-3.66,.7-7.67,2.53-10.18,3.99h0Z"/>
  <path class="cls-1" d="M196.37,120.53c-2.66,8.99-13.21,16.5-24.9,13.4-9.53-2.52-18.59-13.15-14.09-26.37,8.45-24.78,46.89-13.72,38.99,12.97h0Z"/>
  <path class="cls-1" d="M196.37,120.53c7.91-26.69-30.54-37.75-38.99-12.97-4.51,13.22,4.56,23.85,14.09,26.37,11.69,3.09,22.24-4.41,24.9-13.4h0Z"/>
  <path class="cls-1" d="M266.85,156.74c-20.46,4.45-13.92,35.71,7.12,30.81,18.14-4.22,13.93-35.39-7.12-30.81h0Z"/>
  <path class="cls-1" d="M266.16,70.19c-4.17,1.56-4.99,1.74-6.59,5.45-4.18,9.73,3.72,19.53,14.31,16.23,5.28-1.65,9.46-8.32,7.02-15.26-1.87-5.32-8.23-8.85-14.74-6.43h0Z"/>
</svg>