 
<svg class="svgico"  fill="#28307e" id="Layer_1" data-name="Layer 1" xmlns="http://www.w3.org/2000/svg" viewBox="0 0 439.08 438.89"> 
  <path class="cls-1" d="M97.9,53.27c6.38,4.1,19.59,22.95,27.65,22.95,3.15,0,23.88-12.28,29.82-14.82,35.33-15.05,31.26,5.31,31.26-46.26h65.77c0,50.2-4.14,32,29.59,45.57,25.72,10.35,31.37,30.77,57.33-7.99l47.55,46.41c-42.83,30.1-15.74,28.37-3.51,73.98,4.5,16.79,1.39,13.51,40.52,13.51v65.77c-36.81,0-35.85-3.34-40.07,11.61-2.19,7.78-2.76,9.88-5.88,17.61-10.9,27.09-29.46,32.37,8.36,57.69l-46.41,47.55c-30.1-42.83-28.37-15.74-73.98-3.51-16.79,4.5-13.51,1.38-13.51,40.52h-65.77c0-48.46,4.95-32.18-29.22-45.94-6.44-2.59-29.57-15.13-31.85-15.13-8.06,0-21.26,18.85-28.19,23.49l-44.06-45.2c4.07-6.35,22.92-19.56,22.92-27.62,0-2.14-15.94-30.38-20.56-47.56-4.5-16.79-1.38-13.51-40.52-13.51v-65.77c48.46,0,32.19,4.95,45.94-29.22,10.9-27.09,29.46-32.37-8.36-57.69l45.17-46.44h0Zm74.62-14.64l-46.98,18.79c-9.92-6.64-15.7-20.15-28.19-23.49l-64,62.85c4,15.29,16.74,20.17,24.07,31.11-11.37,21.5-12.06,30.61-18.79,44.63-48.5,0-37.58-16.26-37.58,86.91,0,11.21,19.03,7.05,39.93,7.05,1.54,18.48,13.12,32.71,16.44,46.98l-24,25.33c3.19,10.3,57.03,61.66,63.94,66.28,12.49-3.33,18.27-16.85,28.19-23.49l46.98,18.79c0,7.14-.15,14.23-.2,21.34-.18,23.04-2.54,16.24,87.11,16.24,11.21,0,7.05-19.03,7.05-39.93,17.53-1.46,32.33-13.03,46.98-16.44l25.33,24c8.79-2.71,63.98-57.68,66.28-66.28l-24-25.33c4.01-15.53,16.54-28.78,16.96-47.49,26.73,0,39.93,3.79,39.93-7.05,0-103.45,11.58-86.91-39.93-86.91-1.54-18.48-13.12-32.71-16.44-46.98,6.64-9.92,20.15-15.7,23.49-28.19l-62.85-64c-15.3,4.01-20.17,16.74-31.11,24.07-6.98-3.69-12.73-6.53-20.77-9.76-6.7-2.69-17.26-5.86-23.86-9.03,0-48.5,16.26-37.58-86.91-37.58-11.1,0-7.05,18.23-7.05,37.58h0Z"/>
  <path class="cls-1" d="M102.06,231.25v-23.49c0-50.99,54.72-105.7,105.71-105.7,38.32,0,67.26,3.62,96.98,34.56,43.47,45.26,43.85,121.94-1.16,166.95-30.51,30.5-57.36,33.38-95.81,33.38-50.99,0-105.71-54.72-105.71-105.7h0Zm-16.44-11.74c0,118.5,144.59,179.04,228.48,94.59,84.94-85.5,22.22-228.48-94.59-228.48-73.53,0-133.89,60.22-133.89,133.89h0Z"/>
  <path class="cls-1" d="M214.81,219.5c0-3.26,8.16-9.69,8.16,0s-8.16,3.26-8.16,0h0Zm-2.35-77.52c0,14.94,.16,29.9,.19,44.82,.06,28.05-13.31,10.1-13.31,32.7,0,17.68,12.92,9.36,13.35,30.31,.31,15.37-.23,31.69-.23,47.21,9.19,2.14,4.9,2.14,14.09,0,0-14.94-.16-29.9-.19-44.82-.06-28.05,13.31-10.1,13.31-32.7,0-17.68-12.92-9.36-13.35-30.31-.31-15.38,.23-31.69,.23-47.21-6.85-1.6-7.29-2.64-14.09,0h0Z"/>
  <path class="cls-1" d="M266.49,193.67c0-3.26,8.16-9.69,8.16,0s-8.16,3.26-8.16,0h0Zm-2.35-51.68c0,34.18,3.21,26.44-7.12,37.53-12.77,13.71-4.22,23.4,2.55,30.45,8.21,8.56,4.57,13.96,4.57,40.07,0,15.66,0,31.32,0,46.98,9.19,2.14,4.9,2.14,14.09,0l-.13-68.25c-.17-14.16-1.89-11.84,4.72-18.77,1.31-1.37,1.02,.62,4.77-4.74,5.17-7.4,5.07-17.08-1.06-24.52-9.74-11.82-8.3,6.56-8.3-38.75-6.85-1.6-7.3-2.64-14.09,0h0Z"/>
  <path class="cls-1" d="M172.53,240.65c-.76,9.18,1.42,7.14-7.05,9.4-3.56-7.7-3.28-8.54,7.05-9.4h0Zm-23.49,2.35c0,25.89,11.7,6.88,11.87,32.76,.12,18.37-2.94,25.2,13.97,21.26,0-9.15-2.47-23.87,1.32-31.57,2.97-6.03,20.21-12.17,8.96-30.39-7.64-12.35-9.53-1.61-10.5-17.7l.22-75.39c-19.03-4.43-14.1,5.18-14.09,46.98,0,6.49,.88,27.9-.16,32.73-2.81,13.02-11.59,3.21-11.59,21.3h0Z"/>
</svg>