<?xml version="1.0" encoding="UTF-8"?>
<!DOCTYPE svg PUBLIC "-//W3C//DTD SVG 1.1//EN" "http://www.w3.org/Graphics/SVG/1.1/DTD/svg11.dtd">
<!-- Creator: CorelDRAW 2020 (64-Bit) -->
<svg xmlns="http://www.w3.org/2000/svg" xml:space="preserve" width="50px" height="50px" version="1.1" style="shape-rendering:geometricPrecision; text-rendering:geometricPrecision; image-rendering:optimizeQuality; fill-rule:evenodd; clip-rule:evenodd"
viewBox="0 0 50 50"
 xmlns:xlink="http://www.w3.org/1999/xlink"
 xmlns:xodm="http://www.corel.com/coreldraw/odm/2003">
 <defs>
  <style type="text/css">
   <![CDATA[
    .str0 {stroke:#000051;stroke-width:2.36;stroke-miterlimit:22.9256}
    .str1 {stroke:#FF9933;stroke-width:2.36;stroke-miterlimit:22.9256}
    .fil0 {fill:none}
   ]]>
  </style>
 </defs>
 <g id="Layer_x0020_1">
  <metadata id="CorelCorpID_0Corel-Layer"/>
  <g id="_1318334180224">
   <path class="fil0 str0" d="M12.28 24.88c0,1.5 -0.39,6.71 0.25,8.02 0.42,0.88 1.05,1.17 1.92,1.44l8.23 0.02 5.82 0c1.26,-0.07 2.15,-0.9 2.4,-1.96 0.18,-0.73 0.1,-3.43 0.08,-4.34 1.64,0.65 4.96,3.49 6.86,4.59l0.03 -14.52c-2.29,1.47 -4.53,3.02 -6.79,4.54 -0.27,-0.24 -0.1,-3.53 -0.1,-4.19 0,-1.42 -0.47,-1.91 -1.44,-2.58 -1.16,-0.37 -2.4,-0.24 -3.69,-0.24 -1.32,-0.01 -2.63,-0.01 -3.95,0l-6.93 0c-1.06,0.01 -1.86,0.46 -2.35,1.29 -0.84,1.41 -0.35,5.75 -0.34,7.93z"/>
   <circle class="fil0 str1" cx="25" cy="25" r="21.24"/>
  </g>
 </g>
</svg>
