<?xml version="1.0" encoding="UTF-8"?>
<svg id="Layer_1" data-name="Layer 1" xmlns="http://www.w3.org/2000/svg" viewBox="0 0 538.19 591">
  <defs>
    <style>
      .cls-1 {
        fill: #000051;
        fill-rule: evenodd;
      }
    </style>
  </defs>
  <path class="cls-1" d="M27.66,544.47v-7.54H349.57c0,11.69,.82,26.4-16.35,26.4H44.01c-11.47,0-16.35-7.28-16.35-18.86h0Zm470.28-88.02H176.04c-7.85,0-13.83-3.6-13.83-11.32V145.86c0-14.35,18.28-11.32,32.69-11.32h133.29c1.34,5.76,13.2,28.27,16.74,34.82,5.53,10.23,17.05,19.26,32.3,19.26h133.29v255.26c0,7.07-5.51,12.57-12.57,12.57h0ZM358.37,134.55c9.47,0,136.96-1.01,142.85,.49,11.51,2.94,9.3,14.78,9.3,25.91h-134.55c-6.79,0-12.8-17.33-17.6-26.41h0Zm-223.83,11.32V445.14c0,23.28,18.88,38.98,42.75,38.98h172.27v25.15H27.66V46.53c0-24.85,21.91-18.86,59.1-18.86,1.5,6.45,11.11,23.47,14.67,30.6,5.43,10.85,7.94,23.47,23.05,23.47H252.75c15.02,0,17.46-12.28,22.63-22.63,3.42-6.85,13.57-24.93,15.09-31.43,69.59,0,59.1-10.88,59.1,79.22H177.3c-23.87,0-42.75,15.7-42.75,38.98h0ZM116.95,27.66h143.34s-13.03,26.18-13.03,26.18l-117.74,.23-12.56-26.41h0ZM0,47.78v495.43c0,15.04,3.9,25.88,11.6,33.67,8.31,8.39,16.09,14.12,32.41,14.12H333.22c27.23,0,44.01-20.27,44.01-47.78v-59.1h118.2c25.67,0,42.75-17.09,42.75-42.75V149.64c0-25.67-17.09-42.75-42.75-42.75h-118.2V47.78c0-13.87-3.96-25.86-10.96-33.05-7.45-7.64-16.04-14.74-30.53-14.74H41.5C27.36,0,18.89,6.75,11.6,14.12,3.9,21.9,0,32.74,0,47.78H0Z"/>
  <path class="cls-1" d="M188.62,414.96c0,9.31,4.53,15.09,15.09,15.09h240.17c17.35,0,17.35-27.66,0-27.66H203.71c-8.12,0-15.09,4.71-15.09,12.57h0Z"/>
  <path class="cls-1" d="M188.62,360.89c0,8.66,4.21,15.09,12.57,15.09h135.8c16.07,0,19.09-27.66-3.77-27.66H204.96c-8.27,0-16.35,4.41-16.35,12.57h0Z"/>
  <path class="cls-1" d="M349.57,227.6c0,13.35,13.74,18.13,20.12,27.66-6.38,9.53-20.12,14.31-20.12,27.66,0,8.95,6.6,12.58,15.09,12.58,6.79,0,38.98-31.27,38.98-40.24s-18-23.56-26.72-32.38c-5.75-5.81-5.89-7.86-14.78-7.86-6.77,0-12.57,5.74-12.57,12.57h0Z"/>
  <path class="cls-1" d="M188.62,254c0,10.79,9.15,16.07,17.29,24.21,8.14,8.14,13.42,17.29,24.21,17.29,7.17,0,12.58-6.62,12.58-13.83,0-9.32-15.45-19.44-20.12-26.41,3.93-5.87,20.12-18.1,20.12-25.15,0-10.56-5.78-15.09-15.09-15.09-7,0-38.98,31.99-38.98,38.98h0Z"/>
  <path class="cls-1" d="M269.09,280.41c0,10.64,4.45,15.09,15.09,15.09,10.05,0,15.05-16.28,21.8-29.76,2.41-4.83,17.19-33.01,17.19-35.63,0-15.46-18.67-23.45-28.52-3.37-3.14,6.4-5.6,11.26-8.78,17.63-3.03,6.06-16.77,31.04-16.77,36.05h0Z"/>
  <path class="cls-1" d="M215.02,174.78c0,18.09,27.66,18.09,27.66,0s-27.66-18.09-27.66,0h0Z"/>
  <path class="cls-1" d="M269.09,173.53c0,20.73,25.83,18.65,27.11,2.2,1.43-18.51-27.11-19.31-27.11-2.2h0Z"/>
</svg>