<?xml version="1.0" encoding="UTF-8"?>
<!DOCTYPE svg PUBLIC "-//W3C//DTD SVG 1.1//EN" "http://www.w3.org/Graphics/SVG/1.1/DTD/svg11.dtd">
<!-- Creator: CorelDRAW 2020 (64-Bit) -->
<svg xmlns="http://www.w3.org/2000/svg" xml:space="preserve" width="50px" height="50px" version="1.1" style="shape-rendering:geometricPrecision; text-rendering:geometricPrecision; image-rendering:optimizeQuality; fill-rule:evenodd; clip-rule:evenodd"
viewBox="0 0 50 50"
 xmlns:xlink="http://www.w3.org/1999/xlink"
 xmlns:xodm="http://www.corel.com/coreldraw/odm/2003">
 <defs>
  <style type="text/css">
   <![CDATA[
    .str0 {stroke:#FF9933;stroke-width:2.36;stroke-miterlimit:22.9256}
    .fil0 {fill:none}
    .fil2 {fill:#000051}
    .fil1 {fill:#FF9933}
    .fil3 {fill:white}
   ]]>
  </style>
 </defs>
 <g id="Layer_x0020_1">
  <metadata id="CorelCorpID_0Corel-Layer"/>
  <g id="_1318527812224">
   <circle class="fil0 str0" cx="34.43" cy="33.57" r="11.32"/>
   <path class="fil1" d="M28.18 46.68c-0.26,-0.24 -0.69,-0.39 -1.02,-0.6 -0.38,-0.23 -0.73,-0.43 -1.05,-0.64 -0.8,-0.51 -2.02,-1.6 -2.59,-2.32 -0.41,-0.53 -0.34,-0.51 -1.2,-0.5l-9.99 0c-2.17,0 -4.54,0.09 -6.68,-0.01 -0.13,-2.52 -0.01,-8.05 -0.01,-10.91l0 -24.56c0,-0.72 -0.22,-2.04 0.35,-2.36 0.34,-0.19 4.67,-0.12 5.4,-0.08 0.1,2.33 -0.27,2.7 2.72,2.7l10.83 0c3,0 2.61,-0.37 2.72,-2.7 1.32,-0.06 2.74,-0.01 4.06,-0.01 2.11,0 1.69,0.31 1.69,2.37 0,2.64 -0.1,5.5 0.01,8.12l1.34 0c0.03,-0.66 0.07,-9.52 -0.02,-10.14 -0.13,-0.88 -0.83,-1.59 -1.76,-1.69l-13.71 -0.02c-1.84,0 -12.76,-0.18 -13.61,0.11 -0.83,0.28 -1.35,0.94 -1.38,2.01 -0.07,3.13 0,7.13 0,10.33 0,9.12 0,18.23 0,27.35 0,1.13 -0.13,2.15 0.5,2.89 0.62,0.72 1.61,0.67 2.81,0.67l13.71 0c2.23,0 4.67,0.09 6.88,-0.01z"/>
   <path class="fil2" d="M33.74 31.53c0.05,-0.83 0.01,-1.78 0.01,-2.63 0,-0.72 -0.18,-1.85 0.68,-1.84 0.87,0 0.68,1.19 0.68,1.93 0,0.82 -0.04,1.74 0.01,2.54 0.64,0.45 1.03,0.53 1.27,1.43 0.41,1.54 -1.04,2.92 -2.55,2.46 -0.86,-0.26 -0.91,-0.61 -1.36,-1.25 -0.83,-0.06 -1.78,-0.01 -2.62,-0.01 -0.73,0 -1.85,0.18 -1.85,-0.68 -0.01,-0.88 1.19,-0.68 1.93,-0.68 0.82,0 1.74,0.04 2.54,-0.01 0.67,-0.96 0.3,-0.59 1.26,-1.26zm-4.76 -5.37l-0.49 0.33c0.17,0.42 0.33,0.33 0.51,0.65 0.18,0.3 0.12,0.64 -0.07,0.84 -0.6,0.58 -1.15,-0.3 -1.48,-0.43 -1.15,1.36 -2.01,3.3 -2.13,5.22 0.61,0.09 1.31,-0.03 1.31,0.71 0,0.74 -0.7,0.61 -1.31,0.7 0.07,1.09 0.35,2.07 0.72,2.95 0.33,0.77 1,1.79 1.41,2.28 0.4,-0.16 0.33,-0.33 0.63,-0.51 0.27,-0.16 0.64,-0.12 0.85,0.08 0.58,0.59 -0.29,1.11 -0.43,1.48 1.16,0.99 3.08,2 5.22,2.13 0.09,-0.62 -0.03,-1.31 0.71,-1.31 0.74,0 0.61,0.69 0.71,1.31 2.14,-0.13 4.06,-1.15 5.22,-2.13 -0.15,-0.37 -1.02,-0.89 -0.43,-1.48 0.58,-0.59 1.13,0.29 1.48,0.43 0.42,-0.5 1.06,-1.49 1.41,-2.28 0.37,-0.89 0.65,-1.86 0.72,-2.95 -0.62,-0.09 -1.31,0.04 -1.31,-0.7 0,-0.74 0.69,-0.62 1.31,-0.71 -0.13,-1.92 -0.98,-3.85 -2.13,-5.22 -0.33,0.13 -0.89,1.01 -1.48,0.43 -0.59,-0.59 0.28,-1.12 0.43,-1.49l-2.36 -1.37c-3.24,-1.02 -6.12,-0.67 -9.02,1.04z"/>
   <path class="fil3" d="M40.36 26.49c-0.15,0.37 -1.02,0.9 -0.43,1.49 0.59,0.58 1.15,-0.3 1.48,-0.43 1.15,1.37 2,3.3 2.13,5.22 -0.62,0.09 -1.31,-0.03 -1.31,0.71 0,0.74 0.69,0.61 1.31,0.7 -0.07,1.09 -0.35,2.06 -0.72,2.95 -0.35,0.79 -0.99,1.78 -1.41,2.28 -0.35,-0.14 -0.9,-1.02 -1.48,-0.43 -0.59,0.59 0.28,1.11 0.43,1.48 -1.16,0.98 -3.08,2 -5.22,2.13 -0.1,-0.62 0.03,-1.31 -0.71,-1.31 -0.74,0 -0.62,0.69 -0.71,1.31 -2.14,-0.13 -4.06,-1.14 -5.22,-2.13 0.14,-0.37 1.01,-0.89 0.43,-1.48 -0.21,-0.2 -0.58,-0.24 -0.85,-0.08 -0.3,0.18 -0.23,0.35 -0.63,0.51 -0.41,-0.49 -1.08,-1.51 -1.41,-2.28 -0.37,-0.88 -0.65,-1.86 -0.72,-2.95 0.61,-0.09 1.31,0.04 1.31,-0.7 0,-0.74 -0.7,-0.62 -1.31,-0.71 0.12,-1.92 0.98,-3.86 2.13,-5.22 0.33,0.13 0.88,1.01 1.48,0.43 0.19,-0.2 0.25,-0.54 0.07,-0.84 -0.18,-0.32 -0.34,-0.23 -0.51,-0.65 3.75,-2.52 8.52,-2.84 11.87,0zm-7.46 -3.46c-0.09,0.06 -0.01,0.05 -0.18,0.09 -0.21,0.04 -0.1,0 -0.26,-0.01 -0.19,0.15 -0.12,0.1 -0.43,0.09 -0.09,0.09 -0.06,0.05 -0.23,0.12 -0.01,0 -0.19,0.06 -0.2,0.06 -0.16,0.05 -0.25,0.07 -0.42,0.12l-0.13 0.02 -0.42 0.15 -1.11 0.46c-0.16,0.26 -0.07,0.14 -0.31,0.16 0.04,0.13 0.05,0.08 -0.12,0.1l-0.01 -0.02c-0.21,0.25 -0.13,0.13 -0.41,0.29 0.01,0.08 0.12,0.07 -0.12,0.04 -0.14,0.26 -0.23,0.28 -0.43,0.44 -0.1,0.09 -0.11,0.11 -0.24,0.19 -0.24,0.16 -0.09,0.07 -0.31,0.16l-0.3 0.31c-0.31,0.33 -0.51,0.64 -0.77,0.79 -1.52,1.94 -2.51,3.89 -2.56,6.63 -0.07,2.98 1,5.15 2.35,6.87 2.57,3.3 8.21,5.39 13.3,2.53 4.33,-2.43 6.47,-7.78 4.75,-12.62 -1.18,-3.32 -3.95,-5.83 -7.21,-6.67 -0.63,-0.16 -1.28,-0.28 -1.95,-0.32 -0.7,-0.05 -1.74,0.1 -2.28,0.02z"/>
   <path class="fil2" d="M19.01 12.52c2.36,-0.33 4.27,1.44 4.54,3.46 0.32,2.41 -1.44,4.32 -3.47,4.59 -2.4,0.32 -4.3,-1.44 -4.58,-3.46 -0.33,-2.45 1.44,-4.3 3.51,-4.59zm-0.44 -2.09c-1.37,0.38 -1.65,0.52 -2.69,1.09l-0.65 -0.65c-0.32,0.13 -1.26,1.05 -1.38,1.38l0.66 0.65c-0.68,1.51 -0.45,0.36 -1.1,2.69l-0.99 0.01 -0.01 1.88 1 0.02c0.65,2.32 0.42,1.17 1.1,2.68l-0.66 0.66c0.12,0.32 1.06,1.25 1.38,1.38l0.65 -0.66c0.85,0.3 0.27,0.41 2.69,1.1l0.01 0.99 1.88 0 0.02 -0.99c2.38,-0.67 1.86,-0.81 2.69,-1.1l0.65 0.66c0.32,-0.13 1.26,-1.06 1.38,-1.38l-0.66 -0.65c0.67,-1.5 0.45,-0.37 1.1,-2.69l0.99 -0.01 0.01 -1.88 -1 -0.02c-0.64,-2.3 -0.42,-1.19 -1.1,-2.69l0.66 -0.66c-0.12,-0.32 -1.06,-1.25 -1.38,-1.37l-0.65 0.66c-0.29,-0.1 -0.78,-0.46 -1.2,-0.64 -0.54,-0.23 -0.92,-0.3 -1.49,-0.46l-0.01 -1 -1.88 0 -0.02 1z"/>
   <path class="fil3" d="M19.02 13.89c1.58,-0.31 2.92,0.82 3.16,2.11 0.32,1.62 -0.83,2.96 -2.11,3.2 -3.56,0.68 -4.57,-4.62 -1.05,-5.31zm-0.01 -1.37c-2.07,0.29 -3.84,2.14 -3.51,4.59 0.28,2.02 2.18,3.78 4.58,3.46 2.03,-0.27 3.79,-2.18 3.47,-4.59 -0.27,-2.02 -2.18,-3.79 -4.54,-3.46z"/>
   <path class="fil2" d="M19.02 13.89c-3.52,0.69 -2.51,5.99 1.05,5.31 1.28,-0.24 2.43,-1.58 2.11,-3.2 -0.24,-1.29 -1.58,-2.42 -3.16,-2.11z"/>
   <path class="fil3" d="M34.23 32.84c0.86,-0.28 1.2,1.04 0.41,1.28 -0.89,0.27 -1.21,-1.03 -0.41,-1.28zm-0.49 -1.31c-0.96,0.67 -0.59,0.3 -1.26,1.26 -0.8,0.05 -1.72,0.01 -2.54,0.01 -0.74,0 -1.94,-0.2 -1.93,0.68 0,0.86 1.12,0.68 1.85,0.68 0.84,0 1.79,-0.05 2.62,0.01 0.45,0.64 0.5,0.99 1.36,1.25 1.51,0.46 2.96,-0.92 2.55,-2.46 -0.24,-0.9 -0.63,-0.98 -1.27,-1.43 -0.05,-0.8 -0.01,-1.72 -0.01,-2.54 0,-0.74 0.19,-1.93 -0.68,-1.93 -0.86,-0.01 -0.68,1.12 -0.68,1.84 0,0.85 0.04,1.8 -0.01,2.63z"/>
   <path class="fil2" d="M21.06 39.24c-3.47,-0.07 -7.31,0 -10.85,0 -0.78,0 -2.99,-0.31 -2.47,0.95 0.29,0.69 2.35,0.4 3.23,0.4l10.71 0c-0.09,-0.37 -0.46,-0.95 -0.62,-1.35z"/>
   <path class="fil2" d="M20.52 29.09c-2.1,-0.15 -7.39,-0.02 -10.06,-0.02 -0.81,0 -2.61,-0.31 -2.77,0.54 -0.22,1.16 1.71,0.82 2.52,0.82 2.82,0 7.6,0.13 9.97,-0.02l0.34 -1.32z"/>
   <path class="fil2" d="M10.13 35.85c-0.87,0 -2.65,-0.3 -2.43,0.82 0.16,0.82 1.9,0.53 2.76,0.53l9.87 0 -0.3 -1.33 -9.9 -0.02z"/>
   <path class="fil2" d="M10.21 32.46c-0.86,0 -2.53,-0.3 -2.53,0.68 0,0.98 1.67,0.68 2.53,0.68 3.03,0 6.78,0.09 9.65,-0.01l0.03 -1.35 -9.68 0z"/>
   <path class="fil1" d="M31.38 19.21c1.07,-0.08 1.89,-0.29 3.05,-0.29 1.16,0 1.98,0.21 3.05,0.29 -0.03,-2.77 -0.14,-2.67 -3.05,-2.67 -3.01,0 -3.02,0.01 -3.05,2.67z"/>
   <path class="fil2" d="M22.12 25.67c-2.33,0.06 -4.75,0 -7.08,0l-6.18 -0.01c-0.1,0 -0.35,0 -0.43,0.01l-0.28 0.1c-0.01,-0.02 -0.04,0.02 -0.06,0.03 -0.58,0.13 -0.51,0.91 -0.07,1.15 0.4,0.22 12.75,0.1 13.37,0.09 0.09,-0.57 0.54,-0.83 0.73,-1.37z"/>
   <path class="fil2" d="M34.23 32.84c-0.8,0.25 -0.48,1.55 0.41,1.28 0.79,-0.24 0.45,-1.56 -0.41,-1.28z"/>
  </g>
 </g>
</svg>
