<?xml version="1.0" encoding="UTF-8"?>
<svg id="Layer_1" data-name="Layer 1" xmlns="http://www.w3.org/2000/svg" viewBox="0 0 424.7 420.55">
  <defs>
    <style>
      .cls-1 {
        fill: #000051;
        fill-rule: evenodd;
      }
    </style>
  </defs>
  <path class="cls-1" d="M338.04,403.21l-19.74-20.21,69.35-68.9,19.75,19.32-69.36,69.79h0ZM17.14,333.85l19.32-19.75,69.79,69.36-20.21,19.74L17.14,333.85h0Zm109.08-99.43l9.45,9.87,38.63-38.18c.54,4.19,2.77,6.26,4.6,8.99-2.03,2.77-5.94,3.9-8.53,9.03-3.35,6.64,.7,4.64-6.61,11.82-4.71,4.62-13.57,14.66-18.22,17.78l10.32,10.75,16.69-16.22,9.19,8.77-16.22,16.69,10.05,10.55,16.7-16.28,9.65,9.23-36.42,36.87,10.08,9.66c6.48-4.2,13.87-15.95,19.1-17.35,.42,5.04,4.69,7.05,7.02,10.54-2.23,3.33-41.46,42.96-44.11,43.69-2.2,.61-14.16,.21-17.35,.21-30.2,0-17.8-.46-28.97,7.02l-54.65-54.22c7.8-5.3,7.35-9.44,9.7-18.83,1.95-7.79,3.74-14.68,5.6-22.5,1.42-5.98,1.28-4.74,5.33-8.72l70.24-70.24c3.21-3.25,4.13-5.48,9.44-5.48,2.25,0,5.27,2.44,5.27,7.02,0,7.09-31.57,32.91-36,39.51h0Zm95.7-38.63c0-4.66,2.27-7.9,7.02-7.9s11.14,8.06,16.02,12.95l43.68,43.24,9.87-9.45c-6.92-10.11-36.21-32.71-36.21-39.72,0-4.29,2.07-7.02,6.15-7.02,4.77,0,10.76,7.68,15.58,12.51l63.22,63.21c4.05,3.97,3.92,2.73,5.33,8.72,1.85,7.82,3.65,14.71,5.6,22.5,2.35,9.39,1.9,13.54,9.48,18.61l-54.22,54.65c-7.1-4.82-3.29-7.35-16-7.26-7.91,.06-15.83-.05-23.74,.04-5.43,.06-6.48,.87-9.5-1.92-2.09-1.94-3.94-4.08-6.07-6.22l-47.44-47.38c-1.95-1.92-3.91-3.89-3.4-7.42,.52-3.56,2.95-5.56,6.73-5.56,4.87,0,12.81,9.74,17.78,14.71,4.27,4.27,13.61,12.64,16.46,16.9l10.75-10.33c-4.15-2.83-50.6-50.16-58.38-57.94-3.43-3.43-6.22-6.22-9.66-9.66-2.82-2.82-8.56-6.82-8.56-11.63,0-3.76,2.71-7.02,6.15-7.02,4.8,0,11.14,8.06,16.02,12.95l43.68,44.12,10.75-10.33c-6.58-9.62-71.33-68.82-71.33-73.08,0-6.54,1.36-7.9,7.9-7.9,2.92,0,34.05,32.73,36.66,35.34,5.53,5.53,32.58,33.34,36.22,35.78l10.75-10.33c-4.12-2.83-57.28-56.52-57.28-58.16h0Zm-58.82-21.07c-3-1.69-7.93-.88-11.41-.88s-.32-.27-2.63,.88l-.03-78.17c.45-4.3,6.69-8.83,12.1-14.24,3.14-3.14,5.64-5.64,8.78-8.78,7.89-7.88,7.24-5.42,7.24-17.34h77.26c0,13.24,1.54,12.18,11.25,28.26,6.95,11.51,9.92,13.26,9.83,23.53-.19,22.22-.01,44.51-.01,66.74-3.68-1.77-10.3-.87-14.05,0v-13.17h-14.05v21.07c-5.62-3.76-5.27-6.73-14.05-8.78v-12.29h-14.05v12.29c0,2.73-.51,1.16-4.63,5.03-2.2,2.06-3.11,4.1-5.02,5.51-6.15-4.11-4.39-1.37-4.39-22.83h-14.05c0,23.76,1.61,14.18-8.22,19.87-3.78,2.19-3.82,4.58-7.59,5.59,.11-4.93,1.76-4.89,1.76-9.66v-43.9h-14.05v41.26h0Zm7.02-160.67h98.33v28.1h-98.33V14.05h0Zm-14.05-7.02V49.17c0,4.6,2.7,6.67,7.02,7.02,0,5.66,0,3.96-5.93,9.88l-15.8,15.8c-2.52,2.51-6.37,4.97-6.37,9.44v86.04c0,3.18,.74,4.9,1.76,7.02-3.69,2.47-48.1,47.67-52.46,52.02-4.46,4.46-8.27,8.27-12.73,12.73-15.35,15.35-11.03,9.21-17.52,35.16-2.78,11.12-1.87,12.05-6.85,19.49-9.29-6.22-7.52-13.11-21.29,.66-3.29,3.29-5.93,5.93-9.22,9.22-24.34,24.34-26.73,13.22,24.58,64.53,3.63,3.63,40.14,42.36,44.56,42.36,4.97,0,14.83-11.75,19.98-16.9,3.28-3.28,17.78-16.24,17.78-19.97,0-8.51-11.02-7.91,25.46-7.9,17.73,0,12.99,1.5,25.68-11.19,5.76-5.75,33.8-34.59,37.54-37.09,5.7,3.82,36.86,37.3,46.27,45.91,6.27,5.74,37.76-.12,42.68,3.08,3.11,2.02-.28,3.46-.28,6.32,0,4.97,11.75,14.83,16.9,19.97,23.9,23.9,16.75,24.08,43.02-2.19l54.43-54.43c15.38-15.38,13.25-11.77-16.68-41.7-13.77-13.77-12-6.88-21.29-.66-4.86-7.26-3.2-4.91-5.97-15.98-1.51-6.05-3-11.97-4.39-17.56-3.32-13.38-4.98-12.09-18.39-25.5l-55.33-55.3c-5.41-5.18-3.72-5.07-3.72-18.23V104.47c.09-12.79-4.66-16.38-13.22-30.67-4.33-7.24-7.85-10.43-7.85-17.61,18.06,0,14.05,1.46,14.05-49.17,0-4.25-2.78-7.02-7.02-7.02h-112.38c-4.25,0-7.02,2.78-7.02,7.02h0Z"/>
  <path class="cls-1" d="M36.68,203.69c0,11.88-.35,17.68,1.13,29.6,.51,4.11,2.05,10.28,2.39,14.3,4.71-.39,8.82-2.52,14.05-2.63,0-6.35-3.51-18.9-3.51-34.24,0-45.08,23.15-96.75,57.06-122.92l17.21-12.64c6.73-4.51,12.6-7.32,19.67-11.06-.21-2.52-4.12-11-5.27-13.17-11.58,2.7-46.73,28.46-55.44,39.38-18.15,22.75-23.23,25.98-36.76,59.82-5.16,12.93-10.53,35.57-10.53,53.57h0Z"/>
  <path class="cls-1" d="M293.04,71.12c14.34,7.59,26.17,18.82,37.54,30.06,15.53,15.35,28.25,39.77,35.22,60.48,6.98,20.75,9.24,43.94,7.01,65.62-.54,5.24-2.51,12.26-2.51,17.68,5.23,.12,9.34,2.24,14.05,2.63,.84-10.06,3.51-14.37,3.51-29.85v-13.17c0-42.47-18.45-77.99-40-105.74-2.65-3.41-4.56-4.68-7.04-7.89l-14.68-14.3c-2.83-2.4-5.49-4.36-8.39-6.53-3.72-2.78-14.25-10.93-18.56-11.29-1.13,4.86-5.01,7.43-6.15,12.29h0Z"/>
  <path class="cls-1" d="M64.77,204.57l.88,28.09c6.81,0,9.51-1.31,14.93-1.76-.08-3.55-.74-5.08-.88-9.66-.35-11.3-2.02-10.97,.48-27.62,2.37-15.8,6.11-28.57,12.99-42.33,14.15-28.29,26.88-34.5,32.19-42.43-2.26-3.37-6.52-7.16-8.78-10.54-5.34,3.57-15.08,14.58-19.52,19.99-12.24,14.9-21.38,33.32-26.91,52.1-2.63,8.94-5.37,22.92-5.37,34.14h0Z"/>
  <path class="cls-1" d="M299.19,108.87c5.26,7.86,18.08,14.22,32.19,42.43,4.44,8.87,7.36,16.5,9.95,26.92,2.33,9.36,4.39,21.77,4.39,33.37,0,14.12-5.38,11.75,8.34,13.76,7.54,1.1,5.71,.25,5.71-20.78,0-29.33-13.86-63.82-32.28-86.24-4.44-5.41-14.18-16.42-19.52-19.99-2.26,3.37-6.52,7.16-8.78,10.54h0Z"/>
  <path class="cls-1" d="M205.25,386.31c10.85,0,23.25,.37,33.53-1.66,4.1-.81,3.27-.47,2.15-5.83-.58-2.77-1.38-6.57-1.44-9.2-4.24,.35-8.44,1.65-13.16,1.77-5.94,.14-8.21,.87-14.06,.87-10.71,0-19.36-1.98-27.22-2.63-.24,10.91-5.82,13.75,.71,15.03,5.23,1.02,13.18,1.66,19.49,1.66h0Z"/>
  <path class="cls-1" d="M205.25,350.31c0,4.41-.79,3.93-.88,7.9h15.8l-.88-14.05h-14.05v6.15h0Z"/>
</svg>