<?xml version="1.0" encoding="UTF-8"?>
<svg id="Layer_1" data-name="Layer 1" xmlns="http://www.w3.org/2000/svg" viewBox="0 0 422 422">
  <defs>
    <style>
      .cls-1 {
        fill: #000051;
        fill-rule: evenodd;
      }
    </style>
  </defs>
  <path class="cls-1" d="M185.45,239.85h0ZM209.2,0h3.53c6.24,.35,12.42,2.55,18.07,6.58,4.61,3.28,7.26,7.94,9.88,13.2,10.03,20.21,23.27,37.09,6.59,37.09-5.7,0-17.31-33.42-22.42-38.57-7.18-7.24-18.48-7.43-26.37-1.15-4.58,3.65-14.56,26.3-17.7,32.58l-21.98,44.78c-8.2,16.26-12.07,30.74-33.15,34.43l-58.31,8.45c-10.12,1.46-20.03,2.64-29.55,4.25-9.16,1.55-18.12,2.06-22.72,11.07-2.08,4.07-3.08,8.96-1.77,13.62,1.58,5.61,2.44,6.48,6.27,10.25,5.73,5.65,10.82,10.78,16.49,16.48,3.26,3.28,5.94,5.07,9.07,8.23,2.93,2.96,5.29,5.3,8.24,8.25,6.99,6.99,13.86,14.35,21.39,20.64l12.4,12.32c17.48,17.32,9.9,34.85,5.62,60.43-1.96,11.73-3.64,22.04-5.77,33.8-1.06,5.87-2,11.13-2.95,16.83-1.69,10.16-5.72,22.88,1.63,31.34,2.55,2.94,7.73,6.58,13.21,6.58,5.94,0,10-2.07,14.55-4.4,3.92-2.01,7.35-3.56,11-5.49,0-14.38,1.8-28.47,18.96-28.85,0-45.88,3.43-30.93-9.53-48.17-13.09-17.41-18.49-29.48-18.49-54.04,0-19.02,11.04-43.08,23.08-49.45,0-23.86-7.78-64.29,26.37-64.29,6.29,0,10,2.82,14.01,4.95,1.8-1.32,2.87-3.42,4.44-5.45,9.24-11.93,31.83-11.67,40.89,5.45,11.32-5.99,22.2-7.95,32.37,2.25,5.19,5.2,6.12,6.91,8.02,15.06,8.79-2.05,14.3-4.5,23.11,1.61,3.02,2.09,5.68,4.85,7.42,8.24,4.69,9.14,2.34,15.77,3.28,28.04,.61,7.95,4.31,18.71,5.51,26.63,4.01,26.22,6.33,50.31-10.24,72.55-19.44,26.09-18.38,9.15-18.38,56.63,19.53,0,22.25,11.58,22.25,28.85,5.52,2.92,16.89,9.89,23.08,9.89s12.25-2.63,15.68-6.58c9.1-10.46,1.17-33.22-1.31-48.17-1.97-11.86-3.8-22.01-5.77-33.8-1.01-6.05-1.76-11.21-2.9-16.88-5.83-29.24-2.46-32.49,18.81-53.86,2.7-2.72,4.69-3.8,7.44-6.57l33.79-32.98c7.65-7.67,22.66-19.06,22.99-30.38,.22-7.29-4.25-13.55-9.22-16.77-9.98-6.45-100.22-12.34-114.4-19.95-2.36-1.26-5.74-3.76-7.74-5.45-7.06-6-10.42-16.92-14.51-25.05-1.66-3.29-2.46-5.8-4.11-9.08-2.44-4.88-8.19-15.93,2.74-15.93,4.32,0,5.91,5.2,7.42,8.24,14.37,28.97,12.09,36.22,38.88,39.42,27.54,3.29,54.76,8.02,82.14,11.82,9.88,1.37,15.84,3.6,21.79,9.53,4.89,4.87,9.67,11.51,9.67,20.83,0,18.03-7.96,23.2-18.34,33.59l-47.82,46.14c-20.06,19.31-21.25,17.97-17.44,40.96l6.84,39.32c1.93,11.44,8.35,41.51,8.35,52.64,0,17.04-14.21,32.14-32.14,32.14-11.1,0-15.93-6.38-23.9-8.24,0,11.95-3.09,25.55-17.31,25.55h-82.42c-6.84,0-11.9-12.54,4.1-12.39l74.26,.08c5.08-.08,8.19-1.65,8.19-6.65v-31.32c0-3.85-1.92-5.77-5.77-5.77H143.41c-3.85,0-5.77,1.92-5.77,5.77,0,45.27-6.31,37.14,30.56,37.84,11.21,.21,7.83,12.43,2.4,12.43h-28.54c-11.2-1.37-17.62-6.84-17.62-25.55-8.25,1.92-12.23,8.24-24.73,8.24-15.93,0-31.32-14.58-31.32-30.5,0-12.82,12.59-77.97,15.43-95.02,.7-4.22,1.88-8.83,1.88-12.95,0-12.03-23.25-29.44-32.35-38.53l-35.44-34.62C7.65,182.8,0,177.72,0,159.9c0-12.95,9.88-23.17,18.95-27.21,9.22-4.11,64.99-10.69,79.49-12.82,9.63-1.42,29.67-1.95,36.94-9.21,4.26-4.26,40.57-80,46.49-91.98,3-6.06,4.94-9.13,10.31-12.76,5.37-3.63,11.17-5.59,17.01-5.91h0Zm55.38,217.59v-37.09c0-15.11,20.61-13.14,20.61-.82v37.91c0,14.48-20.61,14.48-20.61,0h0Zm-79.13,22.25c13.77,0,22.55,.16,33.82-5.75,3.3-1.73,5.31-3.85,8.22-5.79,5.25,1.22,5.99,2.74,13.21,2.53,6.6-.19,8.34-2.95,13.17-3.36,.68,2.94,3.84,7.05,6.08,8.76,14.1,10.77,24.24,3.47,32.66-2.16,0,12.69,3.21,22.09,.21,34.83-1.29,5.49-2.85,9.28-5.41,13.55-2.87,4.8-4.86,6.83-8.1,10.85-5.76,7.13-11.57,10.33-15.23,22.68-2.67,8.98-1.14,25.89-1.14,36.78h-106.33c0-10.89,.29-22.16,.03-33-.26-11.01-6.38-15.08-11.47-21.5-14.4-18.2-21.52-39.11-14.43-62.84,1.4-4.69,2.57-7.85,4.69-11.79,3.65-6.78,8.58-14.28,18.65-14.32,22.25-.09,44.55,.05,66.81,.05,0,8.84-2.91,11.83-11.85,15.35-18.3,7.19-42.01-6.19-44.9,7.94-2.34,11.43,16.47,10.44,19.85,35.1,.56,4.08-.74,7.72,.67,10.78,3.25,7.03,18.72,5.41,10.4-20.25-1.85-5.69-3.46-9.16-6.68-13.93-1.48-2.19-1.65-2.07-2.93-4.49h0Zm4.12-87.37c0-8.78,12.1-16.31,21.24-8.05,2.15,1.94,3.49,5.02,3.49,8.88v42.86h-24.73v-43.68h0Zm-37.92,8.24c0-13.31,24.73-16.13,24.73,2.47v32.97h-24.73v-35.44h0Zm81.6,56.05c3.94-16.92-5.77-17.18-5.77-20.61v-36.27c0-10.9,22.01-16.62,24.54,2.66l-.64,24.54c0,16.73,4.28,34.89-18.13,29.67h0Z"/>
</svg>