<svg clip-rule="evenodd" fill-rule="evenodd" height="512" image-rendering="optimizeQuality" shape-rendering="geometricPrecision" text-rendering="geometricPrecision" viewBox="0 0 173.397 173.397" width="512" xmlns="http://www.w3.org/2000/svg"><g id="Layer_x0020_1"><g id="_341899904"><path id="_341905424" d="m19.4634 17.6994c-4.9307 0-8.9648 4.0341-8.9648 8.9648v93.1304c0 4.9306 4.0341 8.9649 8.9648 8.9649h134.47c4.9307 0 8.9648-4.0343 8.9648-8.9649v-93.1304c0-4.9307-4.0341-8.9648-8.9648-8.9648-44.8235 0-89.6469 0-134.47 0zm67.2352 96.995c2.0526 0 3.7165 1.664 3.7165 3.7165 0 2.0526-1.6639 3.7165-3.7165 3.7165s-3.7165-1.6639-3.7165-3.7165c0-2.0525 1.6639-3.7165 3.7165-3.7165zm-67.2352-91.0684c-1.6594 0-3.0382 1.3789-3.0382 3.0382v81.3982h140.547v-81.3982c0-1.6594-1.3788-3.0382-3.0382-3.0382-44.8235 0-89.6469 0-134.47 0z"/><path id="_341904704" d="m113.887 144.073h-54.3764l7.1361-16.16h40.1043z"/><path id="_341903768" d="m45.2955 143.226h82.8065v12.472h-82.8065z"/><path id="_341902808" d="m46.4882 34.5012v75.0758h-5.08v-75.0758z" fill-rule="nonzero"/><path id="_341903432" d="m13.7252 30.9707h145.9468v5.08h-145.9468z" fill-rule="nonzero"/><path id="_341903504" d="m150.266 29.1506c.9352 0 1.6934-.7582 1.6934-1.6934s-.7582-1.6934-1.6934-1.6934h-4.8901c-.9352 0-1.6934.7582-1.6934 1.6934s.7582 1.6934 1.6934 1.6934z" fill-rule="nonzero"/><path id="_341902880" d="m137.721 29.1506c.9352 0 1.6934-.7582 1.6934-1.6934s-.7582-1.6934-1.6934-1.6934h-4.8902c-.9352 0-1.6934.7582-1.6934 1.6934s.7582 1.6934 1.6934 1.6934z" fill-rule="nonzero"/><path id="_341903336" d="m125.177 29.1506c.9352 0 1.6934-.7582 1.6934-1.6934s-.7582-1.6934-1.6934-1.6934h-4.8901c-.9352 0-1.6934.7582-1.6934 1.6934s.7582 1.6934 1.6934 1.6934z" fill-rule="nonzero"/><path id="_341902184" d="m43.9482 56.4083h-29.731v-5.08h29.731z" fill-rule="nonzero"/><path id="_341902616" d="m37.1408 45.3829c.9352 0 1.6934-.7582 1.6934-1.6934s-.7582-1.6934-1.6934-1.6934h-16.4479c-.9352 0-1.6934.7582-1.6934 1.6934s.7582 1.6934 1.6934 1.6934z" fill-rule="nonzero"/><path id="_341902136" d="m54.5619 48.1445c2.2945 0 4.1546 1.86 4.1546 4.1546 0 2.2944-1.8601 4.1545-4.1546 4.1545s-4.1545-1.8601-4.1545-4.1545c0-2.2946 1.86-4.1546 4.1545-4.1546z"/><path id="_341902736" d="m54.5619 68.7487c2.2945 0 4.1546 1.86 4.1546 4.1546 0 2.2944-1.8601 4.1545-4.1546 4.1545s-4.1545-1.8601-4.1545-4.1545c0-2.2946 1.86-4.1546 4.1545-4.1546z"/><path id="_341902376" d="m54.5619 89.9907c2.2945 0 4.1546 1.8601 4.1546 4.1546 0 2.2946-1.8601 4.1545-4.1546 4.1545s-4.1545-1.8599-4.1545-4.1545c0-2.2945 1.86-4.1546 4.1545-4.1546z"/><path id="_341902280" d="m84.551 51.4679c.9352 0 1.6934-.7582 1.6934-1.6934s-.7582-1.6934-1.6934-1.6934h-21.2612c-.9352 0-1.6934.7582-1.6934 1.6934s.7582 1.6934 1.6934 1.6934z" fill-rule="nonzero"/><path id="_341902256" d="m73.9204 57.3637c.9352 0 1.6934-.7582 1.6934-1.6934s-.7582-1.6934-1.6934-1.6934h-10.6306c-.9352 0-1.6934.7582-1.6934 1.6934s.7582 1.6934 1.6934 1.6934z" fill-rule="nonzero"/><path id="_341902232" d="m84.551 93.3141c.9352 0 1.6934-.7582 1.6934-1.6934s-.7582-1.6934-1.6934-1.6934h-21.2612c-.9352 0-1.6934.7582-1.6934 1.6934s.7582 1.6934 1.6934 1.6934z" fill-rule="nonzero"/><path id="_341901608" d="m73.9204 99.2099c.9352 0 1.6934-.7582 1.6934-1.6934s-.7582-1.6934-1.6934-1.6934h-10.6306c-.9352 0-1.6934.7582-1.6934 1.6934s.7582 1.6934 1.6934 1.6934z" fill-rule="nonzero"/><path id="_341901512" d="m84.551 72.0721c.9352 0 1.6934-.7582 1.6934-1.6934s-.7582-1.6934-1.6934-1.6934h-21.2612c-.9352 0-1.6934.7582-1.6934 1.6934s.7582 1.6934 1.6934 1.6934z" fill-rule="nonzero"/><path id="_341901992" d="m73.9204 77.9679c.9352 0 1.6934-.7582 1.6934-1.6934s-.7582-1.6934-1.6934-1.6934h-10.6306c-.9352 0-1.6934.7582-1.6934 1.6934s.7582 1.6934 1.6934 1.6934z" fill-rule="nonzero"/><path id="_341901800" d="m91.4109 97.7598h57.0071v-6.9304h-50.0766v-42.7826h-6.9305z"/><path id="_341901560" d="m106.253 91.6761h6.24v-35.6162h-6.24z"/><path id="_341900672" d="m119.418 91.6761h6.24v-27.3339h-6.24z"/><path id="_341900576" d="m132.583 91.6761h6.241v-19.0516h-6.241z"/><g fill-rule="nonzero"><path id="_341900552" d="m108.196 47.1954c-.6685.6502-.6833 1.7194-.0331 2.3879s1.7194.6833 2.3879.0331l4.8385-4.7005h9.0998c.9352 0 1.6934-.7582 1.6934-1.6934s-.7582-1.6934-1.6934-1.6934l-9.7801.0001c-.4252-.0001-.8508.1591-1.1799.4787z"/><path id="_341900696" d="m121.361 55.4777c-.6685.6502-.6833 1.7194-.0331 2.3879s1.7194.6833 2.3879.0331l4.8385-4.7005h9.0998c.9352 0 1.6934-.7582 1.6934-1.6934s-.7582-1.6934-1.6934-1.6934l-9.7801.0001c-.4252-.0001-.8508.1591-1.1799.4787z"/><path id="_341900936" d="m134.526 63.76c-.6685.6502-.6833 1.7194-.0331 2.3879s1.7194.6833 2.3879.0331l4.8385-4.7004h9.0998c.9352 0 1.6934-.7582 1.6934-1.6934s-.7582-1.6934-1.6934-1.6934l-9.7801.0001c-.4252-.0001-.8508.1591-1.1799.4787z"/><path id="_341901056" d="m116.509 46.6317c-.9352 0-1.6934.7582-1.6934 1.6934s.7582 1.6934 1.6934 1.6934h6.1789c.9352 0 1.6934-.7582 1.6934-1.6934s-.7582-1.6934-1.6934-1.6934z"/><path id="_341900720" d="m129.674 54.914c-.9352 0-1.6934.7582-1.6934 1.6934s.7582 1.6934 1.6934 1.6934h6.1789c.9352 0 1.6934-.7582 1.6934-1.6934s-.7582-1.6934-1.6934-1.6934z"/><path id="_341901224" d="m142.839 63.1963c-.9352 0-1.6934.7582-1.6934 1.6934s.7582 1.6934 1.6934 1.6934h6.1789c.9352 0 1.6934-.7582 1.6934-1.6934s-.7582-1.6934-1.6934-1.6934z"/><path id="_341901008" d="m37.1408 66.0657c.9352 0 1.6934-.7582 1.6934-1.6934s-.7582-1.6934-1.6934-1.6934h-16.4479c-.9352 0-1.6934.7582-1.6934 1.6934s.7582 1.6934 1.6934 1.6934z"/><path id="_341900864" d="m37.1408 103.485c.9352 0 1.6934-.7582 1.6934-1.6934s-.7582-1.6934-1.6934-1.6934h-16.4479c-.9352 0-1.6934.7582-1.6934 1.6934s.7582 1.6934 1.6934 1.6934z"/><path id="_341900960" d="m37.1408 94.1304c.9352 0 1.6934-.7582 1.6934-1.6934s-.7582-1.6934-1.6934-1.6934h-16.4479c-.9352 0-1.6934.7582-1.6934 1.6934s.7582 1.6934 1.6934 1.6934z"/><path id="_341900360" d="m37.1408 84.7755c.9352 0 1.6934-.7582 1.6934-1.6934s-.7582-1.6934-1.6934-1.6934h-16.4479c-.9352 0-1.6934.7582-1.6934 1.6934s.7582 1.6934 1.6934 1.6934z"/><path id="_341900168" d="m37.1408 75.4206c.9352 0 1.6934-.7582 1.6934-1.6934s-.7582-1.6934-1.6934-1.6934h-16.4479c-.9352 0-1.6934.7582-1.6934 1.6934s.7582 1.6934 1.6934 1.6934z"/></g></g></g></svg>