 
<svg id="Layer_1"  class="svgico" fill="#28307e" data-name="Layer 1" xmlns="http://www.w3.org/2000/svg" viewBox="0 0 456.7 436"> 
  <path class="cls-1" d="M408.11,200.26c-93.26,0-151.42,35.05-183.29,110.76-11.59,27.52-11.9,67.57-11.9,102.17,0,12.26,3.12,22.81,15.21,22.81,17.33,0,12.75-18.92,12.68-35.49-.31-71.73,16.11-127.07,84.46-158.89,24.89-11.59,49.75-13.48,85.38-13.48-5.29,7.9-30.42,27.62-30.42,35.49,0,10.06,9.86,12.67,17.74,12.67s25.14-21.33,31.05-27.25c36.15-36.15,36.76-30.42,2.53-64.64-8.41-8.41-18.01-19.54-26.62-26.75-15.85-13.3-28.08,2.76-22.36,14.69,3.96,8.26,19.32,18.63,25.53,27.9h0Z"/>
  <path class="cls-1" d="M179.97,76.05c8.98,0,25.04-22.58,32.95-27.88,0,14.06-2.28,178.82,1.66,188.45,7.17,17.54,19.54,21.82,25.57,1.01l.65-189.46c12.7,3.39,27.51,27.88,32.96,27.88,13.04,0,19.13-8.57,15.88-18.1-2.46-7.21-51.2-57.94-61.5-57.94-10.98,0-58.49,52.04-59.87,54.49-6.13,10.88-.26,21.55,11.7,21.55h0Z"/>
  <path class="cls-1" d="M0,212.93c0,15.29,10.69,19.56,24.72,33.59,7.47,7.48,20.58,22.43,28.04,27.95,14.31,10.6,28.68-3.57,20.03-17.42-5.93-9.48-20.1-18.37-27.15-28.9,56.76,0,92.01,7.17,128.67,43.7,8.04,8.02,20.65,23,23.42,34.88,6.1-4.47,4.98-6.56,8.53-14.28,3.29-7.16,4.87-8.38,6.68-16.14-15.82-23.62-36.68-42.44-62.97-56.16-27.67-14.44-60.37-19.88-101.79-19.88,6.38-9.52,21.27-19.28,25.6-27.97,7.16-14.37-9.14-25.75-22.4-14.65-8.6,7.2-18.25,18.38-26.64,26.78-5.64,5.63-24.72,20.77-24.72,28.52H0Z"/>
</svg>