<svg id="svg5175" height="512" viewBox="0 0 16.933333 16.933334" width="512" xmlns="http://www.w3.org/2000/svg" xmlns:svg="http://www.w3.org/2000/svg"><g id="layer1" transform="translate(0 -280.067)"><path id="path2822" d="m8.4677004 280.59634c-.7477151 0-1.377233.52247-1.5435765 1.2206-.5721694.2534-.9903963.78473-1.0821035 1.4242h-4.5191046c-.4351629 0-.79271553.35962-.79271553.79478v3.17397a.26460982.26460982 0 1 0 .52709763 0v-3.17397c0-.15115.1144614-.26561.2656179-.26561h7.1447846 7.1421996c.151156 0 .266134.11446.266134.26561v9.52552c0 .15116-.114978.26355-.266134.26355h-14.2869842c-.1511565 0-.2656179-.11239-.2656179-.26355v-3.96875a.26460982.26460982 0 1 0 -.52709763 0v3.96875c0 .43516.35755263.79272.79271553.79272h5.5231772c-.063868.31718-.260149.89311-.8774669 1.58698h-.6779948c-.1465791 0-.2645833.11801-.2645833.26459s.1180042.26458.2645833.26458h6.3499997c.14658 0 .264584-.118.264584-.26458s-.118004-.26459-.264584-.26459h-.67696c-.634923-.72185-.827746-1.27961-.886251-1.58698h5.53248c.43516 0 .7953-.35756.7953-.79272v-9.52552c0-.43516-.36014-.79478-.7953-.79478h-4.518589c-.09174-.63952-.509812-1.17088-1.082103-1.4242-.1659335-.69813-.7937951-1.2206-1.5415076-1.2206zm0 .52969c.5876343 0 1.0562643.46863 1.0562643 1.05626 0 .58764-.46863 1.05885-1.0562643 1.05885-.5876369 0-1.0588519-.47121-1.0588519-1.05885 0-.58763.471215-1.05626 1.0588519-1.05626zm-.00103.79271a.26458308.26458308 0 0 0 -.2645833.26459.26458308.26458308 0 0 0 .2645833.26458.26458308.26458308 0 0 0 .2645834-.26458.26458308.26458308 0 0 0 -.2645834-.26459zm-1.5652803.51315c.04922.30805.1872589.58658.3875749.80925h-.9095071c.067196-.33393.2566009-.61925.5219303-.80925zm3.1305609 0c.265356.18996.454766.47526.52193.80925h-.9084725c.1999033-.22265.3374549-.50125.3865405-.80925zm-8.1793507 1.86759a.26460982.26460982 0 0 0 -.2661338.26561v8.46719a.26460982.26460982 0 0 0 .2661338.26355h13.2281327a.26460982.26460982 0 0 0 .265616-.26355v-8.46719a.26460982.26460982 0 0 0 -.265616-.26561zm.2635515.52916h6.0859327v3.7052h-1.3224027v-.52917c0-.52671-.391877-.96364-.8976175-1.04231.063368-.12506.1028356-.26402.1028356-.41289v-.26562c0-.50845-.4175918-.92552-.9260416-.92552s-.9255258.41707-.9255258.92552v.26562c0 .14903.038822.28825.1023197.41341-.5044943.0797-.8955537.51598-.8955537 1.04179v.52917h-1.3239486zm6.6150993 0h6.0859329v3.7052h-1.324467v-.52917c0-.52653-.389843-.96343-.895035-1.04231.06332-.12502.102319-.26408.102319-.41289v-.26562c0-.50845-.417076-.92552-.925525-.92552-.50845 0-.926042.41707-.926042.92552v.26562c0 .14881.039.28787.10232.41289-.505495.0789-.897102.51578-.897102 1.04231v.52917h-1.3224028zm-3.5723909 1.05885c.224446 0 .3963564.17192.3963564.39636v.26562c0 .22444-.1719104.39687-.3963564.39687-.2244461 0-.3963591-.17243-.3963591-.39687v-.26562c0-.22444.171913-.39636.3963591-.39636zm6.6156158 0c.224446 0 .396359.17192.396359.39636v.26562c0 .22444-.171913.39687-.396359.39687-.224447 0-.396875-.17243-.396875-.39687v-.26562c0-.22444.172428-.39636.396875-.39636zm-7.2755237 1.58802h1.3223981c.2977356 0 .5291666.23144.5291666.52916v.52917h-2.3807333v-.52917c0-.29772.2314311-.52916.5291667-.52916zm6.6130327 0h1.324467c.297733 0 .527098.23144.527098.52916v.52917h-2.380731v-.52917c0-.29772.231431-.52916.529166-.52916zm-10.3223668.52503a.26460982.26460982 0 0 0 -.25941603.26769v.26561a.26460982.26460982 0 1 0 .52709763 0v-.26561a.26460982.26460982 0 0 0 -.2676816-.26769zm1.3265336 1.06299h6.0859327v3.70261h-1.3224027v-.52916c0-.52671-.3918849-.96313-.8976175-1.0418.063368-.12506.1028356-.26454.1028356-.41341v-.26355c0-.50845-.4175918-.92553-.9260416-.92553s-.9255258.41708-.9255258.92553v.26355c0 .14887.038952.28835.1023197.41341-.5045128.0797-.8955537.51597-.8955537 1.0418v.52916h-1.3239486zm6.6150993 0h6.0859329v3.70261h-1.324467v-.52916c0-.52654-.389848-.96292-.895035-1.0418.06332-.12503.102319-.2646.102319-.41341v-.26355c0-.50845-.417076-.92553-.925525-.92553-.50845 0-.926042.41708-.926042.92553v.26355c0 .14881.039.28838.10232.41341-.50549.0789-.897102.51526-.897102 1.0418v.52916h-1.3224028zm-3.5723909 1.05626c.224446 0 .3963564.17398.3963564.39843v.26355c0 .22444-.1719104.39687-.3963564.39687-.2244461 0-.3963591-.17243-.3963591-.39687v-.26355c0-.22445.171913-.39843.3963591-.39843zm6.6156158 0c.224443 0 .396359.17398.396359.39843v.26355c0 .22444-.171916.39687-.396359.39687-.224444 0-.396875-.17243-.396875-.39687v-.26355c0-.22445.172431-.39843.396875-.39843zm-7.2755237 1.58802h1.3223981c.2977356 0 .5291666.23144.5291666.52917v.52916h-2.3807333v-.52916c0-.29773.2314311-.52917.5291667-.52917zm6.6130327 0h1.324467c.297733 0 .527098.23144.527098.52917v.52916h-2.380731v-.52916c0-.29773.231431-.52917.529166-.52917zm-3.7212215 2.64635h2.1528405c.044678.31845.1989455.8968.73329 1.58698h-3.6230367c.5399723-.68909.6934941-1.26817.7369043-1.58698z" font-variant-ligatures="normal" font-variant-position="normal" font-variant-caps="normal" font-variant-numeric="normal" font-variant-alternates="normal" font-feature-settings="normal" text-indent="0" text-align="start" text-decoration-line="none" text-decoration-style="solid" text-decoration-color="rgb(0,0,0)" text-transform="none" text-orientation="mixed" white-space="normal" shape-padding="0" isolation="auto" mix-blend-mode="normal" solid-color="rgb(0,0,0)" solid-opacity="1" vector-effect="none"/></g></svg>