<?xml version="1.0" encoding="UTF-8" standalone="no"?>
<!-- Created with Inkscape (http://www.inkscape.org/) -->

<svg
   version="1.1"
   id="svg1725"
   xml:space="preserve"
   width="682.66669"
   height="682.66669"
   viewBox="0 0 682.66669 682.66669"
   xmlns="http://www.w3.org/2000/svg"
   xmlns:svg="http://www.w3.org/2000/svg"><defs
     id="defs1729"><clipPath
       clipPathUnits="userSpaceOnUse"
       id="clipPath1739"><path
         d="M 0,512 H 512 V 0 H 0 Z"
         id="path1737" /></clipPath><clipPath
       clipPathUnits="userSpaceOnUse"
       id="clipPath1765"><path
         d="M 0,512 H 512 V 0 H 0 Z"
         id="path1763" /></clipPath></defs><g
     id="g1731"
     transform="matrix(1.3333333,0,0,-1.3333333,0,682.66667)"><g
       id="g1733"><g
         id="g1735"
         clip-path="url(#clipPath1739)"><path
           d="M 497,121 H 15 v 360 h 482 z"
           style="fill:none;stroke:#000000;stroke-width:30;stroke-linecap:round;stroke-linejoin:round;stroke-miterlimit:10;stroke-dasharray:none;stroke-opacity:1"
           id="path1741" /><g
           id="g1743"
           transform="translate(166,31)"><path
             d="M 0,0 H 180"
             style="fill:none;stroke:#000000;stroke-width:30;stroke-linecap:round;stroke-linejoin:round;stroke-miterlimit:10;stroke-dasharray:none;stroke-opacity:1"
             id="path1745" /></g><g
           id="g1747"
           transform="translate(256,31)"><path
             d="M 0,0 V 90"
             style="fill:none;stroke:#000000;stroke-width:30;stroke-linecap:round;stroke-linejoin:round;stroke-miterlimit:10;stroke-dasharray:none;stroke-opacity:1"
             id="path1749" /></g></g></g><g
       id="g1751"
       transform="translate(166,421)"><path
         d="M 0,0 H 180"
         style="fill:none;stroke:#000000;stroke-width:30;stroke-linecap:round;stroke-linejoin:round;stroke-miterlimit:10;stroke-dasharray:none;stroke-opacity:1"
         id="path1753" /></g><g
       id="g1755"
       transform="translate(166,181)"><path
         d="M 0,0 H 180"
         style="fill:none;stroke:#000000;stroke-width:30;stroke-linecap:round;stroke-linejoin:round;stroke-miterlimit:10;stroke-dasharray:none;stroke-opacity:1"
         id="path1757" /></g><g
       id="g1759"><g
         id="g1761"
         clip-path="url(#clipPath1765)"><g
           id="g1767"
           transform="translate(316,181)"><path
             d="M 0,0 V 22.918 C 0,64.03 -23.228,101.614 -60,120 c -36.772,18.386 -60,55.97 -60,97.082 V 240"
             style="fill:none;stroke:#000000;stroke-width:30;stroke-linecap:round;stroke-linejoin:round;stroke-miterlimit:10;stroke-dasharray:none;stroke-opacity:1"
             id="path1769" /></g><g
           id="g1771"
           transform="translate(196,181)"><path
             d="M 0,0 V 22.918 C 0,64.03 23.228,101.614 60,120 c 36.772,18.386 60,55.97 60,97.082 V 240"
             style="fill:none;stroke:#000000;stroke-width:30;stroke-linecap:round;stroke-linejoin:round;stroke-miterlimit:10;stroke-dasharray:none;stroke-opacity:1"
             id="path1773" /></g></g></g></g></svg>
