 
<svg class="svgico" fill="#000051" id="Layer_1" data-name="Layer 1" xmlns="http://www.w3.org/2000/svg" viewBox="0 0 437.72 342.05">
  
  <path class="cls-1" d="M19.36,20.22c1.28-1.45,2.84-1.01,6.16-.98,2,.02,4.02,0,6.02,0,128.83,0,258.27-.58,386.94,0l-.15,265.71c-99.52,.61-200.08,0-299.79,0-29.98,0-63.72-.47-93.57,.01-6.25,.1-4.9,.2-5.62-1.01V20.22h0ZM6.23,.83C-.52,3.4,.24,9.91,.24,18.03v254.44c0,6.66-.6,16.74,.09,22.99,.97,8.82,9.45,8.51,14.79,8.51H339.06c11.75,0,87.52,1.07,92.16-.6,6.64-2.39,6.28-9,6.28-16.66V32.26c0-7.01,.52-16.25-.05-22.98-.81-9.55-9.37-9.01-14.67-9H98.84C87.65,.27,10.04-.62,6.23,.83h0Z"/>
  <path class="cls-1" d="M214.23,67c22.21-2.79,40.06,13.56,42.37,32.9,2.7,22.59-13.35,39.91-32.95,42.42-22.41,2.86-39.91-13.39-42.45-32.53-3.03-22.9,13.36-40.31,33.03-42.79h0Zm84.51,116.43c-.48-.44-.4-.34-.89-1-2.32-3.12-2.84-5.69-7.71-10.95-11.7-12.64-21.29-16.87-39.66-19.45,1.47-1.62,4.23-3.25,6.24-5.13,15.81-14.79,23.67-36.53,16.67-58.81-7.71-24.55-25.77-36.81-50.33-40.24-14.98-.37-27.7,3.33-37.33,10.56-21.02,15.78-29.87,42.25-19.84,67.15,5.09,12.63,12.38,19.72,21.38,26.33-7.94,2.15-10.07,.39-21.6,5.75-18.33,8.53-32.53,28.8-32.28,51.4h18.94c.8-17.11,8.9-27.02,19.21-32.96,12.48-7.2,31.5-4.98,47.15-4.98s34.67-2.09,47.33,4.8c10.94,5.96,18.25,16.31,19.48,33.16l18.9-.02c-.06-5.05-.55-9.41-1.74-13.98-.76-2.91-3.85-10.22-3.91-11.62h0Z"/>
  <path class="cls-1" d="M323.22,334.85c1.18-4.4-.98-8.12-3.6-10.1-3.19-2.4-7.65-1.82-12.29-1.82H134.96c-9.49,0-19.19-1.91-21.64,6.71-1.37,4.82,.99,9.01,3.6,10.66,3.3,2.09,8.07,1.62,12.56,1.62h172.36c9.17,0,19.01,1.7,21.36-7.06h0Z"/>
  <polygon class="cls-1" points="76.3 265.97 78.6 266 131.13 265.99 133.31 265.98 133.33 228.08 76.3 228.07 76.3 265.97 76.3 265.97"/>
  <polygon class="cls-1" points="228.39 265.98 230.72 266 283.32 265.99 285.39 265.96 285.42 228.1 228.38 228.07 228.39 265.98 228.39 265.98"/>
  <polygon class="cls-1" points="152.33 265.98 154.66 266 207.19 265.99 209.34 265.96 209.36 228.1 152.33 228.07 152.33 265.98 152.33 265.98"/>
  <polygon class="cls-1" points="304.42 265.98 361.43 265.99 361.45 228.13 305.13 228.07 304.42 228.08 304.42 265.98 304.42 265.98"/>
</svg>