<?xml version="1.0" encoding="UTF-8"?>
<!DOCTYPE svg PUBLIC "-//W3C//DTD SVG 1.1//EN" "http://www.w3.org/Graphics/SVG/1.1/DTD/svg11.dtd">
<!-- Creator: CorelDRAW 2020 (64-Bit) -->
<svg xmlns="http://www.w3.org/2000/svg" xml:space="preserve" width="1080px" height="1080px" version="1.1" style="shape-rendering:geometricPrecision; text-rendering:geometricPrecision; image-rendering:optimizeQuality; fill-rule:evenodd; clip-rule:evenodd"
viewBox="0 0 1080 1080"
 xmlns:xlink="http://www.w3.org/1999/xlink"
 xmlns:xodm="http://www.corel.com/coreldraw/odm/2003">
 <defs>
  <style type="text/css">
   <![CDATA[
    .str2 {stroke:#FEFEFE;stroke-width:2.95;stroke-miterlimit:22.9256}
    .str1 {stroke:#FEFEFE;stroke-width:2.36;stroke-miterlimit:22.9256}
    .str0 {stroke:#FEFEFE;stroke-width:2.36;stroke-miterlimit:10}
    .fil6 {fill:none}
    .fil4 {fill:none;fill-rule:nonzero}
    .fil8 {fill:#FEFEFE}
    .fil5 {fill:#FEFEFE}
    .fil1 {fill:#000051}
    .fil0 {fill:#6D6B6C}
    .fil2 {fill:#FF9933}
    .fil3 {fill:#FEFEFE;fill-rule:nonzero}
    .fil7 {fill:#FF9933;fill-rule:nonzero}
   ]]>
  </style>
 </defs>
 <g id="Layer_x0020_1">
  <metadata id="CorelCorpID_0Corel-Layer"/>
  <path class="fil0" d="M524.8 324.92c-65.75,6.99 -116.48,37.69 -153.98,87.66 -10.96,14.58 -21.51,34.7 -28.08,52.61 -10.37,28.24 -15.82,61.74 -12.42,94.99 11.69,114.09 109.21,205.16 235.95,194.28 109.06,-9.36 206.97,-109.04 193.7,-236.85 -12.23,-117.82 -118.43,-205.11 -235.17,-192.69z"/>
  <path class="fil1" d="M559.33 67.68l-0.13 68.25c18.54,16.15 44.89,20.88 44.99,40.38 0.11,20.39 -26.89,24.66 -44.5,40.4l-0.49 59.03c39.66,7.06 55.75,6.69 95.2,25.69 44.12,21.24 65.85,46.66 72.1,49.55 6.24,-3.7 42.3,-41.22 52.07,-51.64 5.09,-5.42 6.02,-4.05 14.51,-2.75 11.94,1.82 26.2,3.75 38.86,4.39 -4.51,-51.69 -18.95,-35.72 4.3,-59.49 6.06,-6.2 34.6,-32.5 39.36,-41.63 -23.54,-20.23 -33.26,-31.31 -61.79,-50.97 -73.08,-50.35 -158.43,-81.82 -254.46,-85.35l-0.02 4.14z"/>
  <path class="fil1" d="M247.58 779.03c6.57,50.73 17.11,38.85 -2.77,59.07l-30.24 29.64c-4.14,5.16 -6.29,5.49 -10.1,10.53 3.88,9.81 48.14,44.09 60.35,52.29 72.75,48.85 158.79,84.31 255.77,85.86l-0.15 -73.26c-7.41,-3.46 -17.84,-10.77 -25.58,-15.68 -9.39,-5.97 -19.43,-10.34 -19.2,-24.13 0.34,-20.47 33.35,-28.15 44.67,-40.4l-0.03 -59.32c-49.19,-1.6 -95.25,-21.59 -132.95,-47.21 -9.18,-6.24 -26.61,-19.21 -32.14,-27.44 -7.32,2.18 -44.34,42.38 -53.55,51.8 -8.62,8.8 -25.36,-1.42 -54.08,-1.75z"/>
  <path class="fil2" d="M824.42 845.88c-15.46,0.46 -40.58,12.06 -52.71,6.67 -17.97,-7.98 -10.5,-27.77 -6.63,-45.85 3.09,-14.47 5.35,-13.68 -3.2,-22.24 -10.47,-10.47 -38.67,-39.93 -46.52,-45.65 -5.66,3.42 -12.13,9.02 -17.54,13.25 -15.4,12.03 -38.9,24.97 -57.96,32.64 -36.57,14.72 -58.32,16.18 -101.37,19.61l-0.25 74.17c-6.24,4.49 -13.49,8.92 -20.87,13.5 -5.83,3.62 -15.26,9.01 -19.93,13.05 4.26,5.15 33.45,21.33 40.8,27.56l0.44 83.68c67.35,2.34 137.33,-15.73 189.19,-37.63 30.85,-13.02 112.21,-58.6 135.72,-88.82l-39.17 -43.94z"/>
  <path class="fil1" d="M730.73 723.67c3.63,6.95 22.32,24.18 29.11,30.77l30.39 30.52 -10.21 48.28c5.26,0.37 43.04,-7.78 48.15,-9.98 11.92,8.5 43.82,47.16 53.27,50.9 84.98,-87.07 126.97,-187.15 136.15,-315.09l-62.67 -0.33c-6.64,7.75 -29.66,64.74 -56.45,22.17 -4.04,-6.41 -10.51,-17.55 -14.58,-21.96l-79.36 -0.21c-4.55,57.42 -25.24,106.11 -59.66,148.48 -4.66,5.74 -10.63,11.37 -14.14,16.45z"/>
  <path class="fil2" d="M846.32 259.51c2.39,18.11 15.17,42.17 0.28,56.4 -15.72,15.03 -40.01,0.74 -58.89,2.35l-46.85 47.56c1.95,5.46 18.59,25.8 23.76,34.24 27.33,44.64 37.87,82.28 40.46,137.84 14.97,3.24 70.79,0.9 89.95,0.9 6.89,7.56 17.01,31.8 25.51,36.33l20.36 -32.71c3.78,-5.52 5.95,-3.69 14.02,-3.69l63 -0.1c-1.21,-71.24 -13.37,-130.3 -40.55,-191.2 -10.74,-24.05 -24.72,-50.7 -38.31,-70.25 -6.64,-9.55 -38.66,-53.93 -48.21,-60.65 -8.6,3.95 -34.36,34.69 -44.53,42.98z"/>
  <path class="fil2" d="M214.79 191.64c9.48,14 34.05,32.35 40.43,42.25 15.05,0.06 41.23,-11.44 51.73,-6.94 18.43,7.89 12.22,26.24 8.23,44.93 -4.72,22.16 -8.12,11.44 17.13,38.09 5.92,6.24 26.54,27.81 32.07,31.09 6.58,-2.65 30.5,-26.96 75.79,-45.67 35.85,-14.81 58.49,-15.93 101.3,-19.89l0.1 -72.72c6.2,-4.52 13.74,-8.43 20.36,-12.77 6.84,-4.5 13.82,-9.16 20.57,-14.14l-40.72 -26.19 -0.45 -86.15c-68.28,-0.01 -134.21,13.77 -189.14,37.94 -27.38,12.05 -49.44,23.86 -73.54,39.26 -22.95,14.66 -36.83,26.16 -56.17,42.73l-7.69 8.18z"/>
  <path class="fil2" d="M62.15 541.59c-0.07,69.25 14.7,134.02 39.55,189.86 23.73,53.29 40.23,75.35 73.4,117.41 3.99,5.07 8.51,11.46 13.8,14.74 4.53,-2.23 4.05,-2.68 7.91,-6.68l34.69 -34.94c5.67,-8.36 -19.87,-51.85 9.3,-62.91 14.76,-5.6 35.82,3.22 51.71,2.72l46.61 -47.77c-3.3,-8.85 -63.64,-65.76 -64.55,-172.12 -14.15,-1.66 -69.25,-0.6 -89.85,-0.63 -4.82,-5.05 -19.94,-29.87 -23.5,-36.49 -3.86,2.53 -1.3,0.17 -4.36,4.44l-9.73 15.3c-9.53,14.29 -6.88,16.76 -16.54,16.94 -21.94,0.39 -46.91,-1.61 -68.44,0.13z"/>
  <path class="fil1" d="M62.09 520.75l64.47 0.16c2.03,-5.46 9.68,-16.65 13.17,-21.96 12.86,-19.56 27.48,-20.77 40.65,-0.85 4.05,6.12 11.67,17.03 13.69,22.91l80.9 -2.27c0.54,-1.44 0.75,-1.75 1.13,-3.4 2.34,-10.14 1.52,-20.36 8.18,-44.64 8.19,-29.85 21.23,-56.76 38.32,-81.37 8.37,-12.05 20.35,-23.44 26.42,-33.34 -3.99,-7.1 -35.85,-36.59 -44.16,-44.96 -4.04,-4.09 -7.33,-7.29 -11.15,-11.21 -9.67,-9.97 4,-24.86 5.53,-53.95 -11.08,2.68 -21.94,4.91 -33.31,7.47 -20.86,4.71 -12.26,6.64 -46.13,-27.18 -5.58,-5.58 -15.24,-16.3 -20.85,-20.15 -82.31,78.73 -130.87,199.99 -136.86,314.74z"/>
  <path class="fil3" d="M362.83 263.59c-0.95,0.45 -2.37,0.77 -3.82,0.77 -4.45,0 -7.15,-2.95 -7.15,-7.95 0,-5.25 2.95,-8.15 7.27,-8.15 1.5,0 2.73,0.35 3.6,0.78l0.55 -1.75c-0.6,-0.3 -1.92,-0.78 -4.2,-0.78 -5.57,0 -9.4,3.83 -9.4,9.98 0,6.45 3.95,9.62 8.85,9.62 2.18,0 3.88,-0.42 4.75,-0.85l-0.45 -1.67z"/>
  <path id="1" class="fil3" d="M375.16 257.31c0,-2.7 -1,-5.42 -4.85,-5.42 -1.53,0 -3.05,0.42 -4.15,1.15l0.5 1.42c0.92,-0.65 2.15,-0.97 3.32,-0.97 3.1,0 3.1,2.6 3.1,3.75 -5.05,-0.03 -7.9,1.75 -7.9,5.02 0,1.98 1.38,3.88 3.98,3.88 1.92,0 3.32,-0.98 4.02,-2.05l0.08 0 0.2 1.75 1.9 0c-0.18,-0.95 -0.2,-2.13 -0.2,-3.25l0 -5.28zm-2.05 4.03c0,1.65 -1.43,3.2 -3.45,3.2 -1.25,0 -2.35,-0.78 -2.35,-2.53 0,-2.87 3.22,-3.25 5.8,-3.25l0 2.58z"/>
  <polygon id="2" class="fil3" points="381.23,245.84 379.16,245.84 379.16,265.84 381.23,265.84 "/>
  <polygon id="3" class="fil3" points="387.43,245.84 385.36,245.84 385.36,265.84 387.43,265.84 "/>
  <path id="4" class="fil3" d="M399.28 254.51l-0.12 -2.3 -1.88 0c0.05,1.25 0.1,2.63 0.1,4.4l0 14.8 2.08 0 0 -7.44 0.05 0c0.8,1.34 2.3,2.17 4.1,2.17 3,0 5.92,-2.3 5.92,-7.29 0,-4.19 -2.32,-6.96 -5.55,-6.96 -2.12,0 -3.7,0.95 -4.65,2.62l-0.05 0zm0.18 3.3c0,-1.97 1.57,-4.22 3.9,-4.22 2.65,0 4.07,2.5 4.07,5.32 0,3.25 -1.47,5.55 -4.15,5.55 -1.85,0 -3.82,-1.4 -3.82,-4.05l0 -2.6z"/>
  <path id="5" class="fil3" d="M418.03 251.89c-3.47,0 -6.37,2.57 -6.37,7.22 0,4.4 2.7,7.03 6.2,7.03 3.02,0 6.37,-2.15 6.37,-7.23 0,-4.17 -2.47,-7.02 -6.2,-7.02zm4.08 7.1c0,3.07 -1.73,5.52 -4.2,5.52 -2.45,0 -4.13,-2.45 -4.13,-5.47 0,-2.63 1.23,-5.53 4.18,-5.53 2.97,0 4.15,3.05 4.15,5.48z"/>
  <path id="6" class="fil3" d="M429.28 254.51l-0.12 -2.3 -1.88 0c0.05,1.25 0.1,2.63 0.1,4.4l0 14.8 2.08 0 0 -7.44 0.05 0c0.8,1.34 2.3,2.17 4.1,2.17 3,0 5.92,-2.3 5.92,-7.29 0,-4.19 -2.32,-6.96 -5.55,-6.96 -2.12,0 -3.7,0.95 -4.65,2.62l-0.05 0zm0.18 3.3c0,-1.97 1.57,-4.22 3.9,-4.22 2.65,0 4.07,2.5 4.07,5.32 0,3.25 -1.47,5.55 -4.15,5.55 -1.85,0 -3.82,-1.4 -3.82,-4.05l0 -2.6z"/>
  <path id="7" class="fil3" d="M453.33 252.21l-2.07 0 0 8.48c0,2.4 -1.93,3.7 -3.55,3.7 -2.28,0 -3.05,-1.85 -3.05,-4.5l0 -7.68 -2.08 0 0 8.05c0,4.7 2.43,5.88 4.48,5.88 2.32,0 3.72,-1.38 4.35,-2.45l0.07 0 0.1 2.15 1.88 0c-0.05,-1.05 -0.13,-2.23 -0.13,-3.63l0 -10z"/>
  <path id="8" class="fil3" d="M459.33 254.51l-0.12 -2.3 -1.88 0c0.05,1.25 0.1,2.63 0.1,4.4l0 14.8 2.08 0 0 -7.44 0.05 0c0.8,1.34 2.3,2.17 4.1,2.17 3,0 5.92,-2.3 5.92,-7.29 0,-4.19 -2.32,-6.96 -5.55,-6.96 -2.12,0 -3.7,0.95 -4.65,2.62l-0.05 0zm0.18 3.3c0,-1.97 1.57,-4.22 3.9,-4.22 2.65,0 4.07,2.5 4.07,5.32 0,3.25 -1.47,5.55 -4.15,5.55 -1.85,0 -3.82,-1.4 -3.82,-4.05l0 -2.6z"/>
  <path id="9" class="fil3" d="M479.68 252.71c-0.72,-0.45 -1.82,-0.82 -3.12,-0.82 -2.75,0 -4.45,1.75 -4.45,3.87 0,1.65 1.18,2.93 3.47,3.85 1.8,0.73 2.53,1.43 2.53,2.7 0,1.23 -0.9,2.2 -2.72,2.2 -1.18,0 -2.36,-0.5 -3.08,-0.92l-0.58 1.6c0.93,0.55 2.23,0.92 3.58,0.92 2.97,0 4.82,-1.6 4.82,-4.02 0,-2.05 -1.27,-3.2 -3.47,-4.1 -1.75,-0.75 -2.53,-1.3 -2.53,-2.48 0,-1.1 0.81,-2.02 2.31,-2.02 1.22,0 2.14,0.47 2.64,0.8l0.6 -1.58z"/>
  <path class="fil3" d="M662.25 269.06c-0.95,0.45 -2.38,0.77 -3.83,0.77 -4.45,0 -7.15,-2.95 -7.15,-7.95 0,-5.25 2.95,-8.15 7.28,-8.15 1.5,0 2.72,0.35 3.6,0.78l0.55 -1.75c-0.6,-0.3 -1.93,-0.78 -4.2,-0.78 -5.58,0 -9.4,3.83 -9.4,9.98 0,6.45 3.95,9.62 8.85,9.62 2.17,0 3.87,-0.42 4.75,-0.85l-0.45 -1.67z"/>
  <path id="1" class="fil3" d="M674.57 262.78c0,-2.7 -1,-5.42 -4.85,-5.42 -1.52,0 -3.05,0.42 -4.15,1.15l0.5 1.42c0.93,-0.65 2.15,-0.97 3.33,-0.97 3.1,0 3.1,2.6 3.1,3.75 -5.05,-0.03 -7.9,1.75 -7.9,5.02 0,1.98 1.37,3.88 3.97,3.88 1.93,0 3.33,-0.98 4.03,-2.05l0.07 0 0.2 1.75 1.9 0c-0.17,-0.95 -0.2,-2.13 -0.2,-3.25l0 -5.28zm-2.05 4.03c0,1.65 -1.42,3.2 -3.45,3.2 -1.25,0 -2.35,-0.78 -2.35,-2.53 0,-2.87 3.23,-3.25 5.8,-3.25l0 2.58z"/>
  <polygon id="2" class="fil3" points="680.65,251.31 678.57,251.31 678.57,271.31 680.65,271.31 "/>
  <polygon id="3" class="fil3" points="686.85,251.31 684.77,251.31 684.77,271.31 686.85,271.31 "/>
  <path id="4" class="fil3" d="M715.35 263.11c0,-4.68 -2.65,-5.75 -4.33,-5.75 -2.1,0 -3.47,1.1 -4.37,2.72l-0.05 0c-0.58,-1.62 -1.95,-2.72 -3.73,-2.72 -2.15,0 -3.4,1.17 -4.15,2.5l-0.07 0 -0.13 -2.18 -1.82 0c0.05,1.13 0.1,2.13 0.1,3.52l0 10.11 2.05 0 0 -8.33c0,-2.15 1.57,-3.9 3.35,-3.9 1.92,0 2.85,1.65 2.85,3.83l0 8.4 2.05 0 0 -8.58c0,-2.07 1.52,-3.65 3.2,-3.65 2.05,0 3,1.7 3,4.35l0 7.88 2.05 0 0 -8.2z"/>
  <path id="5" class="fil3" d="M728.62 269.23c-0.85,0.35 -1.87,0.7 -3.57,0.7 -2.45,0 -4.6,-1.42 -4.63,-5.2l9.28 0c0.02,-0.32 0.05,-0.67 0.05,-1.15 0,-2.37 -1.08,-6.22 -5.28,-6.22 -3.67,0 -6.07,3.07 -6.07,7.35 0,4.07 2.37,6.87 6.35,6.87 2.07,0 3.5,-0.47 4.27,-0.85l-0.4 -1.5zm-8.15 -6.05c0.2,-1.87 1.3,-4.25 3.8,-4.25 2.68,0 3.45,2.4 3.43,4.25l-7.23 0z"/>
  <path id="6" class="fil3" d="M733.4 257.68l-2.1 0 0 1.63 2.1 0 0 7.82c0,1.45 0.1,4.45 3.4,4.45 0.87,0 1.57,-0.12 2.02,-0.32l-0.12 -1.6c-0.35,0.12 -0.78,0.2 -1.4,0.2 -1.33,0 -1.85,-0.95 -1.85,-2.68l0 -7.87 3.52 0 0 -1.63 -3.52 0 0 -3.17 -2.05 0.7 0 2.47z"/>
  <path id="7" class="fil3" d="M747.92 257.46c-0.22,-0.03 -0.4,-0.08 -0.62,-0.08 -1.68,0 -3.1,1.23 -3.7,2.93l-0.08 0 -0.1 -2.63 -1.82 0c0.07,1.3 0.1,2.63 0.1,4.08l0 9.55 2.07 0 0 -7.4c0,-2.3 1.15,-4.53 3.4,-4.53 0.3,0 0.53,0.03 0.75,0.05l0 -1.97z"/>
  <path id="8" class="fil3" d="M752.75 253.86c0,-0.78 -0.53,-1.4 -1.35,-1.4 -0.8,0 -1.38,0.62 -1.38,1.4 0,0.8 0.55,1.42 1.35,1.42 0.8,0 1.38,-0.55 1.38,-1.42zm-0.33 3.82l-2.07 0 0 13.63 2.07 0 0 -13.63z"/>
  <path id="9" class="fil3" d="M765.37 269.21c-0.67,0.3 -1.6,0.67 -2.95,0.67 -2.75,0 -4.72,-2.07 -4.72,-5.37 0,-2.93 1.65,-5.45 4.8,-5.45 1.32,0 2.22,0.37 2.8,0.7l0.52 -1.68c-0.52,-0.27 -1.75,-0.72 -3.27,-0.72 -4.2,0 -6.98,3.07 -6.98,7.27 0,4.18 2.58,6.95 6.48,6.95 1.75,0 3.1,-0.47 3.7,-0.77l-0.38 -1.6z"/>
  <path id="10" class="fil3" d="M775.62 258.18c-0.72,-0.45 -1.82,-0.82 -3.12,-0.82 -2.75,0 -4.45,1.75 -4.45,3.87 0,1.65 1.17,2.93 3.47,3.85 1.8,0.73 2.53,1.43 2.53,2.7 0,1.23 -0.9,2.2 -2.73,2.2 -1.17,0 -2.35,-0.5 -3.07,-0.92l-0.58 1.6c0.93,0.55 2.23,0.92 3.58,0.92 2.97,0 4.82,-1.6 4.82,-4.02 0,-2.05 -1.27,-3.2 -3.47,-4.1 -1.75,-0.75 -2.53,-1.3 -2.53,-2.48 0,-1.1 0.8,-2.02 2.3,-2.02 1.23,0 2.15,0.47 2.65,0.8l0.6 -1.58z"/>
  <polygon class="fil3" points="152.32,452.56 152.32,443.76 159.25,443.76 159.25,442.03 152.32,442.03 152.32,435.26 159.85,435.26 159.85,433.51 150.25,433.51 150.25,452.56 "/>
  <path id="1" class="fil3" d="M172.07 444.03c0,-2.7 -1,-5.42 -4.85,-5.42 -1.52,0 -3.05,0.42 -4.15,1.15l0.5 1.42c0.93,-0.65 2.15,-0.97 3.33,-0.97 3.1,0 3.1,2.6 3.1,3.75 -5.05,-0.03 -7.9,1.75 -7.9,5.02 0,1.98 1.37,3.88 3.97,3.88 1.93,0 3.33,-0.98 4.03,-2.05l0.07 0 0.2 1.75 1.9 0c-0.17,-0.95 -0.2,-2.13 -0.2,-3.25l0 -5.28zm-2.05 4.03c0,1.65 -1.42,3.2 -3.45,3.2 -1.25,0 -2.35,-0.78 -2.35,-2.53 0,-2.87 3.23,-3.25 5.8,-3.25l0 2.58z"/>
  <path id="2" class="fil3" d="M183.57 438.93l-1.92 3.03c-0.48,0.72 -0.95,1.47 -1.38,2.27l-0.07 0c-0.45,-0.8 -0.88,-1.5 -1.38,-2.27l-1.97 -3.03 -2.33 0 4.45 6.68 -4.67 6.95 2.3 0 2 -3.18c0.52,-0.85 1.02,-1.6 1.45,-2.45l0.05 0c0.5,0.88 0.95,1.63 1.45,2.45l2.05 3.18 2.37 0 -4.62 -7.03 4.5 -6.6 -2.28 0z"/>
  <path id="3" class="fil3" d="M201.17 439.43c-0.72,-0.45 -1.82,-0.82 -3.12,-0.82 -2.75,0 -4.45,1.75 -4.45,3.87 0,1.65 1.17,2.93 3.47,3.85 1.8,0.73 2.53,1.43 2.53,2.7 0,1.23 -0.9,2.2 -2.73,2.2 -1.17,0 -2.35,-0.5 -3.07,-0.92l-0.58 1.6c0.93,0.55 2.23,0.92 3.58,0.92 2.97,0 4.82,-1.6 4.82,-4.02 0,-2.05 -1.27,-3.2 -3.47,-4.1 -1.75,-0.75 -2.53,-1.3 -2.53,-2.48 0,-1.1 0.8,-2.02 2.3,-2.02 1.23,0 2.15,0.47 2.65,0.8l0.6 -1.58z"/>
  <path id="4" class="fil3" d="M214.05 450.48c-0.85,0.35 -1.88,0.7 -3.57,0.7 -2.46,0 -4.61,-1.42 -4.63,-5.2l9.28 0c0.02,-0.32 0.04,-0.67 0.04,-1.15 0,-2.37 -1.07,-6.22 -5.27,-6.22 -3.68,0 -6.08,3.07 -6.08,7.35 0,4.07 2.38,6.87 6.36,6.87 2.07,0 3.49,-0.47 4.27,-0.85l-0.4 -1.5zm-8.15 -6.05c0.2,-1.87 1.3,-4.25 3.8,-4.25 2.67,0 3.45,2.4 3.42,4.25l-7.22 0z"/>
  <path id="5" class="fil3" d="M229.18 444.26c0,-4.63 -2.91,-5.65 -4.6,-5.65 -2.13,0 -3.71,1.2 -4.38,2.52l-0.05 0 -0.13 -2.2 -1.85 0c0.05,1.1 0.11,2.13 0.11,3.52l0 10.11 2.07 0 0 -8.33c0,-2.4 1.8,-3.9 3.57,-3.9 2.38,0 3.18,1.95 3.18,4.18l0 8.05 2.08 0 0 -8.3z"/>
  <path id="6" class="fil3" d="M244.2 432.56l-2.07 0 0 8.17 -0.05 0c-0.63,-1.12 -1.98,-2.1 -3.98,-2.1 -3.17,0 -5.87,2.7 -5.87,7.3 0,4.2 2.45,6.93 5.6,6.93 2.2,0 3.75,-1.2 4.45,-2.63l0.07 0 0.1 2.33 1.85 0c-0.05,-0.93 -0.1,-2.28 -0.1,-3.38l0 -16.62zm-2.07 14.45c0,2.17 -1.5,4.15 -3.75,4.15 -2.68,0 -4.03,-2.45 -4.03,-5.33 0,-3.12 1.53,-5.52 4.1,-5.52 1.75,0 3.68,1.35 3.68,4.07l0 2.63z"/>
  <path id="7" class="fil3" d="M250.7 435.11c0,-0.78 -0.52,-1.4 -1.35,-1.4 -0.8,0 -1.37,0.62 -1.37,1.4 0,0.8 0.55,1.42 1.35,1.42 0.8,0 1.37,-0.55 1.37,-1.42zm-0.32 3.82l-2.08 0 0 13.63 2.08 0 0 -13.63z"/>
  <path id="8" class="fil3" d="M265.4 444.26c0,-4.63 -2.9,-5.65 -4.6,-5.65 -2.12,0 -3.7,1.2 -4.37,2.52l-0.05 0 -0.13 -2.2 -1.85 0c0.05,1.1 0.1,2.13 0.1,3.52l0 10.11 2.08 0 0 -8.33c0,-2.4 1.8,-3.9 3.57,-3.9 2.38,0 3.18,1.95 3.18,4.18l0 8.05 2.07 0 0 -8.3z"/>
  <path id="9" class="fil3" d="M278.63 438.93l-0.1 2.03 -0.05 0c-0.58,-1.1 -1.8,-2.35 -4.13,-2.35 -2.95,0 -5.9,2.5 -5.9,7.24 0,3.83 2.33,6.71 5.58,6.71 2.07,0 3.52,-1.05 4.22,-2.33l0.05 0 0 1.63c0,3.58 -1.82,4.9 -4.32,4.9 -1.63,0 -2.95,-0.5 -3.83,-1.02l-0.55 1.62c1.03,0.7 2.73,1.07 4.28,1.07 6.45,0 6.5,-5.43 6.5,-7.8l0 -7.97c0,-1.65 0.05,-2.75 0.12,-3.73l-1.87 0zm-0.35 7.98c0,2.82 -2.1,4 -3.65,4 -2.65,0 -4.05,-2.28 -4.05,-5.18 0,-3.32 1.67,-5.45 4.07,-5.45 1.9,0 3.63,1.51 3.63,3.89l0 2.74z"/>
  <g id="_2088089906528">
   <g>
    <path class="fil4 str0" d="M652.77 867.51c7.28,0 13.17,-5.89 13.17,-13.16 0,-7.26 -5.89,-13.16 -13.17,-13.16 -7.26,0 -13.16,5.9 -13.16,13.16 0,7.27 5.9,13.16 13.16,13.16z"/>
    <path class="fil4 str0" d="M699.8 861.59c-11.95,0 -22.62,5.45 -29.67,14.01 -4.9,-3.49 -10.88,-5.57 -17.36,-5.57 -16.57,0 -29.99,13.43 -29.99,30.01l115.46 0c0,-21.24 -17.22,-38.45 -38.44,-38.45z"/>
    <path class="fil4 str0" d="M699.8 858.37c9.32,0 16.86,-7.55 16.86,-16.87 0,-9.31 -7.54,-16.87 -16.86,-16.87 -9.31,0 -16.87,7.56 -16.87,16.87 0,9.32 7.56,16.87 16.87,16.87z"/>
   </g>
   <path class="fil3" d="M641.9 911.95c-0.73,-0.45 -2.1,-0.9 -3.9,-0.9 -3.47,0 -5.83,2.12 -5.83,5.02 0,2.63 1.95,4.3 4.83,5.38 2.48,1 3.5,2.15 3.5,4.02 0,2.06 -1.5,3.43 -4.05,3.43 -1.55,0 -3.08,-0.5 -4.1,-1.18l-0.57 1.73c0.95,0.67 2.82,1.2 4.55,1.2 4.09,0 6.3,-2.33 6.3,-5.35 0,-2.72 -1.58,-4.3 -4.65,-5.6 -2.55,-1.07 -3.71,-2.03 -3.71,-3.9 0,-1.38 1.01,-3 3.66,-3 1.59,0 2.79,0.52 3.35,0.87l0.62 -1.72z"/>
   <path id="1" class="fil3" d="M655.12 928.3c-0.84,0.35 -1.87,0.7 -3.57,0.7 -2.45,0 -4.6,-1.43 -4.62,-5.2l9.27 0c0.03,-0.32 0.05,-0.67 0.05,-1.15 0,-2.37 -1.07,-6.22 -5.27,-6.22 -3.68,0 -6.08,3.07 -6.08,7.35 0,4.07 2.38,6.87 6.35,6.87 2.07,0 3.5,-0.47 4.28,-0.85l-0.41 -1.5zm-8.14 -6.05c0.19,-1.88 1.3,-4.25 3.79,-4.25 2.68,0 3.45,2.4 3.43,4.25l-7.22 0z"/>
   <polygon id="2" class="fil3" points="661.43,910.37 659.35,910.37 659.35,930.38 661.43,930.38 "/>
   <path id="3" class="fil3" d="M663.9 916.75l0 1.63 1.87 0 0 12 2.08 0 0 -12 3.3 0 0 -1.63 -3.3 0 0 -0.77c0,-2.21 0.53,-4.2 2.68,-4.2 0.72,0 1.2,0.17 1.57,0.32l0.35 -1.63c-0.45,-0.19 -1.15,-0.4 -2.03,-0.4 -1.07,0 -2.25,0.36 -3.15,1.23 -1.5,1.53 -1.5,3.75 -1.5,5.45l-1.87 0z"/>
   <path id="4" class="fil3" d="M687.95 928.28c-0.67,0.3 -1.6,0.67 -2.95,0.67 -2.75,0 -4.72,-2.07 -4.72,-5.37 0,-2.93 1.65,-5.46 4.8,-5.46 1.32,0 2.22,0.38 2.8,0.71l0.52 -1.68c-0.52,-0.27 -1.75,-0.72 -3.27,-0.72 -4.2,0 -6.98,3.07 -6.98,7.27 0,4.17 2.58,6.95 6.48,6.95 1.75,0 3.1,-0.47 3.7,-0.77l-0.38 -1.6z"/>
   <path id="5" class="fil3" d="M700.15 921.85c0,-2.7 -1,-5.42 -4.85,-5.42 -1.52,0 -3.05,0.42 -4.15,1.14l0.5 1.43c0.93,-0.65 2.15,-0.97 3.33,-0.97 3.1,0 3.1,2.6 3.1,3.75 -5.05,-0.03 -7.9,1.74 -7.9,5.02 0,1.97 1.37,3.88 3.97,3.88 1.93,0 3.33,-0.98 4.03,-2.06l0.07 0 0.2 1.76 1.9 0c-0.17,-0.95 -0.2,-2.13 -0.2,-3.26l0 -5.27zm-2.05 4.03c0,1.65 -1.42,3.19 -3.45,3.19 -1.25,0 -2.35,-0.77 -2.35,-2.52 0,-2.88 3.23,-3.25 5.8,-3.25l0 2.58z"/>
   <path id="6" class="fil3" d="M710.38 916.52c-0.23,-0.02 -0.4,-0.07 -0.63,-0.07 -1.67,0 -3.1,1.22 -3.7,2.93l-0.07 0 -0.1 -2.63 -1.83 0c0.08,1.3 0.1,2.63 0.1,4.07l0 9.56 2.08 0 0 -7.4c0,-2.31 1.15,-4.53 3.4,-4.53 0.3,0 0.52,0.03 0.75,0.05l0 -1.98z"/>
   <path id="7" class="fil3" d="M722.05 928.3c-0.85,0.35 -1.87,0.7 -3.57,0.7 -2.45,0 -4.6,-1.43 -4.63,-5.2l9.28 0c0.02,-0.32 0.05,-0.67 0.05,-1.15 0,-2.37 -1.08,-6.22 -5.28,-6.22 -3.67,0 -6.07,3.07 -6.07,7.35 0,4.07 2.37,6.87 6.35,6.87 2.07,0 3.5,-0.47 4.27,-0.85l-0.4 -1.5zm-8.15 -6.05c0.2,-1.88 1.3,-4.25 3.8,-4.25 2.68,0 3.45,2.4 3.43,4.25l-7.23 0z"/>
  </g>
  <path class="fil3" d="M825.95 752.32c-0.95,0.45 -2.37,0.78 -3.83,0.78 -4.45,0 -7.15,-2.95 -7.15,-7.95 0,-5.25 2.95,-8.15 7.28,-8.15 1.5,0 2.72,0.35 3.6,0.77l0.55 -1.75c-0.6,-0.3 -1.92,-0.77 -4.2,-0.77 -5.58,0 -9.4,3.82 -9.4,9.98 0,6.45 3.95,9.62 8.85,9.62 2.17,0 3.88,-0.43 4.75,-0.85l-0.45 -1.68z"/>
  <polygon id="1" class="fil3" points="831.43,734.57 829.35,734.57 829.35,754.57 831.43,754.57 "/>
  <path id="2" class="fil3" d="M837.95 737.12c0,-0.77 -0.53,-1.4 -1.35,-1.4 -0.8,0 -1.37,0.63 -1.37,1.4 0,0.8 0.54,1.43 1.35,1.43 0.8,0 1.37,-0.55 1.37,-1.43zm-0.32 3.83l-2.08 0 0 13.62 2.08 0 0 -13.62z"/>
  <path id="3" class="fil3" d="M850.58 752.47c-0.68,0.3 -1.61,0.68 -2.96,0.68 -2.74,0 -4.72,-2.07 -4.72,-5.37 0,-2.93 1.65,-5.46 4.8,-5.46 1.32,0 2.22,0.38 2.8,0.7l0.53 -1.67c-0.53,-0.28 -1.76,-0.73 -3.28,-0.73 -4.2,0 -6.98,3.08 -6.98,7.28 0,4.17 2.58,6.95 6.48,6.95 1.75,0 3.1,-0.47 3.7,-0.77l-0.37 -1.61z"/>
  <path id="4" class="fil3" d="M858.6 746.58l5.13 -5.63 -2.5 0 -4.08 4.82c-0.38,0.45 -0.85,1.05 -1.17,1.53l-0.05 0 0 -12.73 -2.08 0 0 20 2.08 0 0 -5.29 1.25 -1.43 4.69 6.72 2.55 0 -5.82 -7.99z"/>
  <polygon id="5" class="fil3" points="865.08,747.75 871.9,747.75 871.9,746.15 865.08,746.15 "/>
  <path id="6" class="fil3" d="M875.35 740.95l-2.1 0 0 1.62 2.1 0 0 7.83c0,1.45 0.1,4.45 3.4,4.45 0.88,0 1.58,-0.13 2.03,-0.32l-0.13 -1.61c-0.35,0.13 -0.77,0.2 -1.4,0.2 -1.32,0 -1.85,-0.95 -1.85,-2.67l0 -7.88 3.53 0 0 -1.62 -3.53 0 0 -3.18 -2.05 0.7 0 2.48z"/>
  <path id="7" class="fil3" d="M889.03 740.62c-3.48,0 -6.38,2.58 -6.38,7.23 0,4.4 2.7,7.02 6.2,7.02 3.03,0 6.38,-2.14 6.38,-7.22 0,-4.18 -2.48,-7.03 -6.2,-7.03zm4.07 7.1c0,3.08 -1.72,5.53 -4.2,5.53 -2.45,0 -4.12,-2.45 -4.12,-5.47 0,-2.63 1.22,-5.53 4.17,-5.53 2.98,0 4.15,3.05 4.15,5.47z"/>
  <polygon id="8" class="fil3" points="897.18,747.75 904,747.75 904,746.15 897.18,746.15 "/>
  <path id="9" class="fil3" d="M915.73 752.47c-0.68,0.3 -1.6,0.68 -2.95,0.68 -2.75,0 -4.73,-2.07 -4.73,-5.37 0,-2.93 1.65,-5.46 4.8,-5.46 1.33,0 2.23,0.38 2.8,0.7l0.53 -1.67c-0.53,-0.28 -1.75,-0.73 -3.28,-0.73 -4.2,0 -6.97,3.08 -6.97,7.28 0,4.17 2.57,6.95 6.47,6.95 1.75,0 3.1,-0.47 3.7,-0.77l-0.37 -1.61z"/>
  <path id="10" class="fil3" d="M927.93 746.05c0,-2.7 -1,-5.43 -4.85,-5.43 -1.53,0 -3.05,0.43 -4.15,1.15l0.5 1.43c0.92,-0.65 2.15,-0.97 3.32,-0.97 3.1,0 3.1,2.59 3.1,3.75 -5.05,-0.03 -7.9,1.74 -7.9,5.02 0,1.97 1.38,3.87 3.98,3.87 1.92,0 3.32,-0.97 4.02,-2.05l0.08 0 0.2 1.75 1.9 0c-0.18,-0.94 -0.2,-2.12 -0.2,-3.25l0 -5.27zm-2.05 4.02c0,1.65 -1.43,3.2 -3.45,3.2 -1.25,0 -2.35,-0.77 -2.35,-2.52 0,-2.88 3.22,-3.25 5.8,-3.25l0 2.57z"/>
  <polygon id="11" class="fil3" points="934,734.57 931.93,734.57 931.93,754.57 934,754.57 "/>
  <polygon id="12" class="fil3" points="940.2,734.57 938.13,734.57 938.13,754.57 940.2,754.57 "/>
  <g id="_2088089884640">
   <g>
    <path class="fil5" d="M502.87 451.76c0,11.44 0.91,13.37 3.26,23.47 -6.88,1.84 -1.2,15.35 -0.26,19.17 1.26,5.1 1.82,8.75 6.78,8.86 0,21.01 9.13,24.82 9.13,27.38 0,5.18 0.45,15.27 -2.75,18.12 -6.08,5.41 -29.49,6.91 -37.9,10.99 -17,8.26 -26.5,21.03 -26.5,41.3l181.23 0c0,-11.27 -2.37,-19.02 -8,-26.55 -13.93,-18.66 -29.09,-16.74 -44.3,-20.89 -15.9,-4.34 -14.84,-6.18 -14.84,-22.97 0,-1.23 2.82,-4.11 3.74,-5.38 3.92,-5.39 5.38,-15.17 5.38,-22 4.96,-0.11 5.53,-3.76 6.79,-8.86 0.94,-3.82 6.62,-17.33 -0.27,-19.17 3.68,-15.79 6.47,-30.8 -3.64,-45.26 -3.16,-4.53 -5.14,-6.42 -9.91,-9.64 -2.2,-1.49 -3.58,-2.38 -6.27,-3.51 -19.54,-8.15 -47.8,-3.41 -58.21,18.84 -1.91,4.09 -3.46,10.35 -3.46,16.1z"/>
    <path class="fil5" d="M598.7 520.86c5.51,3.69 13.01,5.87 22.17,5.87 0,2.45 0.29,7.46 -0.53,9.25 -2.55,5.58 -17.12,2.1 -19.03,10.31 5.93,2.84 9.63,-0.94 22.43,7.56 4.95,3.29 13.31,9.81 14.73,15.91l52.81 0c0,-9.38 -5.95,-20.83 -14.6,-24.52 -11.27,-4.79 -25.17,-4.49 -25.17,-11.34l0 -7.82c9.06,0 15.53,-0.77 22.16,-5.22 -15.18,-22.67 4.17,-56.91 -18.36,-71.6 -11.59,-7.56 -45.53,-10.86 -49.92,22.87 -1.43,10.93 1.86,25.92 -2.19,38.89 -1.47,4.71 -2.45,5.98 -4.5,9.84z"/>
    <path class="fil5" d="M423.34 495.44c0,11.19 -0.79,16.87 -6.52,25.42 6.64,4.45 13.1,5.22 22.16,5.22 0,18.98 -1.77,9.35 -25.06,19.26 -7.49,3.19 -14.7,13.35 -14.7,24.42l52.8 0c1.81,-7.76 17.14,-18.87 24.11,-20.88 5.16,-1.49 7.23,-1.14 9.96,-1.78 0.76,-0.17 3.34,0.34 2.51,-2.45 -1.86,-6.34 -18.98,-2.91 -18.98,-10.75l0 -7.17c3.85,0 8.73,-0.71 12.11,-1.58 4.88,-1.25 6.42,-2.36 10.06,-4.29 -1.76,-3.33 -3.21,-5.33 -4.43,-9.26 -4.38,-14.24 -0.59,-26.11 -2.25,-38.81 -1.99,-15.2 -10.85,-28.2 -27.22,-28.2 -12.7,0 -25.31,0.99 -31.5,15.44 -5,11.67 -3.05,21.04 -3.05,35.41z"/>
   </g>
   <path class="fil3" d="M515.77 656.14c-1.58,0.59 -4.22,1.06 -6.57,1.06 -7.33,0 -12.02,-4.93 -12.02,-14.37 0,-10.21 5.45,-14.67 11.96,-14.67 2.88,0 5.05,0.65 6.57,1.35l1.88 -8.39c-1.29,-0.7 -4.46,-1.64 -9.03,-1.64 -11.68,0 -22.23,7.69 -22.23,23.93 0,12.56 6.8,22.59 21.17,22.59 4.46,0 7.98,-0.83 9.56,-1.53l-1.29 -8.33z"/>
   <path id="1" class="fil3" d="M545.63 644c4.16,-1.64 7.51,-5.81 7.51,-11.15 0,-12.43 -11.85,-13.07 -17.89,-13.07 -4.7,0 -9.09,0.41 -12.26,0.93l0 44.7 10.26 0 0 -17.66 2 0c3.46,0 5.04,1.47 6.04,6.98 0.99,5.34 2.17,9.39 2.75,10.68l10.68 0c-0.88,-1.76 -2.17,-7.8 -3.34,-12.67 -1.06,-4.34 -2.64,-7.27 -5.75,-8.51l0 -0.23zm-12.38 -3.87l0 -12.26c0.59,-0.18 1.7,-0.29 3.34,-0.29 2.41,0 6.22,0.99 6.22,6.15 0,3.7 -2.52,6.4 -6.86,6.4l-2.7 0z"/>
   <path id="2" class="fil3" d="M601.59 620.07l-12.44 0 -3.87 14.6c-1.35,5.28 -2.64,11.09 -3.58,16.31l-0.23 0c-0.88,-5.34 -2.17,-10.85 -3.46,-16.25l-3.64 -14.66 -12.61 0 -3.11 45.34 9.27 0 0.76 -16.13c0.23,-4.87 0.53,-11.26 0.7,-16.89l0.18 0c0.94,5.57 2.23,11.73 3.34,16.07l4.05 16.13 7.8 0 4.46 -16.25c1.23,-4.34 2.81,-10.5 3.99,-15.95l0.17 0c-0.06,5.98 0.18,12.02 0.41,16.83l0.65 16.19 9.74 0 -2.58 -45.34z"/>
  </g>
  <g id="_2088089656000">
   <path class="fil6 str1" d="M742.41 154.65l0 1.29c1.63,0.43 5.4,3.73 6.44,5.14 -1.13,1.68 -2.91,3.37 -4.41,5.25 -4.28,5.35 -19.31,18.82 -25.63,23.91l-22.46 16.79c-4.21,2.92 -7.8,5.01 -12.1,7.84l-24.83 15.05c3.6,-0.08 12.59,-2.85 16,-3.93l21.59 -8.01c10.29,-4.08 29.61,-14.67 38.51,-21.33 2.17,-1.63 3.79,-2.6 5.98,-4.31l10.93 -9.01c3.95,-3.05 6.66,-7.41 10.57,-10.02 5.76,3.05 2.85,4.15 7.08,4.5 0,-8.15 2.57,-21.46 2.57,-28.95 -1.06,0.51 -28.06,5.74 -30.24,5.79z"/>
   <path class="fil6 str1" d="M748.85 191.97l0 50.82 14.15 0 0 -65.62 -11.15 10.08c-1.72,1.41 -3,1.79 -3,4.72z"/>
   <path class="fil6 str1" d="M728.26 204.19l0 38.6 14.15 0 0 -47.61c-3.59,1.9 -10.88,8.14 -14.15,9.01z"/>
   <path class="fil6 str1" d="M707.03 217.7l0 25.09 14.15 0 0 -34.1c-2.56,1.72 -4.58,2.51 -7.5,4.08 -3.76,2.02 -6.65,2.64 -6.65,4.93z"/>
   <path class="fil6 str1" d="M686.44 224.78l0 18.01 14.15 0 0 -23.16c-2.29,0.19 -4.98,1.76 -7.07,2.58 -1.83,0.72 -5.22,2.13 -7.08,2.57z"/>
   <path class="fil6 str1" d="M665.21 233.14l0 9.65 14.15 0 0 -15.44c-1.32,0.63 -5.47,1.77 -7.35,2.3 -2.35,0.67 -6.8,1.1 -6.8,3.49z"/>
  </g>
  <g id="_2088089654560">
   <path class="fil3" d="M884 459.41c-0.73,-0.45 -2.1,-0.9 -3.9,-0.9 -3.48,0 -5.83,2.12 -5.83,5.02 0,2.63 1.95,4.3 4.83,5.38 2.47,1 3.5,2.15 3.5,4.02 0,2.05 -1.5,3.43 -4.05,3.43 -1.55,0 -3.08,-0.5 -4.1,-1.18l-0.58 1.73c0.95,0.67 2.83,1.2 4.55,1.2 4.1,0 6.3,-2.33 6.3,-5.35 0,-2.73 -1.57,-4.3 -4.65,-5.6 -2.55,-1.08 -3.7,-2.03 -3.7,-3.9 0,-1.38 1,-3 3.65,-3 1.6,0 2.8,0.52 3.35,0.87l0.63 -1.72z"/>
   <path id="1" class="fil3" d="M904.82 458.78l-2.6 0 -3.47 9.68c-0.85,2.45 -1.5,4.45 -1.98,6.37l-0.07 0c-0.5,-1.97 -1.13,-4 -1.93,-6.37l-3.35 -9.68 -2.55 0 -1.32 19.05 1.97 0 0.53 -8.37c0.17,-2.93 0.32,-6.08 0.37,-8.4l0.08 0c0.52,2.2 1.25,4.6 2.17,7.35l3.18 9.35 1.52 0 3.4 -9.55c0.93,-2.65 1.7,-5 2.33,-7.15l0.07 0c-0.02,1.95 0.18,5.47 0.33,8.2l0.47 8.57 2.05 0 -1.2 -19.05z"/>
   <path id="2" class="fil3" d="M918.87 459.41c-0.72,-0.45 -2.1,-0.9 -3.9,-0.9 -3.47,0 -5.82,2.12 -5.82,5.02 0,2.63 1.95,4.3 4.82,5.38 2.48,1 3.5,2.15 3.5,4.02 0,2.05 -1.5,3.43 -4.05,3.43 -1.55,0 -3.07,-0.5 -4.1,-1.18l-0.57 1.73c0.95,0.67 2.82,1.2 4.55,1.2 4.1,0 6.3,-2.33 6.3,-5.35 0,-2.73 -1.58,-4.3 -4.65,-5.6 -2.55,-1.08 -3.7,-2.03 -3.7,-3.9 0,-1.38 1,-3 3.65,-3 1.6,0 2.8,0.52 3.35,0.87l0.62 -1.72z"/>
   <polygon id="3" class="fil3" points="837.91,503.56 839.98,503.56 839.98,484.51 837.91,484.51 "/>
   <path id="4" class="fil3" d="M855.08 495.26c0,-4.63 -2.9,-5.65 -4.6,-5.65 -2.12,0 -3.7,1.2 -4.37,2.52l-0.05 0 -0.13 -2.2 -1.85 0c0.05,1.1 0.1,2.12 0.1,3.52l0 10.11 2.08 0 0 -8.34c0,-2.39 1.8,-3.89 3.57,-3.89 2.38,0 3.18,1.95 3.18,4.18l0 8.05 2.07 0 0 -8.3z"/>
   <path id="5" class="fil3" d="M859.66 489.93l-2.1 0 0 1.63 2.1 0 0 7.82c0,1.45 0.1,4.45 3.4,4.45 0.87,0 1.57,-0.12 2.02,-0.32l-0.12 -1.6c-0.35,0.12 -0.78,0.2 -1.4,0.2 -1.33,0 -1.85,-0.95 -1.85,-2.68l0 -7.87 3.52 0 0 -1.63 -3.52 0 0 -3.17 -2.05 0.7 0 2.47z"/>
   <path id="6" class="fil3" d="M877.21 501.48c-0.85,0.35 -1.88,0.7 -3.58,0.7 -2.45,0 -4.6,-1.42 -4.62,-5.2l9.27 0c0.03,-0.32 0.05,-0.67 0.05,-1.15 0,-2.37 -1.07,-6.22 -5.27,-6.22 -3.68,0 -6.08,3.07 -6.08,7.35 0,4.07 2.38,6.87 6.35,6.87 2.08,0 3.5,-0.47 4.28,-0.85l-0.4 -1.5zm-8.15 -6.05c0.2,-1.87 1.3,-4.25 3.8,-4.25 2.67,0 3.45,2.4 3.42,4.25l-7.22 0z"/>
   <path id="7" class="fil3" d="M887.66 489.71c-0.23,-0.03 -0.4,-0.08 -0.63,-0.08 -1.67,0 -3.1,1.23 -3.7,2.93l-0.07 0 -0.1 -2.63 -1.83 0c0.08,1.3 0.1,2.63 0.1,4.08l0 9.55 2.08 0 0 -7.4c0,-2.3 1.15,-4.53 3.4,-4.53 0.3,0 0.52,0.03 0.75,0.05l0 -1.97z"/>
   <path id="8" class="fil3" d="M899.01 495.03c0,-2.7 -1,-5.42 -4.85,-5.42 -1.53,0 -3.05,0.42 -4.15,1.15l0.5 1.42c0.92,-0.65 2.15,-0.97 3.32,-0.97 3.1,0 3.1,2.6 3.1,3.75 -5.05,-0.03 -7.9,1.75 -7.9,5.02 0,1.98 1.38,3.88 3.98,3.88 1.92,0 3.32,-0.98 4.02,-2.05l0.08 0 0.2 1.75 1.9 0c-0.18,-0.95 -0.2,-2.13 -0.2,-3.25l0 -5.28zm-2.05 4.03c0,1.65 -1.43,3.2 -3.45,3.2 -1.25,0 -2.35,-0.78 -2.35,-2.53 0,-2.87 3.22,-3.25 5.8,-3.25l0 2.58z"/>
   <path id="9" class="fil3" d="M911.83 501.46c-0.67,0.3 -1.6,0.67 -2.95,0.67 -2.75,0 -4.72,-2.07 -4.72,-5.37 0,-2.93 1.65,-5.45 4.8,-5.45 1.32,0 2.22,0.37 2.8,0.7l0.52 -1.68c-0.52,-0.27 -1.75,-0.72 -3.27,-0.72 -4.2,0 -6.98,3.07 -6.98,7.27 0,4.18 2.58,6.95 6.48,6.95 1.75,0 3.1,-0.47 3.7,-0.77l-0.38 -1.6z"/>
   <path id="10" class="fil3" d="M915.66 489.93l-2.1 0 0 1.63 2.1 0 0 7.82c0,1.45 0.1,4.45 3.4,4.45 0.87,0 1.57,-0.12 2.02,-0.32l-0.12 -1.6c-0.35,0.12 -0.78,0.2 -1.4,0.2 -1.33,0 -1.85,-0.95 -1.85,-2.68l0 -7.87 3.52 0 0 -1.63 -3.52 0 0 -3.17 -2.05 0.7 0 2.47z"/>
   <path id="11" class="fil3" d="M926.36 486.11c0,-0.78 -0.53,-1.4 -1.35,-1.4 -0.8,0 -1.38,0.62 -1.38,1.4 0,0.8 0.55,1.42 1.35,1.42 0.8,0 1.38,-0.55 1.38,-1.42zm-0.33 3.82l-2.07 0 0 13.63 2.07 0 0 -13.63z"/>
   <path id="12" class="fil3" d="M935.53 489.61c-3.47,0 -6.37,2.57 -6.37,7.22 0,4.4 2.7,7.03 6.2,7.03 3.02,0 6.37,-2.15 6.37,-7.23 0,-4.17 -2.47,-7.02 -6.2,-7.02zm4.08 7.1c0,3.07 -1.73,5.52 -4.2,5.52 -2.45,0 -4.13,-2.45 -4.13,-5.47 0,-2.63 1.23,-5.53 4.18,-5.53 2.97,0 4.15,3.05 4.15,5.48z"/>
   <path id="13" class="fil3" d="M955.78 495.26c0,-4.63 -2.9,-5.65 -4.6,-5.65 -2.12,0 -3.7,1.2 -4.37,2.52l-0.05 0 -0.13 -2.2 -1.85 0c0.05,1.1 0.1,2.12 0.1,3.52l0 10.11 2.08 0 0 -8.34c0,-2.39 1.8,-3.89 3.57,-3.89 2.38,0 3.18,1.95 3.18,4.18l0 8.05 2.07 0 0 -8.3z"/>
   <g>
    <path class="fil3" d="M925.38 446.49c0,2.23 -2.17,4.03 -4.82,4.03l-46.06 0c-2.66,0 -4.82,-1.8 -4.82,-4.03l0 -74.35c0,-2.22 2.16,-4.02 4.82,-4.02l46.06 0c2.65,0 4.82,1.8 4.82,4.02l0 74.35z"/>
    <path class="fil7" d="M874.5 368.41c-2.49,0 -4.53,1.68 -4.53,3.73l0 74.35c0,2.06 2.04,3.74 4.53,3.74l46.06 0c2.49,0 4.53,-1.68 4.53,-3.74l0 -74.35c0,-2.05 -2.04,-3.73 -4.53,-3.73l-46.06 0zm46.06 82.4l-46.06 0c-2.81,0 -5.11,-1.93 -5.11,-4.32l0 -74.35c0,-2.37 2.3,-4.31 5.11,-4.31l46.06 0c2.81,0 5.1,1.94 5.1,4.31l0 74.35c0,2.39 -2.29,4.32 -5.1,4.32z"/>
    <path class="fil7" d="M875.95 379.77c0,-2.07 2,-3.74 4.48,-3.74l33.77 0c2.48,0 4.48,1.67 4.48,3.74l0 52.35c0,2.07 -2,3.75 -4.48,3.75l-33.77 0c-2.48,0 -4.48,-1.68 -4.48,-3.75l0 -52.35z"/>
    <path class="fil7" d="M904.48 372.01c0,0.47 -0.46,0.85 -1.02,0.85l-11.87 0c-0.56,0 -1.02,-0.38 -1.02,-0.85 0,-0.47 0.46,-0.86 1.02,-0.86l11.87 0c0.56,0 1.02,0.39 1.02,0.86z"/>
    <path class="fil7" d="M900.59 443.13c0,1.69 -1.37,3.06 -3.06,3.06 -1.69,0 -3.06,-1.37 -3.06,-3.06 0,-1.69 1.37,-3.06 3.06,-3.06 1.69,0 3.06,1.37 3.06,3.06z"/>
    <g>
     <path class="fil8" d="M927.96 380.71c0.38,-0.89 2.8,-3.6 3.28,-6.49 -2.86,-2.14 -4.72,-6.47 -3.93,-10.32 1.57,-7.73 11.08,-11.57 18.83,-10.41 2.91,0.44 6.91,1.96 8.93,3.94 0.4,0.38 0.6,0.64 0.95,1 4.08,4.02 4.22,9.83 0.59,14.39l-1.9 1.83c-1.31,0.94 -1.99,1.41 -3.56,2.16 -7.68,3.67 -14.37,0.21 -15.24,0.58 -1.09,0.47 -3.41,2.9 -7.95,3.32zm-3.15 -15.78l0 2.32c0.49,1.23 0.53,2.55 1.23,4.02l1.48 2.44c0.96,1.26 1.76,0.79 -0.45,4.17 -0.75,1.16 -1.39,1.73 -2.26,3.05l0 0.9c0.58,0.85 0.59,1.28 2.12,1.28 2.74,0 5.91,-1.1 8.18,-2.42 2.49,-1.44 0.62,-0.63 5.39,-0.04 7.99,0.99 17.82,-2.79 20.4,-10.9 0.3,-0.93 0.39,-2.2 0.62,-2.9l0 -1.91c-0.61,-1.85 -0.05,-2.67 -2.04,-5.89 -0.48,-0.78 -1.24,-1.77 -1.75,-2.34 -1.63,-1.83 -5.11,-3.81 -7.49,-4.59 -6.57,-2.16 -14.03,-1.25 -19.33,2.65 -2.63,1.94 -4.16,3.7 -5.35,6.91 -0.43,1.16 -0.44,2.34 -0.75,3.25z"/>
     <path class="fil8" d="M938.59 362.88l0 6.52c0,1.05 0.05,1.07 1.23,1.07 1.38,0 1.08,0.02 1.05,-4.49l-0.01 -0.81c0.35,0.55 0.66,1.34 0.98,2.03 0.19,0.4 0.32,0.76 0.5,1.15 0.51,1.15 1.07,1.4 1.62,0.13 0.16,-0.39 0.28,-0.73 0.48,-1.15 0.32,-0.67 0.66,-1.61 1.03,-2.16l-0.02 4.23c0.01,1.22 -0.05,1.18 2.15,1 0.35,-2.07 0.15,-5.31 0.15,-7.52 0,-1.54 -0.53,-1.57 -1.89,-1.57 -2.2,0 -1.48,1.77 -2.79,3.1 -0.19,-0.68 -0.56,-1.27 -0.88,-1.93 -0.54,-1.14 -0.42,-1.17 -2.04,-1.17 -1.3,0 -1.56,0.29 -1.56,1.57z"/>
     <path class="fil8" d="M951.94 367.77c-0.33,0.41 -0.17,0.34 -0.88,0.4 -0.23,0.02 -0.38,-0.01 -0.61,0.05 -1.17,0.3 -0.76,1.94 -0.29,2.12 0.39,0.16 -0.19,0.04 0.43,0.14 0.58,0.09 1.59,-0.08 2.17,-0.37 0.64,-0.33 1.34,-1.05 1.47,-2.02 0.33,-2.52 -2.41,-2.93 -2.6,-4.19 1.35,-0.79 2,0.4 2.16,-1.19 0.16,-1.55 -0.49,-1.52 -1.74,-1.38 -1.04,0.11 -2.01,0.61 -2.47,1.52 -1.38,2.69 1.9,3.88 2.36,4.92z"/>
     <path class="fil8" d="M934.71 367.89c-0.89,0.54 -1.16,0.08 -1.98,0.45 -0.27,0.54 -0.25,1.4 -0.03,1.98 1.36,0.55 4.04,-0.05 4.32,-2.26 0.24,-1.94 -1.2,-2.57 -1.75,-3.08 -0.44,-0.42 -0.66,-0.44 -0.88,-0.96 0.34,-0.42 0.15,-0.34 0.89,-0.4 0.25,-0.02 0.81,0.02 1.1,-0.3 0.24,-0.29 0.38,-1.23 0.11,-1.67 -0.39,-0.64 -3.17,-0.62 -4.14,1.27 -1.38,2.73 2.17,3.73 2.36,4.97z"/>
    </g>
   </g>
  </g>
  <path class="fil6 str1" d="M859.42 671.38c-1.61,-1.39 -3.67,-4.51 -7.52,-5.76 -4.25,-1.38 -8.01,0.63 -8.99,3.71 -2,6.3 7.5,22.35 11.08,28.09 3.38,5.43 9.66,11.51 10.68,15.65 1.58,6.45 -0.06,5.77 7.82,5.8 8.78,0.03 17.57,-0.01 26.36,0 7.03,0.01 5.37,-0.98 5.97,-7.24 1.16,-12.05 5.49,-19.33 5.45,-34.2 -0.01,-3.86 0.71,-8.94 -1.68,-11.62 -2.42,-2.71 -4.82,-3.91 -9.74,-2.95 -1.82,-3.02 -1.41,-3.73 -4.67,-5.26 -2.59,-1.22 -5.42,-0.89 -7.76,0.05 -2.84,-2.43 -3.74,-4.59 -9.97,-3.39 -0.4,-5.52 1.12,-12.43 -1.68,-16.79 -3.42,-5.32 -15.05,-4.66 -15.31,5.67 -0.24,9.11 0.33,19.19 -0.04,28.24z"/>
  <g id="_2088089625568">
   <path class="fil3" d="M331.58 918.29c-0.95,0.45 -2.37,0.78 -3.82,0.78 -4.45,0 -7.15,-2.96 -7.15,-7.96 0,-5.25 2.95,-8.14 7.27,-8.14 1.5,0 2.73,0.34 3.6,0.77l0.55 -1.75c-0.6,-0.3 -1.92,-0.78 -4.2,-0.78 -5.57,0 -9.4,3.83 -9.4,9.98 0,6.45 3.95,9.63 8.85,9.63 2.18,0 3.88,-0.43 4.75,-0.85l-0.45 -1.68z"/>
   <path id="1" class="fil3" d="M343.91 912.01c0,-2.7 -1,-5.42 -4.85,-5.42 -1.53,0 -3.05,0.43 -4.15,1.15l0.5 1.42c0.92,-0.64 2.15,-0.97 3.32,-0.97 3.1,0 3.1,2.6 3.1,3.75 -5.05,-0.03 -7.9,1.75 -7.9,5.02 0,1.98 1.38,3.88 3.98,3.88 1.92,0 3.32,-0.98 4.02,-2.05l0.08 0 0.2 1.75 1.9 0c-0.18,-0.95 -0.2,-2.12 -0.2,-3.25l0 -5.28zm-2.05 4.03c0,1.65 -1.43,3.2 -3.45,3.2 -1.25,0 -2.35,-0.77 -2.35,-2.53 0,-2.87 3.22,-3.24 5.8,-3.24l0 2.57z"/>
   <polygon id="2" class="fil3" points="349.98,900.54 347.91,900.54 347.91,920.54 349.98,920.54 "/>
   <polygon id="3" class="fil3" points="356.18,900.54 354.11,900.54 354.11,920.54 356.18,920.54 "/>
   <polygon id="4" class="fil3" points="376.16,918.77 368.28,918.77 368.28,901.49 366.21,901.49 366.21,920.54 376.16,920.54 "/>
   <path id="5" class="fil3" d="M384.16 906.59c-3.48,0 -6.38,2.57 -6.38,7.22 0,4.4 2.7,7.03 6.2,7.03 3.03,0 6.38,-2.15 6.38,-7.22 0,-4.18 -2.48,-7.03 -6.2,-7.03zm4.07 7.1c0,3.08 -1.72,5.53 -4.2,5.53 -2.45,0 -4.12,-2.45 -4.12,-5.48 0,-2.63 1.22,-5.52 4.17,-5.52 2.98,0 4.15,3.04 4.15,5.47z"/>
   <path id="6" class="fil3" d="M402.71 906.91l-0.1 2.03 -0.05 0c-0.58,-1.1 -1.8,-2.35 -4.13,-2.35 -2.95,0 -5.9,2.5 -5.9,7.24 0,3.84 2.33,6.71 5.58,6.71 2.07,0 3.52,-1.05 4.22,-2.33l0.05 0 0 1.63c0,3.58 -1.82,4.9 -4.32,4.9 -1.63,0 -2.95,-0.5 -3.83,-1.02l-0.55 1.62c1.03,0.7 2.73,1.08 4.28,1.08 6.45,0 6.5,-5.43 6.5,-7.8l0 -7.98c0,-1.65 0.05,-2.75 0.12,-3.73l-1.87 0zm-0.35 7.98c0,2.82 -2.1,4 -3.65,4 -2.65,0 -4.05,-2.27 -4.05,-5.18 0,-3.32 1.67,-5.45 4.07,-5.45 1.9,0 3.63,1.51 3.63,3.89l0 2.74z"/>
   <path id="7" class="fil3" d="M415.53 907.41c-0.72,-0.45 -1.82,-0.82 -3.12,-0.82 -2.75,0 -4.45,1.75 -4.45,3.88 0,1.65 1.17,2.92 3.47,3.84 1.8,0.73 2.53,1.43 2.53,2.7 0,1.23 -0.9,2.21 -2.73,2.21 -1.17,0 -2.35,-0.5 -3.07,-0.93l-0.58 1.6c0.93,0.55 2.23,0.93 3.58,0.93 2.97,0 4.82,-1.6 4.82,-4.03 0,-2.05 -1.27,-3.2 -3.47,-4.1 -1.75,-0.75 -2.53,-1.3 -2.53,-2.48 0,-1.09 0.8,-2.02 2.3,-2.02 1.23,0 2.15,0.48 2.65,0.8l0.6 -1.58z"/>
   <g>
    <path class="fil6 str1" d="M381.26 894.52l4.65 0c2.85,-1.22 9.59,-0.36 13.86,-6.79 1.32,-2 1.22,-3.41 2.09,-5.26l0 -2.49 -0.47 -0.96c-0.16,-0.31 -0.18,-0.39 -0.32,-0.65 -0.32,-0.57 -0.55,-0.86 -0.95,-1.23 -0.65,-0.61 -1.57,-1.05 -2.5,-1.57 -8.65,-4.8 -11.47,-8.65 -15.97,-4.4 -5.31,5.02 -3.42,7.35 -8.95,4.25 -1.75,-0.98 -3.42,-2.1 -4.9,-3.25 -3.07,-2.4 -5.79,-5.03 -8.17,-8.12 -8.35,-10.82 -5.26,-9.52 -0.24,-13.88 4.5,-3.91 2.36,-6.26 -0.33,-10.63 -0.98,-1.6 -5.25,-9.58 -6.29,-10.05 -3.83,-1.73 -15.65,1.01 -16.27,15.2 -0.81,18.53 18.1,38.42 33.15,45.7 7.57,3.67 9.5,3.18 11.61,4.13z"/>
    <path class="fil6 str1" d="M381.69 855.03c1.26,-2.32 8.33,-7.96 9.49,-10l-3.73 -3.56c-2.25,1.17 -7.11,7.5 -9.72,9.42 -0.87,-1.73 -0.31,-4.36 -1.45,-6.01 -0.99,-1.44 -3.77,-1.25 -4.78,0.45 -0.73,1.22 0.6,11.5 1.26,13.1 0.85,2.1 2.88,1.86 5.58,2.02 1.95,0.12 5.04,0.57 6.88,0.46 2,-0.11 3.75,-2.03 2.62,-4.37 -0.83,-1.71 -3.8,-1.45 -6.15,-1.51z"/>
    <path class="fil6 str1" d="M383.12 818.99l-2.39 0c-1.13,0.84 -3.07,2.68 -1.46,4.72 1.15,1.47 3.68,0.98 5.9,1.32l-9.52 9.65 3.68 3.72c0.94,-0.47 8.64,-8.3 9.57,-9.44 0.38,0.46 0.12,-0.18 0.5,0.9l0.61 3.5c0.3,1.53 0.88,2.61 2.5,2.73 4.12,0.32 3.15,-4.22 2.73,-7.35 -0.36,-2.68 -0.38,-7.41 -2.33,-8.63 -2.04,-1.26 -7.37,-0.23 -9.79,-1.12z"/>
   </g>
  </g>
  <path class="fil3" d="M124.73 703.08c2.03,-0.73 3.55,-2.35 3.55,-4.88 0,-1.42 -0.52,-2.72 -1.42,-3.55 -1.13,-1.05 -2.75,-1.55 -5.23,-1.55 -1.5,0 -3.15,0.15 -4.32,0.4l0 18.78 2.07 0 0 -8.43 2.33 0c2.25,0 3.3,1.18 3.85,3.83 0.5,2.37 0.92,4.05 1.22,4.6l2.15 0c-0.37,-0.73 -0.8,-2.4 -1.4,-5.15 -0.45,-2.08 -1.32,-3.5 -2.8,-3.98l0 -0.07zm-5.35 -0.83l0 -7.3c0.43,-0.1 1.23,-0.2 2.35,-0.2 2.33,0 4.45,0.88 4.45,3.7 0,2.3 -1.7,3.8 -4.35,3.8l-2.45 0z"/>
  <path id="1" class="fil3" d="M140.88 710.2c-0.85,0.35 -1.87,0.7 -3.57,0.7 -2.45,0 -4.6,-1.42 -4.63,-5.2l9.28 0c0.02,-0.32 0.05,-0.67 0.05,-1.15 0,-2.37 -1.08,-6.22 -5.28,-6.22 -3.67,0 -6.07,3.07 -6.07,7.35 0,4.07 2.37,6.87 6.35,6.87 2.07,0 3.5,-0.47 4.27,-0.85l-0.4 -1.5zm-8.15 -6.05c0.2,-1.87 1.3,-4.25 3.8,-4.25 2.68,0 3.45,2.4 3.43,4.25l-7.23 0z"/>
  <path id="2" class="fil3" d="M153.93 710.18c-0.67,0.3 -1.6,0.67 -2.95,0.67 -2.75,0 -4.72,-2.07 -4.72,-5.37 0,-2.93 1.65,-5.45 4.8,-5.45 1.32,0 2.22,0.37 2.8,0.7l0.52 -1.68c-0.52,-0.27 -1.75,-0.72 -3.27,-0.72 -4.2,0 -6.98,3.07 -6.98,7.27 0,4.18 2.58,6.95 6.48,6.95 1.75,0 3.1,-0.47 3.7,-0.77l-0.38 -1.6z"/>
  <path id="3" class="fil3" d="M162.58 698.33c-3.47,0 -6.37,2.57 -6.37,7.22 0,4.4 2.7,7.03 6.2,7.03 3.02,0 6.37,-2.15 6.37,-7.23 0,-4.17 -2.47,-7.02 -6.2,-7.02zm4.08 7.1c0,3.07 -1.73,5.52 -4.2,5.52 -2.45,0 -4.13,-2.45 -4.13,-5.47 0,-2.63 1.23,-5.53 4.18,-5.53 2.97,0 4.15,3.05 4.15,5.48z"/>
  <path id="4" class="fil3" d="M178.16 698.43c-0.23,-0.03 -0.4,-0.08 -0.63,-0.08 -1.67,0 -3.1,1.23 -3.7,2.93l-0.07 0 -0.1 -2.63 -1.83 0c0.08,1.3 0.1,2.63 0.1,4.08l0 9.55 2.08 0 0 -7.4c0,-2.3 1.15,-4.53 3.4,-4.53 0.3,0 0.52,0.03 0.75,0.05l0 -1.97z"/>
  <path id="5" class="fil3" d="M191.58 692.28l-2.07 0 0 8.17 -0.05 0c-0.63,-1.12 -1.98,-2.1 -3.98,-2.1 -3.17,0 -5.87,2.7 -5.87,7.3 0,4.2 2.45,6.93 5.6,6.93 2.2,0 3.75,-1.2 4.45,-2.63l0.07 0 0.1 2.33 1.85 0c-0.05,-0.93 -0.1,-2.28 -0.1,-3.38l0 -16.62zm-2.07 14.45c0,2.17 -1.5,4.15 -3.75,4.15 -2.68,0 -4.03,-2.45 -4.03,-5.33 0,-3.12 1.53,-5.52 4.1,-5.52 1.75,0 3.68,1.35 3.68,4.07l0 2.63z"/>
  <path id="6" class="fil3" d="M198.08 694.83c0,-0.78 -0.52,-1.4 -1.35,-1.4 -0.8,0 -1.37,0.62 -1.37,1.4 0,0.8 0.55,1.42 1.35,1.42 0.8,0 1.37,-0.55 1.37,-1.42zm-0.32 3.82l-2.08 0 0 13.63 2.08 0 0 -13.63z"/>
  <path id="7" class="fil3" d="M212.78 703.98c0,-4.63 -2.9,-5.65 -4.6,-5.65 -2.12,0 -3.7,1.2 -4.37,2.52l-0.05 0 -0.13 -2.2 -1.85 0c0.05,1.1 0.1,2.12 0.1,3.52l0 10.11 2.08 0 0 -8.34c0,-2.39 1.8,-3.89 3.57,-3.89 2.38,0 3.18,1.95 3.18,4.18l0 8.05 2.07 0 0 -8.3z"/>
  <path id="8" class="fil3" d="M226.01 698.65l-0.1 2.03 -0.05 0c-0.58,-1.1 -1.8,-2.35 -4.13,-2.35 -2.95,0 -5.9,2.5 -5.9,7.23 0,3.84 2.33,6.72 5.58,6.72 2.07,0 3.52,-1.05 4.22,-2.33l0.05 0 0 1.63c0,3.58 -1.82,4.9 -4.32,4.9 -1.63,0 -2.95,-0.5 -3.83,-1.02l-0.55 1.62c1.03,0.7 2.73,1.07 4.28,1.07 6.45,0 6.5,-5.43 6.5,-7.8l0 -7.97c0,-1.65 0.05,-2.75 0.12,-3.73l-1.87 0zm-0.35 7.98c0,2.82 -2.1,4 -3.65,4 -2.65,0 -4.05,-2.28 -4.05,-5.18 0,-3.32 1.67,-5.45 4.07,-5.45 1.9,0 3.63,1.51 3.63,3.88l0 2.75z"/>
  <polygon id="9" class="fil3" points="239.83,712.28 239.83,703.48 246.76,703.48 246.76,701.75 239.83,701.75 239.83,694.98 247.36,694.98 247.36,693.23 237.76,693.23 237.76,712.28 "/>
  <path id="10" class="fil3" d="M253.06 694.83c0,-0.78 -0.53,-1.4 -1.35,-1.4 -0.8,0 -1.37,0.62 -1.37,1.4 0,0.8 0.54,1.42 1.35,1.42 0.79,0 1.37,-0.55 1.37,-1.42zm-0.32 3.82l-2.08 0 0 13.63 2.08 0 0 -13.63z"/>
  <polygon id="11" class="fil3" points="258.93,692.28 256.86,692.28 256.86,712.28 258.93,712.28 "/>
  <path id="12" class="fil3" d="M272.31 710.2c-0.85,0.35 -1.88,0.7 -3.58,0.7 -2.45,0 -4.6,-1.42 -4.62,-5.2l9.27 0c0.03,-0.32 0.05,-0.67 0.05,-1.15 0,-2.37 -1.07,-6.22 -5.27,-6.22 -3.68,0 -6.08,3.07 -6.08,7.35 0,4.07 2.38,6.87 6.35,6.87 2.08,0 3.5,-0.47 4.28,-0.85l-0.4 -1.5zm-8.15 -6.05c0.2,-1.87 1.3,-4.25 3.8,-4.25 2.67,0 3.45,2.4 3.42,4.25l-7.22 0z"/>
  <path id="13" class="fil3" d="M283.51 699.15c-0.73,-0.45 -1.83,-0.82 -3.13,-0.82 -2.75,0 -4.45,1.75 -4.45,3.87 0,1.65 1.18,2.93 3.48,3.85 1.8,0.73 2.52,1.43 2.52,2.7 0,1.23 -0.9,2.2 -2.72,2.2 -1.18,0 -2.35,-0.5 -3.08,-0.92l-0.57 1.6c0.92,0.55 2.22,0.92 3.57,0.92 2.98,0 4.83,-1.6 4.83,-4.02 0,-2.05 -1.28,-3.2 -3.48,-4.1 -1.75,-0.75 -2.52,-1.3 -2.52,-2.48 0,-1.1 0.8,-2.02 2.3,-2.02 1.22,0 2.15,0.47 2.65,0.8l0.6 -1.58z"/>
  <path class="fil6 str1" d="M190 395.83c-0.6,3.43 -4.73,4.58 -7.08,1.94 -0.19,-0.22 -0.27,-0.33 -0.41,-0.57 0,-0.01 -0.13,-0.26 -0.15,-0.3l-0.14 -0.33c-0.27,-0.74 -0.36,-1.85 -0.03,-2.7 1.85,-4.73 8.62,-2.68 7.81,1.96zm-8.03 -12.88c0,-0.64 0.2,-1.25 0.39,-1.68 0.13,-0.28 0.2,-0.42 0.39,-0.62 3.12,-3.44 7.29,-1.01 7.29,2.42 0,5.15 -8.07,5.34 -8.07,-0.12zm36.59 -42.72c0.89,0.44 8.58,0.2 10.3,0.21 6.06,0.02 5.83,-0.68 5.83,2.05l-0.04 12.99c0,2.56 0.14,8.29 0.04,10.39 -0.06,1.17 -0.66,0.9 -1.74,0.9l-33.86 0c-0.97,0 -4.44,0.23 -4.83,-0.31 -0.27,-0.38 -0.13,-30.99 -0.13,-36.4 0,-1.42 -0.17,-3.8 0,-5.1 0.12,-0.91 0.87,-0.82 1.77,-0.8l7.75 0.06c3.91,0 9.09,0.07 12.88,-0.05 0.91,-0.02 1.74,-0.14 1.91,0.69 0.26,1.3 -0.37,13.58 0.12,15.37zm-28.5 -17.46l0 38.75c0,1.74 -1.01,1.17 -4.42,1.17 -2.79,0 -4.9,-0.06 -7.37,1.35 -5.5,3.16 -4.46,9.37 -4.45,15.04l-0.01 19.49c0.02,4.74 -0.79,9.52 1.62,13.01 0.42,0.61 0.59,0.72 1.11,1.26 1.19,1.26 3.05,2.17 4.91,2.5 1.36,0.24 3.2,0.15 4.76,0.15l60.81 0c2.13,0 4.17,-0.41 5.89,-1.52 0.47,-0.3 1.34,-0.94 1.69,-1.39 1.19,-1.52 1.83,-2.61 2.22,-4.63 0.39,-2.01 0.17,-16.1 0.21,-19.41l0 -14.71c0,-2.65 -0.09,-4.45 -1.1,-6.28 -0.75,-1.36 -1.79,-2.77 -3.8,-3.77 -3.23,-1.62 -8.46,-1.03 -12.12,-1.03 -1.48,0 -1.28,-1.09 -1.28,-2.37l0.03 -15.96c0,-1.69 0.1,-3.69 0,-5.35 -0.07,-1.16 -1.2,-2.07 -2.26,-3.04 -0.94,-0.86 -1.83,-1.76 -2.71,-2.65 -0.85,-0.87 -1.85,-1.85 -2.72,-2.68 -2.04,-1.96 -4.6,-4.78 -6.58,-6.61l-2.7 -2.7c-0.35,-0.38 -1.04,-1.11 -1.51,-1.23 -0.52,-0.12 -26.07,-0.07 -29.28,-0.07 -0.8,0 -0.94,0.12 -0.97,0.85 -0.02,0.59 0.03,1.24 0.03,1.83z"/>
  <path class="fil6 str1" d="M157.57 402.22c0,3.16 -0.04,6.14 3.3,7.02 1.01,0.26 4.83,0.18 5.98,0.16 1.52,-0.02 3.03,-0.47 3.91,-1.55 1.7,-2.09 1.06,-6.46 1.06,-9.74 0,-0.62 0.1,-22.46 -0.05,-23.36 -0.05,-0.32 -0.11,-0.58 -0.19,-0.83 -0.68,-2.14 -2.35,-3.09 -5.09,-3.09 -2.31,0 -5.19,-0.34 -6.9,0.78 -1.96,1.27 -2.02,3.18 -2.02,5.64l0 4.45c0.09,6.68 0,13.78 0,20.52z"/>
  <path class="fil5" d="M219.95 346.48l-18.12 0c-1.63,0 -2.86,-0.05 -3.48,1.32 -0.57,1.25 0.2,2.46 1.71,2.72 0.94,0.16 8.18,0.08 9.65,0.06 2.14,-0.02 10.49,0.3 11.77,-0.3l0.52 -0.39c0.02,-0.01 0.04,-0.04 0.06,-0.06 0.24,-0.28 0.35,-0.47 0.41,-0.97 0.22,-1.66 -1.08,-2.38 -2.52,-2.38z"/>
  <path class="fil5" d="M220.18 354.6l-18.81 0c-1.38,0 -2.51,0.04 -3.04,1.26 -0.69,1.61 0.59,2.61 1.81,2.8 0.93,0.14 17.75,0.02 19.37,0.03 1.27,0.02 2.42,-0.14 2.9,-1.32 0.57,-1.42 -0.65,-2.77 -2.23,-2.77z"/>
  <g id="_2088089618176">
   <path class="fil5" d="M391.25 192.26l-0.01 -18.41 -1.72 0.19c0.04,-5.05 0.16,-8.5 2.25,-13.13 0.41,-0.9 1.31,-2.78 1.87,-3.38 3.35,0.22 3.28,-1.1 6.15,-3.39 0.45,-0.36 0.7,-0.57 1.1,-0.86 9.61,-6.96 22.24,-6.22 31.3,1.72 2.23,1.95 2.2,2.71 5.18,2.53 1.16,1.25 2.65,5.24 3.18,7.05 0.95,3.26 0.92,6.07 0.94,9.5l-1.68 -0.29 -0.04 18.47 1.56 -0.13c-0.01,4.21 -0.15,7.4 -4.21,10.08 -1.76,1.17 -3.4,1.49 -5.77,1.49 -2.09,-0.01 -5.22,0.18 -7.18,-0.04l-0.01 -1.19 -9.73 -0.01 -0.03 3.8 9.75 0 0.02 -1.19c3.62,-0.33 8.2,0.56 11.52,-0.62 2.9,-1.04 5.18,-3.27 6.27,-6.05 0.73,-1.85 0.73,-3.29 0.73,-5.37 -0.01,-1.75 -0.13,-1.23 0.83,-2.24 0.62,-0.66 0.86,-0.82 1.31,-1.83 0.67,-1.5 0.67,-9.96 0.08,-11.58 -0.46,-1.24 -0.92,-1.46 -1.18,-1.83 -0.39,-0.56 -0.18,-1.99 -0.18,-2.81 0,-7.95 -1.78,-13.42 -6.65,-19.44 -0.26,-0.33 -0.49,-0.48 -0.76,-0.8 -2.32,-2.75 -5.71,-4.96 -8.91,-6.55 -9.02,-4.47 -20.67,-2.84 -28.6,3.1l-3.28 2.88c-0.95,1.06 -1.88,2.05 -2.77,3.38 -1.86,2.77 -3.01,4.99 -4.01,8.3 -1.27,4.2 -0.93,6.93 -1.1,11.23 -0.02,0.67 -0.1,0.61 -0.44,0.97 -1.9,2.02 -1.28,6.4 -1.29,9.63 0,2.77 0.53,5.02 2.96,6.25 0.71,0.35 1.67,0.67 2.55,0.57z"/>
   <path class="fil6 str2" d="M375.97 138.35l76.15 0c4.43,0 8.06,3.63 8.06,8.06l0 57.15c0,4.43 -3.63,8.07 -8.06,8.07 -3.94,0 -7.87,0 -11.81,0 -3.6,-0.03 -3.72,-0.7 -2,2.28 1.56,2.7 3.12,5.4 4.68,8.1 3.77,6.53 3.53,8.05 -3.12,4.2 -6.51,-3.76 -11.62,-8.81 -18.24,-12.55 -2.98,-1.7 -6.21,-2.03 -9.65,-2.03l-36.01 0c-4.44,0 -8.07,-3.64 -8.07,-8.07l0 -57.15c0,-4.43 3.63,-8.06 8.07,-8.06z"/>
  </g>
  <path class="fil6 str2" d="M164.6 678.83l72.07 0m0.18 0l0.93 0m-73.27 -36.04c9.95,0 18.01,8.07 18.01,18.02 0,7.79 -4.93,14.42 -11.85,16.94 -1.9,0.69 -3.94,1.07 -6.07,1.08l-0.09 0c-9.96,0 -18.02,-8.07 -18.02,-18.02 0,-9.95 8.06,-18.02 18.02,-18.02zm72.25 0c9.95,0 18.02,8.07 18.02,18.02 0,9.77 -7.78,17.72 -17.48,18.01l-0.45 0.01 -0.09 0 -0.09 0c-0.35,0 -0.69,-0.01 -1.03,-0.04 -9.43,-0.58 -16.9,-8.41 -16.9,-17.98 0,-9.95 8.07,-18.02 18.02,-18.02z"/>
 </g>
</svg>
